<svg width="24" height="25" viewBox="0 0 24 25" fill="none" xmlns="http://www.w3.org/2000/svg">
<path d="M7.17365 8.79362V7.97468C7.17365 6.78836 6.5692 5.66338 5.5853 4.99815C5.74626 4.68812 5.83734 4.3362 5.83734 3.96337V3.07192C5.72386 0.0878333 1.44872 0.0901316 1.33631 3.07192V3.96337C1.33631 4.3362 1.42739 4.68816 1.58836 4.99815C0.604453 5.66338 0 6.78836 0 7.97468V8.79362C0 9.05262 0.209859 9.26265 0.46875 9.26265H6.7049C6.96379 9.26265 7.17365 9.05266 7.17365 8.79362ZM2.27381 3.07192C2.34005 1.33096 4.83426 1.33227 4.89984 3.07192V3.96337C4.83365 5.70437 2.33939 5.70301 2.27381 3.96337V3.07192ZM6.23615 8.32458H0.9375V7.97468C0.9375 7.06898 1.41581 6.21107 2.18831 5.72642C2.95476 6.37134 4.21894 6.37129 4.9853 5.72642C5.7578 6.21107 6.23611 7.06898 6.23611 7.97468L6.23615 8.32458Z" fill="#4D4D4D" fill-opacity="0.866667"/>
<path d="M22.4108 4.99812C22.5718 4.68809 22.6629 4.33618 22.6629 3.96334V3.0719C22.5494 0.0878641 18.2743 0.0901153 18.1619 3.0719V3.96334C18.1619 4.33618 18.253 4.68814 18.4139 4.99812C17.4301 5.66335 16.8256 6.78833 16.8256 7.97465V8.79358C16.8256 9.05258 17.0354 9.26262 17.2943 9.26262H19.9436V14.5442L16.2303 16.6894L15.9438 16.1929C15.8244 15.9859 15.5686 15.9019 15.3498 15.9978L14.4705 16.3833C14.2048 16.183 13.9178 16.0169 13.6127 15.8869L13.5067 14.9331C13.4803 14.6956 13.2797 14.5159 13.0408 14.5159H12.4679V9.26262H15.1172C15.3761 9.26262 15.586 9.05258 15.586 8.79358V7.97465C15.586 6.78833 14.9815 5.66335 13.9976 4.99812C14.1586 4.68809 14.2496 4.33618 14.2496 3.96334V3.0719C14.1362 0.0878641 9.86103 0.0901153 9.74863 3.0719V3.96334C9.74863 4.33618 9.8397 4.68814 10.0007 4.99812C9.01681 5.66335 8.41232 6.78833 8.41232 7.97465V8.79358C8.41232 9.05258 8.62218 9.26262 8.88107 9.26262H11.5304V14.5159H10.9575C10.7186 14.5159 10.518 14.6956 10.4916 14.9331L10.3857 15.8869C10.0805 16.0169 9.79363 16.183 9.52785 16.3833L8.64857 15.9978C8.42971 15.9018 8.17391 15.9859 8.05452 16.1929L7.76807 16.6894L4.05469 14.5442V13.0149C4.03162 12.3933 3.14002 12.3937 3.11719 13.0149V14.815C3.11719 14.9825 3.20653 15.1374 3.35156 15.2212L7.29932 17.5018L7.01287 17.9982C6.89343 18.2052 6.94865 18.4689 7.14102 18.6105L7.91427 19.1798C7.87471 19.5085 7.87466 19.8419 7.91432 20.1708L7.14102 20.74C6.94865 20.8817 6.89343 21.1454 7.01287 21.3524L8.05447 23.1576C8.17386 23.3646 8.42971 23.4486 8.64852 23.3527L9.52775 22.9672C9.79339 23.1676 10.0805 23.3336 10.3857 23.4637L10.4916 24.4174C10.518 24.655 10.7186 24.8347 10.9575 24.8347H13.0407C13.2796 24.8347 13.4802 24.655 13.5066 24.4174L13.6126 23.4637C13.9176 23.3336 14.2046 23.1676 14.4704 22.9672L15.3497 23.3527C15.5685 23.4486 15.8243 23.3646 15.9437 23.1576L16.9854 21.3524C17.1048 21.1454 17.0496 20.8817 16.8572 20.74L16.084 20.1708C16.1236 19.842 16.1235 19.5086 16.084 19.1798L16.8572 18.6105C17.0496 18.4689 17.1048 18.2052 16.9854 17.9982L16.6989 17.5018L20.6467 15.2212C20.7917 15.1374 20.881 14.9825 20.881 14.815V9.26262H23.5304C23.7893 9.26262 23.9991 9.05258 23.9991 8.79358V7.97465C23.9992 6.78833 23.3947 5.66335 22.4108 4.99812ZM10.6862 3.0719C10.6862 2.34748 11.2752 1.75809 11.9992 1.75809C12.7232 1.75809 13.3122 2.34743 13.3122 3.0719V3.96334C13.246 5.7043 10.7517 5.70298 10.6862 3.96334V3.0719ZM9.34986 7.97465C9.34986 7.06895 9.82817 6.21104 10.6007 5.72639C11.3671 6.37131 12.6313 6.37126 13.3976 5.72639C14.1701 6.21104 14.6485 7.06895 14.6485 7.97465V8.32455H9.34986V7.97465ZM15.1168 19.0608C15.1959 19.4642 15.1959 19.8863 15.1168 20.2897C15.082 20.4678 15.153 20.65 15.2991 20.7575L15.9637 21.2468L15.3416 22.325L14.5852 21.9934C14.4188 21.9204 14.2254 21.9502 14.0887 22.0698C13.7752 22.3439 13.4179 22.5506 13.0267 22.6844C12.8549 22.7431 12.7324 22.8959 12.7123 23.0764L12.6213 23.8966H11.3771L11.286 23.0764C11.266 22.8959 11.1435 22.7431 10.9717 22.6844C10.5802 22.5506 10.2229 22.3438 9.90973 22.0698C9.77295 21.9502 9.5795 21.9204 9.41309 21.9934L8.65668 22.325L8.0346 21.2468L8.69933 20.7575C8.84544 20.6499 8.91641 20.4677 8.88158 20.2896C8.80236 19.8859 8.80241 19.4643 8.88153 19.0609C8.91636 18.8827 8.84539 18.7005 8.69928 18.5929L8.0346 18.1037L8.65668 17.0255L9.41309 17.3571C9.57945 17.4302 9.77291 17.4003 9.90964 17.2807C10.223 17.0067 10.5803 16.7999 10.9716 16.6662C11.1434 16.6074 11.2659 16.4547 11.286 16.2741L11.3771 15.4539H12.6213L12.7123 16.2741C12.7324 16.4547 12.8549 16.6074 13.0267 16.6662C13.418 16.7999 13.7753 17.0067 14.0886 17.2807C14.2254 17.4002 14.4188 17.4301 14.5852 17.3571L15.3416 17.0255L15.9637 18.1037L15.2991 18.5929C15.153 18.7004 15.0821 18.8827 15.1168 19.0608ZM19.0994 3.0719C19.0994 2.34748 19.6884 1.75809 20.4124 1.75809C21.1364 1.75809 21.7254 2.34743 21.7254 3.0719V3.96334C21.6592 5.7043 19.1649 5.70298 19.0994 3.96334V3.0719ZM23.0617 8.32455H17.7631V7.97465C17.7631 7.06895 18.2414 6.21104 19.0139 5.72639C19.7803 6.37131 21.0445 6.37126 21.8108 5.72639C22.5833 6.21104 23.0617 7.06895 23.0617 7.97465V8.32455Z" fill="#4D4D4D" fill-opacity="0.866667"/>
<path d="M11.9993 17.9036C11.0229 17.9036 10.2285 18.6984 10.2285 19.6755C10.3175 22.0229 13.6815 22.0222 13.7702 19.6755C13.7702 18.6984 12.9758 17.9036 11.9993 17.9036ZM11.9993 20.5093C11.5398 20.5093 11.166 20.1353 11.166 19.6755C11.2079 18.5708 12.7909 18.5711 12.8327 19.6755C12.8327 20.1353 12.4588 20.5093 11.9993 20.5093Z" fill="#4D4D4D" fill-opacity="0.866667"/>
<path d="M3.11719 10.9044C3.14025 11.5261 4.03186 11.5256 4.05469 10.9044V10.9041C4.03158 10.2825 3.13997 10.2833 3.11719 10.9044Z" fill="#4D4D4D" fill-opacity="0.866667"/>
</svg>
