<svg width="24" height="25" viewBox="0 0 24 25" fill="none" xmlns="http://www.w3.org/2000/svg">
<path d="M23.5957 5.63146H22.688C22.4681 5.63146 22.2882 5.81145 22.2882 6.03144C22.2882 6.25143 22.4681 6.43143 22.688 6.43143H23.1959V24.0307H2.80302C1.6994 24.0307 0.803718 23.1348 0.803718 22.0308V21.9668C0.839706 20.8988 1.77938 20.0309 2.90298 20.0309H5.20218C5.4221 20.0309 5.60204 19.8509 5.60204 19.6309V6.43143H14.9108C15.1307 6.43143 15.3106 6.25143 15.3106 6.03144C15.3106 5.81145 15.1307 5.63146 14.9108 5.63146H5.57005C5.48208 5.01948 5.20218 4.45951 4.75033 4.02352C4.20253 3.49154 3.47878 3.21156 2.71505 3.23556C1.21957 3.27955 0 4.5835 0 6.13544V22.0348C0 23.5787 1.25556 24.8347 2.79902 24.8347H23.5917C23.8116 24.8347 23.9916 24.6547 23.9916 24.4347V6.03144C23.9916 5.81145 23.8116 5.63146 23.5917 5.63146H23.5957ZM0.803718 6.13144C0.803718 5.00748 1.67541 4.06352 2.74304 4.03152H2.80302C3.32683 4.03152 3.81866 4.23152 4.19453 4.5955C4.58639 4.97549 4.80232 5.48746 4.80232 6.03144V19.2309H2.90298C2.08327 19.2309 1.33553 19.5709 0.803718 20.1109V6.13144Z" fill="#4D4D4D"/>
<path d="M20.3967 14.8314C20.3967 14.3914 20.0368 14.0314 19.597 14.0314H19.1971V12.4315C19.1971 11.5475 18.4813 10.8315 17.5977 10.8315H11.5998V10.4316C11.5998 9.99158 11.2399 9.63159 10.8 9.63159H9.2006C8.76075 9.63159 8.40088 9.99158 8.40088 10.4316V12.0315C8.40088 12.4715 8.76075 12.8315 9.2006 12.8315H10.8C11.2399 12.8315 11.5998 12.4715 11.5998 12.0315V11.6315H17.5977C18.0375 11.6315 18.3974 11.9915 18.3974 12.4315V14.0314H17.9975C17.5577 14.0314 17.1978 14.3914 17.1978 14.8314V15.2314H11.1999C10.3162 15.2314 9.60046 15.9473 9.60046 16.8313V19.2312H9.2006C8.76075 19.2312 8.40088 19.5912 8.40088 20.0312V21.6311C8.40088 22.0711 8.76075 22.4311 9.2006 22.4311H10.8C11.2399 22.4311 11.5998 22.0711 11.5998 21.6311V20.0312C11.5998 19.5912 11.2399 19.2312 10.8 19.2312H10.4002V16.8313C10.4002 16.3913 10.7601 16.0313 11.1999 16.0313H17.1978V16.4313C17.1978 16.8713 17.5577 17.2313 17.9975 17.2313H19.597C20.0368 17.2313 20.3967 16.8713 20.3967 16.4313V14.8314ZM9.2006 12.0315V10.4316H10.8V11.2315V12.0315H9.2006ZM10.8 21.6311H9.2006V20.0312H10.8V21.6311ZM17.9975 16.4313V14.8314H19.597V16.4313H17.9975Z" fill="#4D4D4D"/>
<path d="M14.7979 19.2311H17.9977C18.2177 19.2311 18.3977 19.0511 18.3977 18.8311C18.3977 18.6111 18.2177 18.4312 17.9977 18.4312H14.7979C14.5779 18.4312 14.3979 18.6111 14.3979 18.8311C14.3979 19.0511 14.5779 19.2311 14.7979 19.2311Z" fill="#4D4D4D"/>
<path d="M19.9959 20.031H14.7977C14.5778 20.031 14.3979 20.211 14.3979 20.431C14.3979 20.651 14.5778 20.831 14.7977 20.831H19.9959C20.2158 20.831 20.3958 20.651 20.3958 20.431C20.3958 20.211 20.2158 20.031 19.9959 20.031Z" fill="#4D4D4D"/>
<path d="M19.9959 21.6313H14.7977C14.5778 21.6313 14.3979 21.8113 14.3979 22.0313C14.3979 22.2513 14.5778 22.4313 14.7977 22.4313H19.9959C20.2158 22.4313 20.3958 22.2513 20.3958 22.0313C20.3958 21.8113 20.2158 21.6313 19.9959 21.6313Z" fill="#4D4D4D"/>
<path d="M15.3158 9.51537C15.3918 9.59137 15.4917 9.63137 15.5997 9.63137C15.6197 9.63137 15.6357 9.63137 15.6557 9.62737L17.555 9.35538C17.639 9.34338 17.7189 9.30338 17.7829 9.24338L23.8808 3.14362C24.0367 2.98763 24.0367 2.73564 23.8808 2.57965L22.2534 0.951712C22.0974 0.795718 21.8455 0.795718 21.6896 0.951712L15.5917 7.05147C15.5317 7.11147 15.4917 7.19146 15.4797 7.27946L15.2078 9.17938C15.1918 9.30338 15.2318 9.43137 15.3198 9.51937L15.3158 9.51537ZM16.2475 7.52345L21.9695 1.79968L23.0331 2.86364L17.3111 8.58741L16.0715 8.7634L16.2475 7.52345Z" fill="#4D4D4D"/>
</svg>
