<svg width="20" height="20" viewBox="0 0 20 20" fill="none" xmlns="http://www.w3.org/2000/svg">
<path d="M17.6008 8.42209C17.527 8.28271 17.527 8.11626 17.6008 7.97692L17.8469 7.51189C18.2257 6.7964 18.0199 5.89464 17.3682 5.41434L16.9447 5.10217C16.8177 5.00859 16.7455 4.85866 16.7515 4.70115L16.7716 4.17532C16.8023 3.3664 16.2256 2.64325 15.4301 2.49324L14.9131 2.39575C14.7581 2.36653 14.628 2.26278 14.5651 2.11821L14.355 1.63579C14.0317 0.893614 13.1984 0.492202 12.4165 0.702305L11.9084 0.838831C11.7562 0.879703 11.5938 0.8427 11.4744 0.739778L11.0758 0.396274C10.4626 -0.132091 9.53766 -0.132091 8.92439 0.396274L8.52575 0.739778C8.4063 0.8427 8.2441 0.879703 8.09183 0.838831L7.58366 0.702305C6.80174 0.49228 5.96852 0.893614 5.64525 1.63579L5.43511 2.11825C5.37216 2.26278 5.24208 2.36653 5.08711 2.39575L4.57004 2.49324C3.77452 2.64325 3.19782 3.3664 3.22862 4.17532L3.24862 4.70115C3.25464 4.8587 3.18243 5.00863 3.05552 5.10217L2.63195 5.41437C1.9803 5.89468 1.7745 6.79644 2.15321 7.51193L2.39938 7.97696C2.47315 8.1163 2.47315 8.28271 2.39938 8.42209L2.15321 8.88712C1.7745 9.60257 1.9803 10.5043 2.63195 10.9847L3.05548 11.2968C3.18243 11.3904 3.2546 11.5403 3.24858 11.6979L3.22858 12.2237C3.19779 13.0327 3.77449 13.7558 4.57 13.9058L4.84126 13.957L4.88131 15.2095L7.77282 16.6787L9.027 16.0838C9.31458 16.2938 9.65727 16.3991 10.0001 16.3991C10.3376 16.3991 10.6751 16.2972 10.96 16.0936L11.9929 16.7959L14.8844 15.3208L15.142 13.9601L15.4302 13.9058C16.2257 13.7558 16.8024 13.0326 16.7716 12.2236L16.7516 11.6979C16.7456 11.5403 16.8177 11.3904 16.9447 11.2968L17.3682 10.9847C18.0199 10.5044 18.2257 9.60261 17.847 8.88712L17.6008 8.42209Z" fill="url(#paint0_linear_1_390)"/>
<path d="M15.275 8.19937C15.275 5.29071 12.9086 2.92432 9.99996 2.92432C7.09129 2.92432 4.7249 5.29071 4.7249 8.19937C4.7249 11.108 7.09129 13.4744 9.99996 13.4744C12.9086 13.4744 15.275 11.108 15.275 8.19937ZM12.6388 7.89459L11.7446 8.76622L11.9557 9.99699C11.9934 10.2169 11.903 10.4391 11.7225 10.5703C11.5436 10.7002 11.3045 10.7196 11.1052 10.6149L9.99992 10.0338L8.89462 10.6149C8.69714 10.7187 8.45788 10.7014 8.27736 10.5703C8.09688 10.4391 8.00646 10.2169 8.0442 9.99699L8.25528 8.76622L7.36106 7.89459C7.20133 7.73888 7.14381 7.50596 7.21278 7.29378C7.2817 7.08161 7.46512 6.92695 7.68593 6.89487L8.9217 6.71532L9.47433 5.59553C9.57307 5.39546 9.77684 5.26879 9.99992 5.26879C10.223 5.26879 10.4268 5.39543 10.5255 5.59549L11.0782 6.71528L12.3139 6.89483C12.5347 6.92691 12.7181 7.08157 12.7871 7.29374C12.856 7.50592 12.7986 7.73888 12.6388 7.89459ZM8.52564 15.6591C8.40623 15.5562 8.24399 15.5192 8.09168 15.56L7.58351 15.6965C6.80163 15.9066 5.96837 15.5052 5.64511 14.763L5.435 14.2807C5.37202 14.136 5.24194 14.0323 5.08697 14.0031L4.84115 13.9567L2.973 17.3325C2.86926 17.52 2.8761 17.7491 2.99078 17.93C3.10546 18.111 3.3099 18.2151 3.52356 18.2012L5.23912 18.0906L6.00393 19.6693C6.09954 19.8666 6.29734 19.9941 6.51659 19.9997C6.52155 19.9998 6.52651 19.9999 6.53147 19.9999C6.74502 19.9999 6.94219 19.8835 7.04526 19.6957L9.02689 16.0836C8.99188 16.0581 8.95753 16.0312 8.92424 16.0025L8.52564 15.6591ZM17.0082 17.3325L15.1419 13.9599L14.9129 14.0031C14.758 14.0323 14.6279 14.136 14.565 14.2806L14.3548 14.763C14.0894 15.3724 13.4799 15.752 12.8376 15.7521C12.6977 15.7521 12.5563 15.7341 12.4164 15.6965L11.9083 15.56C11.756 15.5192 11.5937 15.5562 11.4744 15.6591L11.0757 16.0025C11.0382 16.0349 10.9996 16.0651 10.9599 16.0934L12.936 19.6956C13.0391 19.8836 13.2363 19.9999 13.4498 19.9999C13.4548 19.9999 13.4598 19.9998 13.4647 19.9997C13.6839 19.9941 13.8817 19.8667 13.9774 19.6693L14.7422 18.0906L16.4577 18.2012C16.6709 18.2152 16.8758 18.1111 16.9905 17.9301C17.1051 17.7491 17.112 17.52 17.0082 17.3325Z" fill="url(#paint1_linear_1_390)"/>
<defs>
<linearGradient id="paint0_linear_1_390" x1="9.99999" y1="16.7959" x2="9.99999" y2="-2.00223e-05" gradientUnits="userSpaceOnUse">
<stop stop-color="#FD5900"/>
<stop offset="1" stop-color="#FFDE00"/>
</linearGradient>
<linearGradient id="paint1_linear_1_390" x1="9.99062" y1="19.9999" x2="9.99062" y2="2.92432" gradientUnits="userSpaceOnUse">
<stop stop-color="#FFE59A"/>
<stop offset="1" stop-color="#FFFFD5"/>
</linearGradient>
</defs>
</svg>
