<svg width="24" height="25" viewBox="0 0 24 25" fill="none" xmlns="http://www.w3.org/2000/svg">
<path d="M20.1289 13.2219H22.4515V13.9961H20.1289V13.2219Z" fill="#4D4D4D"/>
<path d="M20.1289 11.6736H22.4515V12.4478H20.1289V11.6736Z" fill="#4D4D4D"/>
<path d="M20.1289 19.4153H22.4515V20.1895H20.1289V19.4153Z" fill="#4D4D4D"/>
<path d="M20.1289 17.8669H22.4515V18.6411H20.1289V17.8669Z" fill="#4D4D4D"/>
<path d="M23.2258 9.35085C23.6528 9.35085 24 9.00362 24 8.57665V4.70568C24 4.27872 23.6528 3.93149 23.2258 3.93149H21.6774V2.7702C21.6774 2.12994 21.1564 1.60891 20.5161 1.60891H13.8643C13.704 1.15949 13.2782 0.834717 12.7742 0.834717C12.2702 0.834717 11.8444 1.15949 11.6841 1.60891H5.03226C4.392 1.60891 3.87097 2.12994 3.87097 2.7702V4.71227C1.43961 4.78001 0 5.48956 0 6.64117V19.0283C0 20.1799 1.43961 20.8894 3.87097 20.9572V22.8992C3.87097 23.5395 4.392 24.0605 5.03226 24.0605H11.6841C11.8444 24.5099 12.2702 24.8347 12.7742 24.8347C13.2782 24.8347 13.704 24.5099 13.8643 24.0605H20.5161C21.1564 24.0605 21.6774 23.5395 21.6774 22.8992V21.7379H23.2258C23.6528 21.7379 24 21.3907 24 20.9637V17.0928C24 16.6658 23.6528 16.3186 23.2258 16.3186H21.6774V15.5444H23.2258C23.6528 15.5444 24 15.1972 24 14.7702V10.8992C24 10.4723 23.6528 10.125 23.2258 10.125H21.6774V9.35085H23.2258ZM23.2262 8.57665H19.3548V4.70568H23.2258L23.2262 8.57665ZM12.7742 1.60891C12.9879 1.60891 13.1613 1.78272 13.1613 1.99601C13.1613 2.2093 12.9879 2.3831 12.7742 2.3831C12.5605 2.3831 12.3871 2.2093 12.3871 1.99601C12.3871 1.78272 12.5605 1.60891 12.7742 1.60891ZM3.87097 5.48607V7.02826H4.64516V5.48607C6.67935 5.54801 7.74194 6.09768 7.74194 6.64117C7.74194 7.21833 6.54503 7.80246 4.25806 7.80246C1.9711 7.80246 0.774194 7.21833 0.774194 6.64117C0.774194 6.09768 1.83677 5.54839 3.87097 5.48607ZM12.1258 11.5108C12.3116 11.9607 12.6941 12.2847 13.1613 12.4008V13.2659C12.7003 13.3801 12.3124 13.7076 12.1208 14.1706C11.9319 14.6227 11.9721 15.1248 12.221 15.5386L11.609 16.1506C11.2014 15.9048 10.6932 15.863 10.2271 16.0573C9.77729 16.2431 9.45329 16.6256 9.33716 17.0928H8.51613V15.5115C8.64426 15.5301 8.77277 15.5444 8.90323 15.5444C10.397 15.5444 11.6129 14.3285 11.6129 12.8347C11.6129 11.3405 10.397 10.125 8.90323 10.125C8.77277 10.125 8.64387 10.1394 8.51613 10.1579V8.57665H9.33445C9.44864 9.03768 9.77613 9.42556 10.2391 9.61717C10.6916 9.80607 11.1933 9.76581 11.6071 9.51691L12.2191 10.1289C11.9733 10.5369 11.9315 11.0452 12.1258 11.5108ZM8.51613 13.9248C8.63768 13.9681 8.76697 13.996 8.90323 13.996C9.54348 13.996 10.0645 13.475 10.0645 12.8347C10.0645 12.1945 9.54348 11.6734 8.90323 11.6734C8.76697 11.6734 8.63768 11.7013 8.51613 11.7447V10.9422C8.6431 10.9163 8.772 10.8992 8.90323 10.8992C9.97045 10.8992 10.8387 11.7675 10.8387 12.8347C10.8387 13.9019 9.97045 14.7702 8.90323 14.7702C8.772 14.7702 8.6431 14.7532 8.51613 14.7272V13.9248ZM8.90323 12.4476C9.1169 12.4476 9.29032 12.6214 9.29032 12.8347C9.29032 13.048 9.1169 13.2218 8.90323 13.2218C8.68955 13.2218 8.51613 13.048 8.51613 12.8347C8.51613 12.6214 8.68955 12.4476 8.90323 12.4476ZM0.774194 7.86981C1.49342 8.32388 2.68723 8.57665 4.25806 8.57665C5.8289 8.57665 7.02271 8.32388 7.74194 7.86981V9.73794C7.74194 10.3151 6.54503 10.8992 4.25806 10.8992C1.9711 10.8992 0.774194 10.3151 0.774194 9.73794V7.86981ZM0.774194 10.9666C1.49342 11.4207 2.68723 11.6734 4.25806 11.6734C5.8289 11.6734 7.02271 11.4207 7.74194 10.9666V12.8347C7.74194 13.4119 6.54503 13.996 4.25806 13.996C1.9711 13.996 0.774194 13.4119 0.774194 12.8347V10.9666ZM0.774194 14.0634C1.49342 14.5174 2.68723 14.7702 4.25806 14.7702C5.8289 14.7702 7.02271 14.5174 7.74194 14.0634V15.9315C7.74194 16.5087 6.54503 17.0928 4.25806 17.0928C1.9711 17.0928 0.774194 16.5087 0.774194 15.9315V14.0634ZM0.774194 19.0283V17.1601C1.49342 17.6142 2.68723 17.867 4.25806 17.867C5.8289 17.867 7.02271 17.6142 7.74194 17.1601V19.0283C7.74194 19.6054 6.54503 20.1896 4.25806 20.1896C1.9711 20.1896 0.774194 19.6054 0.774194 19.0283ZM12.7742 24.0605C12.5605 24.0605 12.3871 23.8871 12.3871 23.6734C12.3871 23.4597 12.5605 23.2863 12.7742 23.2863C12.9879 23.2863 13.1613 23.4597 13.1613 23.6734C13.1613 23.8871 12.9879 24.0605 12.7742 24.0605ZM23.2266 20.9637H19.3548V17.0928H23.2258L23.2266 20.9637ZM23.2266 14.7702H19.3548V10.8992H23.2258L23.2266 14.7702ZM20.9032 10.125H19.3548C18.9279 10.125 18.5806 10.4723 18.5806 10.8992V14.7702C18.5806 15.1972 18.9279 15.5444 19.3548 15.5444H20.9032V16.3186H19.3548C18.9279 16.3186 18.5806 16.6658 18.5806 17.0928V20.9637C18.5806 21.3907 18.9279 21.7379 19.3548 21.7379H20.9032V22.8992C20.9032 23.1129 20.7298 23.2863 20.5161 23.2863H13.8643C13.704 22.8369 13.2782 22.5121 12.7742 22.5121C12.2702 22.5121 11.8444 22.8369 11.6841 23.2863H5.03226C4.81858 23.2863 4.64516 23.1129 4.64516 22.8992V20.9572C7.07652 20.8894 8.51613 20.1803 8.51613 19.0283V17.867H9.67742L10.0645 17.8449V17.4578C10.0645 17.1567 10.2445 16.8876 10.5379 16.7668C10.8197 16.6488 11.1383 16.7115 11.3671 16.9403L11.6408 17.2139L13.0092 15.8456L13.2674 15.5564L12.9937 15.2827C12.78 15.069 12.7181 14.7501 12.8419 14.4539C12.9565 14.176 13.2252 13.996 13.5484 13.996H13.9355V12.0605L13.9134 11.6734H13.5263C13.2252 11.6734 12.9561 11.4938 12.8354 11.2C12.7177 10.9194 12.7796 10.6 13.0103 10.3693L13.2809 10.0956L11.9141 8.72878L11.6249 8.47059L11.3512 8.74427C11.1375 8.95756 10.8194 9.01988 10.5225 8.89639C10.2445 8.78143 10.0645 8.51239 10.0645 8.18956V7.80246H8.51613V6.64117C8.51613 5.48956 7.07652 4.78001 4.64516 4.71227V2.7702C4.64516 2.55691 4.81858 2.3831 5.03226 2.3831H11.6841C11.8444 2.83252 12.2702 3.1573 12.7742 3.1573C13.2782 3.1573 13.704 2.83252 13.8643 2.3831H20.5161C20.7298 2.3831 20.9032 2.55691 20.9032 2.7702V3.93149H19.3548C18.9279 3.93149 18.5806 4.27872 18.5806 4.70568V8.57665C18.5806 9.00362 18.9279 9.35085 19.3548 9.35085H20.9032V10.125Z" fill="#4D4D4D"/>
<path d="M20.1289 7.02808H22.4515V7.80227H20.1289V7.02808Z" fill="#4D4D4D"/>
<path d="M20.1289 5.47974H22.4515V6.25393H20.1289V5.47974Z" fill="#4D4D4D"/>
</svg>
