<svg width="24" height="25" viewBox="0 0 24 25" fill="none" xmlns="http://www.w3.org/2000/svg">
<path d="M22 4.03472H19.6488C19.6415 3.94372 19.6028 3.85812 19.5396 3.79232L17.8424 2.09472C17.6837 1.94467 17.4355 1.94467 17.2768 2.09472L16.5568 2.81712C16.1295 2.57417 15.6737 2.38497 15.2 2.25392V1.23472C15.2 1.01382 15.0209 0.834717 14.8 0.834717H12.4C12.1791 0.834717 12 1.01382 12 1.23472V2.25392C11.5269 2.38512 11.0719 2.57432 10.6452 2.81712L9.9252 2.09472C9.7665 1.94467 9.5183 1.94467 9.3596 2.09472L7.6604 3.79232C7.5971 3.85812 7.55855 3.94372 7.5512 4.03472H2C0.896 4.03602 0.0013 4.93072 0 6.03472V19.6347C0.0013 20.7387 0.896 21.6334 2 21.6347H9.8876L9.212 24.3379C9.15855 24.5523 9.28895 24.7694 9.5033 24.8228C9.53495 24.8307 9.5674 24.8347 9.6 24.8347H14.4C14.6209 24.8347 14.7999 24.6555 14.7999 24.4346C14.7999 24.402 14.7959 24.3696 14.788 24.3379L14.1124 21.6347H22C23.104 21.6334 23.9987 20.7387 24 19.6347V6.03472C23.9987 4.93072 23.104 4.03602 22 4.03472ZM9.1696 4.73552L8.5088 4.07472L9.64 2.94312L10.3004 3.60432C10.4334 3.73772 10.6416 3.76022 10.8 3.65832C11.3158 3.32642 11.8866 3.08907 12.4856 2.95752C12.6692 2.91732 12.8 2.75467 12.8 2.56672V1.63472H14.4V2.56672C14.4 2.75467 14.5308 2.91732 14.7144 2.95752C15.3134 3.08907 15.8843 3.32642 16.4 3.65832C16.5584 3.76002 16.7663 3.73752 16.8992 3.60432L17.56 2.94312L18.6916 4.07512L18.0308 4.73552C17.8974 4.86837 17.8748 5.07627 17.9764 5.23472C18.3086 5.75047 18.5459 6.32142 18.6772 6.92072C18.7176 7.10417 18.8801 7.23477 19.068 7.23472H20V8.83472H19.068C18.88 8.83467 18.7174 8.96552 18.6772 9.14912C18.5459 9.74827 18.3086 10.3191 17.9764 10.8347C17.875 10.993 17.8974 11.2006 18.0304 11.3335L18.6912 11.9947L17.56 13.1263L16.8996 12.4651C16.7666 12.3317 16.5585 12.3092 16.4 12.4111C15.8843 12.743 15.3134 12.9804 14.7144 13.1119C14.5308 13.1521 14.4 13.3148 14.4 13.5027V14.4347H12.8V13.5027C12.8 13.3148 12.6692 13.1521 12.4856 13.1119C12.0831 13.0224 11.6927 12.8846 11.3232 12.7015L11.464 12.6215C11.6553 12.5111 11.7208 12.2664 11.6104 12.0751L10.4104 9.99512C10.2999 9.80382 10.0553 9.73827 9.864 9.84872L9.1904 10.2375C9.06515 10.1541 8.93475 10.0786 8.8 10.0115V9.23472C8.8 9.01382 8.6209 8.83472 8.4 8.83472H7.2V7.23472H8.132C8.31995 7.23477 8.4826 7.10392 8.5228 6.92032C8.6541 6.32117 8.89145 5.75032 9.2236 5.23472C9.3253 5.07632 9.3028 4.86847 9.1696 4.73552ZM9.9696 12.8471C10.0101 13.1042 10.0101 13.366 9.9696 13.6231C9.94785 13.784 10.0255 13.942 10.166 14.0231L10.7176 14.3431L9.9176 15.7279L9.3664 15.4103C9.22525 15.3289 9.04885 15.3413 8.9204 15.4415C8.71575 15.6013 8.49005 15.732 8.2496 15.8299C8.09865 15.8912 7.99995 16.0378 8 16.2007V16.8347H6.4V16.1999C6.40005 16.037 6.30135 15.8904 6.1504 15.8291C5.90995 15.7312 5.68425 15.6005 5.4796 15.4407C5.35115 15.3405 5.17475 15.3281 5.0336 15.4095L4.4824 15.7271L3.6824 14.3423L4.234 14.0223C4.37455 13.9412 4.45215 13.7832 4.4304 13.6223C4.38985 13.3652 4.38985 13.1034 4.4304 12.8463C4.45215 12.6855 4.37455 12.5275 4.234 12.4463L3.6824 12.1263L4.4824 10.7415L5.0336 11.0591C5.17475 11.1405 5.35115 11.1282 5.4796 11.0279C5.68425 10.8682 5.90995 10.7375 6.1504 10.6395C6.30105 10.5784 6.39975 10.4321 6.4 10.2695V9.63472H8V10.2695C7.99995 10.4324 8.09865 10.5791 8.2496 10.6403C8.49005 10.7383 8.71575 10.869 8.9204 11.0287C9.04885 11.129 9.22525 11.1413 9.3664 11.0599L9.9176 10.7423L10.7176 12.1271L10.166 12.4471C10.0255 12.5283 9.94785 12.6863 9.9696 12.8471ZM10.1124 24.0347L10.7124 21.6347H13.2876L13.8876 24.0347H10.1124ZM23.2 19.6347C23.2 20.2975 22.6628 20.8347 22 20.8347H2C1.33725 20.8347 0.8 20.2975 0.8 19.6347V19.2347H23.2V19.6347ZM23.2 18.4347H0.8V6.03472C0.8 5.37197 1.33725 4.83472 2 4.83472H8.1376L8.3824 5.07952C8.13945 5.50627 7.9503 5.96147 7.8192 6.43472H6.8C6.5791 6.43472 6.4 6.61382 6.4 6.83472V8.83472H6C5.7791 8.83472 5.6 9.01382 5.6 9.23472V10.0115C5.46525 10.0787 5.33485 10.1543 5.2096 10.2379L4.536 9.84912C4.3447 9.73867 4.10005 9.80422 3.9896 9.99552L2.7896 12.0755C2.67915 12.2668 2.7447 12.5115 2.936 12.6219L3.6084 13.0103C3.6028 13.0903 3.6 13.1631 3.6 13.2363C3.6 13.3095 3.6028 13.3839 3.6084 13.4623L2.936 13.8507C2.7461 13.9611 2.68075 14.204 2.7896 14.3947L3.9896 16.4747C4.10005 16.666 4.3447 16.7316 4.536 16.6211L5.2096 16.2323C5.33485 16.3159 5.46525 16.3915 5.6 16.4587V17.2347C5.6 17.4556 5.7791 17.6347 6 17.6347H8.4C8.6209 17.6347 8.8 17.4556 8.8 17.2347V16.4579C8.93475 16.3907 9.06515 16.3151 9.1904 16.2315L9.864 16.6203C10.0553 16.7308 10.2999 16.6652 10.4104 16.4739L11.6104 14.3939C11.7208 14.2026 11.6553 13.958 11.464 13.8475L10.7916 13.4591C10.7948 13.4151 10.7948 13.3743 10.7964 13.3319C11.1787 13.5367 11.5823 13.6989 12 13.8155V14.8347C12 15.0556 12.1791 15.2347 12.4 15.2347H14.8C15.0209 15.2347 15.2 15.0556 15.2 14.8347V13.8155C15.673 13.6843 16.1281 13.4951 16.5548 13.2523L17.2748 13.9747C17.4335 14.1248 17.6817 14.1248 17.8404 13.9747L19.5376 12.2771C19.6938 12.1209 19.6938 11.8677 19.5376 11.7115L18.8176 10.9915C19.0606 10.5643 19.2498 10.1085 19.3808 9.63472H20.4C20.6209 9.63472 20.8 9.45562 20.8 9.23472V6.83472C20.8 6.61382 20.6209 6.43472 20.4 6.43472H19.3808C19.2497 5.96147 19.0606 5.50627 18.8176 5.07952L19.0624 4.83472H22C22.6628 4.83472 23.2 5.37197 23.2 6.03472V18.4347Z" fill="#4D4D4D"/>
<path d="M13.5991 4.83472C11.8318 4.83472 10.3991 6.26742 10.3991 8.03472C10.4011 9.80122 11.8326 11.2327 13.5991 11.2347C15.3664 11.2347 16.7991 9.80202 16.7991 8.03472C16.7991 6.26742 15.3664 4.83472 13.5991 4.83472ZM13.5991 10.4347C12.2736 10.4347 11.1991 9.36022 11.1991 8.03472C11.2004 6.70977 12.2742 5.63602 13.5991 5.63472C14.9246 5.63472 15.9991 6.70922 15.9991 8.03472C15.9991 9.36022 14.9246 10.4347 13.5991 10.4347Z" fill="#4D4D4D"/>
<path d="M7.20245 11.2351C6.0979 11.2351 5.20245 12.1306 5.20245 13.2351C5.20245 14.3397 6.0979 15.2351 7.20245 15.2351C8.30645 15.2338 9.20115 14.3391 9.20245 13.2351C9.20245 12.1306 8.307 11.2351 7.20245 11.2351ZM7.20245 14.4351C6.5397 14.4351 6.00245 13.8979 6.00245 13.2351C6.00245 12.5724 6.5397 12.0351 7.20245 12.0351C7.8652 12.0351 8.40245 12.5724 8.40245 13.2351C8.40245 13.8979 7.8652 14.4351 7.20245 14.4351Z" fill="#4D4D4D"/>
</svg>
