<svg width="19" height="21" viewBox="0 0 19 21" fill="none" xmlns="http://www.w3.org/2000/svg">
<path d="M9.48805 3.47326C9.40516 3.47326 9.3257 3.50619 9.26707 3.56479C9.20848 3.62342 9.17555 3.70287 9.17555 3.78576L9.17559 5.9058C9.17559 6.03432 9.2543 6.14975 9.37395 6.1967C9.49363 6.24361 9.62981 6.2126 9.71719 6.1183C9.9107 5.90967 10.1738 5.79479 10.4581 5.79479C11.0153 5.79479 11.4686 6.24807 11.4686 6.80521C11.4686 7.36236 11.0153 7.81564 10.4581 7.81564C10.1739 7.81564 9.91074 7.70076 9.71719 7.49209C9.62977 7.39783 9.49359 7.36678 9.37395 7.41369C9.2543 7.46064 9.17559 7.57607 9.17559 7.70459V9.51221H7.96543C8.05574 9.3067 8.10402 9.08275 8.10402 8.85467C8.10402 7.95287 7.37035 7.21924 6.46859 7.21924C5.56684 7.21924 4.83316 7.95287 4.83316 8.85467C4.83316 9.08275 4.88145 9.3067 4.97176 9.51221H3.44902C3.27645 9.51221 3.13652 9.65213 3.13652 9.82471C3.13652 10.9253 3.42348 12.0115 3.96633 12.9658C4.50883 13.9194 5.29543 14.7213 6.24113 15.2848C6.52832 15.4559 6.68648 15.7342 6.68648 16.0684V17.5409C6.68648 18.0626 7.03805 18.5034 7.51664 18.6397V18.6985C7.51664 19.5462 8.20621 20.2358 9.05383 20.2358H9.92238C10.77 20.2358 11.4596 19.5462 11.4596 18.6985V18.6397C11.9382 18.5035 12.2897 18.0626 12.2897 17.5409V16.0684C12.2897 15.7342 12.4479 15.4559 12.735 15.2848C13.6637 14.7315 14.4415 13.9449 14.9843 13.0103C15.5439 12.0467 15.8397 10.9451 15.8397 9.82467C15.8396 6.32252 12.9903 3.47326 9.48805 3.47326ZM10.4581 8.44068C11.3599 8.44068 12.0936 7.70705 12.0936 6.80525C12.0936 5.90346 11.3599 5.16982 10.4581 5.16982C10.23 5.16982 10.0061 5.21807 9.80059 5.30842V4.1067C12.71 4.26393 15.0487 6.60295 15.206 9.51229H13.4071C13.2785 9.51229 13.1631 9.591 13.1162 9.71064C13.0692 9.83029 13.1003 9.9665 13.1946 10.0539C13.4032 10.2474 13.5181 10.5105 13.5181 10.7948C13.5181 11.352 13.0648 11.8053 12.5077 11.8053C11.9505 11.8053 11.4973 11.352 11.4973 10.7948C11.4973 10.5106 11.6121 10.2474 11.8208 10.0539C11.915 9.9665 11.9461 9.83029 11.8992 9.71064C11.8522 9.591 11.7368 9.51229 11.6083 9.51229H9.80066V8.30213C10.0061 8.39244 10.23 8.44068 10.4581 8.44068ZM6.56098 14.748C4.92406 13.7726 3.87492 12.0267 3.77012 10.1373H5.5691C5.69766 10.1373 5.81305 10.0586 5.86 9.93893C5.90695 9.81932 5.87586 9.68307 5.7816 9.59568C5.57297 9.40217 5.45809 9.13904 5.45809 8.85475C5.45809 8.29756 5.91137 7.84432 6.46852 7.84432C7.02566 7.84432 7.47895 8.2976 7.47895 8.85475C7.47895 9.139 7.36406 9.40217 7.15543 9.59568C7.06117 9.68307 7.03008 9.81928 7.07703 9.93893C7.12398 10.0586 7.23941 10.1373 7.36793 10.1373H9.17555V11.3474C8.97 11.2571 8.74609 11.2088 8.51801 11.2088C7.61625 11.2088 6.88258 11.9425 6.88258 12.8443C6.88258 13.7461 7.61621 14.4797 8.51801 14.4797C8.74609 14.4797 8.97004 14.4314 9.17555 14.3411V16.6219H7.31141V16.0684C7.31141 15.5134 7.03789 15.0321 6.56098 14.748ZM9.92231 19.6108H9.05375C8.55078 19.6108 8.14156 19.2016 8.14156 18.6986V18.6836H10.8345V18.6986C10.8345 19.2016 10.4253 19.6108 9.92231 19.6108ZM11.147 18.0586H7.82906C7.54363 18.0586 7.31141 17.8264 7.31141 17.541V17.2469H11.6646V17.541C11.6646 17.8264 11.4324 18.0586 11.147 18.0586ZM12.4151 14.748C11.9382 15.0321 11.6647 15.5134 11.6647 16.0685V16.6219H9.80059V13.7437C9.80059 13.6152 9.72188 13.4998 9.60223 13.4528C9.48258 13.406 9.34637 13.437 9.25898 13.5312C9.06547 13.7399 8.80234 13.8547 8.51805 13.8547C7.9609 13.8547 7.50762 13.4015 7.50762 12.8443C7.50762 12.2872 7.9609 11.8339 8.51805 11.8339C8.80231 11.8339 9.06543 11.9488 9.25898 12.1574C9.34641 12.2517 9.48262 12.2828 9.60223 12.2358C9.72188 12.1889 9.80059 12.0735 9.80059 11.9449V10.1373H11.0108C10.9205 10.3428 10.8722 10.5668 10.8722 10.7949C10.8722 11.6967 11.6058 12.4303 12.5076 12.4303C13.4094 12.4303 14.143 11.6967 14.143 10.7949C14.143 10.5668 14.0948 10.3428 14.0045 10.1373H15.2053C15.1004 12.0267 14.052 13.7726 12.4151 14.748ZM15.7856 6.14104C15.6993 5.99158 15.7505 5.80045 15.9 5.71416L17.2563 4.93107C17.4057 4.84471 17.5969 4.896 17.6832 5.04545C17.7695 5.1949 17.7182 5.38604 17.5688 5.47232L16.2125 6.25541C16.1632 6.28385 16.1095 6.29732 16.0565 6.29732C15.9485 6.29732 15.8435 6.24127 15.7856 6.14104ZM18.9749 9.78334C18.9749 9.95592 18.835 10.0958 18.6624 10.0958L17.0963 10.0959C16.9237 10.0959 16.7838 9.95596 16.7838 9.78338C16.7838 9.6108 16.9237 9.47088 17.0963 9.47088L18.6624 9.47084C18.835 9.47084 18.9749 9.61076 18.9749 9.78334ZM17.6832 14.5084C17.6253 14.6087 17.5203 14.6647 17.4123 14.6647C17.3593 14.6647 17.3055 14.6512 17.2563 14.6228L15.9 13.8397C15.7505 13.7534 15.6993 13.5623 15.7856 13.4128C15.8719 13.2634 16.063 13.2122 16.2125 13.2985L17.5688 14.0815C17.7183 14.1678 17.7695 14.359 17.6832 14.5084ZM9.17555 2.19264V0.626504C9.17555 0.453926 9.31547 0.314004 9.48805 0.314004C9.66063 0.314004 9.80055 0.453926 9.80055 0.626504V2.19264C9.80055 2.36521 9.66063 2.50514 9.48805 2.50514C9.31547 2.50514 9.17555 2.36521 9.17555 2.19264ZM1.90375 10.0894H0.337578C0.165 10.0894 0.0250778 9.94951 0.0250778 9.77693C0.0250778 9.60436 0.165 9.46443 0.337578 9.46443H1.90375C2.07633 9.46443 2.21625 9.60436 2.21625 9.77693C2.21625 9.94951 2.07633 10.0894 1.90375 10.0894ZM3.19051 13.4128C3.2768 13.5623 3.22559 13.7534 3.07613 13.8397L1.7198 14.6228C1.67059 14.6512 1.61687 14.6647 1.56387 14.6647C1.45586 14.6647 1.35082 14.6087 1.29293 14.5084C1.20664 14.359 1.25785 14.1678 1.4073 14.0815L2.76363 13.2985C2.91309 13.2121 3.10418 13.2634 3.19051 13.4128ZM13.0095 3.05248L13.7926 1.69615C13.8789 1.5467 14.07 1.49549 14.2195 1.58178C14.3689 1.66807 14.4202 1.8592 14.3339 2.00865L13.5508 3.36498C13.4929 3.46522 13.3879 3.52127 13.2798 3.52127C13.2268 3.52127 13.1731 3.50775 13.1239 3.47936C12.9745 3.39307 12.9232 3.20197 13.0095 3.05248ZM0.337578 6.97803H2.45773C2.58629 6.97803 2.70168 6.89932 2.74863 6.77967C2.79559 6.66006 2.76449 6.52381 2.67023 6.43643C2.4616 6.24291 2.34672 5.97978 2.34672 5.69549C2.34672 5.1383 2.8 4.68506 3.35715 4.68506C3.9143 4.68506 4.36758 5.13834 4.36758 5.69549C4.36758 5.97975 4.2527 6.24291 4.04406 6.43643C3.9498 6.52381 3.91871 6.66002 3.96566 6.77967C4.01262 6.89932 4.12805 6.97803 4.25656 6.97803H6.37668C6.54926 6.97803 6.68918 6.83811 6.68918 6.66553V5.14287C6.89473 5.23318 7.11863 5.28146 7.34672 5.28146C8.24848 5.28146 8.98215 4.54783 8.98215 3.64604C8.98215 2.74424 8.24852 2.01061 7.34672 2.01061C7.11859 2.01061 6.89469 2.05885 6.68918 2.1492V0.626465C6.68918 0.453887 6.54926 0.313965 6.37668 0.313965C2.87441 0.313965 0.0251169 3.16322 0.0251169 6.66553C0.0250778 6.83811 0.165 6.97803 0.337578 6.97803ZM6.06418 0.947402L6.06422 2.74658C6.06422 2.87514 6.14293 2.99053 6.26258 3.03748C6.38227 3.08443 6.51844 3.05334 6.60582 2.95908C6.79934 2.75045 7.06246 2.63557 7.34676 2.63557C7.90391 2.63557 8.35719 3.08885 8.35719 3.646C8.35719 4.20314 7.90391 4.65643 7.34676 4.65643C7.0625 4.65643 6.79938 4.54154 6.60582 4.33287C6.5184 4.23861 6.38223 4.2076 6.26258 4.25447C6.14293 4.30143 6.06422 4.41686 6.06422 4.54537V6.35303H4.85402C4.94434 6.14752 4.99262 5.92357 4.99262 5.69549C4.99262 4.79369 4.25898 4.06006 3.35719 4.06006C2.45543 4.06006 1.72176 4.79369 1.72176 5.69549C1.72176 5.92357 1.77004 6.14752 1.86035 6.35303H0.658515C0.815742 3.44361 3.15477 1.10459 6.06418 0.947402Z" fill="black"/>
</svg>
