<svg width="19" height="15" viewBox="0 0 19 15" fill="none" xmlns="http://www.w3.org/2000/svg">
<path fill-rule="evenodd" clip-rule="evenodd" d="M5.33787 12.3729C9.54035 8.17042 12.9516 4.75899 17.1541 0.556696C17.2252 0.485596 17.3416 0.485926 17.4123 0.556696L17.7389 0.883106L17.7421 0.886416L18.4446 1.58901L18.448 1.59232L18.7745 1.91889C18.8453 1.98966 18.8456 2.10591 18.7745 2.17701C14.5721 6.37949 11.1608 9.79092 6.95833 13.9934C6.88723 14.0643 6.77131 14.0643 6.70021 13.9934L6.37364 13.6668L6.37033 13.6635L5.66774 12.9609L5.66443 12.9576L5.33786 12.6311C5.26676 12.56 5.26677 12.444 5.33787 12.3729Z" fill="#00BA00"/>
<path fill-rule="evenodd" clip-rule="evenodd" d="M6.70022 13.9933C2.49774 9.79082 4.42792 11.721 0.225441 7.51852C0.154341 7.44742 0.154671 7.33101 0.225441 7.26024L0.552011 6.93383L0.555321 6.93052L1.25791 6.22793L1.26105 6.22462L1.58762 5.89805C1.65839 5.82728 1.7748 5.82695 1.8459 5.89805C6.04838 10.1005 4.1182 8.17035 8.32051 12.3728C8.39161 12.4439 8.39161 12.5598 8.32051 12.6309L7.99394 12.9575L7.9908 12.9608L7.28821 13.6634L7.2849 13.6667L6.95833 13.9933C6.88723 14.0642 6.77132 14.0642 6.70022 13.9933Z" fill="#00BA00"/>
</svg>
