<svg width="436" height="305" viewBox="0 0 436 305" fill="none" xmlns="http://www.w3.org/2000/svg">
<g clip-path="url(#clip0_1_881)">
<path d="M0 16.2749C0 7.43834 7.16344 0.274902 16 0.274902H420C428.837 0.274902 436 7.43835 436 16.2749V288.275C436 297.111 428.837 304.275 420 304.275H16C7.16345 304.275 0 297.111 0 288.275V16.2749Z" fill="#EFF0F0"/>
<path d="M186 45L141.112 85.4686C136.064 90.0196 133.182 96.4974 133.182 103.294V166.818C133.182 179.069 123.251 189 111 189V189" stroke="#D9D9D9" stroke-width="1.5"/>
<path d="M186 117L147.319 134.436C138.714 138.315 133.182 146.877 133.182 156.316V166.818C133.182 179.069 123.251 189 111 189V189" stroke="#D9D9D9" stroke-width="1.5"/>
<path d="M186 261L147.319 243.564C138.714 239.685 133.182 231.123 133.182 221.684V211.182C133.182 198.931 123.251 189 111 189V189" stroke="#D9D9D9" stroke-width="1.5"/>
<path d="M186 333L141.112 292.531C136.064 287.98 133.182 281.503 133.182 274.706V211.182C133.182 198.931 123.251 189 111 189V189" stroke="#D9D9D9" stroke-width="1.5"/>
<g filter="url(#filter0_d_1_881)">
<path d="M175 55.2939C175 49.7606 179.486 45.2749 185.019 45.2749H390.41C395.943 45.2749 400.429 49.7606 400.429 55.294V312.032C400.429 317.566 395.943 322.051 390.41 322.051H185.019C179.486 322.051 175 317.565 175 312.032V55.2939Z" fill="white"/>
<g filter="url(#filter1_b_1_881)">
<rect x="178.75" y="49.75" width="218.5" height="270.5" rx="7.25" stroke="url(#paint0_linear_1_881)" stroke-width="1.5"/>
<rect x="178.75" y="49.75" width="218.5" height="270.5" rx="7.25" stroke="url(#paint1_linear_1_881)" stroke-opacity="0.5" stroke-width="1.5"/>
<rect x="178.75" y="49.75" width="218.5" height="270.5" rx="7.25" stroke="url(#paint2_linear_1_881)" stroke-opacity="0.5" stroke-width="1.5"/>
</g>
<g filter="url(#filter2_b_1_881)">
<rect x="-0.75" y="0.75" width="166.5" height="78.5" rx="23.25" transform="matrix(-1 0 0 1 370.5 56)" stroke="url(#paint3_linear_1_881)" stroke-width="1.5"/>
</g>
<g filter="url(#filter3_bd_1_881)">
<path d="M212 80C212 71.1634 219.163 64 228 64H348C356.837 64 364 71.1634 364 80V112C364 120.837 356.837 128 348 128H228C219.163 128 212 120.837 212 112V80Z" fill="#FDFDFD" fill-opacity="0.5" shape-rendering="crispEdges"/>
<path d="M212.75 80C212.75 71.5777 219.578 64.75 228 64.75H348C356.422 64.75 363.25 71.5777 363.25 80V112C363.25 120.422 356.422 127.25 348 127.25H228C219.578 127.25 212.75 120.422 212.75 112V80Z" stroke="#FDFDFD" stroke-opacity="0.25" stroke-width="1.5" shape-rendering="crispEdges"/>
</g>
<circle cx="239" cy="80" r="3" fill="#2D68FF"/>
<g filter="url(#filter4_f_1_881)">
<circle cx="239" cy="80" r="2" fill="#2D68FF"/>
</g>
<path d="M251.008 84.5V75.74H253.876C254.444 75.74 254.936 75.848 255.352 76.064C255.776 76.28 256.1 76.588 256.324 76.988C256.556 77.38 256.672 77.844 256.672 78.38C256.672 78.908 256.556 79.372 256.324 79.772C256.092 80.172 255.768 80.48 255.352 80.696C254.936 80.912 254.444 81.02 253.876 81.02H252.304V84.5H251.008ZM252.304 79.856H253.876C254.324 79.856 254.68 79.724 254.944 79.46C255.216 79.188 255.352 78.828 255.352 78.38C255.352 77.924 255.216 77.564 254.944 77.3C254.68 77.036 254.324 76.904 253.876 76.904H252.304V79.856ZM260.555 84.62C260.011 84.62 259.539 84.52 259.139 84.32C258.747 84.112 258.443 83.816 258.227 83.432C258.019 83.04 257.915 82.584 257.915 82.064V78.176C257.915 77.648 258.019 77.192 258.227 76.808C258.443 76.424 258.747 76.132 259.139 75.932C259.539 75.724 260.011 75.62 260.555 75.62C261.099 75.62 261.567 75.724 261.959 75.932C262.359 76.132 262.663 76.424 262.871 76.808C263.087 77.192 263.195 77.644 263.195 78.164V82.064C263.195 82.584 263.087 83.04 262.871 83.432C262.663 83.816 262.359 84.112 261.959 84.32C261.567 84.52 261.099 84.62 260.555 84.62ZM260.555 83.468C260.995 83.468 261.327 83.348 261.551 83.108C261.783 82.86 261.899 82.512 261.899 82.064V78.176C261.899 77.72 261.783 77.372 261.551 77.132C261.327 76.892 260.995 76.772 260.555 76.772C260.123 76.772 259.791 76.892 259.559 77.132C259.327 77.372 259.211 77.72 259.211 78.176V82.064C259.211 82.512 259.327 82.86 259.559 83.108C259.791 83.348 260.123 83.468 260.555 83.468Z" fill="#727272"/>
<rect x="236" y="92.5" width="104" height="4" rx="2" fill="#E2E4E3"/>
<path d="M239.48 115.7C239.4 115.7 239.332 115.672 239.276 115.616C239.22 115.56 239.192 115.492 239.192 115.412V114.572C238.6 114.516 238.1 114.376 237.692 114.152C237.284 113.92 236.976 113.644 236.768 113.324C236.56 112.996 236.448 112.656 236.432 112.304C236.432 112.232 236.456 112.172 236.504 112.124C236.56 112.076 236.624 112.052 236.696 112.052H237.764C237.86 112.052 237.936 112.076 237.992 112.124C238.048 112.164 238.092 112.216 238.124 112.28C238.18 112.432 238.272 112.584 238.4 112.736C238.536 112.88 238.724 113 238.964 113.096C239.204 113.192 239.504 113.24 239.864 113.24C240.44 113.24 240.868 113.144 241.148 112.952C241.428 112.76 241.568 112.5 241.568 112.172C241.568 111.94 241.492 111.756 241.34 111.62C241.196 111.476 240.964 111.348 240.644 111.236C240.324 111.116 239.904 110.992 239.384 110.864C238.792 110.72 238.292 110.548 237.884 110.348C237.476 110.14 237.168 109.88 236.96 109.568C236.76 109.256 236.66 108.86 236.66 108.38C236.66 107.764 236.884 107.24 237.332 106.808C237.78 106.376 238.4 106.112 239.192 106.016V105.188C239.192 105.108 239.22 105.04 239.276 104.984C239.332 104.928 239.4 104.9 239.48 104.9H240.212C240.292 104.9 240.36 104.928 240.416 104.984C240.472 105.04 240.5 105.108 240.5 105.188V106.04C241.044 106.12 241.5 106.28 241.868 106.52C242.236 106.76 242.516 107.036 242.708 107.348C242.9 107.652 243 107.948 243.008 108.236C243.008 108.3 242.984 108.36 242.936 108.416C242.896 108.464 242.836 108.488 242.756 108.488H241.64C241.568 108.488 241.5 108.472 241.436 108.44C241.372 108.408 241.32 108.348 241.28 108.26C241.24 108.012 241.088 107.8 240.824 107.624C240.56 107.448 240.216 107.36 239.792 107.36C239.36 107.36 239.012 107.44 238.748 107.6C238.492 107.76 238.364 108.008 238.364 108.344C238.364 108.568 238.428 108.756 238.556 108.908C238.684 109.052 238.892 109.18 239.18 109.292C239.476 109.404 239.868 109.524 240.356 109.652C241.036 109.804 241.588 109.98 242.012 110.18C242.444 110.38 242.76 110.636 242.96 110.948C243.168 111.252 243.272 111.64 243.272 112.112C243.272 112.576 243.156 112.984 242.924 113.336C242.7 113.68 242.38 113.96 241.964 114.176C241.548 114.384 241.06 114.52 240.5 114.584V115.412C240.5 115.492 240.472 115.56 240.416 115.616C240.36 115.672 240.292 115.7 240.212 115.7H239.48ZM246.795 114.5C246.707 114.5 246.635 114.472 246.579 114.416C246.531 114.36 246.507 114.292 246.507 114.212V107.996L244.683 109.4C244.611 109.448 244.539 109.468 244.467 109.46C244.395 109.444 244.331 109.4 244.275 109.328L243.771 108.68C243.723 108.608 243.703 108.532 243.711 108.452C243.727 108.372 243.771 108.308 243.843 108.26L246.531 106.184C246.579 106.144 246.627 106.12 246.675 106.112C246.723 106.104 246.775 106.1 246.831 106.1H247.887C247.967 106.1 248.035 106.128 248.091 106.184C248.147 106.24 248.175 106.308 248.175 106.388V114.212C248.175 114.292 248.147 114.36 248.091 114.416C248.035 114.472 247.967 114.5 247.887 114.5H246.795ZM252.458 114.632C251.77 114.632 251.19 114.52 250.718 114.296C250.246 114.064 249.886 113.764 249.638 113.396C249.398 113.028 249.27 112.636 249.254 112.22C249.246 112.148 249.266 112.092 249.314 112.052C249.37 112.004 249.434 111.98 249.506 111.98H250.622C250.71 111.98 250.782 112 250.838 112.04C250.902 112.072 250.95 112.132 250.982 112.22C251.062 112.46 251.174 112.656 251.318 112.808C251.47 112.96 251.642 113.072 251.834 113.144C252.034 113.216 252.242 113.252 252.458 113.252C252.746 113.252 253.006 113.196 253.238 113.084C253.478 112.964 253.67 112.788 253.814 112.556C253.958 112.324 254.03 112.04 254.03 111.704C254.03 111.408 253.962 111.152 253.826 110.936C253.69 110.72 253.502 110.552 253.262 110.432C253.03 110.304 252.762 110.24 252.458 110.24C252.234 110.24 252.05 110.268 251.906 110.324C251.762 110.38 251.638 110.444 251.534 110.516C251.438 110.588 251.35 110.652 251.27 110.708C251.198 110.764 251.114 110.792 251.018 110.792H249.914C249.842 110.792 249.778 110.768 249.722 110.72C249.674 110.664 249.65 110.6 249.65 110.528L250.07 106.424C250.078 106.32 250.114 106.24 250.178 106.184C250.242 106.128 250.318 106.1 250.406 106.1H254.918C254.998 106.1 255.066 106.128 255.122 106.184C255.178 106.24 255.206 106.308 255.206 106.388V107.192C255.206 107.272 255.178 107.34 255.122 107.396C255.066 107.452 254.998 107.48 254.918 107.48H251.45L251.258 109.436C251.402 109.34 251.594 109.248 251.834 109.16C252.074 109.072 252.406 109.028 252.83 109.028C253.214 109.028 253.578 109.092 253.922 109.22C254.274 109.34 254.586 109.52 254.858 109.76C255.13 109.992 255.342 110.276 255.494 110.612C255.654 110.94 255.734 111.316 255.734 111.74C255.734 112.324 255.598 112.832 255.326 113.264C255.054 113.696 254.674 114.032 254.186 114.272C253.698 114.512 253.122 114.632 252.458 114.632ZM260.727 114.5C260.647 114.5 260.579 114.472 260.523 114.416C260.467 114.36 260.439 114.292 260.439 114.212V112.676H256.635C256.547 112.676 256.475 112.648 256.419 112.592C256.371 112.536 256.347 112.468 256.347 112.388V111.572C256.347 111.524 256.355 111.468 256.371 111.404C256.395 111.332 256.431 111.268 256.479 111.212L260.019 106.304C260.123 106.168 260.271 106.1 260.463 106.1H261.771C261.851 106.1 261.919 106.128 261.975 106.184C262.031 106.24 262.059 106.308 262.059 106.388V111.26H263.127C263.223 111.26 263.295 111.288 263.343 111.344C263.399 111.392 263.427 111.46 263.427 111.548V112.388C263.427 112.468 263.399 112.536 263.343 112.592C263.287 112.648 263.219 112.676 263.139 112.676H262.059V114.212C262.059 114.292 262.031 114.36 261.975 114.416C261.919 114.472 261.851 114.5 261.771 114.5H260.727ZM258.015 111.308H260.475V107.84L258.015 111.308ZM267.403 114.62C266.715 114.62 266.123 114.492 265.627 114.236C265.131 113.972 264.747 113.62 264.475 113.18C264.203 112.732 264.067 112.232 264.067 111.68C264.067 111.432 264.099 111.192 264.163 110.96C264.227 110.728 264.311 110.508 264.415 110.3C264.519 110.092 264.619 109.908 264.715 109.748C264.819 109.58 264.911 109.448 264.991 109.352L267.187 106.34C267.219 106.3 267.267 106.252 267.331 106.196C267.395 106.132 267.483 106.1 267.595 106.1H268.711C268.783 106.1 268.843 106.128 268.891 106.184C268.939 106.232 268.963 106.292 268.963 106.364C268.963 106.396 268.955 106.428 268.939 106.46C268.931 106.484 268.919 106.504 268.903 106.52L267.223 108.848C267.295 108.824 267.379 108.808 267.475 108.8C267.571 108.792 267.659 108.788 267.739 108.788C268.139 108.796 268.519 108.876 268.879 109.028C269.239 109.172 269.555 109.372 269.827 109.628C270.099 109.884 270.311 110.184 270.463 110.528C270.623 110.872 270.703 111.248 270.703 111.656C270.703 112.184 270.571 112.676 270.307 113.132C270.043 113.58 269.663 113.94 269.167 114.212C268.679 114.484 268.091 114.62 267.403 114.62ZM267.391 113.24C267.679 113.24 267.943 113.18 268.183 113.06C268.431 112.94 268.631 112.764 268.783 112.532C268.935 112.3 269.011 112.012 269.011 111.668C269.011 111.332 268.935 111.048 268.783 110.816C268.631 110.584 268.431 110.408 268.183 110.288C267.943 110.168 267.679 110.108 267.391 110.108C267.103 110.108 266.835 110.168 266.587 110.288C266.347 110.408 266.151 110.584 265.999 110.816C265.847 111.048 265.771 111.332 265.771 111.668C265.771 112.012 265.847 112.3 265.999 112.532C266.151 112.764 266.347 112.94 266.587 113.06C266.835 113.18 267.103 113.24 267.391 113.24ZM271.867 114.5C271.787 114.5 271.719 114.472 271.663 114.416C271.607 114.36 271.579 114.292 271.579 114.212V113.024C271.579 112.936 271.607 112.864 271.663 112.808C271.719 112.752 271.787 112.724 271.867 112.724H273.067C273.147 112.724 273.215 112.752 273.271 112.808C273.327 112.864 273.355 112.936 273.355 113.024V114.212C273.355 114.292 273.327 114.36 273.271 114.416C273.215 114.472 273.147 114.5 273.067 114.5H271.867ZM277.637 114.62C277.069 114.62 276.585 114.536 276.185 114.368C275.785 114.2 275.457 113.968 275.201 113.672C274.945 113.376 274.753 113.036 274.625 112.652C274.497 112.26 274.421 111.844 274.397 111.404C274.389 111.188 274.381 110.952 274.373 110.696C274.373 110.432 274.373 110.168 274.373 109.904C274.381 109.64 274.389 109.396 274.397 109.172C274.413 108.732 274.489 108.32 274.625 107.936C274.761 107.544 274.957 107.204 275.213 106.916C275.477 106.628 275.809 106.4 276.209 106.232C276.609 106.064 277.085 105.98 277.637 105.98C278.197 105.98 278.677 106.064 279.077 106.232C279.477 106.4 279.805 106.628 280.061 106.916C280.325 107.204 280.521 107.544 280.649 107.936C280.785 108.32 280.861 108.732 280.877 109.172C280.893 109.396 280.901 109.64 280.901 109.904C280.901 110.168 280.901 110.432 280.901 110.696C280.901 110.952 280.893 111.188 280.877 111.404C280.861 111.844 280.789 112.26 280.661 112.652C280.533 113.036 280.341 113.376 280.085 113.672C279.829 113.968 279.497 114.2 279.089 114.368C278.689 114.536 278.205 114.62 277.637 114.62ZM277.637 113.24C278.157 113.24 278.537 113.072 278.777 112.736C279.025 112.392 279.153 111.928 279.161 111.344C279.177 111.112 279.185 110.88 279.185 110.648C279.185 110.408 279.185 110.168 279.185 109.928C279.185 109.688 279.177 109.46 279.161 109.244C279.153 108.676 279.025 108.22 278.777 107.876C278.537 107.524 278.157 107.348 277.637 107.348C277.125 107.348 276.745 107.524 276.497 107.876C276.257 108.22 276.129 108.676 276.113 109.244C276.113 109.46 276.109 109.688 276.101 109.928C276.101 110.168 276.101 110.408 276.101 110.648C276.109 110.88 276.113 111.112 276.113 111.344C276.129 111.928 276.261 112.392 276.509 112.736C276.757 113.072 277.133 113.24 277.637 113.24ZM285.283 114.62C284.715 114.62 284.231 114.536 283.831 114.368C283.431 114.2 283.103 113.968 282.847 113.672C282.591 113.376 282.399 113.036 282.271 112.652C282.143 112.26 282.067 111.844 282.043 111.404C282.035 111.188 282.027 110.952 282.019 110.696C282.019 110.432 282.019 110.168 282.019 109.904C282.027 109.64 282.035 109.396 282.043 109.172C282.059 108.732 282.135 108.32 282.271 107.936C282.407 107.544 282.603 107.204 282.859 106.916C283.123 106.628 283.455 106.4 283.855 106.232C284.255 106.064 284.731 105.98 285.283 105.98C285.843 105.98 286.323 106.064 286.723 106.232C287.123 106.4 287.451 106.628 287.707 106.916C287.971 107.204 288.167 107.544 288.295 107.936C288.431 108.32 288.507 108.732 288.523 109.172C288.539 109.396 288.547 109.64 288.547 109.904C288.547 110.168 288.547 110.432 288.547 110.696C288.547 110.952 288.539 111.188 288.523 111.404C288.507 111.844 288.435 112.26 288.307 112.652C288.179 113.036 287.987 113.376 287.731 113.672C287.475 113.968 287.143 114.2 286.735 114.368C286.335 114.536 285.851 114.62 285.283 114.62ZM285.283 113.24C285.803 113.24 286.183 113.072 286.423 112.736C286.671 112.392 286.799 111.928 286.807 111.344C286.823 111.112 286.831 110.88 286.831 110.648C286.831 110.408 286.831 110.168 286.831 109.928C286.831 109.688 286.823 109.46 286.807 109.244C286.799 108.676 286.671 108.22 286.423 107.876C286.183 107.524 285.803 107.348 285.283 107.348C284.771 107.348 284.391 107.524 284.143 107.876C283.903 108.22 283.775 108.676 283.759 109.244C283.759 109.46 283.755 109.688 283.747 109.928C283.747 110.168 283.747 110.408 283.747 110.648C283.755 110.88 283.759 111.112 283.759 111.344C283.775 111.928 283.907 112.392 284.155 112.736C284.403 113.072 284.779 113.24 285.283 113.24Z" fill="#1B1B1B"/>
<path fill-rule="evenodd" clip-rule="evenodd" d="M239 74.5C235.691 74.5 233 77.1906 233 80.5C233 83.8094 235.691 86.5 239 86.5C242.309 86.5 245 83.8094 245 80.5C245 77.1906 242.309 74.5 239 74.5Z" fill="#4BAE4F"/>
<path fill-rule="evenodd" clip-rule="evenodd" d="M241.902 78.4773C242.048 78.6226 242.048 78.8617 241.902 79.007L238.387 82.5226C238.314 82.5953 238.218 82.6328 238.122 82.6328C238.026 82.6328 237.93 82.5953 237.857 82.5226L236.099 80.7648C235.954 80.6195 235.954 80.3804 236.099 80.2351C236.245 80.0898 236.484 80.0898 236.629 80.2351L238.122 81.7281L241.373 78.4773C241.518 78.3297 241.757 78.3297 241.902 78.4773Z" fill="white"/>
<g filter="url(#filter5_b_1_881)">
<rect x="-0.75" y="0.75" width="166.5" height="78.5" rx="23.25" transform="matrix(-1 0 0 1 370.5 136)" stroke="url(#paint4_linear_1_881)" stroke-width="1.5"/>
</g>
<g filter="url(#filter6_bd_1_881)">
<path d="M212 160C212 151.163 219.163 144 228 144H348C356.837 144 364 151.163 364 160V192C364 200.837 356.837 208 348 208H228C219.163 208 212 200.837 212 192V160Z" fill="#FDFDFD" fill-opacity="0.5" shape-rendering="crispEdges"/>
<path d="M212.75 160C212.75 151.578 219.578 144.75 228 144.75H348C356.422 144.75 363.25 151.578 363.25 160V192C363.25 200.422 356.422 207.25 348 207.25H228C219.578 207.25 212.75 200.422 212.75 192V160Z" stroke="#FDFDFD" stroke-opacity="0.25" stroke-width="1.5" shape-rendering="crispEdges"/>
</g>
<circle cx="239" cy="160" r="3" fill="#FF381C"/>
<g filter="url(#filter7_f_1_881)">
<circle cx="239" cy="160" r="2" fill="#FF381C"/>
</g>
<path d="M251.176 164.5V163.348H252.94V156.892H251.176V155.74H256.024V156.892H254.26V163.348H256.024V164.5H251.176ZM257.963 164.5V157.9H259.247V159.16H259.559L259.247 159.46C259.247 158.932 259.403 158.52 259.715 158.224C260.027 157.928 260.459 157.78 261.011 157.78C261.667 157.78 262.191 157.992 262.583 158.416C262.975 158.832 263.171 159.396 263.171 160.108V164.5H261.875V160.252C261.875 159.82 261.759 159.488 261.527 159.256C261.295 159.024 260.979 158.908 260.579 158.908C260.171 158.908 259.847 159.032 259.607 159.28C259.375 159.52 259.259 159.872 259.259 160.336V164.5H257.963ZM266.659 164.5L264.475 157.9H265.795L267.151 162.124C267.239 162.372 267.315 162.624 267.379 162.88C267.451 163.128 267.503 163.324 267.535 163.468C267.575 163.324 267.627 163.128 267.691 162.88C267.763 162.624 267.835 162.372 267.907 162.124L269.239 157.9H270.547L268.363 164.5H266.659ZM274.466 164.608C273.922 164.608 273.45 164.504 273.05 164.296C272.65 164.088 272.342 163.792 272.126 163.408C271.91 163.024 271.802 162.572 271.802 162.052V160.348C271.802 159.82 271.91 159.368 272.126 158.992C272.342 158.608 272.65 158.312 273.05 158.104C273.45 157.896 273.922 157.792 274.466 157.792C275.01 157.792 275.482 157.896 275.882 158.104C276.282 158.312 276.59 158.608 276.806 158.992C277.022 159.368 277.13 159.82 277.13 160.348V162.052C277.13 162.572 277.022 163.024 276.806 163.408C276.59 163.792 276.282 164.088 275.882 164.296C275.482 164.504 275.01 164.608 274.466 164.608ZM274.466 163.468C274.906 163.468 275.246 163.348 275.486 163.108C275.726 162.86 275.846 162.508 275.846 162.052V160.348C275.846 159.884 275.726 159.532 275.486 159.292C275.246 159.052 274.906 158.932 274.466 158.932C274.034 158.932 273.694 159.052 273.446 159.292C273.206 159.532 273.086 159.884 273.086 160.348V162.052C273.086 162.508 273.206 162.86 273.446 163.108C273.694 163.348 274.034 163.468 274.466 163.468ZM278.793 164.5V163.324H281.109V159.076H279.093V157.9H282.369V163.324H284.493V164.5H278.793ZM281.613 156.76C281.333 156.76 281.109 156.688 280.941 156.544C280.773 156.392 280.689 156.192 280.689 155.944C280.689 155.688 280.773 155.488 280.941 155.344C281.109 155.192 281.333 155.116 281.613 155.116C281.893 155.116 282.117 155.192 282.285 155.344C282.453 155.488 282.537 155.688 282.537 155.944C282.537 156.192 282.453 156.392 282.285 156.544C282.117 156.688 281.893 156.76 281.613 156.76ZM288.425 164.62C287.881 164.62 287.401 164.52 286.985 164.32C286.577 164.112 286.261 163.816 286.037 163.432C285.821 163.04 285.713 162.584 285.713 162.064V160.336C285.713 159.808 285.821 159.352 286.037 158.968C286.261 158.584 286.577 158.292 286.985 158.092C287.401 157.884 287.881 157.78 288.425 157.78C289.217 157.78 289.853 157.988 290.333 158.404C290.813 158.82 291.065 159.388 291.089 160.108H289.793C289.769 159.732 289.637 159.44 289.397 159.232C289.157 159.024 288.833 158.92 288.425 158.92C287.985 158.92 287.637 159.044 287.381 159.292C287.125 159.532 286.997 159.876 286.997 160.324V162.064C286.997 162.512 287.125 162.86 287.381 163.108C287.637 163.356 287.985 163.48 288.425 163.48C288.833 163.48 289.157 163.376 289.397 163.168C289.637 162.96 289.769 162.668 289.793 162.292H291.089C291.065 163.012 290.813 163.58 290.333 163.996C289.853 164.412 289.217 164.62 288.425 164.62ZM295.332 164.62C294.796 164.62 294.324 164.516 293.916 164.308C293.516 164.092 293.208 163.792 292.992 163.408C292.776 163.024 292.668 162.576 292.668 162.064V160.336C292.668 159.816 292.776 159.368 292.992 158.992C293.208 158.608 293.516 158.312 293.916 158.104C294.324 157.888 294.796 157.78 295.332 157.78C295.876 157.78 296.348 157.888 296.748 158.104C297.148 158.312 297.456 158.608 297.672 158.992C297.888 159.368 297.996 159.816 297.996 160.336V161.512H293.916V162.064C293.916 162.552 294.036 162.924 294.276 163.18C294.524 163.436 294.88 163.564 295.344 163.564C295.72 163.564 296.024 163.5 296.256 163.372C296.488 163.236 296.632 163.04 296.688 162.784H297.972C297.876 163.344 297.588 163.792 297.108 164.128C296.628 164.456 296.036 164.62 295.332 164.62ZM296.748 160.732V160.324C296.748 159.844 296.628 159.472 296.388 159.208C296.148 158.944 295.796 158.812 295.332 158.812C294.876 158.812 294.524 158.944 294.276 159.208C294.036 159.472 293.916 159.848 293.916 160.336V160.636L296.844 160.624L296.748 160.732Z" fill="#727272"/>
<rect x="236" y="172.5" width="104" height="4" rx="2" fill="#E2E4E3"/>
<path d="M239.48 195.7C239.4 195.7 239.332 195.672 239.276 195.616C239.22 195.56 239.192 195.492 239.192 195.412V194.572C238.6 194.516 238.1 194.376 237.692 194.152C237.284 193.92 236.976 193.644 236.768 193.324C236.56 192.996 236.448 192.656 236.432 192.304C236.432 192.232 236.456 192.172 236.504 192.124C236.56 192.076 236.624 192.052 236.696 192.052H237.764C237.86 192.052 237.936 192.076 237.992 192.124C238.048 192.164 238.092 192.216 238.124 192.28C238.18 192.432 238.272 192.584 238.4 192.736C238.536 192.88 238.724 193 238.964 193.096C239.204 193.192 239.504 193.24 239.864 193.24C240.44 193.24 240.868 193.144 241.148 192.952C241.428 192.76 241.568 192.5 241.568 192.172C241.568 191.94 241.492 191.756 241.34 191.62C241.196 191.476 240.964 191.348 240.644 191.236C240.324 191.116 239.904 190.992 239.384 190.864C238.792 190.72 238.292 190.548 237.884 190.348C237.476 190.14 237.168 189.88 236.96 189.568C236.76 189.256 236.66 188.86 236.66 188.38C236.66 187.764 236.884 187.24 237.332 186.808C237.78 186.376 238.4 186.112 239.192 186.016V185.188C239.192 185.108 239.22 185.04 239.276 184.984C239.332 184.928 239.4 184.9 239.48 184.9H240.212C240.292 184.9 240.36 184.928 240.416 184.984C240.472 185.04 240.5 185.108 240.5 185.188V186.04C241.044 186.12 241.5 186.28 241.868 186.52C242.236 186.76 242.516 187.036 242.708 187.348C242.9 187.652 243 187.948 243.008 188.236C243.008 188.3 242.984 188.36 242.936 188.416C242.896 188.464 242.836 188.488 242.756 188.488H241.64C241.568 188.488 241.5 188.472 241.436 188.44C241.372 188.408 241.32 188.348 241.28 188.26C241.24 188.012 241.088 187.8 240.824 187.624C240.56 187.448 240.216 187.36 239.792 187.36C239.36 187.36 239.012 187.44 238.748 187.6C238.492 187.76 238.364 188.008 238.364 188.344C238.364 188.568 238.428 188.756 238.556 188.908C238.684 189.052 238.892 189.18 239.18 189.292C239.476 189.404 239.868 189.524 240.356 189.652C241.036 189.804 241.588 189.98 242.012 190.18C242.444 190.38 242.76 190.636 242.96 190.948C243.168 191.252 243.272 191.64 243.272 192.112C243.272 192.576 243.156 192.984 242.924 193.336C242.7 193.68 242.38 193.96 241.964 194.176C241.548 194.384 241.06 194.52 240.5 194.584V195.412C240.5 195.492 240.472 195.56 240.416 195.616C240.36 195.672 240.292 195.7 240.212 195.7H239.48ZM246.795 194.5C246.707 194.5 246.635 194.472 246.579 194.416C246.531 194.36 246.507 194.292 246.507 194.212V187.996L244.683 189.4C244.611 189.448 244.539 189.468 244.467 189.46C244.395 189.444 244.331 189.4 244.275 189.328L243.771 188.68C243.723 188.608 243.703 188.532 243.711 188.452C243.727 188.372 243.771 188.308 243.843 188.26L246.531 186.184C246.579 186.144 246.627 186.12 246.675 186.112C246.723 186.104 246.775 186.1 246.831 186.1H247.887C247.967 186.1 248.035 186.128 248.091 186.184C248.147 186.24 248.175 186.308 248.175 186.388V194.212C248.175 194.292 248.147 194.36 248.091 194.416C248.035 194.472 247.967 194.5 247.887 194.5H246.795ZM252.458 194.632C251.77 194.632 251.19 194.52 250.718 194.296C250.246 194.064 249.886 193.764 249.638 193.396C249.398 193.028 249.27 192.636 249.254 192.22C249.246 192.148 249.266 192.092 249.314 192.052C249.37 192.004 249.434 191.98 249.506 191.98H250.622C250.71 191.98 250.782 192 250.838 192.04C250.902 192.072 250.95 192.132 250.982 192.22C251.062 192.46 251.174 192.656 251.318 192.808C251.47 192.96 251.642 193.072 251.834 193.144C252.034 193.216 252.242 193.252 252.458 193.252C252.746 193.252 253.006 193.196 253.238 193.084C253.478 192.964 253.67 192.788 253.814 192.556C253.958 192.324 254.03 192.04 254.03 191.704C254.03 191.408 253.962 191.152 253.826 190.936C253.69 190.72 253.502 190.552 253.262 190.432C253.03 190.304 252.762 190.24 252.458 190.24C252.234 190.24 252.05 190.268 251.906 190.324C251.762 190.38 251.638 190.444 251.534 190.516C251.438 190.588 251.35 190.652 251.27 190.708C251.198 190.764 251.114 190.792 251.018 190.792H249.914C249.842 190.792 249.778 190.768 249.722 190.72C249.674 190.664 249.65 190.6 249.65 190.528L250.07 186.424C250.078 186.32 250.114 186.24 250.178 186.184C250.242 186.128 250.318 186.1 250.406 186.1H254.918C254.998 186.1 255.066 186.128 255.122 186.184C255.178 186.24 255.206 186.308 255.206 186.388V187.192C255.206 187.272 255.178 187.34 255.122 187.396C255.066 187.452 254.998 187.48 254.918 187.48H251.45L251.258 189.436C251.402 189.34 251.594 189.248 251.834 189.16C252.074 189.072 252.406 189.028 252.83 189.028C253.214 189.028 253.578 189.092 253.922 189.22C254.274 189.34 254.586 189.52 254.858 189.76C255.13 189.992 255.342 190.276 255.494 190.612C255.654 190.94 255.734 191.316 255.734 191.74C255.734 192.324 255.598 192.832 255.326 193.264C255.054 193.696 254.674 194.032 254.186 194.272C253.698 194.512 253.122 194.632 252.458 194.632ZM260.727 194.5C260.647 194.5 260.579 194.472 260.523 194.416C260.467 194.36 260.439 194.292 260.439 194.212V192.676H256.635C256.547 192.676 256.475 192.648 256.419 192.592C256.371 192.536 256.347 192.468 256.347 192.388V191.572C256.347 191.524 256.355 191.468 256.371 191.404C256.395 191.332 256.431 191.268 256.479 191.212L260.019 186.304C260.123 186.168 260.271 186.1 260.463 186.1H261.771C261.851 186.1 261.919 186.128 261.975 186.184C262.031 186.24 262.059 186.308 262.059 186.388V191.26H263.127C263.223 191.26 263.295 191.288 263.343 191.344C263.399 191.392 263.427 191.46 263.427 191.548V192.388C263.427 192.468 263.399 192.536 263.343 192.592C263.287 192.648 263.219 192.676 263.139 192.676H262.059V194.212C262.059 194.292 262.031 194.36 261.975 194.416C261.919 194.472 261.851 194.5 261.771 194.5H260.727ZM258.015 191.308H260.475V187.84L258.015 191.308ZM267.403 194.62C266.715 194.62 266.123 194.492 265.627 194.236C265.131 193.972 264.747 193.62 264.475 193.18C264.203 192.732 264.067 192.232 264.067 191.68C264.067 191.432 264.099 191.192 264.163 190.96C264.227 190.728 264.311 190.508 264.415 190.3C264.519 190.092 264.619 189.908 264.715 189.748C264.819 189.58 264.911 189.448 264.991 189.352L267.187 186.34C267.219 186.3 267.267 186.252 267.331 186.196C267.395 186.132 267.483 186.1 267.595 186.1H268.711C268.783 186.1 268.843 186.128 268.891 186.184C268.939 186.232 268.963 186.292 268.963 186.364C268.963 186.396 268.955 186.428 268.939 186.46C268.931 186.484 268.919 186.504 268.903 186.52L267.223 188.848C267.295 188.824 267.379 188.808 267.475 188.8C267.571 188.792 267.659 188.788 267.739 188.788C268.139 188.796 268.519 188.876 268.879 189.028C269.239 189.172 269.555 189.372 269.827 189.628C270.099 189.884 270.311 190.184 270.463 190.528C270.623 190.872 270.703 191.248 270.703 191.656C270.703 192.184 270.571 192.676 270.307 193.132C270.043 193.58 269.663 193.94 269.167 194.212C268.679 194.484 268.091 194.62 267.403 194.62ZM267.391 193.24C267.679 193.24 267.943 193.18 268.183 193.06C268.431 192.94 268.631 192.764 268.783 192.532C268.935 192.3 269.011 192.012 269.011 191.668C269.011 191.332 268.935 191.048 268.783 190.816C268.631 190.584 268.431 190.408 268.183 190.288C267.943 190.168 267.679 190.108 267.391 190.108C267.103 190.108 266.835 190.168 266.587 190.288C266.347 190.408 266.151 190.584 265.999 190.816C265.847 191.048 265.771 191.332 265.771 191.668C265.771 192.012 265.847 192.3 265.999 192.532C266.151 192.764 266.347 192.94 266.587 193.06C266.835 193.18 267.103 193.24 267.391 193.24ZM271.867 194.5C271.787 194.5 271.719 194.472 271.663 194.416C271.607 194.36 271.579 194.292 271.579 194.212V193.024C271.579 192.936 271.607 192.864 271.663 192.808C271.719 192.752 271.787 192.724 271.867 192.724H273.067C273.147 192.724 273.215 192.752 273.271 192.808C273.327 192.864 273.355 192.936 273.355 193.024V194.212C273.355 194.292 273.327 194.36 273.271 194.416C273.215 194.472 273.147 194.5 273.067 194.5H271.867ZM277.637 194.62C277.069 194.62 276.585 194.536 276.185 194.368C275.785 194.2 275.457 193.968 275.201 193.672C274.945 193.376 274.753 193.036 274.625 192.652C274.497 192.26 274.421 191.844 274.397 191.404C274.389 191.188 274.381 190.952 274.373 190.696C274.373 190.432 274.373 190.168 274.373 189.904C274.381 189.64 274.389 189.396 274.397 189.172C274.413 188.732 274.489 188.32 274.625 187.936C274.761 187.544 274.957 187.204 275.213 186.916C275.477 186.628 275.809 186.4 276.209 186.232C276.609 186.064 277.085 185.98 277.637 185.98C278.197 185.98 278.677 186.064 279.077 186.232C279.477 186.4 279.805 186.628 280.061 186.916C280.325 187.204 280.521 187.544 280.649 187.936C280.785 188.32 280.861 188.732 280.877 189.172C280.893 189.396 280.901 189.64 280.901 189.904C280.901 190.168 280.901 190.432 280.901 190.696C280.901 190.952 280.893 191.188 280.877 191.404C280.861 191.844 280.789 192.26 280.661 192.652C280.533 193.036 280.341 193.376 280.085 193.672C279.829 193.968 279.497 194.2 279.089 194.368C278.689 194.536 278.205 194.62 277.637 194.62ZM277.637 193.24C278.157 193.24 278.537 193.072 278.777 192.736C279.025 192.392 279.153 191.928 279.161 191.344C279.177 191.112 279.185 190.88 279.185 190.648C279.185 190.408 279.185 190.168 279.185 189.928C279.185 189.688 279.177 189.46 279.161 189.244C279.153 188.676 279.025 188.22 278.777 187.876C278.537 187.524 278.157 187.348 277.637 187.348C277.125 187.348 276.745 187.524 276.497 187.876C276.257 188.22 276.129 188.676 276.113 189.244C276.113 189.46 276.109 189.688 276.101 189.928C276.101 190.168 276.101 190.408 276.101 190.648C276.109 190.88 276.113 191.112 276.113 191.344C276.129 191.928 276.261 192.392 276.509 192.736C276.757 193.072 277.133 193.24 277.637 193.24ZM285.283 194.62C284.715 194.62 284.231 194.536 283.831 194.368C283.431 194.2 283.103 193.968 282.847 193.672C282.591 193.376 282.399 193.036 282.271 192.652C282.143 192.26 282.067 191.844 282.043 191.404C282.035 191.188 282.027 190.952 282.019 190.696C282.019 190.432 282.019 190.168 282.019 189.904C282.027 189.64 282.035 189.396 282.043 189.172C282.059 188.732 282.135 188.32 282.271 187.936C282.407 187.544 282.603 187.204 282.859 186.916C283.123 186.628 283.455 186.4 283.855 186.232C284.255 186.064 284.731 185.98 285.283 185.98C285.843 185.98 286.323 186.064 286.723 186.232C287.123 186.4 287.451 186.628 287.707 186.916C287.971 187.204 288.167 187.544 288.295 187.936C288.431 188.32 288.507 188.732 288.523 189.172C288.539 189.396 288.547 189.64 288.547 189.904C288.547 190.168 288.547 190.432 288.547 190.696C288.547 190.952 288.539 191.188 288.523 191.404C288.507 191.844 288.435 192.26 288.307 192.652C288.179 193.036 287.987 193.376 287.731 193.672C287.475 193.968 287.143 194.2 286.735 194.368C286.335 194.536 285.851 194.62 285.283 194.62ZM285.283 193.24C285.803 193.24 286.183 193.072 286.423 192.736C286.671 192.392 286.799 191.928 286.807 191.344C286.823 191.112 286.831 190.88 286.831 190.648C286.831 190.408 286.831 190.168 286.831 189.928C286.831 189.688 286.823 189.46 286.807 189.244C286.799 188.676 286.671 188.22 286.423 187.876C286.183 187.524 285.803 187.348 285.283 187.348C284.771 187.348 284.391 187.524 284.143 187.876C283.903 188.22 283.775 188.676 283.759 189.244C283.759 189.46 283.755 189.688 283.747 189.928C283.747 190.168 283.747 190.408 283.747 190.648C283.755 190.88 283.759 191.112 283.759 191.344C283.775 191.928 283.907 192.392 284.155 192.736C284.403 193.072 284.779 193.24 285.283 193.24Z" fill="#1B1B1B"/>
<path fill-rule="evenodd" clip-rule="evenodd" d="M239 154.5C235.691 154.5 233 157.191 233 160.5C233 163.809 235.691 166.5 239 166.5C242.309 166.5 245 163.809 245 160.5C245 157.191 242.309 154.5 239 154.5Z" fill="#4BAE4F"/>
<path fill-rule="evenodd" clip-rule="evenodd" d="M241.902 158.477C242.048 158.623 242.048 158.862 241.902 159.007L238.387 162.523C238.314 162.595 238.218 162.633 238.122 162.633C238.026 162.633 237.93 162.595 237.857 162.523L236.099 160.765C235.954 160.62 235.954 160.38 236.099 160.235C236.245 160.09 236.484 160.09 236.629 160.235L238.122 161.728L241.373 158.477C241.518 158.33 241.757 158.33 241.902 158.477Z" fill="white"/>
<g filter="url(#filter8_b_1_881)">
<rect x="-0.75" y="0.75" width="166.5" height="78.5" rx="23.25" transform="matrix(-1 0 0 1 370.5 216)" stroke="url(#paint5_linear_1_881)" stroke-width="1.5"/>
</g>
<g filter="url(#filter9_bd_1_881)">
<path d="M212 240C212 231.163 219.163 224 228 224H348C356.837 224 364 231.163 364 240V272C364 280.837 356.837 288 348 288H228C219.163 288 212 280.837 212 272V240Z" fill="#FDFDFD" fill-opacity="0.5" shape-rendering="crispEdges"/>
<path d="M212.75 240C212.75 231.578 219.578 224.75 228 224.75H348C356.422 224.75 363.25 231.578 363.25 240V272C363.25 280.422 356.422 287.25 348 287.25H228C219.578 287.25 212.75 280.422 212.75 272V240Z" stroke="#FDFDFD" stroke-opacity="0.25" stroke-width="1.5" shape-rendering="crispEdges"/>
</g>
<circle cx="239" cy="240" r="3" fill="#00A656"/>
<g filter="url(#filter10_f_1_881)">
<circle cx="239" cy="240" r="2" fill="#00A656"/>
</g>
<path d="M251.008 244.5V235.74H253.756C254.308 235.74 254.788 235.848 255.196 236.064C255.604 236.272 255.92 236.568 256.144 236.952C256.376 237.336 256.492 237.788 256.492 238.308C256.492 238.892 256.34 239.4 256.036 239.832C255.74 240.256 255.336 240.556 254.824 240.732L256.612 244.5H255.136L253.54 240.9H252.304V244.5H251.008ZM252.304 239.76H253.756C254.188 239.76 254.532 239.632 254.788 239.376C255.044 239.112 255.172 238.764 255.172 238.332C255.172 237.884 255.044 237.532 254.788 237.276C254.532 237.02 254.188 236.892 253.756 236.892H252.304V239.76ZM260.555 244.62C260.019 244.62 259.547 244.516 259.139 244.308C258.739 244.092 258.431 243.792 258.215 243.408C257.999 243.024 257.891 242.576 257.891 242.064V240.336C257.891 239.816 257.999 239.368 258.215 238.992C258.431 238.608 258.739 238.312 259.139 238.104C259.547 237.888 260.019 237.78 260.555 237.78C261.099 237.78 261.571 237.888 261.971 238.104C262.371 238.312 262.679 238.608 262.895 238.992C263.111 239.368 263.219 239.816 263.219 240.336V241.512H259.139V242.064C259.139 242.552 259.259 242.924 259.499 243.18C259.747 243.436 260.103 243.564 260.567 243.564C260.943 243.564 261.247 243.5 261.479 243.372C261.711 243.236 261.855 243.04 261.911 242.784H263.195C263.099 243.344 262.811 243.792 262.331 244.128C261.851 244.456 261.259 244.62 260.555 244.62ZM261.971 240.732V240.324C261.971 239.844 261.851 239.472 261.611 239.208C261.371 238.944 261.019 238.812 260.555 238.812C260.099 238.812 259.747 238.944 259.499 239.208C259.259 239.472 259.139 239.848 259.139 240.336V240.636L262.067 240.624L261.971 240.732ZM267.559 244.62C267.015 244.62 266.535 244.52 266.119 244.32C265.711 244.112 265.395 243.816 265.171 243.432C264.955 243.04 264.847 242.584 264.847 242.064V240.336C264.847 239.808 264.955 239.352 265.171 238.968C265.395 238.584 265.711 238.292 266.119 238.092C266.535 237.884 267.015 237.78 267.559 237.78C268.351 237.78 268.987 237.988 269.467 238.404C269.947 238.82 270.199 239.388 270.223 240.108H268.927C268.903 239.732 268.771 239.44 268.531 239.232C268.291 239.024 267.967 238.92 267.559 238.92C267.119 238.92 266.771 239.044 266.515 239.292C266.259 239.532 266.131 239.876 266.131 240.324V242.064C266.131 242.512 266.259 242.86 266.515 243.108C266.771 243.356 267.119 243.48 267.559 243.48C267.967 243.48 268.291 243.376 268.531 243.168C268.771 242.96 268.903 242.668 268.927 242.292H270.223C270.199 243.012 269.947 243.58 269.467 243.996C268.987 244.412 268.351 244.62 267.559 244.62ZM274.466 244.62C273.93 244.62 273.458 244.516 273.05 244.308C272.65 244.092 272.342 243.792 272.126 243.408C271.91 243.024 271.802 242.576 271.802 242.064V240.336C271.802 239.816 271.91 239.368 272.126 238.992C272.342 238.608 272.65 238.312 273.05 238.104C273.458 237.888 273.93 237.78 274.466 237.78C275.01 237.78 275.482 237.888 275.882 238.104C276.282 238.312 276.59 238.608 276.806 238.992C277.022 239.368 277.13 239.816 277.13 240.336V241.512H273.05V242.064C273.05 242.552 273.17 242.924 273.41 243.18C273.658 243.436 274.014 243.564 274.478 243.564C274.854 243.564 275.158 243.5 275.39 243.372C275.622 243.236 275.766 243.04 275.822 242.784H277.106C277.01 243.344 276.722 243.792 276.242 244.128C275.762 244.456 275.17 244.62 274.466 244.62ZM275.882 240.732V240.324C275.882 239.844 275.762 239.472 275.522 239.208C275.282 238.944 274.93 238.812 274.466 238.812C274.01 238.812 273.658 238.944 273.41 239.208C273.17 239.472 273.05 239.848 273.05 240.336V240.636L275.978 240.624L275.882 240.732ZM278.793 244.5V243.324H281.109V239.076H279.093V237.9H282.369V243.324H284.493V244.5H278.793ZM281.613 236.76C281.333 236.76 281.109 236.688 280.941 236.544C280.773 236.392 280.689 236.192 280.689 235.944C280.689 235.688 280.773 235.488 280.941 235.344C281.109 235.192 281.333 235.116 281.613 235.116C281.893 235.116 282.117 235.192 282.285 235.344C282.453 235.488 282.537 235.688 282.537 235.944C282.537 236.192 282.453 236.392 282.285 236.544C282.117 236.688 281.893 236.76 281.613 236.76ZM285.785 246.66V237.9H287.069V239.16H287.345L287.069 239.46C287.069 238.94 287.229 238.532 287.549 238.236C287.877 237.932 288.313 237.78 288.857 237.78C289.521 237.78 290.049 238.004 290.441 238.452C290.841 238.892 291.041 239.496 291.041 240.264V242.124C291.041 242.636 290.949 243.08 290.765 243.456C290.589 243.824 290.337 244.112 290.009 244.32C289.689 244.52 289.305 244.62 288.857 244.62C288.321 244.62 287.889 244.472 287.561 244.176C287.233 243.872 287.069 243.46 287.069 242.94L287.345 243.24H287.045L287.081 244.776V246.66H285.785ZM288.413 243.492C288.837 243.492 289.165 243.372 289.397 243.132C289.637 242.884 289.757 242.528 289.757 242.064V240.336C289.757 239.872 289.637 239.52 289.397 239.28C289.165 239.032 288.837 238.908 288.413 238.908C288.005 238.908 287.681 239.036 287.441 239.292C287.201 239.54 287.081 239.888 287.081 240.336V242.064C287.081 242.512 287.201 242.864 287.441 243.12C287.681 243.368 288.005 243.492 288.413 243.492ZM296.052 244.5C295.452 244.5 294.984 244.336 294.648 244.008C294.312 243.68 294.144 243.224 294.144 242.64V239.076H292.32V237.9H294.144V236.04H295.44V237.9H298.02V239.076H295.44V242.64C295.44 243.096 295.66 243.324 296.1 243.324H297.9V244.5H296.052Z" fill="#727272"/>
<rect x="236" y="252.5" width="104" height="4" rx="2" fill="#E2E4E3"/>
<path d="M239.48 275.7C239.4 275.7 239.332 275.672 239.276 275.616C239.22 275.56 239.192 275.492 239.192 275.412V274.572C238.6 274.516 238.1 274.376 237.692 274.152C237.284 273.92 236.976 273.644 236.768 273.324C236.56 272.996 236.448 272.656 236.432 272.304C236.432 272.232 236.456 272.172 236.504 272.124C236.56 272.076 236.624 272.052 236.696 272.052H237.764C237.86 272.052 237.936 272.076 237.992 272.124C238.048 272.164 238.092 272.216 238.124 272.28C238.18 272.432 238.272 272.584 238.4 272.736C238.536 272.88 238.724 273 238.964 273.096C239.204 273.192 239.504 273.24 239.864 273.24C240.44 273.24 240.868 273.144 241.148 272.952C241.428 272.76 241.568 272.5 241.568 272.172C241.568 271.94 241.492 271.756 241.34 271.62C241.196 271.476 240.964 271.348 240.644 271.236C240.324 271.116 239.904 270.992 239.384 270.864C238.792 270.72 238.292 270.548 237.884 270.348C237.476 270.14 237.168 269.88 236.96 269.568C236.76 269.256 236.66 268.86 236.66 268.38C236.66 267.764 236.884 267.24 237.332 266.808C237.78 266.376 238.4 266.112 239.192 266.016V265.188C239.192 265.108 239.22 265.04 239.276 264.984C239.332 264.928 239.4 264.9 239.48 264.9H240.212C240.292 264.9 240.36 264.928 240.416 264.984C240.472 265.04 240.5 265.108 240.5 265.188V266.04C241.044 266.12 241.5 266.28 241.868 266.52C242.236 266.76 242.516 267.036 242.708 267.348C242.9 267.652 243 267.948 243.008 268.236C243.008 268.3 242.984 268.36 242.936 268.416C242.896 268.464 242.836 268.488 242.756 268.488H241.64C241.568 268.488 241.5 268.472 241.436 268.44C241.372 268.408 241.32 268.348 241.28 268.26C241.24 268.012 241.088 267.8 240.824 267.624C240.56 267.448 240.216 267.36 239.792 267.36C239.36 267.36 239.012 267.44 238.748 267.6C238.492 267.76 238.364 268.008 238.364 268.344C238.364 268.568 238.428 268.756 238.556 268.908C238.684 269.052 238.892 269.18 239.18 269.292C239.476 269.404 239.868 269.524 240.356 269.652C241.036 269.804 241.588 269.98 242.012 270.18C242.444 270.38 242.76 270.636 242.96 270.948C243.168 271.252 243.272 271.64 243.272 272.112C243.272 272.576 243.156 272.984 242.924 273.336C242.7 273.68 242.38 273.96 241.964 274.176C241.548 274.384 241.06 274.52 240.5 274.584V275.412C240.5 275.492 240.472 275.56 240.416 275.616C240.36 275.672 240.292 275.7 240.212 275.7H239.48ZM246.795 274.5C246.707 274.5 246.635 274.472 246.579 274.416C246.531 274.36 246.507 274.292 246.507 274.212V267.996L244.683 269.4C244.611 269.448 244.539 269.468 244.467 269.46C244.395 269.444 244.331 269.4 244.275 269.328L243.771 268.68C243.723 268.608 243.703 268.532 243.711 268.452C243.727 268.372 243.771 268.308 243.843 268.26L246.531 266.184C246.579 266.144 246.627 266.12 246.675 266.112C246.723 266.104 246.775 266.1 246.831 266.1H247.887C247.967 266.1 248.035 266.128 248.091 266.184C248.147 266.24 248.175 266.308 248.175 266.388V274.212C248.175 274.292 248.147 274.36 248.091 274.416C248.035 274.472 247.967 274.5 247.887 274.5H246.795ZM252.458 274.632C251.77 274.632 251.19 274.52 250.718 274.296C250.246 274.064 249.886 273.764 249.638 273.396C249.398 273.028 249.27 272.636 249.254 272.22C249.246 272.148 249.266 272.092 249.314 272.052C249.37 272.004 249.434 271.98 249.506 271.98H250.622C250.71 271.98 250.782 272 250.838 272.04C250.902 272.072 250.95 272.132 250.982 272.22C251.062 272.46 251.174 272.656 251.318 272.808C251.47 272.96 251.642 273.072 251.834 273.144C252.034 273.216 252.242 273.252 252.458 273.252C252.746 273.252 253.006 273.196 253.238 273.084C253.478 272.964 253.67 272.788 253.814 272.556C253.958 272.324 254.03 272.04 254.03 271.704C254.03 271.408 253.962 271.152 253.826 270.936C253.69 270.72 253.502 270.552 253.262 270.432C253.03 270.304 252.762 270.24 252.458 270.24C252.234 270.24 252.05 270.268 251.906 270.324C251.762 270.38 251.638 270.444 251.534 270.516C251.438 270.588 251.35 270.652 251.27 270.708C251.198 270.764 251.114 270.792 251.018 270.792H249.914C249.842 270.792 249.778 270.768 249.722 270.72C249.674 270.664 249.65 270.6 249.65 270.528L250.07 266.424C250.078 266.32 250.114 266.24 250.178 266.184C250.242 266.128 250.318 266.1 250.406 266.1H254.918C254.998 266.1 255.066 266.128 255.122 266.184C255.178 266.24 255.206 266.308 255.206 266.388V267.192C255.206 267.272 255.178 267.34 255.122 267.396C255.066 267.452 254.998 267.48 254.918 267.48H251.45L251.258 269.436C251.402 269.34 251.594 269.248 251.834 269.16C252.074 269.072 252.406 269.028 252.83 269.028C253.214 269.028 253.578 269.092 253.922 269.22C254.274 269.34 254.586 269.52 254.858 269.76C255.13 269.992 255.342 270.276 255.494 270.612C255.654 270.94 255.734 271.316 255.734 271.74C255.734 272.324 255.598 272.832 255.326 273.264C255.054 273.696 254.674 274.032 254.186 274.272C253.698 274.512 253.122 274.632 252.458 274.632ZM260.727 274.5C260.647 274.5 260.579 274.472 260.523 274.416C260.467 274.36 260.439 274.292 260.439 274.212V272.676H256.635C256.547 272.676 256.475 272.648 256.419 272.592C256.371 272.536 256.347 272.468 256.347 272.388V271.572C256.347 271.524 256.355 271.468 256.371 271.404C256.395 271.332 256.431 271.268 256.479 271.212L260.019 266.304C260.123 266.168 260.271 266.1 260.463 266.1H261.771C261.851 266.1 261.919 266.128 261.975 266.184C262.031 266.24 262.059 266.308 262.059 266.388V271.26H263.127C263.223 271.26 263.295 271.288 263.343 271.344C263.399 271.392 263.427 271.46 263.427 271.548V272.388C263.427 272.468 263.399 272.536 263.343 272.592C263.287 272.648 263.219 272.676 263.139 272.676H262.059V274.212C262.059 274.292 262.031 274.36 261.975 274.416C261.919 274.472 261.851 274.5 261.771 274.5H260.727ZM258.015 271.308H260.475V267.84L258.015 271.308ZM267.403 274.62C266.715 274.62 266.123 274.492 265.627 274.236C265.131 273.972 264.747 273.62 264.475 273.18C264.203 272.732 264.067 272.232 264.067 271.68C264.067 271.432 264.099 271.192 264.163 270.96C264.227 270.728 264.311 270.508 264.415 270.3C264.519 270.092 264.619 269.908 264.715 269.748C264.819 269.58 264.911 269.448 264.991 269.352L267.187 266.34C267.219 266.3 267.267 266.252 267.331 266.196C267.395 266.132 267.483 266.1 267.595 266.1H268.711C268.783 266.1 268.843 266.128 268.891 266.184C268.939 266.232 268.963 266.292 268.963 266.364C268.963 266.396 268.955 266.428 268.939 266.46C268.931 266.484 268.919 266.504 268.903 266.52L267.223 268.848C267.295 268.824 267.379 268.808 267.475 268.8C267.571 268.792 267.659 268.788 267.739 268.788C268.139 268.796 268.519 268.876 268.879 269.028C269.239 269.172 269.555 269.372 269.827 269.628C270.099 269.884 270.311 270.184 270.463 270.528C270.623 270.872 270.703 271.248 270.703 271.656C270.703 272.184 270.571 272.676 270.307 273.132C270.043 273.58 269.663 273.94 269.167 274.212C268.679 274.484 268.091 274.62 267.403 274.62ZM267.391 273.24C267.679 273.24 267.943 273.18 268.183 273.06C268.431 272.94 268.631 272.764 268.783 272.532C268.935 272.3 269.011 272.012 269.011 271.668C269.011 271.332 268.935 271.048 268.783 270.816C268.631 270.584 268.431 270.408 268.183 270.288C267.943 270.168 267.679 270.108 267.391 270.108C267.103 270.108 266.835 270.168 266.587 270.288C266.347 270.408 266.151 270.584 265.999 270.816C265.847 271.048 265.771 271.332 265.771 271.668C265.771 272.012 265.847 272.3 265.999 272.532C266.151 272.764 266.347 272.94 266.587 273.06C266.835 273.18 267.103 273.24 267.391 273.24ZM271.867 274.5C271.787 274.5 271.719 274.472 271.663 274.416C271.607 274.36 271.579 274.292 271.579 274.212V273.024C271.579 272.936 271.607 272.864 271.663 272.808C271.719 272.752 271.787 272.724 271.867 272.724H273.067C273.147 272.724 273.215 272.752 273.271 272.808C273.327 272.864 273.355 272.936 273.355 273.024V274.212C273.355 274.292 273.327 274.36 273.271 274.416C273.215 274.472 273.147 274.5 273.067 274.5H271.867ZM277.637 274.62C277.069 274.62 276.585 274.536 276.185 274.368C275.785 274.2 275.457 273.968 275.201 273.672C274.945 273.376 274.753 273.036 274.625 272.652C274.497 272.26 274.421 271.844 274.397 271.404C274.389 271.188 274.381 270.952 274.373 270.696C274.373 270.432 274.373 270.168 274.373 269.904C274.381 269.64 274.389 269.396 274.397 269.172C274.413 268.732 274.489 268.32 274.625 267.936C274.761 267.544 274.957 267.204 275.213 266.916C275.477 266.628 275.809 266.4 276.209 266.232C276.609 266.064 277.085 265.98 277.637 265.98C278.197 265.98 278.677 266.064 279.077 266.232C279.477 266.4 279.805 266.628 280.061 266.916C280.325 267.204 280.521 267.544 280.649 267.936C280.785 268.32 280.861 268.732 280.877 269.172C280.893 269.396 280.901 269.64 280.901 269.904C280.901 270.168 280.901 270.432 280.901 270.696C280.901 270.952 280.893 271.188 280.877 271.404C280.861 271.844 280.789 272.26 280.661 272.652C280.533 273.036 280.341 273.376 280.085 273.672C279.829 273.968 279.497 274.2 279.089 274.368C278.689 274.536 278.205 274.62 277.637 274.62ZM277.637 273.24C278.157 273.24 278.537 273.072 278.777 272.736C279.025 272.392 279.153 271.928 279.161 271.344C279.177 271.112 279.185 270.88 279.185 270.648C279.185 270.408 279.185 270.168 279.185 269.928C279.185 269.688 279.177 269.46 279.161 269.244C279.153 268.676 279.025 268.22 278.777 267.876C278.537 267.524 278.157 267.348 277.637 267.348C277.125 267.348 276.745 267.524 276.497 267.876C276.257 268.22 276.129 268.676 276.113 269.244C276.113 269.46 276.109 269.688 276.101 269.928C276.101 270.168 276.101 270.408 276.101 270.648C276.109 270.88 276.113 271.112 276.113 271.344C276.129 271.928 276.261 272.392 276.509 272.736C276.757 273.072 277.133 273.24 277.637 273.24ZM285.283 274.62C284.715 274.62 284.231 274.536 283.831 274.368C283.431 274.2 283.103 273.968 282.847 273.672C282.591 273.376 282.399 273.036 282.271 272.652C282.143 272.26 282.067 271.844 282.043 271.404C282.035 271.188 282.027 270.952 282.019 270.696C282.019 270.432 282.019 270.168 282.019 269.904C282.027 269.64 282.035 269.396 282.043 269.172C282.059 268.732 282.135 268.32 282.271 267.936C282.407 267.544 282.603 267.204 282.859 266.916C283.123 266.628 283.455 266.4 283.855 266.232C284.255 266.064 284.731 265.98 285.283 265.98C285.843 265.98 286.323 266.064 286.723 266.232C287.123 266.4 287.451 266.628 287.707 266.916C287.971 267.204 288.167 267.544 288.295 267.936C288.431 268.32 288.507 268.732 288.523 269.172C288.539 269.396 288.547 269.64 288.547 269.904C288.547 270.168 288.547 270.432 288.547 270.696C288.547 270.952 288.539 271.188 288.523 271.404C288.507 271.844 288.435 272.26 288.307 272.652C288.179 273.036 287.987 273.376 287.731 273.672C287.475 273.968 287.143 274.2 286.735 274.368C286.335 274.536 285.851 274.62 285.283 274.62ZM285.283 273.24C285.803 273.24 286.183 273.072 286.423 272.736C286.671 272.392 286.799 271.928 286.807 271.344C286.823 271.112 286.831 270.88 286.831 270.648C286.831 270.408 286.831 270.168 286.831 269.928C286.831 269.688 286.823 269.46 286.807 269.244C286.799 268.676 286.671 268.22 286.423 267.876C286.183 267.524 285.803 267.348 285.283 267.348C284.771 267.348 284.391 267.524 284.143 267.876C283.903 268.22 283.775 268.676 283.759 269.244C283.759 269.46 283.755 269.688 283.747 269.928C283.747 270.168 283.747 270.408 283.747 270.648C283.755 270.88 283.759 271.112 283.759 271.344C283.775 271.928 283.907 272.392 284.155 272.736C284.403 273.072 284.779 273.24 285.283 273.24Z" fill="#1B1B1B"/>
<path fill-rule="evenodd" clip-rule="evenodd" d="M239 234.5C235.691 234.5 233 237.191 233 240.5C233 243.809 235.691 246.5 239 246.5C242.309 246.5 245 243.809 245 240.5C245 237.191 242.309 234.5 239 234.5Z" fill="#4BAE4F"/>
<path fill-rule="evenodd" clip-rule="evenodd" d="M241.902 238.477C242.048 238.623 242.048 238.862 241.902 239.007L238.387 242.523C238.314 242.595 238.218 242.633 238.122 242.633C238.026 242.633 237.93 242.595 237.857 242.523L236.099 240.765C235.954 240.62 235.954 240.38 236.099 240.235C236.245 240.09 236.484 240.09 236.629 240.235L238.122 241.728L241.373 238.477C241.518 238.33 241.757 238.33 241.902 238.477Z" fill="white"/>
</g>
<g filter="url(#filter11_b_1_881)">
<path d="M11 169.453C11 155.993 11 149.263 13.6195 144.122C15.9236 139.6 19.6003 135.924 24.1224 133.619C29.2634 131 35.9934 131 49.4533 131H75.5467C89.0066 131 95.7366 131 100.878 133.619C105.4 135.924 109.076 139.6 111.381 144.122C114 149.263 114 155.993 114 169.453V195.547C114 209.007 114 215.737 111.381 220.878C109.076 225.4 105.4 229.076 100.878 231.381C95.7366 234 89.0066 234 75.5467 234H49.4533C35.9934 234 29.2634 234 24.1224 231.381C19.6003 229.076 15.9236 225.4 13.6195 220.878C11 215.737 11 209.007 11 195.547V169.453Z" fill="url(#paint6_linear_1_881)" fill-opacity="0.75"/>
<path d="M11.6438 169.453C11.6438 162.713 11.6443 157.696 11.969 153.721C12.2932 149.753 12.9373 146.879 14.1931 144.415C16.4355 140.014 20.0137 136.436 24.4147 134.193C26.8793 132.937 29.7529 132.293 33.7207 131.969C37.696 131.644 42.7127 131.644 49.4533 131.644H75.5467C82.2872 131.644 87.304 131.644 91.2793 131.969C95.2471 132.293 98.1207 132.937 100.585 134.193C104.986 136.436 108.565 140.014 110.807 144.415C112.063 146.879 112.707 149.753 113.031 153.721C113.356 157.696 113.356 162.713 113.356 169.453V195.547C113.356 202.287 113.356 207.304 113.031 211.279C112.707 215.247 112.063 218.121 110.807 220.585C108.565 224.986 104.986 228.565 100.585 230.807C98.1207 232.063 95.2471 232.707 91.2793 233.031C87.304 233.356 82.2873 233.356 75.5467 233.356H49.4533C42.7127 233.356 37.696 233.356 33.7207 233.031C29.7529 232.707 26.8793 232.063 24.4147 230.807C20.0137 228.565 16.4355 224.986 14.1931 220.585C12.9373 218.121 12.2932 215.247 11.969 211.279C11.6443 207.304 11.6438 202.287 11.6438 195.547V169.453Z" stroke="url(#paint7_linear_1_881)" stroke-width="1.2875"/>
</g>
<g filter="url(#filter12_dddddd_1_881)">
<path d="M17.8672 165.333C17.8672 155.719 17.8672 150.912 19.7382 147.24C21.3841 144.01 24.0102 141.384 27.2404 139.738C30.9125 137.867 35.7196 137.867 45.3339 137.867H79.6672C89.2814 137.867 94.0885 137.867 97.7607 139.738C100.991 141.384 103.617 144.01 105.263 147.24C107.134 150.912 107.134 155.719 107.134 165.333V199.667C107.134 209.281 107.134 214.088 105.263 217.76C103.617 220.99 100.991 223.616 97.7607 225.262C94.0885 227.133 89.2814 227.133 79.6672 227.133H45.3339C35.7196 227.133 30.9125 227.133 27.2404 225.262C24.0102 223.616 21.3841 220.99 19.7382 217.76C17.8672 214.088 17.8672 209.281 17.8672 199.667V165.333Z" fill="#F1F1F1"/>
<path d="M18.5109 165.333C18.5109 160.516 18.5114 156.941 18.7427 154.111C18.9733 151.288 19.4302 149.262 20.3118 147.532C21.8959 144.423 24.4236 141.895 27.5326 140.311C29.2628 139.43 31.2885 138.973 34.1112 138.742C36.9415 138.511 40.5161 138.51 45.3339 138.51H79.6672C84.4849 138.51 88.0595 138.511 90.8898 138.742C93.7126 138.973 95.7382 139.43 97.4684 140.311C100.577 141.895 103.105 144.423 104.689 147.532C105.571 149.262 106.028 151.288 106.258 154.111C106.49 156.941 106.49 160.516 106.49 165.333V199.667C106.49 204.484 106.49 208.059 106.258 210.889C106.028 213.712 105.571 215.738 104.689 217.468C103.105 220.577 100.577 223.105 97.4684 224.689C95.7382 225.57 93.7126 226.027 90.8898 226.258C88.0595 226.489 84.4849 226.49 79.6672 226.49H45.3339C40.5161 226.49 36.9415 226.489 34.1112 226.258C31.2885 226.027 29.2628 225.57 27.5326 224.689C24.4236 223.105 21.8959 220.577 20.3118 217.468C19.4302 215.738 18.9733 213.712 18.7427 210.889C18.5114 208.059 18.5109 204.484 18.5109 199.667V165.333Z" stroke="url(#paint8_linear_1_881)" stroke-width="1.2875"/>
</g>
<circle cx="62.5" cy="182.5" r="32.6167" fill="#4BAE4F"/>
<path d="M38.792 187V178.24H40.388L41.264 181.048C41.352 181.312 41.428 181.568 41.492 181.816C41.556 182.056 41.6 182.236 41.624 182.356C41.656 182.236 41.7 182.056 41.756 181.816C41.82 181.568 41.892 181.312 41.972 181.048L42.812 178.24H44.408V187H43.184V184.048C43.184 183.672 43.192 183.256 43.208 182.8C43.232 182.336 43.264 181.872 43.304 181.408C43.344 180.936 43.384 180.488 43.424 180.064C43.464 179.632 43.5 179.256 43.532 178.936L42.236 183.196H40.988L39.668 178.936C39.708 179.248 39.748 179.612 39.788 180.028C39.828 180.436 39.864 180.872 39.896 181.336C39.928 181.8 39.956 182.268 39.98 182.74C40.004 183.204 40.016 183.64 40.016 184.048V187H38.792ZM47.8953 187.12C47.2073 187.12 46.6633 186.944 46.2633 186.592C45.8713 186.232 45.6753 185.744 45.6753 185.128C45.6753 184.504 45.8833 184.016 46.2993 183.664C46.7233 183.304 47.3033 183.124 48.0393 183.124H49.8753V182.512C49.8753 182.152 49.7633 181.872 49.5393 181.672C49.3153 181.472 48.9993 181.372 48.5913 181.372C48.2313 181.372 47.9313 181.452 47.6913 181.612C47.4513 181.764 47.3113 181.968 47.2713 182.224H45.9993C46.0713 181.632 46.3433 181.16 46.8153 180.808C47.2953 180.456 47.8993 180.28 48.6273 180.28C49.4113 180.28 50.0313 180.48 50.4873 180.88C50.9433 181.272 51.1713 181.808 51.1713 182.488V187H49.9113V185.788H49.6953L49.9113 185.548C49.9113 186.028 49.7273 186.412 49.3593 186.7C48.9913 186.98 48.5033 187.12 47.8953 187.12ZM48.2793 186.124C48.7433 186.124 49.1233 186.008 49.4193 185.776C49.7233 185.536 49.8753 185.232 49.8753 184.864V184H48.0633C47.7273 184 47.4593 184.092 47.2593 184.276C47.0673 184.46 46.9713 184.712 46.9713 185.032C46.9713 185.368 47.0873 185.636 47.3193 185.836C47.5513 186.028 47.8713 186.124 48.2793 186.124ZM56.2306 187C55.6306 187 55.1626 186.836 54.8266 186.508C54.4906 186.18 54.3226 185.724 54.3226 185.14V181.576H52.4986V180.4H54.3226V178.54H55.6186V180.4H58.1986V181.576H55.6186V185.14C55.6186 185.596 55.8386 185.824 56.2786 185.824H58.0786V187H56.2306ZM62.5139 187.12C61.9699 187.12 61.4899 187.02 61.0739 186.82C60.6659 186.612 60.3499 186.316 60.1259 185.932C59.9099 185.54 59.8019 185.084 59.8019 184.564V182.836C59.8019 182.308 59.9099 181.852 60.1259 181.468C60.3499 181.084 60.6659 180.792 61.0739 180.592C61.4899 180.384 61.9699 180.28 62.5139 180.28C63.3059 180.28 63.9419 180.488 64.4219 180.904C64.9019 181.32 65.1539 181.888 65.1779 182.608H63.8819C63.8579 182.232 63.7259 181.94 63.4859 181.732C63.2459 181.524 62.9219 181.42 62.5139 181.42C62.0739 181.42 61.7259 181.544 61.4699 181.792C61.2139 182.032 61.0859 182.376 61.0859 182.824V184.564C61.0859 185.012 61.2139 185.36 61.4699 185.608C61.7259 185.856 62.0739 185.98 62.5139 185.98C62.9219 185.98 63.2459 185.876 63.4859 185.668C63.7259 185.46 63.8579 185.168 63.8819 184.792H65.1779C65.1539 185.512 64.9019 186.08 64.4219 186.496C63.9419 186.912 63.3059 187.12 62.5139 187.12ZM66.8293 187V178.24H68.1253V180.4L68.1133 181.66H68.4253L68.1133 181.96C68.1133 181.432 68.2693 181.02 68.5813 180.724C68.8933 180.428 69.3253 180.28 69.8773 180.28C70.5333 180.28 71.0573 180.492 71.4493 180.916C71.8413 181.332 72.0373 181.896 72.0373 182.608V187H70.7413V182.752C70.7413 182.32 70.6253 181.984 70.3933 181.744C70.1613 181.504 69.8453 181.384 69.4453 181.384C69.0373 181.384 68.7133 181.512 68.4733 181.768C68.2413 182.016 68.1253 182.372 68.1253 182.836V187H66.8293ZM76.3766 187.12C75.8406 187.12 75.3686 187.016 74.9606 186.808C74.5606 186.592 74.2526 186.292 74.0366 185.908C73.8206 185.524 73.7126 185.076 73.7126 184.564V182.836C73.7126 182.316 73.8206 181.868 74.0366 181.492C74.2526 181.108 74.5606 180.812 74.9606 180.604C75.3686 180.388 75.8406 180.28 76.3766 180.28C76.9206 180.28 77.3926 180.388 77.7926 180.604C78.1926 180.812 78.5006 181.108 78.7166 181.492C78.9326 181.868 79.0406 182.316 79.0406 182.836V184.012H74.9606V184.564C74.9606 185.052 75.0806 185.424 75.3206 185.68C75.5686 185.936 75.9246 186.064 76.3886 186.064C76.7646 186.064 77.0686 186 77.3006 185.872C77.5326 185.736 77.6766 185.54 77.7326 185.284H79.0166C78.9206 185.844 78.6326 186.292 78.1526 186.628C77.6726 186.956 77.0806 187.12 76.3766 187.12ZM77.7926 183.232V182.824C77.7926 182.344 77.6726 181.972 77.4326 181.708C77.1926 181.444 76.8406 181.312 76.3766 181.312C75.9206 181.312 75.5686 181.444 75.3206 181.708C75.0806 181.972 74.9606 182.348 74.9606 182.836V183.136L77.8886 183.124L77.7926 183.232ZM82.8639 187.12C82.1999 187.12 81.6679 186.896 81.2679 186.448C80.8679 186 80.6679 185.396 80.6679 184.636V182.776C80.6679 182.008 80.8679 181.4 81.2679 180.952C81.6679 180.504 82.1999 180.28 82.8639 180.28C83.4079 180.28 83.8399 180.432 84.1599 180.736C84.4799 181.032 84.6399 181.44 84.6399 181.96L84.3639 181.66H84.6639L84.6279 180.124V178.24H85.9239V187H84.6399V185.74H84.3639L84.6399 185.44C84.6399 185.96 84.4799 186.372 84.1599 186.676C83.8399 186.972 83.4079 187.12 82.8639 187.12ZM83.3079 185.992C83.7159 185.992 84.0359 185.868 84.2679 185.62C84.5079 185.364 84.6279 185.012 84.6279 184.564V182.836C84.6279 182.388 84.5079 182.04 84.2679 181.792C84.0359 181.536 83.7159 181.408 83.3079 181.408C82.8839 181.408 82.5519 181.532 82.3119 181.78C82.0719 182.02 81.9519 182.372 81.9519 182.836V184.564C81.9519 185.028 82.0719 185.384 82.3119 185.632C82.5519 185.872 82.8839 185.992 83.3079 185.992Z" fill="#FDFDFD"/>
<path d="M87.6438 178.208C87.6438 177.853 87.3555 177.565 87 177.565C86.6445 177.565 86.3562 177.853 86.3562 178.208H87.6438ZM86.3562 178.208V186.792H87.6438V178.208H86.3562Z" fill="#3292FF"/>
</g>
<defs>
<filter id="filter0_d_1_881" x="143.7" y="23.9749" width="276.029" height="327.376" filterUnits="userSpaceOnUse" color-interpolation-filters="sRGB">
<feFlood flood-opacity="0" result="BackgroundImageFix"/>
<feColorMatrix in="SourceAlpha" type="matrix" values="0 0 0 0 0 0 0 0 0 0 0 0 0 0 0 0 0 0 127 0" result="hardAlpha"/>
<feOffset dx="-6" dy="4"/>
<feGaussianBlur stdDeviation="12.65"/>
<feComposite in2="hardAlpha" operator="out"/>
<feColorMatrix type="matrix" values="0 0 0 0 0.0617699 0 0 0 0 0.08491 0 0 0 0 0.082596 0 0 0 0.1 0"/>
<feBlend mode="normal" in2="BackgroundImageFix" result="effect1_dropShadow_1_881"/>
<feBlend mode="normal" in="SourceGraphic" in2="effect1_dropShadow_1_881" result="shape"/>
</filter>
<filter id="filter1_b_1_881" x="146" y="17" width="284" height="336" filterUnits="userSpaceOnUse" color-interpolation-filters="sRGB">
<feFlood flood-opacity="0" result="BackgroundImageFix"/>
<feGaussianBlur in="BackgroundImageFix" stdDeviation="16"/>
<feComposite in2="SourceAlpha" operator="in" result="effect1_backgroundBlur_1_881"/>
<feBlend mode="normal" in="SourceGraphic" in2="effect1_backgroundBlur_1_881" result="shape"/>
</filter>
<filter id="filter2_b_1_881" x="172" y="24" width="232" height="144" filterUnits="userSpaceOnUse" color-interpolation-filters="sRGB">
<feFlood flood-opacity="0" result="BackgroundImageFix"/>
<feGaussianBlur in="BackgroundImageFix" stdDeviation="16"/>
<feComposite in2="SourceAlpha" operator="in" result="effect1_backgroundBlur_1_881"/>
<feBlend mode="normal" in="SourceGraphic" in2="effect1_backgroundBlur_1_881" result="shape"/>
</filter>
<filter id="filter3_bd_1_881" x="180" y="32" width="216" height="128" filterUnits="userSpaceOnUse" color-interpolation-filters="sRGB">
<feFlood flood-opacity="0" result="BackgroundImageFix"/>
<feGaussianBlur in="BackgroundImageFix" stdDeviation="16"/>
<feComposite in2="SourceAlpha" operator="in" result="effect1_backgroundBlur_1_881"/>
<feColorMatrix in="SourceAlpha" type="matrix" values="0 0 0 0 0 0 0 0 0 0 0 0 0 0 0 0 0 0 127 0" result="hardAlpha"/>
<feMorphology radius="4" operator="erode" in="SourceAlpha" result="effect2_dropShadow_1_881"/>
<feOffset dy="1"/>
<feGaussianBlur stdDeviation="4"/>
<feComposite in2="hardAlpha" operator="out"/>
<feColorMatrix type="matrix" values="0 0 0 0 0 0 0 0 0 0 0 0 0 0 0 0 0 0 0.2 0"/>
<feBlend mode="multiply" in2="effect1_backgroundBlur_1_881" result="effect2_dropShadow_1_881"/>
<feBlend mode="normal" in="SourceGraphic" in2="effect2_dropShadow_1_881" result="shape"/>
</filter>
<filter id="filter4_f_1_881" x="231" y="72" width="16" height="16" filterUnits="userSpaceOnUse" color-interpolation-filters="sRGB">
<feFlood flood-opacity="0" result="BackgroundImageFix"/>
<feBlend mode="normal" in="SourceGraphic" in2="BackgroundImageFix" result="shape"/>
<feGaussianBlur stdDeviation="3" result="effect1_foregroundBlur_1_881"/>
</filter>
<filter id="filter5_b_1_881" x="172" y="104" width="232" height="144" filterUnits="userSpaceOnUse" color-interpolation-filters="sRGB">
<feFlood flood-opacity="0" result="BackgroundImageFix"/>
<feGaussianBlur in="BackgroundImageFix" stdDeviation="16"/>
<feComposite in2="SourceAlpha" operator="in" result="effect1_backgroundBlur_1_881"/>
<feBlend mode="normal" in="SourceGraphic" in2="effect1_backgroundBlur_1_881" result="shape"/>
</filter>
<filter id="filter6_bd_1_881" x="180" y="112" width="216" height="128" filterUnits="userSpaceOnUse" color-interpolation-filters="sRGB">
<feFlood flood-opacity="0" result="BackgroundImageFix"/>
<feGaussianBlur in="BackgroundImageFix" stdDeviation="16"/>
<feComposite in2="SourceAlpha" operator="in" result="effect1_backgroundBlur_1_881"/>
<feColorMatrix in="SourceAlpha" type="matrix" values="0 0 0 0 0 0 0 0 0 0 0 0 0 0 0 0 0 0 127 0" result="hardAlpha"/>
<feMorphology radius="4" operator="erode" in="SourceAlpha" result="effect2_dropShadow_1_881"/>
<feOffset dy="1"/>
<feGaussianBlur stdDeviation="4"/>
<feComposite in2="hardAlpha" operator="out"/>
<feColorMatrix type="matrix" values="0 0 0 0 0 0 0 0 0 0 0 0 0 0 0 0 0 0 0.2 0"/>
<feBlend mode="multiply" in2="effect1_backgroundBlur_1_881" result="effect2_dropShadow_1_881"/>
<feBlend mode="normal" in="SourceGraphic" in2="effect2_dropShadow_1_881" result="shape"/>
</filter>
<filter id="filter7_f_1_881" x="231" y="152" width="16" height="16" filterUnits="userSpaceOnUse" color-interpolation-filters="sRGB">
<feFlood flood-opacity="0" result="BackgroundImageFix"/>
<feBlend mode="normal" in="SourceGraphic" in2="BackgroundImageFix" result="shape"/>
<feGaussianBlur stdDeviation="3" result="effect1_foregroundBlur_1_881"/>
</filter>
<filter id="filter8_b_1_881" x="172" y="184" width="232" height="144" filterUnits="userSpaceOnUse" color-interpolation-filters="sRGB">
<feFlood flood-opacity="0" result="BackgroundImageFix"/>
<feGaussianBlur in="BackgroundImageFix" stdDeviation="16"/>
<feComposite in2="SourceAlpha" operator="in" result="effect1_backgroundBlur_1_881"/>
<feBlend mode="normal" in="SourceGraphic" in2="effect1_backgroundBlur_1_881" result="shape"/>
</filter>
<filter id="filter9_bd_1_881" x="180" y="192" width="216" height="128" filterUnits="userSpaceOnUse" color-interpolation-filters="sRGB">
<feFlood flood-opacity="0" result="BackgroundImageFix"/>
<feGaussianBlur in="BackgroundImageFix" stdDeviation="16"/>
<feComposite in2="SourceAlpha" operator="in" result="effect1_backgroundBlur_1_881"/>
<feColorMatrix in="SourceAlpha" type="matrix" values="0 0 0 0 0 0 0 0 0 0 0 0 0 0 0 0 0 0 127 0" result="hardAlpha"/>
<feMorphology radius="4" operator="erode" in="SourceAlpha" result="effect2_dropShadow_1_881"/>
<feOffset dy="1"/>
<feGaussianBlur stdDeviation="4"/>
<feComposite in2="hardAlpha" operator="out"/>
<feColorMatrix type="matrix" values="0 0 0 0 0 0 0 0 0 0 0 0 0 0 0 0 0 0 0.2 0"/>
<feBlend mode="multiply" in2="effect1_backgroundBlur_1_881" result="effect2_dropShadow_1_881"/>
<feBlend mode="normal" in="SourceGraphic" in2="effect2_dropShadow_1_881" result="shape"/>
</filter>
<filter id="filter10_f_1_881" x="231" y="232" width="16" height="16" filterUnits="userSpaceOnUse" color-interpolation-filters="sRGB">
<feFlood flood-opacity="0" result="BackgroundImageFix"/>
<feBlend mode="normal" in="SourceGraphic" in2="BackgroundImageFix" result="shape"/>
<feGaussianBlur stdDeviation="3" result="effect1_foregroundBlur_1_881"/>
</filter>
<filter id="filter11_b_1_881" x="-16.4667" y="103.533" width="157.933" height="157.933" filterUnits="userSpaceOnUse" color-interpolation-filters="sRGB">
<feFlood flood-opacity="0" result="BackgroundImageFix"/>
<feGaussianBlur in="BackgroundImageFix" stdDeviation="13.7333"/>
<feComposite in2="SourceAlpha" operator="in" result="effect1_backgroundBlur_1_881"/>
<feBlend mode="normal" in="SourceGraphic" in2="effect1_backgroundBlur_1_881" result="shape"/>
</filter>
<filter id="filter12_dddddd_1_881" x="-34.1328" y="117.867" width="193.267" height="193.267" filterUnits="userSpaceOnUse" color-interpolation-filters="sRGB">
<feFlood flood-opacity="0" result="BackgroundImageFix"/>
<feColorMatrix in="SourceAlpha" type="matrix" values="0 0 0 0 0 0 0 0 0 0 0 0 0 0 0 0 0 0 127 0" result="hardAlpha"/>
<feMorphology radius="4" operator="erode" in="SourceAlpha" result="effect1_dropShadow_1_881"/>
<feOffset dy="5"/>
<feGaussianBlur stdDeviation="0.75"/>
<feComposite in2="hardAlpha" operator="out"/>
<feColorMatrix type="matrix" values="0 0 0 0 0.0313726 0 0 0 0 0.0313726 0 0 0 0 0.0313726 0 0 0 0.05 0"/>
<feBlend mode="normal" in2="BackgroundImageFix" result="effect1_dropShadow_1_881"/>
<feColorMatrix in="SourceAlpha" type="matrix" values="0 0 0 0 0 0 0 0 0 0 0 0 0 0 0 0 0 0 127 0" result="hardAlpha"/>
<feMorphology radius="4" operator="erode" in="SourceAlpha" result="effect2_dropShadow_1_881"/>
<feOffset dy="6"/>
<feGaussianBlur stdDeviation="2"/>
<feComposite in2="hardAlpha" operator="out"/>
<feColorMatrix type="matrix" values="0 0 0 0 0.0313726 0 0 0 0 0.0313726 0 0 0 0 0.0313726 0 0 0 0.05 0"/>
<feBlend mode="normal" in2="effect1_dropShadow_1_881" result="effect2_dropShadow_1_881"/>
<feColorMatrix in="SourceAlpha" type="matrix" values="0 0 0 0 0 0 0 0 0 0 0 0 0 0 0 0 0 0 127 0" result="hardAlpha"/>
<feOffset dy="6"/>
<feGaussianBlur stdDeviation="6.5"/>
<feComposite in2="hardAlpha" operator="out"/>
<feColorMatrix type="matrix" values="0 0 0 0 0.0313726 0 0 0 0 0.0313726 0 0 0 0 0.0313726 0 0 0 0.03 0"/>
<feBlend mode="normal" in2="effect2_dropShadow_1_881" result="effect3_dropShadow_1_881"/>
<feColorMatrix in="SourceAlpha" type="matrix" values="0 0 0 0 0 0 0 0 0 0 0 0 0 0 0 0 0 0 127 0" result="hardAlpha"/>
<feMorphology radius="16" operator="erode" in="SourceAlpha" result="effect4_dropShadow_1_881"/>
<feOffset dy="24"/>
<feGaussianBlur stdDeviation="12"/>
<feComposite in2="hardAlpha" operator="out"/>
<feColorMatrix type="matrix" values="0 0 0 0 0.0313726 0 0 0 0 0.0313726 0 0 0 0 0.0313726 0 0 0 0.04 0"/>
<feBlend mode="normal" in2="effect3_dropShadow_1_881" result="effect4_dropShadow_1_881"/>
<feColorMatrix in="SourceAlpha" type="matrix" values="0 0 0 0 0 0 0 0 0 0 0 0 0 0 0 0 0 0 127 0" result="hardAlpha"/>
<feMorphology radius="2" operator="erode" in="SourceAlpha" result="effect5_dropShadow_1_881"/>
<feOffset dy="2.15"/>
<feGaussianBlur stdDeviation="0.25"/>
<feComposite in2="hardAlpha" operator="out"/>
<feColorMatrix type="matrix" values="0 0 0 0 0 0 0 0 0 0 0 0 0 0 0 0 0 0 0.25 0"/>
<feBlend mode="normal" in2="effect4_dropShadow_1_881" result="effect5_dropShadow_1_881"/>
<feColorMatrix in="SourceAlpha" type="matrix" values="0 0 0 0 0 0 0 0 0 0 0 0 0 0 0 0 0 0 127 0" result="hardAlpha"/>
<feMorphology radius="12" operator="erode" in="SourceAlpha" result="effect6_dropShadow_1_881"/>
<feOffset dy="32"/>
<feGaussianBlur stdDeviation="32"/>
<feComposite in2="hardAlpha" operator="out"/>
<feColorMatrix type="matrix" values="0 0 0 0 0 0 0 0 0 0 0 0 0 0 0 0 0 0 0.075 0"/>
<feBlend mode="multiply" in2="effect5_dropShadow_1_881" result="effect6_dropShadow_1_881"/>
<feBlend mode="normal" in="SourceGraphic" in2="effect6_dropShadow_1_881" result="shape"/>
</filter>
<linearGradient id="paint0_linear_1_881" x1="288" y1="49" x2="288" y2="321" gradientUnits="userSpaceOnUse">
<stop stop-color="#D0D0D0" stop-opacity="0.4"/>
<stop offset="1" stop-color="#DBDBDB" stop-opacity="0.8"/>
</linearGradient>
<linearGradient id="paint1_linear_1_881" x1="229.605" y1="212.765" x2="127.032" y2="117.82" gradientUnits="userSpaceOnUse">
<stop offset="0.833136" stop-color="#3B72FF" stop-opacity="0"/>
<stop offset="1" stop-color="#2DA8FF"/>
</linearGradient>
<linearGradient id="paint2_linear_1_881" x1="375.253" y1="251.824" x2="408.322" y2="259.519" gradientUnits="userSpaceOnUse">
<stop offset="0.411955" stop-color="#2D68FF" stop-opacity="0"/>
<stop offset="1" stop-color="#49A4FF"/>
</linearGradient>
<linearGradient id="paint3_linear_1_881" x1="84" y1="0" x2="84" y2="80" gradientUnits="userSpaceOnUse">
<stop stop-color="#E2E2E2" stop-opacity="0"/>
<stop offset="1" stop-color="#E2E2E2"/>
</linearGradient>
<linearGradient id="paint4_linear_1_881" x1="84" y1="0" x2="84" y2="80" gradientUnits="userSpaceOnUse">
<stop stop-color="#E2E2E2" stop-opacity="0"/>
<stop offset="1" stop-color="#E2E2E2"/>
</linearGradient>
<linearGradient id="paint5_linear_1_881" x1="84" y1="0" x2="84" y2="80" gradientUnits="userSpaceOnUse">
<stop stop-color="#E2E2E2" stop-opacity="0"/>
<stop offset="1" stop-color="#E2E2E2"/>
</linearGradient>
<linearGradient id="paint6_linear_1_881" x1="62.5" y1="131" x2="62.5" y2="234" gradientUnits="userSpaceOnUse">
<stop stop-color="#FDFDFD" stop-opacity="0.3"/>
<stop offset="1" stop-color="#FDFDFD"/>
</linearGradient>
<linearGradient id="paint7_linear_1_881" x1="62.5" y1="131" x2="62.5" y2="234" gradientUnits="userSpaceOnUse">
<stop stop-color="#E2E2E2"/>
<stop offset="1" stop-color="#E2E2E2" stop-opacity="0.75"/>
</linearGradient>
<linearGradient id="paint8_linear_1_881" x1="62.5005" y1="137.867" x2="62.5005" y2="227.133" gradientUnits="userSpaceOnUse">
<stop stop-color="#F6F6F6"/>
<stop offset="1" stop-color="#E6E6E6"/>
</linearGradient>
<clipPath id="clip0_1_881">
<path d="M0 16.2749C0 7.43834 7.16344 0.274902 16 0.274902H420C428.837 0.274902 436 7.43835 436 16.2749V288.275C436 297.111 428.837 304.275 420 304.275H16C7.16345 304.275 0 297.111 0 288.275V16.2749Z" fill="white"/>
</clipPath>
</defs>
</svg>
