<svg width="16" height="17" viewBox="0 0 16 17" fill="none" xmlns="http://www.w3.org/2000/svg">
<path d="M5.46521 5.87664C5.48919 5.90073 5.51769 5.91985 5.54908 5.93289C5.58046 5.94594 5.61412 5.95265 5.64811 5.95265C5.6821 5.95265 5.71576 5.94594 5.74714 5.93289C5.77853 5.91985 5.80703 5.90073 5.83101 5.87664L6.69101 5.01668C6.73944 4.96817 6.76661 4.90242 6.76655 4.83388C6.76649 4.76534 6.7392 4.69963 6.69069 4.65121C6.64218 4.60279 6.57642 4.57562 6.50788 4.57568C6.43934 4.57574 6.37363 4.60303 6.32521 4.65154L5.64843 5.32957L5.40069 5.08119C5.35227 5.03269 5.28656 5.0054 5.21801 5.00534C5.14947 5.00528 5.08371 5.03245 5.03521 5.08087C4.9867 5.12929 4.95941 5.195 4.95935 5.26354C4.95929 5.33208 4.98646 5.39783 5.03488 5.44634L5.46521 5.87664Z" fill="#202124"/>
<path d="M7.79936 5.52148H10.7839C10.8523 5.52148 10.918 5.49429 10.9664 5.4459C11.0147 5.3975 11.0419 5.33186 11.0419 5.26342C11.0419 5.19498 11.0147 5.12935 10.9664 5.08095C10.918 5.03256 10.8523 5.00537 10.7839 5.00537H7.79936C7.73091 5.00537 7.66527 5.03256 7.61688 5.08095C7.56848 5.12935 7.54129 5.19498 7.54129 5.26342C7.54129 5.33186 7.56848 5.3975 7.61688 5.4459C7.66527 5.49429 7.73091 5.52148 7.79936 5.52148Z" fill="#202124"/>
<path d="M5.46521 7.81219C5.48919 7.83628 5.51769 7.85539 5.54908 7.86844C5.58046 7.88148 5.61412 7.8882 5.64811 7.8882C5.6821 7.8882 5.71576 7.88148 5.74714 7.86844C5.77853 7.85539 5.80703 7.83628 5.83101 7.81219L6.69101 6.95223C6.73944 6.90372 6.76661 6.83797 6.76655 6.76943C6.76649 6.70089 6.7392 6.63518 6.69069 6.58676C6.64218 6.53834 6.57642 6.51117 6.50788 6.51123C6.43934 6.51129 6.37363 6.53858 6.32521 6.58708L5.64843 7.26512L5.40069 7.01674C5.37671 6.99272 5.34824 6.97366 5.3169 6.96065C5.28555 6.94763 5.25195 6.94092 5.21801 6.94089C5.18408 6.94086 5.15046 6.94751 5.1191 6.96047C5.08773 6.97343 5.05923 6.99244 5.03521 7.01642C5.01119 7.04039 4.99213 7.06887 4.97911 7.10021C4.96609 7.13155 4.95938 7.16515 4.95935 7.19909C4.95932 7.23302 4.96598 7.26663 4.97894 7.298C4.9919 7.32936 5.01091 7.35787 5.03488 7.38189L5.46521 7.81219Z" fill="#202124"/>
<path d="M7.79936 7.45702H10.7839C10.8523 7.45702 10.918 7.42984 10.9664 7.38144C11.0147 7.33305 11.0419 7.26741 11.0419 7.19897C11.0419 7.13053 11.0147 7.06489 10.9664 7.0165C10.918 6.96811 10.8523 6.94092 10.7839 6.94092H7.79936C7.73091 6.94092 7.66527 6.96811 7.61688 7.0165C7.56848 7.06489 7.54129 7.13053 7.54129 7.19897C7.54129 7.26741 7.56848 7.33305 7.61688 7.38144C7.66527 7.42984 7.73091 7.45702 7.79936 7.45702Z" fill="#202124"/>
<path d="M5.46521 9.74725C5.48919 9.77134 5.51769 9.79045 5.54908 9.8035C5.58046 9.81654 5.61412 9.82326 5.64811 9.82326C5.6821 9.82326 5.71576 9.81654 5.74714 9.8035C5.77853 9.79045 5.80703 9.77134 5.83101 9.74725L6.69101 8.88729C6.73944 8.83878 6.76661 8.77302 6.76655 8.70449C6.76649 8.63595 6.7392 8.57024 6.69069 8.52182C6.64218 8.4734 6.57642 8.44623 6.50788 8.44629C6.43934 8.44635 6.37363 8.47363 6.32521 8.52214L5.64843 9.20018L5.40069 8.9518C5.35227 8.90329 5.28656 8.87601 5.21801 8.87595C5.14947 8.87589 5.08371 8.90306 5.03521 8.95148C4.9867 8.9999 4.95941 9.06561 4.95935 9.13414C4.95929 9.20268 4.98646 9.26844 5.03488 9.31694L5.46521 9.74725Z" fill="#202124"/>
<path d="M7.79936 9.39257H10.7839C10.8523 9.39257 10.918 9.36538 10.9664 9.31699C11.0147 9.26859 11.0419 9.20296 11.0419 9.13452C11.0419 9.06608 11.0147 9.00044 10.9664 8.95205C10.918 8.90365 10.8523 8.87646 10.7839 8.87646H7.79936C7.73091 8.87646 7.66527 8.90365 7.61688 8.95205C7.56848 9.00044 7.54129 9.06608 7.54129 9.13452C7.54129 9.20296 7.56848 9.26859 7.61688 9.31699C7.66527 9.36538 7.73091 9.39257 7.79936 9.39257Z" fill="#202124"/>
<path d="M15.7419 13.8227H15.3548V5.87143C15.3543 5.58499 15.2403 5.31044 15.0378 5.1079C14.8352 4.90535 14.5606 4.79134 14.2742 4.79083H12.7742V3.11349C12.7742 3.07959 12.7676 3.04602 12.7546 3.01469C12.7417 2.98336 12.7227 2.9549 12.6987 2.93091L10.1181 0.350383C10.0941 0.326427 10.0656 0.30743 10.0343 0.294479C10.003 0.281528 9.96938 0.274876 9.93548 0.274902H4.04194C3.82559 0.275244 3.6182 0.361334 3.46522 0.514307C3.31224 0.667281 3.22615 0.874659 3.22581 1.091V4.79083H1.72581C1.43936 4.79134 1.16479 4.90535 0.96224 5.1079C0.759691 5.31044 0.645673 5.58499 0.645161 5.87143V13.8227H0.258065C0.189622 13.8227 0.123982 13.8499 0.0755853 13.8983C0.0271888 13.9467 0 14.0123 0 14.0807V14.9891C0.0131191 15.342 0.165472 15.6753 0.423728 15.9161C0.681984 16.1569 1.02512 16.2857 1.37806 16.2742H14.6219C14.9749 16.2857 15.318 16.1569 15.5763 15.9161C15.8345 15.6753 15.9869 15.342 16 14.9891V14.0807C16 14.0123 15.9728 13.9467 15.9244 13.8983C15.876 13.8499 15.8104 13.8227 15.7419 13.8227ZM14.2742 5.30694C14.4238 5.30728 14.5672 5.36686 14.673 5.47265C14.7788 5.57844 14.8384 5.72182 14.8387 5.87143V13.8227H14.2581V6.14561C14.2581 6.07717 14.2309 6.01153 14.1825 5.96314C14.1341 5.91474 14.0684 5.88756 14 5.88756H12.7742V5.30694H14.2742ZM9.75807 13.8227C9.71158 13.8226 9.66593 13.8351 9.62596 13.8589C9.58599 13.8826 9.55317 13.9167 9.53097 13.9575L9.25226 14.4678H6.74581L6.4671 13.9575C6.4449 13.9167 6.41208 13.8826 6.37211 13.8589C6.33213 13.8351 6.28649 13.8226 6.24 13.8227H2.25806V6.40366H3.22581V11.5002C3.22615 11.7166 3.31222 11.9241 3.46518 12.0771C3.61814 12.2302 3.82553 12.3164 4.04194 12.3169H11.9581C12.1745 12.3164 12.3819 12.2302 12.5348 12.0771C12.6878 11.9241 12.7739 11.7166 12.7742 11.5002V6.40366H13.7419V13.8227H9.75807ZM10.1935 1.1568L11.8923 2.85543H10.1935V1.1568ZM3.74194 1.09229C3.74177 1.05278 3.7494 1.01363 3.7644 0.977089C3.7794 0.940544 3.80147 0.907321 3.82935 0.879328C3.85722 0.851335 3.89035 0.829123 3.92683 0.813967C3.96331 0.79881 4.00243 0.791008 4.04194 0.791009H9.67742V3.11349C9.67742 3.18193 9.70461 3.24756 9.75301 3.29596C9.8014 3.34435 9.86704 3.37154 9.93548 3.37154H12.2581V11.5002C12.2581 11.5798 12.2265 11.6561 12.1702 11.7123C12.1139 11.7686 12.0376 11.8002 11.9581 11.8002H4.04194C3.96237 11.8002 3.88606 11.7686 3.8298 11.7123C3.77354 11.6561 3.74194 11.5798 3.74194 11.5002V1.09229ZM1.16129 5.87272C1.16129 5.72289 1.22072 5.57917 1.32655 5.47311C1.43239 5.36704 1.57597 5.30728 1.72581 5.30694H3.22581V5.88756H2C1.96611 5.88756 1.93255 5.89423 1.90124 5.9072C1.86993 5.92017 1.84148 5.93918 1.81752 5.96314C1.79356 5.9871 1.77455 6.01555 1.76158 6.04686C1.74861 6.07817 1.74194 6.11172 1.74194 6.14561V13.8227H1.16129V5.87272ZM15.4839 14.9891C15.4706 15.205 15.3725 15.4069 15.2111 15.5509C15.0497 15.6949 14.838 15.7694 14.6219 15.7581H1.37806C1.16204 15.7694 0.950289 15.6949 0.788875 15.5509C0.627461 15.4069 0.529439 15.205 0.516129 14.9891V14.3388H6.0871L6.36581 14.8491C6.38795 14.8898 6.42067 14.9239 6.46052 14.9476C6.50037 14.9713 6.54588 14.9839 6.59226 14.9839H9.40774C9.45412 14.9839 9.49963 14.9713 9.53948 14.9476C9.57933 14.9239 9.61205 14.8898 9.63419 14.8491L9.9129 14.3388H15.4839V14.9891Z" fill="#202124"/>
</svg>
