<svg width="44" height="45" viewBox="0 0 44 45" fill="none" xmlns="http://www.w3.org/2000/svg">
<path d="M28.5264 16.0691V16.0837V24.0102C28.5264 24.7248 27.8313 25.3227 26.713 25.7019C25.7837 26.0228 24.5067 26.2197 23.1089 26.2197C21.2652 28.9396 17.2908 29.348 14.9032 27.0437C12.8253 25.0384 12.8253 21.7934 14.9032 19.788C15.6286 19.088 16.5579 18.5921 17.6006 18.388V16.0764C17.6006 15.3544 18.2958 14.7638 19.4141 14.3846C21.4466 13.6919 24.6729 13.6919 26.713 14.3846C27.8313 14.7711 28.5189 15.3544 28.5264 16.0691ZM16.7846 24.6008C16.7544 24.3019 16.9811 24.0393 17.2908 24.0102C17.6006 23.981 17.8727 24.1998 17.9029 24.4987C17.9407 24.9217 18.7794 25.1696 19.2629 24.7904C19.3763 24.7029 19.4443 24.5862 19.4443 24.4623C19.4443 24.105 19.006 24.0248 18.5678 23.9445C17.6762 23.7768 16.777 23.6091 16.777 22.3622C16.777 21.6111 17.3664 21.035 18.0993 20.8381V20.6121C18.0993 20.3131 18.3487 20.0651 18.6736 20.0651C18.9909 20.0651 19.2403 20.3131 19.2327 20.6193L19.2252 20.8381C19.9656 21.0277 20.555 21.6038 20.555 22.3622C20.555 22.6611 20.3056 22.9018 19.9959 22.9018C19.6861 22.9018 19.4367 22.6611 19.4367 22.3622C19.4367 21.9173 18.5678 21.6475 18.0767 22.034C17.9633 22.1215 17.8953 22.2382 17.8953 22.3622C17.8953 22.7195 18.3336 22.7997 18.7718 22.8799C19.6634 23.0476 20.5625 23.2153 20.5625 24.4623C20.5625 25.2134 19.9656 25.7967 19.2252 25.9863V26.2124C19.2252 26.5114 18.9758 26.7593 18.666 26.7593C18.3562 26.7593 18.0993 26.5187 18.0993 26.2124V25.9863C17.4193 25.804 16.8526 25.2936 16.7846 24.6008ZM23.6831 25.1259C24.7258 25.0748 25.6552 24.9144 26.3504 24.681C27.0077 24.455 27.4082 24.2144 27.4082 24.0102V22.7705C26.5241 23.2299 25.2245 23.4706 23.9854 23.5508C23.9703 24.105 23.8645 24.63 23.6831 25.1259ZM23.8947 22.4788C24.8996 22.4132 25.7912 22.2455 26.4486 22.0048C27.0379 21.7861 27.4006 21.56 27.4006 21.3704V20.1308C26.3655 20.6631 24.7712 20.911 23.3129 20.9402C23.5925 21.4069 23.7889 21.9246 23.8947 22.4788ZM22.4817 19.8464C23.8418 19.912 25.3379 19.7443 26.3428 19.3943C27.0002 19.1682 27.4006 18.9276 27.4006 18.7234V17.4837C25.3152 18.563 20.8119 18.563 18.7265 17.4837V18.2859C20.2074 18.3077 21.5297 18.8984 22.4817 19.8464ZM18.2429 19.3943C18.2353 19.3943 18.2353 19.3943 18.2278 19.3943C16.1272 19.5985 14.4876 21.334 14.4876 23.4122C14.4876 25.6436 16.3615 27.4593 18.6736 27.4593C20.9857 27.4593 22.8595 25.6509 22.8595 23.4122C22.8595 21.0204 20.7212 19.1536 18.2429 19.3943ZM33.8609 36.4505H31.6168C31.4355 36.4505 31.2843 36.3703 31.1786 36.2536L29.6523 34.6129C25.081 37.136 19.4745 37.2891 14.7596 35.0212C14.4801 34.8827 14.3667 34.5545 14.5254 34.2702L16.3388 30.7481C16.4748 30.4783 16.8148 30.3689 17.0868 30.5074C21.5448 32.6513 26.9548 31.4992 30.083 27.7437C31.0274 26.6062 31.7301 25.2644 32.1004 23.806C32.1684 23.5216 32.4631 23.3466 32.7502 23.4049L36.785 24.1633C37.1024 24.2216 37.3064 24.5279 37.2157 24.8488C36.6792 27.0656 35.6365 29.0928 34.2236 30.821C33.2035 32.0679 31.9795 33.1545 30.6119 34.0441L31.8661 35.3713H33.8609C34.284 33.9858 36.105 33.5191 37.1779 34.5545C38.4322 35.765 37.5406 37.836 35.7725 37.836C34.8734 37.8287 34.1027 37.2599 33.8609 36.4505ZM28.8816 33.7889L28.0731 32.9211C27.8691 32.7024 27.8842 32.3596 28.1109 32.1554C28.3451 31.9586 28.6927 31.9731 28.9042 32.1992L29.8563 33.2201C32.8409 31.3314 35.0396 28.4511 35.9917 25.1113L33.0524 24.5571C31.579 29.3699 26.985 32.6586 21.8093 32.6586C20.1772 32.6586 18.5753 32.3305 17.102 31.7033L15.7721 34.2847C19.9581 36.1151 24.8392 35.9255 28.8816 33.7889ZM35.765 36.7422C36.5357 36.7422 36.921 35.838 36.377 35.3129C35.833 34.7879 34.8961 35.1598 34.8961 35.9036C34.9036 36.3703 35.289 36.7422 35.765 36.7422ZM6.93174 9.97288V12.897L8.01978 13.8377C10.1657 10.1625 13.8378 7.44252 18.19 6.46538C18.4922 6.39975 18.7869 6.57476 18.87 6.88832L19.9052 10.6948C19.9807 10.9938 19.7918 11.2928 19.4669 11.3584C17.0868 11.8761 15.0014 13.1741 13.528 14.9534C9.90875 19.3214 10.6039 25.6946 15.0845 29.2459C15.3188 29.4355 15.3565 29.7636 15.1752 29.997L12.6591 33.1326C12.4626 33.3732 12.1075 33.4097 11.8582 33.2201C6.19882 28.8084 4.37785 21.2027 7.49843 14.8367L6.03259 13.5606C5.90414 13.4585 5.82858 13.3127 5.82858 13.1377V9.97288C4.39296 9.56452 3.90938 7.80713 4.98232 6.77165C6.2366 5.56845 8.38247 6.42163 8.38247 8.12798C8.3598 8.98845 7.76288 9.73224 6.93174 9.97288ZM8.86604 14.5742L10.1052 15.6461C10.3319 15.843 10.3546 16.193 10.143 16.4118C9.93898 16.6379 9.58385 16.6524 9.34962 16.4556L8.34469 15.5805C5.7228 21.2829 7.28686 27.9406 12.1075 32.0169L13.9436 29.7272C9.34962 25.7311 8.76782 18.964 12.644 14.2825C14.1627 12.4522 16.2557 11.0813 18.666 10.4396L17.9104 7.6467C14.0192 8.67489 10.7626 11.2052 8.86604 14.5742ZM6.36505 7.28939C5.59435 7.28939 5.209 8.19361 5.75302 8.71864C6.29704 9.24367 7.23397 8.87177 7.23397 8.12798C7.23397 7.66858 6.84862 7.28939 6.36505 7.28939ZM34.6014 8.1061H32.6066L31.5186 9.27284C35.2814 12.0949 37.6388 16.4774 37.6388 21.3413C37.6388 21.6402 37.3895 21.8882 37.0797 21.8882H32.9693C32.6595 21.8882 32.4026 21.6475 32.4026 21.3413C32.4026 15.6899 27.6575 11.1104 21.8017 11.1104C21.4919 11.1104 21.2426 10.8698 21.2426 10.5708V6.60393C21.2426 6.30495 21.4919 6.06432 21.8017 6.06432C25.0583 6.06432 28.0806 7.01229 30.5968 8.63843L31.919 7.22376C32.0248 7.09979 32.1835 7.01958 32.3573 7.01958H34.6014C35.0245 5.63408 36.8455 5.16739 37.9184 6.20287C39.1651 7.41335 38.2735 9.47702 36.513 9.47702C35.6139 9.47702 34.8432 8.90823 34.6014 8.1061ZM30.7554 10.075L29.6372 11.2709C29.4332 11.4896 29.0705 11.5115 28.8438 11.3073C28.6096 11.1104 28.5944 10.7677 28.7985 10.5417L29.8261 9.44056C27.6651 8.07693 25.1036 7.24564 22.3533 7.15084V10.0312C28.3829 10.3083 33.2186 14.9753 33.4982 20.7871H36.4828C36.3317 16.4701 34.148 12.598 30.7554 10.075ZM37.125 6.96854C36.581 6.4435 35.6441 6.8154 35.6441 7.5592C35.6441 8.30299 36.581 8.67489 37.125 8.14986C37.4575 7.829 37.4575 7.29668 37.125 6.96854ZM26.3428 15.4128C24.5521 14.8002 21.5826 14.8002 19.7918 15.4128C19.1345 15.6388 18.734 15.8795 18.734 16.0837C18.734 16.2878 19.142 16.5358 19.7918 16.7545C21.5826 17.3671 24.5521 17.3671 26.3428 16.7545C27.0002 16.5285 27.4006 16.2878 27.4006 16.0837C27.4082 15.8722 27.0002 15.6315 26.3428 15.4128Z" fill="#4A4A4A"/>
</svg>
