<svg width="18" height="18" viewBox="0 0 18 18" fill="none" xmlns="http://www.w3.org/2000/svg">
<path d="M16.369 6.5178V6.04806C16.369 5.76555 16.1306 5.5356 15.8377 5.5356H14.9007V1.95543C14.9007 1.02885 14.1191 0.274902 13.1586 0.274902H1.74213C0.781584 0.274902 0 1.02885 0 1.95543V5.51152C0 5.66108 0.125869 5.7825 0.28092 5.7825H2.92312V15.8097C2.92312 16.1346 3.14146 16.4094 3.46632 16.4938C3.79119 16.5776 4.12309 16.445 4.29151 16.1635L4.48137 15.8464C4.51512 15.7907 4.5654 15.7626 4.63114 15.7626C4.69584 15.7626 4.74717 15.7911 4.77951 15.8453L5.42222 16.9201C5.55477 17.142 5.79209 17.2742 6.05754 17.2742C6.32194 17.2742 6.55926 17.1423 6.69357 16.9205L7.33628 15.8457C7.36897 15.7911 7.4189 15.7633 7.48429 15.7633C7.54969 15.7633 7.59962 15.7911 7.63267 15.846L8.27608 16.9218C8.40968 17.1426 8.64735 17.2746 8.9114 17.2746C9.17685 17.2746 9.41417 17.1423 9.54637 16.9208L10.1884 15.847C10.2221 15.7914 10.2724 15.7633 10.3382 15.7633C10.4028 15.7633 10.4542 15.7918 10.4865 15.846L11.1292 16.9208C11.2618 17.1423 11.4991 17.2749 11.7646 17.2749C12.0289 17.2749 12.2663 17.143 12.4006 16.9212L13.0436 15.8464C13.0763 15.7918 13.1263 15.7639 13.1917 15.7639C13.257 15.7639 13.307 15.7918 13.34 15.8467L13.5309 16.1662C13.7008 16.447 14.0323 16.5793 14.3554 16.4952C14.681 16.4111 14.8997 16.1363 14.8997 15.8111V11.053C15.1025 11.1053 15.3156 11.1338 15.5354 11.1338C16.8942 11.1338 18 10.0671 18 8.75625C18.0014 7.72656 17.3197 6.8478 16.369 6.5178ZM15.8068 6.39231C15.7182 6.38281 15.6282 6.37773 15.5368 6.37773C15.0175 6.37773 14.5351 6.53408 14.1374 6.79964H12.1404V6.07757H15.8071L15.8068 6.39231ZM12.14 8.60532H13.0774C13.0742 8.65518 13.0718 8.70537 13.0718 8.75625C13.0718 8.95296 13.0971 9.14425 13.1442 9.32739H12.14V8.60532ZM12.1091 9.86971H13.3597C13.513 10.1475 13.7215 10.393 13.9715 10.5918H10.8244V9.86971H12.1091ZM13.179 8.06301H12.1091H10.8244V7.34196H12.1091H13.5563C13.3907 7.55766 13.262 7.80084 13.179 8.06301ZM0.562192 1.95543C0.562192 1.32765 1.09169 0.817217 1.74213 0.817217C2.39327 0.817217 2.92312 1.32799 2.92312 1.95543V5.24053H0.562192V1.95543ZM14.2109 15.9702C14.1343 15.9898 14.0583 15.9593 14.0179 15.8928L13.8277 15.5747C13.6951 15.3529 13.4578 15.2206 13.1924 15.2206C12.9269 15.2206 12.6896 15.3529 12.5574 15.5744L11.915 16.6481C11.8813 16.7038 11.831 16.7319 11.7653 16.7319C11.7006 16.7319 11.6492 16.7034 11.6169 16.6492L10.9742 15.5744C10.8416 15.3529 10.6043 15.2203 10.3389 15.2203C10.0745 15.2203 9.83713 15.3522 9.70283 15.574L9.05977 16.6488C9.02707 16.7034 8.97715 16.7312 8.91175 16.7312C8.846 16.7312 8.79537 16.7031 8.76268 16.6485L8.11997 15.5737C7.98742 15.3519 7.7501 15.2196 7.48465 15.2196C7.2192 15.2196 6.98187 15.3519 6.84968 15.5733L6.20767 16.6471C6.17392 16.7027 6.12364 16.7309 6.05789 16.7309C5.9932 16.7309 5.94187 16.7024 5.90952 16.6481L5.26682 15.5747C5.13427 15.3529 4.89694 15.2206 4.63149 15.2206C4.3671 15.2206 4.12978 15.3525 3.99547 15.5744L3.80526 15.8925C3.76518 15.9596 3.68923 15.9898 3.61223 15.9702C3.53524 15.9501 3.48566 15.8874 3.48566 15.8101V5.51152V1.95543C3.48566 1.51656 3.31022 1.11669 3.02332 0.817217H13.159C13.8097 0.817217 14.3389 1.32799 14.3389 1.95543V5.5356H12.1095C11.8166 5.5356 11.5782 5.76555 11.5782 6.04806V6.79998H10.7938C10.5009 6.79998 10.2626 7.02925 10.2626 7.31143V8.09387C10.2626 8.37605 10.5009 8.60532 10.7938 8.60532H11.5782V9.32739H10.7938C10.5009 9.32739 10.2626 9.55734 10.2626 9.83986V10.6216C10.2626 10.9041 10.5009 11.1341 10.7938 11.1341H14.3389V15.8104C14.3385 15.8874 14.2886 15.9501 14.2109 15.9702ZM15.5368 10.5914C14.4876 10.5914 13.6343 9.7683 13.6343 8.75625C13.6343 7.74386 14.4876 6.92004 15.5368 6.92004C16.5859 6.92004 17.4392 7.74386 17.4392 8.75625C17.4392 9.7683 16.5856 10.5914 15.5368 10.5914ZM16.2892 9.19478C16.2892 9.4946 16.0881 9.75134 15.8047 9.85546V9.93516C15.8047 10.0851 15.6788 10.2062 15.5237 10.2062C15.3687 10.2062 15.2428 10.0847 15.2428 9.93516V9.85512C15.0393 9.78017 14.8747 9.62551 14.7998 9.42507C14.7474 9.28398 14.8234 9.12898 14.9693 9.07811C15.1156 9.02758 15.2762 9.10083 15.329 9.24158C15.3557 9.31315 15.4359 9.363 15.5237 9.363C15.6359 9.363 15.727 9.28737 15.727 9.19478C15.727 9.10423 15.6338 9.02757 15.5237 9.02757H15.5009C15.478 9.02757 15.4559 9.02452 15.4344 9.01978C15.0663 8.96822 14.7833 8.67282 14.7833 8.31738C14.7833 8.01756 14.9844 7.76082 15.2678 7.6567V7.57699C15.2678 7.42742 15.3937 7.30601 15.5487 7.30601C15.7038 7.30601 15.8296 7.42742 15.8296 7.57699V7.6567C16.0343 7.73165 16.1992 7.88665 16.273 8.08844C16.3247 8.22953 16.248 8.38453 16.1018 8.43439C15.9555 8.48424 15.7948 8.41031 15.7431 8.26922C15.7171 8.19833 15.6373 8.14915 15.5487 8.14915C15.4387 8.14915 15.3455 8.22614 15.3455 8.31738C15.3455 8.40861 15.4387 8.4856 15.5487 8.4856H15.5726C15.5958 8.4856 15.6183 8.48865 15.6401 8.49374C16.0068 8.54529 16.2892 8.84002 16.2892 9.19478ZM4.98344 2.36989C4.98344 2.21998 5.1093 2.0989 5.26436 2.0989H12.5598C12.7152 2.0989 12.8408 2.22032 12.8408 2.36989C12.8408 2.51946 12.7149 2.64087 12.5598 2.64087H5.26436C5.10895 2.64087 4.98344 2.51946 4.98344 2.36989ZM4.98344 4.18676C4.98344 4.03685 5.1093 3.91577 5.26436 3.91577H12.5598C12.7152 3.91577 12.8408 4.03719 12.8408 4.18676C12.8408 4.33633 12.7149 4.45775 12.5598 4.45775H5.26436C5.10895 4.45775 4.98344 4.33667 4.98344 4.18676ZM4.98344 6.00465C4.98344 5.85508 5.1093 5.73366 5.26436 5.73366H9.80303C9.95808 5.73366 10.084 5.85508 10.084 6.00465C10.084 6.15422 9.95808 6.27564 9.80303 6.27564H5.26436C5.10895 6.27598 4.98344 6.15456 4.98344 6.00465ZM4.98344 7.82288C4.98344 7.67298 5.1093 7.5519 5.26436 7.5519H9.11532C9.27072 7.5519 9.39624 7.67331 9.39624 7.82288C9.39624 7.97245 9.27037 8.09387 9.11532 8.09387H5.26436C5.10895 8.09387 4.98344 7.97245 4.98344 7.82288ZM4.98344 9.64077C4.98344 9.49087 5.1093 9.36979 5.26436 9.36979H9.12727C9.28233 9.36979 9.40819 9.49121 9.40819 9.64077C9.40819 9.79034 9.28233 9.91176 9.12727 9.91176H5.26436C5.10895 9.91176 4.98344 9.79068 4.98344 9.64077ZM4.98344 11.4587C4.98344 11.3088 5.1093 11.1877 5.26436 11.1877H9.35651C9.51156 11.1877 9.63743 11.3091 9.63743 11.4587C9.63743 11.6082 9.51156 11.7297 9.35651 11.7297H5.26436C5.10895 11.73 4.98344 11.6086 4.98344 11.4587ZM12.8408 13.2769C12.8408 13.4268 12.7149 13.5479 12.5598 13.5479H5.26436C5.10895 13.5479 4.98344 13.4265 4.98344 13.2769C4.98344 13.1273 5.1093 13.0059 5.26436 13.0059H12.5598C12.7149 13.0056 12.8408 13.127 12.8408 13.2769Z" fill="#202124"/>
</svg>
