<svg width="17" height="17" viewBox="0 0 17 17" fill="none" xmlns="http://www.w3.org/2000/svg">
<path d="M10.0271 15.4102C9.88956 15.4445 9.7493 15.4749 9.61008 15.5006C9.24614 15.5682 9.00553 15.9183 9.07284 16.2825C9.10609 16.4617 9.20787 16.611 9.34605 16.7084C9.48847 16.8087 9.66972 16.8539 9.85442 16.8196C10.0202 16.7888 10.1873 16.7526 10.3513 16.7117C10.7107 16.6223 10.9296 16.2582 10.8399 15.899C10.7505 15.5394 10.3867 15.3207 10.0271 15.4102Z" fill="#202124"/>
<path d="M14.9873 6.42047C15.0343 6.56206 15.124 6.67764 15.2373 6.75751C15.4053 6.87583 15.6251 6.91563 15.8349 6.84627C16.1865 6.7295 16.3771 6.35028 16.2607 5.99878C16.2077 5.83855 16.1489 5.67781 16.0863 5.5213C15.9487 5.17737 15.5586 5.00992 15.2145 5.14749C14.8707 5.28499 14.7032 5.67522 14.8409 6.01926C14.8935 6.15081 14.9428 6.28583 14.9873 6.42047Z" fill="#202124"/>
<path d="M12.207 14.4525C12.0887 14.5307 11.9665 14.6063 11.8435 14.6771C11.5226 14.8622 11.4127 15.2725 11.5977 15.5933C11.648 15.6805 11.7149 15.7518 11.792 15.8064C11.9989 15.9519 12.2799 15.9737 12.5138 15.839C12.66 15.7546 12.8055 15.6649 12.9464 15.5717C13.2553 15.3676 13.3403 14.9515 13.1361 14.6424C12.932 14.3332 12.516 14.2483 12.207 14.4525Z" fill="#202124"/>
<path d="M16.6779 8.29379C16.6633 7.92361 16.3515 7.63548 15.9812 7.64993C15.6113 7.66453 15.323 7.97644 15.3375 8.34648C15.3431 8.48796 15.3445 8.63155 15.3413 8.77289C15.3361 9.00504 15.4496 9.21197 15.6261 9.33634C15.7312 9.41036 15.8587 9.45516 15.9971 9.45831C16.3672 9.46653 16.674 9.17291 16.6822 8.80255C16.6859 8.63367 16.6845 8.46257 16.6779 8.29379Z" fill="#202124"/>
<path d="M14.8778 12.6884C14.5809 12.4656 14.161 12.5261 13.9386 12.8224C13.8535 12.9359 13.7638 13.048 13.672 13.1559C13.4321 13.4378 13.466 13.8612 13.7479 14.1013C13.7639 14.1149 13.7802 14.1274 13.797 14.1392C14.0773 14.3367 14.4668 14.2913 14.6933 14.0255C14.803 13.8967 14.9099 13.7628 15.0116 13.6273C15.234 13.331 15.1738 12.9107 14.8778 12.6884Z" fill="#202124"/>
<path d="M15.8631 10.2638C15.5096 10.153 15.1332 10.3497 15.0225 10.7032C14.9801 10.8382 14.9331 10.9739 14.8824 11.1067C14.7711 11.3992 14.8777 11.7211 15.1223 11.8935C15.1672 11.9251 15.2166 11.9518 15.2703 11.9721C15.6164 12.1041 16.0039 11.9305 16.1358 11.5843C16.196 11.4264 16.2519 11.2649 16.3024 11.1044C16.413 10.7509 16.2164 10.3746 15.8631 10.2638Z" fill="#202124"/>
<path d="M7.10092 15.5066C6.50128 15.399 5.92607 15.2156 5.38062 14.9599C5.37416 14.9566 5.36839 14.9527 5.36161 14.9496C5.23308 14.8891 5.10476 14.8243 4.98038 14.7566C4.97995 14.7561 4.97916 14.7558 4.97848 14.7555C4.75028 14.6298 4.52757 14.4908 4.31121 14.3385C1.15622 12.116 0.39764 7.74112 2.62024 4.58617C3.10354 3.90039 3.6884 3.32826 4.34043 2.8748C4.34847 2.86921 4.3565 2.86365 4.36446 2.85802C6.66213 1.27486 9.782 1.16817 12.2218 2.795L11.6978 3.55212C11.5521 3.76285 11.6417 3.91642 11.8967 3.89347L14.1729 3.68969C14.4282 3.66674 14.5809 3.44585 14.5122 3.19926L13.901 0.997025C13.8326 0.750141 13.6574 0.72059 13.5116 0.931288L12.9864 1.69019C11.1959 0.488302 9.04845 0.0300029 6.91697 0.399612C6.70229 0.436766 6.49063 0.482241 6.28187 0.535176C6.28025 0.535463 6.27896 0.535642 6.27767 0.535929C6.2696 0.537901 6.26143 0.540519 6.25357 0.542707C4.41557 1.01471 2.81193 2.0867 1.66764 3.61621C1.65799 3.62765 1.64806 3.63884 1.63895 3.65128C1.6009 3.70253 1.56313 3.75496 1.52616 3.80739C1.46569 3.89332 1.40609 3.9814 1.34906 4.06948C1.34193 4.0801 1.33647 4.0909 1.33023 4.10162C0.385949 5.56488 -0.069517 7.25656 0.00859363 8.9788C0.00877295 8.98447 0.00845018 8.99017 0.00859363 8.99598C0.0161608 9.16421 0.029502 9.33478 0.0476131 9.50269C0.0485814 9.51352 0.0509843 9.52378 0.0528133 9.53461C0.071534 9.70346 0.0950246 9.8727 0.124469 10.0419C0.423713 11.7683 1.2381 13.3218 2.45843 14.5306C2.46126 14.5334 2.4642 14.5365 2.46707 14.5394C2.46807 14.5405 2.46919 14.5411 2.47015 14.5422C2.79802 14.8655 3.15464 15.1646 3.53863 15.4351C4.54353 16.1432 5.66251 16.6112 6.86422 16.8269C7.22884 16.8924 7.57715 16.6497 7.64256 16.2852C7.70794 15.9205 7.46543 15.5719 7.10092 15.5066Z" fill="#202124"/>
<path d="M7.93056 3.19824C7.63063 3.19824 7.3877 3.4414 7.3877 3.74089V9.1472L12.3322 11.7032C12.4118 11.7444 12.497 11.7638 12.5808 11.7638C12.7772 11.7638 12.9669 11.6569 13.0633 11.4703C13.2009 11.204 13.0968 10.8768 12.8305 10.7393L8.47282 8.48638V3.74089C8.47278 3.4414 8.23013 3.19824 7.93056 3.19824Z" fill="#202124"/>
</svg>
