<svg width="49" height="49" viewBox="0 0 49 49" fill="none" xmlns="http://www.w3.org/2000/svg">
<g clip-path="url(#clip0_1_781)">
<path d="M0.333344 16.2749C0.333344 7.43835 7.49679 0.274902 16.3333 0.274902H32.3333C41.1699 0.274902 48.3333 7.43835 48.3333 16.2749V32.2749C48.3333 41.1115 41.1699 48.2749 32.3333 48.2749H16.3333C7.49679 48.2749 0.333344 41.1115 0.333344 32.2749V16.2749Z" fill="white"/>
<g filter="url(#filter0_d_1_781)">
<path d="M5.13315 17.0749C5.13315 10.4475 10.5057 5.07495 17.1331 5.07495H31.5332C38.1606 5.07495 43.5331 10.4475 43.5331 17.075V31.475C43.5331 38.1024 38.1606 43.475 31.5331 43.475H17.1331C10.5057 43.475 5.13315 38.1024 5.13315 31.475V17.0749Z" fill="#3F7AFF"/>
<path d="M18.815 23.3023C18.788 24.7988 19.3492 26.2437 20.3729 27.3133C21.3121 28.3362 21.8199 29.6959 21.7864 31.0986V31.6543C21.7864 32.853 22.7367 33.8248 23.9089 33.8248H24.7579C25.9301 33.8248 26.8804 32.853 26.8804 31.6543V30.9424C26.8687 29.608 27.3667 28.3215 28.2685 27.3568C30.4045 25.1337 30.3737 21.5608 28.1997 19.3765C27.1113 18.283 25.6287 17.699 24.1043 17.7635C21.2 17.9202 18.8994 20.3295 18.815 23.3023ZM24.274 29.4837L23.5566 24.7087H25.1103L24.3929 29.4837H24.274ZM26.0568 30.3519C26.0568 30.5472 26.0314 30.7426 26.0314 30.9423V31.2201H22.6354V31.0985C22.6341 30.849 22.6199 30.5998 22.593 30.3519H26.0568ZM24.7579 32.9564H23.9089C23.3705 32.9548 22.8913 32.6073 22.7119 32.0882H25.955C25.7755 32.6073 25.2963 32.9548 24.7579 32.9564ZM24.1381 18.6315H24.3334C26.9122 18.6328 29.0017 20.7717 29.0004 23.4088C28.9998 24.6579 28.5206 25.8569 27.6656 26.7489C26.9412 27.5051 26.4357 28.4516 26.2054 29.4837H25.2545L25.9719 24.7087H26.4558C26.6902 24.7087 26.8803 24.5144 26.8803 24.2746C26.8803 24.0349 26.6902 23.8405 26.4558 23.8405H22.211C21.9766 23.8405 21.7865 24.0349 21.7865 24.2746C21.7865 24.5144 21.9766 24.7087 22.211 24.7087H22.6949L23.4123 29.4837H22.4444C22.2075 28.4479 21.7032 27.496 20.9842 26.7273C20.1139 25.8192 19.6381 24.5909 19.664 23.3197C19.7336 20.8037 21.6803 18.7639 24.1381 18.6315Z" fill="white"/>
<path d="M24.7573 16.8953V15.159C24.7573 14.9192 24.5672 14.7249 24.3328 14.7249C24.0984 14.7249 23.9083 14.9192 23.9083 15.159V16.8953C23.9083 17.1351 24.0984 17.3294 24.3328 17.3294C24.5672 17.3293 24.7573 17.1351 24.7573 16.8953Z" fill="white"/>
<path d="M30.8259 17.0214L29.1281 18.7578C28.9616 18.9265 28.9605 19.2014 29.1256 19.3717C29.1264 19.3725 29.1272 19.3733 29.1281 19.3742C29.2931 19.5444 29.5619 19.5456 29.7284 19.3767C29.7292 19.3758 29.73 19.375 29.7308 19.3742L31.4288 17.6378C31.5953 17.4675 31.5953 17.1916 31.4288 17.0214C31.2623 16.8511 30.9924 16.8511 30.8259 17.0214Z" fill="white"/>
<path d="M17.8444 17.0214C17.6779 16.8511 17.4081 16.8511 17.2416 17.0214C17.0751 17.1916 17.0751 17.4675 17.2416 17.6378L18.9396 19.3742C19.1046 19.5444 19.3734 19.5456 19.5399 19.3767L19.5424 19.3742C19.7088 19.2054 19.71 18.9305 19.5448 18.7602C19.544 18.7594 19.5432 18.7586 19.5424 18.7578L17.8444 17.0214Z" fill="white"/>
<path d="M30.275 24.2748C30.275 24.5145 30.4651 24.7089 30.6995 24.7089H32.3975C32.6319 24.7089 32.822 24.5145 32.822 24.2748C32.822 24.0351 32.6319 23.8407 32.3975 23.8407H30.6995C30.4651 23.8407 30.275 24.0351 30.275 24.2748Z" fill="white"/>
<path d="M15.8442 24.2748C15.8442 24.5145 16.0343 24.7089 16.2687 24.7089H17.9667C18.2011 24.7089 18.3912 24.5145 18.3912 24.2748C18.3912 24.0351 18.2011 23.8407 17.9667 23.8407H16.2687C16.0343 23.8407 15.8442 24.0351 15.8442 24.2748Z" fill="white"/>
</g>
</g>
<path d="M0.583344 16.2749C0.583344 7.57642 7.63486 0.524902 16.3333 0.524902H32.3333C41.0318 0.524902 48.0833 7.57642 48.0833 16.2749V32.2749C48.0833 40.9734 41.0318 48.0249 32.3333 48.0249H16.3333C7.63486 48.0249 0.583344 40.9734 0.583344 32.2749V16.2749Z" stroke="#C5C9C8" stroke-width="0.5"/>
<defs>
<filter id="filter0_d_1_781" x="1.13315" y="5.07495" width="46.4" height="46.4" filterUnits="userSpaceOnUse" color-interpolation-filters="sRGB">
<feFlood flood-opacity="0" result="BackgroundImageFix"/>
<feColorMatrix in="SourceAlpha" type="matrix" values="0 0 0 0 0 0 0 0 0 0 0 0 0 0 0 0 0 0 127 0" result="hardAlpha"/>
<feOffset dy="4"/>
<feGaussianBlur stdDeviation="2"/>
<feComposite in2="hardAlpha" operator="out"/>
<feColorMatrix type="matrix" values="0 0 0 0 0.0156863 0 0 0 0 0.12549 0 0 0 0 0.101961 0 0 0 0.25 0"/>
<feBlend mode="normal" in2="BackgroundImageFix" result="effect1_dropShadow_1_781"/>
<feBlend mode="normal" in="SourceGraphic" in2="effect1_dropShadow_1_781" result="shape"/>
</filter>
<clipPath id="clip0_1_781">
<path d="M0.333344 16.2749C0.333344 7.43835 7.49679 0.274902 16.3333 0.274902H32.3333C41.1699 0.274902 48.3333 7.43835 48.3333 16.2749V32.2749C48.3333 41.1115 41.1699 48.2749 32.3333 48.2749H16.3333C7.49679 48.2749 0.333344 41.1115 0.333344 32.2749V16.2749Z" fill="white"/>
</clipPath>
</defs>
</svg>
