<svg width="48" height="49" viewBox="0 0 48 49" fill="none" xmlns="http://www.w3.org/2000/svg">
<g clip-path="url(#clip0_1_764)">
<path d="M0 16.2749C0 7.43835 7.16344 0.274902 16 0.274902H32C40.8366 0.274902 48 7.43835 48 16.2749V32.2749C48 41.1115 40.8366 48.2749 32 48.2749H16C7.16344 48.2749 0 41.1115 0 32.2749V16.2749Z" fill="white"/>
<g filter="url(#filter0_d_1_764)">
<path d="M4.7998 17.0749C4.7998 10.4475 10.1724 5.07495 16.7998 5.07495H31.1998C37.8272 5.07495 43.1998 10.4475 43.1998 17.075V31.475C43.1998 38.1024 37.8272 43.475 31.1998 43.475H16.7998C10.1724 43.475 4.7998 38.1024 4.7998 31.475V17.0749Z" fill="#3F7AFF"/>
<path d="M28.4331 20.593V15.725C28.4331 15.2002 28.0078 14.7749 27.4832 14.7749H20.5165C19.9919 14.7749 19.5666 15.2002 19.5666 15.725V20.593C14.5036 20.8758 14.4998 21.4369 14.4998 21.7416V24.2749C14.4998 24.5916 14.6822 24.8988 16.6326 25.1616L22.0304 29.2174C22.2737 29.3959 22.417 29.6797 22.4164 29.9812V33.1416C22.4164 33.4914 22.7 33.7749 23.0498 33.7749C23.1683 33.7748 23.2844 33.7419 23.3855 33.68L25.1398 32.5817C25.4159 32.4072 25.5833 32.1034 25.5832 31.7768V29.9812C25.5831 29.6782 25.7277 29.3934 25.9727 29.2149L31.367 25.1616C33.3175 24.8988 33.4998 24.5916 33.4998 24.2749V21.7416C33.4998 21.4369 33.496 20.8758 28.4331 20.593ZM32.8665 24.18C32.3545 24.4965 29.1092 24.9082 23.9998 24.9082C18.8905 24.9082 15.6451 24.4941 15.1331 24.18V22.328C15.8981 22.5384 16.682 22.6725 17.4734 22.7286C19.2182 22.9091 21.5349 23.0083 23.9998 23.0083C26.4647 23.0083 28.7814 22.9091 30.5263 22.7286C31.3176 22.6725 32.1015 22.5384 32.8665 22.328V24.18ZM27.7998 19.8416H20.1999V17.9415H27.7998V19.8416ZM20.1999 20.475H27.7998V22.2904C26.6881 22.3432 25.4159 22.3749 23.9998 22.3749C22.5837 22.3749 21.3116 22.3432 20.1999 22.2904V20.475ZM32.6331 21.7435C32.034 21.9306 30.5795 22.133 28.4331 22.2568V21.2279C30.8781 21.3669 32.1204 21.5832 32.6331 21.7435ZM20.1999 15.725C20.1999 15.55 20.3416 15.4082 20.5165 15.4082H27.4832C27.658 15.4082 27.7998 15.55 27.7998 15.725V17.3082H20.1999V15.725ZM19.5666 21.2279V22.2568C17.4202 22.133 15.9656 21.9315 15.3665 21.7435C15.8792 21.5832 17.1215 21.3669 19.5666 21.2279ZM25.5961 28.7054C25.1899 29.0036 24.95 29.4773 24.9499 29.9812V31.7768C24.9486 31.8859 24.8925 31.9873 24.8007 32.0466L23.0498 33.1416V29.9812C23.0503 29.4789 22.8117 29.0062 22.4073 28.7082L17.8691 25.299C19.5623 25.4552 21.7151 25.5415 23.9998 25.5415C26.2845 25.5415 28.4373 25.4552 30.1305 25.299L25.5961 28.7054Z" fill="white"/>
<path d="M21.4673 16.0415H21.1506C20.9758 16.0415 20.834 16.1833 20.834 16.3582C20.834 16.5331 20.9758 16.6748 21.1506 16.6748H21.4673C21.6422 16.6748 21.7839 16.5331 21.7839 16.3582C21.7839 16.1833 21.6422 16.0415 21.4673 16.0415Z" fill="white"/>
<path d="M23.049 16.0415H22.7324C22.5574 16.0415 22.4156 16.1833 22.4156 16.3582C22.4156 16.5331 22.5574 16.6748 22.7324 16.6748H23.049C23.2239 16.6748 23.3657 16.5331 23.3657 16.3582C23.3657 16.1833 23.2239 16.0415 23.049 16.0415Z" fill="white"/>
<path d="M21.1506 19.2083H21.4673C21.6422 19.2083 21.7839 19.0665 21.7839 18.8917C21.7839 18.7167 21.6422 18.575 21.4673 18.575H21.1506C20.9758 18.575 20.834 18.7167 20.834 18.8917C20.834 19.0665 20.9758 19.2083 21.1506 19.2083Z" fill="white"/>
<path d="M22.7324 19.2083H23.049C23.2239 19.2083 23.3657 19.0665 23.3657 18.8917C23.3657 18.7167 23.2239 18.575 23.049 18.575H22.7324C22.5574 18.575 22.4156 18.7167 22.4156 18.8917C22.4156 19.0665 22.5574 19.2083 22.7324 19.2083Z" fill="white"/>
<path d="M26.8494 16.0415H25.8993C25.7245 16.0415 25.5827 16.1833 25.5827 16.3582C25.5827 16.5331 25.7245 16.6748 25.8993 16.6748H26.8494C27.0242 16.6748 27.166 16.5331 27.166 16.3582C27.166 16.1833 27.0242 16.0415 26.8494 16.0415Z" fill="white"/>
<path d="M25.8993 19.2083H26.8494C27.0242 19.2083 27.166 19.0665 27.166 18.8917C27.166 18.7167 27.0242 18.575 26.8494 18.575H25.8993C25.7245 18.575 25.5827 18.7167 25.5827 18.8917C25.5827 19.0665 25.7245 19.2083 25.8993 19.2083Z" fill="white"/>
<path d="M21.4673 21.1084H21.1506C20.9758 21.1084 20.834 21.2502 20.834 21.425C20.834 21.6 20.9758 21.7417 21.1506 21.7417H21.4673C21.6422 21.7417 21.7839 21.6 21.7839 21.425C21.7839 21.2502 21.6422 21.1084 21.4673 21.1084Z" fill="white"/>
<path d="M23.049 21.1084H22.7324C22.5574 21.1084 22.4156 21.2502 22.4156 21.425C22.4156 21.6 22.5574 21.7417 22.7324 21.7417H23.049C23.2239 21.7417 23.3657 21.6 23.3657 21.425C23.3657 21.2502 23.2239 21.1084 23.049 21.1084Z" fill="white"/>
<path d="M25.8993 21.7417H26.8494C27.0242 21.7417 27.166 21.6 27.166 21.425C27.166 21.2502 27.0242 21.1084 26.8494 21.1084H25.8993C25.7245 21.1084 25.5827 21.2502 25.5827 21.425C25.5827 21.6 25.7245 21.7417 25.8993 21.7417Z" fill="white"/>
<path d="M17.3481 14.7749C17.1731 14.7749 17.0313 14.9167 17.0313 15.0916V18.4438L16.622 18.0343C16.4978 17.9144 16.3002 17.916 16.178 18.0382C16.0559 18.1604 16.0542 18.3578 16.1742 18.4821L17.1241 19.4321C17.1836 19.4917 17.2643 19.5252 17.3484 19.5252C17.4324 19.5252 17.5132 19.4917 17.5726 19.4321L18.5225 18.4821C18.6426 18.3578 18.6408 18.1604 18.5188 18.0382C18.3966 17.916 18.199 17.9144 18.0748 18.0343L17.6647 18.4438V15.0916C17.6647 14.9167 17.5229 14.7749 17.3481 14.7749Z" fill="white"/>
<path d="M30.6518 14.7749C30.477 14.7749 30.3352 14.9167 30.3352 15.0916V18.4438L29.9257 18.0343C29.8014 17.9144 29.6039 17.916 29.4818 18.0382C29.3596 18.1604 29.3579 18.3578 29.4779 18.4821L30.428 19.4321C30.4874 19.4917 30.568 19.5252 30.6521 19.5252C30.7363 19.5252 30.8169 19.4917 30.8763 19.4321L31.8264 18.4821C31.9464 18.3578 31.9447 18.1604 31.8225 18.0382C31.7003 17.916 31.5028 17.9144 31.3786 18.0343L30.9685 18.4438V15.0916C30.9685 14.9167 30.8267 14.7749 30.6518 14.7749Z" fill="white"/>
</g>
</g>
<path d="M0.25 16.2749C0.25 7.57642 7.30152 0.524902 16 0.524902H32C40.6985 0.524902 47.75 7.57642 47.75 16.2749V32.2749C47.75 40.9734 40.6985 48.0249 32 48.0249H16C7.30151 48.0249 0.25 40.9734 0.25 32.2749V16.2749Z" stroke="#C5C9C8" stroke-width="0.5"/>
<defs>
<filter id="filter0_d_1_764" x="0.799805" y="5.07495" width="46.4" height="46.4" filterUnits="userSpaceOnUse" color-interpolation-filters="sRGB">
<feFlood flood-opacity="0" result="BackgroundImageFix"/>
<feColorMatrix in="SourceAlpha" type="matrix" values="0 0 0 0 0 0 0 0 0 0 0 0 0 0 0 0 0 0 127 0" result="hardAlpha"/>
<feOffset dy="4"/>
<feGaussianBlur stdDeviation="2"/>
<feComposite in2="hardAlpha" operator="out"/>
<feColorMatrix type="matrix" values="0 0 0 0 0.0156863 0 0 0 0 0.12549 0 0 0 0 0.101961 0 0 0 0.25 0"/>
<feBlend mode="normal" in2="BackgroundImageFix" result="effect1_dropShadow_1_764"/>
<feBlend mode="normal" in="SourceGraphic" in2="effect1_dropShadow_1_764" result="shape"/>
</filter>
<clipPath id="clip0_1_764">
<path d="M0 16.2749C0 7.43835 7.16344 0.274902 16 0.274902H32C40.8366 0.274902 48 7.43835 48 16.2749V32.2749C48 41.1115 40.8366 48.2749 32 48.2749H16C7.16344 48.2749 0 41.1115 0 32.2749V16.2749Z" fill="white"/>
</clipPath>
</defs>
</svg>
