<svg width="44" height="45" viewBox="0 0 44 45" fill="none" xmlns="http://www.w3.org/2000/svg">
<path d="M32.4391 20.2297C32.03 19.8737 31.6103 19.5018 31.504 19.1884C31.3925 18.8484 31.52 18.2799 31.6422 17.7327C31.8334 16.8827 32.0247 16.0061 31.5412 15.342C31.0525 14.6727 30.1546 14.5877 29.2834 14.508C28.7308 14.4548 28.1571 14.4017 27.8702 14.1945C27.5939 13.9926 27.3655 13.4667 27.1477 12.962C26.813 12.1917 26.4411 11.3151 25.6389 11.0548C24.8686 10.8051 24.1036 11.2566 23.3651 11.6976C22.8763 11.9898 22.3663 12.2873 21.9944 12.2873C21.6226 12.2873 21.1126 11.9898 20.6238 11.6976C19.8853 11.262 19.115 10.8051 18.35 11.0548C17.5531 11.3151 17.1759 12.1864 16.8412 12.962C16.6234 13.4667 16.4003 13.9926 16.1187 14.1945C15.8371 14.4017 15.2634 14.4548 14.7055 14.508C13.8343 14.5877 12.9311 14.6727 12.4477 15.342C11.9642 16.0061 12.1608 16.8827 12.3467 17.7327C12.4689 18.2799 12.5964 18.8484 12.4849 19.1884C12.3839 19.5018 11.9589 19.8737 11.5498 20.2297C10.9123 20.7875 10.1898 21.4197 10.1898 22.275C10.1898 23.1303 10.9123 23.7625 11.5498 24.3204C11.9589 24.6763 12.3786 25.0482 12.4849 25.3669C12.5964 25.707 12.4689 26.2754 12.3467 26.8226C12.1555 27.6726 11.9642 28.5492 12.4477 29.2133C12.9364 29.8827 13.8343 29.9677 14.7055 30.0474C15.2581 30.1005 15.8318 30.1536 16.1187 30.3608C16.395 30.5627 16.6234 31.0886 16.8412 31.5933C17.1759 32.3637 17.5478 33.2402 18.35 33.5006C19.115 33.7503 19.8853 33.2987 20.6238 32.8577C21.1126 32.5655 21.6226 32.268 21.9944 32.268C22.3663 32.268 22.8763 32.5655 23.3651 32.8577C23.9601 33.2084 24.5711 33.5696 25.1873 33.5696C25.3414 33.5696 25.4902 33.5484 25.6442 33.5006C26.4411 33.2402 26.8183 32.369 27.153 31.5933C27.3708 31.0886 27.5939 30.5627 27.8755 30.3608C28.1571 30.1536 28.7308 30.1005 29.2887 30.0474C30.1599 29.9677 31.0631 29.8827 31.5465 29.2133C32.03 28.5492 31.8334 27.6726 31.6475 26.8226C31.5253 26.2754 31.3978 25.707 31.5093 25.3669C31.6103 25.0535 32.0353 24.6816 32.4444 24.3257C33.0819 23.7679 33.8044 23.1357 33.8044 22.2803C33.7991 21.4197 33.0766 20.7875 32.4391 20.2297ZM31.759 23.5447C31.2437 23.9963 30.7125 24.4585 30.5265 25.0429C30.3299 25.6538 30.484 26.3604 30.6381 27.0404C30.7709 27.6354 30.9196 28.3101 30.7125 28.6023C30.4999 28.8945 29.804 28.9636 29.1877 29.0167C28.4971 29.0805 27.7799 29.1495 27.2646 29.5214C26.7599 29.888 26.4783 30.5467 26.202 31.1789C25.9577 31.7474 25.6761 32.3955 25.3255 32.5124C25.0014 32.6187 24.4117 32.2733 23.8911 31.9652C23.2801 31.604 22.6479 31.2321 21.9944 31.2321C21.341 31.2321 20.7088 31.604 20.0978 31.9652C19.5772 32.2733 18.9875 32.6187 18.6634 32.5124C18.3075 32.3955 18.0312 31.7527 17.7869 31.1789C17.5159 30.5467 17.2343 29.888 16.7243 29.5214C16.2143 29.1495 15.4971 29.0805 14.8012 29.0167C14.1902 28.9583 13.4943 28.8945 13.2764 28.597C13.0693 28.3101 13.218 27.6354 13.3508 27.0351C13.5049 26.3498 13.659 25.6432 13.4624 25.0376C13.2711 24.4532 12.7399 23.9857 12.2299 23.5394C11.7358 23.1038 11.2205 22.6575 11.2205 22.2697C11.2205 21.8819 11.7305 21.4356 12.2299 21C12.7452 20.5484 13.2764 20.0862 13.4624 19.5018C13.659 18.8909 13.5049 18.1843 13.3508 17.5043C13.218 16.9093 13.0693 16.2346 13.2764 15.9424C13.489 15.6502 14.1849 15.5811 14.8012 15.528C15.4918 15.4642 16.209 15.3952 16.7243 15.0233C17.229 14.6567 17.5106 13.998 17.7869 13.3658C18.0312 12.7973 18.3128 12.1492 18.6634 12.0323C18.9928 11.926 19.5772 12.2714 20.0978 12.5795C20.7088 12.9407 21.341 13.3126 21.9944 13.3126C22.6479 13.3126 23.2801 12.9407 23.8911 12.5795C24.4117 12.2714 25.0014 11.926 25.3255 12.0323C25.6814 12.1492 25.9577 12.792 26.202 13.3658C26.473 13.998 26.7546 14.6567 27.2646 15.0233C27.7746 15.3952 28.4918 15.4642 29.1877 15.528C29.7987 15.5864 30.4946 15.6502 30.7125 15.9424C30.9196 16.2293 30.7709 16.904 30.6381 17.5043C30.484 18.1896 30.3299 18.8962 30.5265 19.5018C30.7178 20.0862 31.249 20.5537 31.759 21C32.2531 21.4356 32.7684 21.8819 32.7684 22.2697C32.7684 22.6628 32.2584 23.1091 31.759 23.5447Z" fill="#4A4A4A"/>
<path d="M21.9994 15.0391C18.0097 15.0391 14.7636 18.2851 14.7636 22.2748C14.7636 26.2646 18.0097 29.5106 21.9994 29.5106C25.9892 29.5106 29.2352 26.2646 29.2352 22.2748C29.2352 18.2851 25.9892 15.0391 21.9994 15.0391ZM21.9994 28.48C18.5781 28.48 15.7943 25.6962 15.7943 22.2748C15.7943 18.8535 18.5781 16.0697 21.9994 16.0697C25.4208 16.0697 28.2046 18.8535 28.2046 22.2748C28.2046 25.6962 25.4208 28.48 21.9994 28.48Z" fill="#4A4A4A"/>
<path d="M25.028 19.4327L20.4325 24.0281L18.9716 22.5671C18.7697 22.3652 18.4456 22.3652 18.2437 22.5671C18.0419 22.769 18.0419 23.0931 18.2437 23.2949L20.066 25.1172C20.1669 25.2181 20.2997 25.2659 20.4325 25.2659C20.5654 25.2659 20.6982 25.2181 20.7991 25.1172L25.7558 20.1605C25.9577 19.9586 25.9577 19.6345 25.7558 19.4327C25.5539 19.2308 25.2298 19.2308 25.028 19.4327Z" fill="#4A4A4A"/>
<path d="M22.0007 8.2816C22.2876 8.2816 22.516 8.05316 22.516 7.76627V5.78998C22.516 5.5031 22.2822 5.27466 22.0007 5.27466C21.7138 5.27466 21.4854 5.5031 21.4854 5.78998V7.76627C21.4854 8.04784 21.7138 8.2816 22.0007 8.2816Z" fill="#4A4A4A"/>
<path d="M14.2989 9.96591C14.3945 10.1306 14.5698 10.2209 14.7451 10.2209C14.8301 10.2209 14.9205 10.1997 15.0001 10.1519C15.2445 10.0084 15.3295 9.69497 15.1914 9.45059L14.2033 7.73993C14.0598 7.49555 13.7464 7.41055 13.502 7.55399C13.2576 7.69743 13.1726 8.01087 13.3107 8.25525L14.2989 9.96591Z" fill="#4A4A4A"/>
<path d="M7.46511 14.4811L9.17577 15.4692C9.25546 15.517 9.34578 15.5383 9.43078 15.5383C9.61141 15.5383 9.78141 15.448 9.87704 15.2833C10.0205 15.0389 9.93548 14.7201 9.68579 14.582L7.97512 13.5939C7.73606 13.4451 7.4173 13.5301 7.27386 13.7745C7.13573 14.0242 7.22073 14.3376 7.46511 14.4811Z" fill="#4A4A4A"/>
<path d="M8.00658 22.2751C8.00658 21.9882 7.77814 21.7598 7.49126 21.7598H5.51497C5.22809 21.7598 4.99964 21.9935 4.99964 22.2751C4.99964 22.562 5.22809 22.7904 5.51497 22.7904H7.49126C7.77283 22.7904 8.00658 22.562 8.00658 22.2751Z" fill="#4A4A4A"/>
<path d="M9.17623 29.0857L7.46557 30.0739C7.22119 30.2173 7.13619 30.5308 7.27963 30.7751C7.37526 30.9398 7.55057 31.0301 7.72589 31.0301C7.81089 31.0301 7.90121 31.0089 7.9809 30.9611L9.69156 29.9729C9.93594 29.8295 10.0209 29.516 9.88281 29.2717C9.73937 29.0273 9.42061 28.9423 9.17623 29.0857Z" fill="#4A4A4A"/>
<path d="M15.0036 34.3983C14.7593 34.2548 14.4405 34.3398 14.3024 34.5895L13.3142 36.3002C13.1708 36.5446 13.2558 36.8633 13.5055 37.0015C13.5852 37.0493 13.6755 37.0705 13.7605 37.0705C13.9411 37.0705 14.1111 36.9802 14.2068 36.8155L15.1949 35.1049C15.333 34.8552 15.2533 34.5364 15.0036 34.3983Z" fill="#4A4A4A"/>
<path d="M22.0007 36.2683C21.7138 36.2683 21.4854 36.4968 21.4854 36.7836V38.7599C21.4854 39.0468 21.7138 39.2753 22.0007 39.2753C22.2876 39.2753 22.516 39.0468 22.516 38.7599V36.7836C22.516 36.5021 22.2876 36.2683 22.0007 36.2683Z" fill="#4A4A4A"/>
<path d="M29.7032 34.5841C29.5598 34.3397 29.2463 34.2547 29.002 34.3928C28.7576 34.5363 28.6726 34.8497 28.8107 35.0941L29.7988 36.8047C29.8945 36.9694 30.0698 37.0598 30.2451 37.0598C30.3301 37.0598 30.4204 37.0385 30.5001 36.9907C30.7445 36.8472 30.8295 36.5338 30.6914 36.2894L29.7032 34.5841Z" fill="#4A4A4A"/>
<path d="M36.5346 30.0688L34.8239 29.0807C34.5796 28.9372 34.2608 29.0222 34.1227 29.2719C33.9792 29.5163 34.0642 29.835 34.3139 29.9732L36.0246 30.9613C36.1043 31.0091 36.1946 31.0304 36.2796 31.0304C36.4602 31.0304 36.6302 30.9401 36.7259 30.7754C36.864 30.5257 36.779 30.2122 36.5346 30.0688Z" fill="#4A4A4A"/>
<path d="M38.485 21.7598H36.5087C36.2218 21.7598 35.9934 21.9882 35.9934 22.2751C35.9934 22.562 36.2218 22.7904 36.5087 22.7904H38.485C38.7719 22.7904 39.0003 22.562 39.0003 22.2751C39.0003 21.9882 38.7719 21.7598 38.485 21.7598Z" fill="#4A4A4A"/>
<path d="M34.5654 15.5335C34.6504 15.5335 34.7407 15.5122 34.8204 15.4644L36.5311 14.4763C36.7755 14.3328 36.8605 14.0194 36.7223 13.775C36.5789 13.5306 36.2655 13.4456 36.0211 13.5837L34.3104 14.5719C34.066 14.7153 33.981 15.0288 34.1192 15.2731C34.2148 15.4378 34.3901 15.5335 34.5654 15.5335Z" fill="#4A4A4A"/>
<path d="M28.9969 10.1519C29.0766 10.1997 29.1669 10.221 29.2519 10.221C29.4325 10.221 29.6025 10.1307 29.6981 9.96597L30.6863 8.25531C30.8297 8.01093 30.7447 7.69217 30.495 7.55404C30.2507 7.4106 29.9319 7.4956 29.7938 7.74529L28.8056 9.45596C28.6675 9.69502 28.7472 10.0138 28.9969 10.1519Z" fill="#4A4A4A"/>
</svg>
