<svg width="44" height="45" viewBox="0 0 44 45" fill="none" xmlns="http://www.w3.org/2000/svg">
<path d="M22.3608 37.2907C22.3608 37.5869 22.118 37.8273 21.8186 37.8273H8.98786C7.89159 37.8273 7 36.9448 7 35.8598V10.1041C7 9.01906 7.89159 8.13662 8.98786 8.13662H9.16855V7.24235C9.16855 6.15734 10.0601 5.2749 11.1564 5.2749H29.2279C30.3241 5.2749 31.2157 6.15734 31.2157 7.24235V22.3881C31.2157 22.6843 30.9729 22.9247 30.6736 22.9247C30.3742 22.9247 30.1314 22.6844 30.1314 22.3881V7.24235C30.1314 6.74911 29.7262 6.34808 29.2279 6.34808H11.1564C10.658 6.34808 10.2529 6.74911 10.2529 7.24235V8.13662H26.3365C27.4327 8.13662 28.3243 9.01906 28.3243 10.1041V22.388C28.3243 22.6842 28.0815 22.9246 27.7822 22.9246C27.4828 22.9246 27.24 22.6843 27.24 22.388V10.1041C27.24 9.61083 26.8348 9.2098 26.3365 9.2098H8.98786C8.4895 9.2098 8.08431 9.61083 8.08431 10.1041V35.8598C8.08431 36.3531 8.4895 36.7541 8.98786 36.7541H21.8186C22.1179 36.7541 22.3608 36.9944 22.3608 37.2907ZM18.2043 23.5255V26.0296H21.3195C21.6187 26.0296 21.8616 26.2699 21.8616 26.5662C21.8616 26.8624 21.6188 27.1028 21.3195 27.1028H18.2043V29.6068H19.9465C20.2457 29.6068 20.4886 29.8471 20.4886 30.1434C20.4886 30.4397 20.2458 30.68 19.9465 30.68H18.2043V33.184H20.0834C20.3827 33.184 20.6256 33.4243 20.6256 33.7206C20.6256 34.0169 20.3828 34.2572 20.0834 34.2572H10.4336C10.1343 34.2572 9.8914 34.0169 9.8914 33.7206V19.4119C9.8914 19.1157 10.1342 18.8753 10.4336 18.8753H24.8907C25.19 18.8753 25.4329 19.1156 25.4329 19.4119V23.3328C25.4329 23.629 25.1901 23.8694 24.8907 23.8694C24.6605 23.8694 24.4666 23.7261 24.3879 23.5257L18.2043 23.5255ZM24.3486 19.9483H18.2044V22.4524H24.3486V19.9483ZM10.9757 19.9483V22.4524H17.12V19.9483H10.9757ZM17.12 30.6799H10.9758V33.1839H17.12V30.6799ZM17.12 27.1027H10.9758V29.6067H17.12V27.1027ZM17.12 23.5255H10.9758V26.0296H17.12V23.5255ZM36.9986 31.5839C36.9986 35.8249 33.5128 39.2749 29.2279 39.2749C24.943 39.2749 21.4572 35.8249 21.4572 31.5839C21.4572 27.343 24.943 23.893 29.2279 23.893C33.5128 23.893 36.9986 27.343 36.9986 31.5839ZM35.9143 31.5839C35.9143 27.9348 32.9148 24.9662 29.2279 24.9662C25.5409 24.9662 22.5415 27.9348 22.5415 31.5839C22.5415 35.2331 25.5409 38.2017 29.2279 38.2017C32.9148 38.2017 35.9143 35.2331 35.9143 31.5839ZM21.2765 13.5094C21.5757 13.5094 21.8186 13.2691 21.8186 12.9728C21.8186 12.6765 21.5758 12.4362 21.2765 12.4362H13.325C13.0258 12.4362 12.7829 12.6765 12.7829 12.9728C12.7829 13.2691 13.0257 13.5094 13.325 13.5094H21.2765ZM10.6143 15.8346C10.6143 16.1308 10.8571 16.3712 11.1565 16.3712H23.4451C23.7444 16.3712 23.9872 16.1309 23.9872 15.8346C23.9872 15.5383 23.7444 15.298 23.4451 15.298H11.1564C10.8571 15.298 10.6143 15.5383 10.6143 15.8346Z" fill="#4A4A4A"/>
<path d="M28.5041 33.8063C28.3474 33.8063 28.2208 33.681 28.2208 33.526C28.2208 33.1592 28.2733 32.8425 28.3779 32.5761C28.4547 32.3753 28.5792 32.173 28.7505 31.9686C28.8767 31.8198 29.1027 31.6024 29.4296 31.3173C29.7565 31.0318 29.9688 30.8045 30.0671 30.6349C30.1654 30.4653 30.2137 30.2801 30.2137 30.0793C30.2137 29.7158 30.0702 29.3969 29.7838 29.1217C29.4974 28.8466 29.1458 28.7092 28.7295 28.7092C28.3275 28.7092 27.9916 28.8341 27.7225 29.0832C27.526 29.2653 27.3783 29.5222 27.2806 29.8541C27.2133 30.0819 26.9889 30.2276 26.7508 30.1995C26.4491 30.1641 26.2505 29.8687 26.3366 29.58C26.4691 29.1363 26.6909 28.7789 27.0015 28.5074C27.433 28.1292 28.0037 27.9404 28.7138 27.9404C29.4653 27.9404 30.065 28.1428 30.5127 28.548C30.9605 28.9532 31.1839 29.4427 31.1839 30.0169C31.1839 30.3493 31.1051 30.6557 30.9479 30.9355C30.7908 31.2159 30.4828 31.5566 30.025 31.9582C29.7176 32.2281 29.5163 32.4274 29.4217 32.5553C29.3271 32.6833 29.2572 32.8305 29.212 32.9964C29.1783 33.1197 29.1552 33.3007 29.1426 33.5384C29.1347 33.6882 29.0091 33.8058 28.8578 33.8058H28.5041V33.8063ZM28.1682 35.1483C28.1682 34.8545 28.4089 34.6162 28.7059 34.6162C29.0028 34.6162 29.2435 34.8545 29.2435 35.1483C29.2435 35.4422 29.0028 35.6805 28.7059 35.6805C28.4089 35.6805 28.1682 35.4422 28.1682 35.1483Z" fill="#4A4A4A"/>
</svg>
