<svg width="18" height="14" viewBox="0 0 18 14" fill="none" xmlns="http://www.w3.org/2000/svg">
<path d="M16.9252 1.67074L13.4971 0.299505C13.4152 0.266702 13.3239 0.266702 13.242 0.299505L9.81394 1.67074C9.75039 1.69621 9.69592 1.74012 9.65755 1.79682C9.61918 1.85352 9.59867 1.92041 9.59865 1.98887V5.53214C9.60042 6.1832 9.76985 6.82282 10.0906 7.38938C10.4113 7.95595 10.8726 8.43035 11.4299 8.76689L13.1933 9.8248C13.2466 9.8567 13.3075 9.87355 13.3696 9.87355C13.4316 9.87355 13.4925 9.8567 13.5458 9.8248L15.0836 8.90195V12.7414C15.0834 12.8905 15.0241 13.0334 14.9187 13.1388C14.8133 13.2442 14.6704 13.3034 14.5214 13.3036H1.24782C1.09877 13.3034 0.95588 13.2442 0.850485 13.1388C0.74509 13.0334 0.685799 12.8905 0.685618 12.7414V5.07415H8.57022C8.66114 5.07415 8.74834 5.03803 8.81263 4.97374C8.87692 4.90945 8.91303 4.82226 8.91303 4.73134C8.91303 4.64042 8.87692 4.55323 8.81263 4.48894C8.74834 4.42465 8.66114 4.38853 8.57022 4.38853H0.685618V3.5795C0.685799 3.43045 0.74509 3.28756 0.850485 3.18216C0.95588 3.07677 1.09877 3.01748 1.24782 3.01729H8.57022C8.66114 3.01729 8.74834 2.98118 8.81263 2.91689C8.87692 2.8526 8.91303 2.7654 8.91303 2.67449C8.91303 2.58357 8.87692 2.49637 8.81263 2.43208C8.74834 2.36779 8.66114 2.33168 8.57022 2.33168H1.24782C0.916937 2.33186 0.599653 2.46338 0.36568 2.69736C0.131707 2.93133 0.000181657 3.24861 0 3.5795V12.7394C0.000181657 13.0702 0.131707 13.3875 0.36568 13.6215C0.599653 13.8555 0.916937 13.987 1.24782 13.9872H14.5214C14.8523 13.987 15.1696 13.8555 15.4035 13.6215C15.6375 13.3875 15.769 13.0702 15.7692 12.7394V8.43368C16.1963 8.07961 16.5404 7.63614 16.7773 7.13456C17.0142 6.63297 17.1382 6.0855 17.1404 5.53077V1.98887C17.1404 1.92041 17.1199 1.85352 17.0816 1.79682C17.0432 1.74012 16.9887 1.69621 16.9252 1.67074ZM16.4548 5.53214C16.4534 6.06487 16.3148 6.58824 16.0523 7.05179C15.7897 7.51534 15.4122 7.90343 14.9561 8.17863L13.3696 9.13095L11.783 8.17863C11.3269 7.90343 10.9494 7.51534 10.6868 7.05179C10.4243 6.58824 10.2857 6.06487 10.2843 5.53214V2.22061L13.3696 0.986494L16.4548 2.22061V5.53214Z" fill="#202124"/>
<path d="M12.241 4.54748C12.2091 4.5156 12.1713 4.49031 12.1297 4.47304C12.0881 4.45578 12.0435 4.44687 11.9985 4.44684C11.9534 4.44681 11.9088 4.45565 11.8672 4.47286C11.8256 4.49007 11.7877 4.5153 11.7559 4.54713C11.724 4.57896 11.6987 4.61675 11.6814 4.65836C11.6642 4.69996 11.6553 4.74456 11.6552 4.7896C11.6552 4.83464 11.6641 4.87925 11.6813 4.92088C11.6985 4.9625 11.7237 5.00033 11.7555 5.03221L12.6701 5.94614C12.7344 6.0104 12.8216 6.04651 12.9125 6.04651C13.0034 6.04651 13.0906 6.0104 13.1549 5.94614L14.9834 4.11759C15.0477 4.05322 15.0838 3.96595 15.0837 3.87498C15.0837 3.78401 15.0475 3.6968 14.9831 3.63252C14.9187 3.56824 14.8314 3.53216 14.7405 3.53223C14.6495 3.53229 14.5623 3.56849 14.498 3.63286L12.9122 5.21938L12.241 4.54748Z" fill="#202124"/>
<path d="M2.40015 11.2446C2.30923 11.2446 2.22204 11.2807 2.15775 11.345C2.09346 11.4093 2.05734 11.4965 2.05734 11.5874C2.05734 11.6784 2.09346 11.7656 2.15775 11.8298C2.22204 11.8941 2.30923 11.9302 2.40015 11.9302H5.14262C5.23354 11.9302 5.32074 11.8941 5.38503 11.8298C5.44932 11.7656 5.48543 11.6784 5.48543 11.5874C5.48543 11.4965 5.44932 11.4093 5.38503 11.345C5.32074 11.2807 5.23354 11.2446 5.14262 11.2446H2.40015Z" fill="#202124"/>
</svg>
