<svg width="19" height="21" viewBox="0 0 19 21" fill="none" xmlns="http://www.w3.org/2000/svg">
<path fill-rule="evenodd" clip-rule="evenodd" d="M7.4066 15.7358V15.1757C6.38894 14.7859 5.49877 14.1225 4.83434 13.2587C4.16992 12.3949 3.75709 11.3643 3.64141 10.2807H5.46383C5.58614 10.5653 5.78919 10.8077 6.04787 10.9781C6.30654 11.1485 6.60949 11.2393 6.91924 11.2393C7.22899 11.2393 7.53194 11.1485 7.79061 10.9781C8.04929 10.8077 8.25234 10.5653 8.37465 10.2807H9.51688V11.7397C9.64327 11.7389 9.76858 11.7631 9.88559 11.8109C10.0026 11.8588 10.109 11.9292 10.1987 12.0183C10.2883 12.1074 10.3595 12.2134 10.408 12.3301C10.4566 12.4468 10.4816 12.5719 10.4816 12.6983C10.4816 12.8247 10.4566 12.9499 10.408 13.0666C10.3595 13.1833 10.2883 13.2892 10.1987 13.3783C10.109 13.4674 10.0026 13.5379 9.88559 13.5857C9.76858 13.6335 9.64327 13.6577 9.51688 13.6569V15.7358H7.4066ZM2.97657 13.483C3.04617 13.4388 3.13043 13.424 3.21094 13.4418C3.29144 13.4595 3.36163 13.5085 3.40616 13.5778C3.45069 13.6472 3.46593 13.7314 3.44857 13.812C3.4312 13.8926 3.38263 13.963 3.31348 14.0079L2.18528 14.7319C2.15081 14.7541 2.11233 14.7692 2.07202 14.7764C2.03171 14.7837 1.99037 14.7829 1.95036 14.7742C1.91035 14.7655 1.87245 14.7489 1.83882 14.7256C1.80519 14.7022 1.7765 14.6724 1.75438 14.6379C1.73226 14.6035 1.71714 14.565 1.70989 14.5247C1.70264 14.4844 1.7034 14.443 1.71213 14.403C1.72085 14.363 1.73738 14.3251 1.76075 14.2915C1.78413 14.2579 1.8139 14.2292 1.84836 14.2071L2.97657 13.483ZM2.06692 8.26646C2.14821 8.27882 2.22133 8.32277 2.27039 8.38875C2.31945 8.45474 2.34047 8.53742 2.32888 8.61882C2.3173 8.70023 2.27405 8.77376 2.20853 8.82345C2.14302 8.87313 2.06053 8.89493 1.97903 8.88412L0.652112 8.69271C0.570823 8.68036 0.497698 8.63641 0.448641 8.57043C0.399584 8.50444 0.378561 8.42176 0.390144 8.34036C0.401727 8.25895 0.44498 8.18542 0.510496 8.13573C0.576013 8.08605 0.658494 8.06425 0.740003 8.07506L2.06692 8.26646ZM4.79535 3.72881C4.82231 3.75972 4.8429 3.79564 4.85594 3.83453C4.86898 3.87341 4.87421 3.91448 4.87133 3.9554C4.86846 3.99631 4.85754 4.03625 4.83919 4.07293C4.82085 4.1096 4.79544 4.1423 4.76443 4.16914C4.73341 4.19597 4.69741 4.21642 4.65847 4.22931C4.61954 4.2422 4.57845 4.24727 4.53755 4.24424C4.49665 4.24121 4.45675 4.23013 4.42014 4.21164C4.38353 4.19315 4.35094 4.16762 4.32422 4.1365L3.44649 3.12314C3.41972 3.09221 3.3993 3.0563 3.38641 3.01747C3.37352 2.97865 3.3684 2.93766 3.37135 2.89685C3.37429 2.85605 3.38525 2.81622 3.40359 2.77965C3.42193 2.74308 3.44729 2.71048 3.47823 2.68371C3.50916 2.65694 3.54507 2.63653 3.5839 2.62363C3.62272 2.61074 3.66371 2.60562 3.70452 2.60857C3.74532 2.61152 3.78515 2.62247 3.82172 2.64081C3.85829 2.65915 3.89089 2.68451 3.91766 2.71545L4.79535 3.72881ZM15.8756 13.7778C15.8404 13.757 15.8095 13.7294 15.7849 13.6966C15.7603 13.6639 15.7424 13.6266 15.7322 13.5869C15.722 13.5473 15.7197 13.506 15.7255 13.4654C15.7312 13.4249 15.7449 13.3858 15.7657 13.3506C15.7866 13.3153 15.8142 13.2845 15.8469 13.2599C15.8797 13.2353 15.9169 13.2173 15.9566 13.2071C15.9963 13.1969 16.0376 13.1946 16.0781 13.2004C16.1187 13.2062 16.1577 13.2198 16.193 13.2407L17.347 13.923C17.3827 13.9436 17.414 13.9711 17.439 14.0039C17.464 14.0367 17.4823 14.0741 17.4928 14.114C17.5032 14.1539 17.5057 14.1954 17.5 14.2363C17.4943 14.2771 17.4806 14.3164 17.4596 14.3519C17.4386 14.3874 17.4108 14.4184 17.3778 14.4431C17.3448 14.4678 17.3072 14.4857 17.2672 14.4957C17.2272 14.5058 17.1856 14.5078 17.1448 14.5017C17.1041 14.4956 17.0649 14.4815 17.0296 14.4601L15.8756 13.7778ZM17.0335 8.70018C16.9929 8.70734 16.9513 8.7064 16.9111 8.69739C16.8709 8.68839 16.8328 8.6715 16.7992 8.64771C16.7655 8.62392 16.7369 8.5937 16.715 8.55879C16.6931 8.52388 16.6784 8.48498 16.6716 8.44433C16.6648 8.40368 16.6662 8.36209 16.6756 8.32196C16.685 8.28184 16.7022 8.24397 16.7263 8.21056C16.7504 8.17714 16.7809 8.14883 16.8161 8.12727C16.8512 8.10571 16.8902 8.09132 16.9309 8.08494L18.2528 7.86127C18.334 7.84854 18.4169 7.86838 18.4836 7.91648C18.5502 7.96458 18.5952 8.03704 18.6087 8.11811C18.6222 8.19918 18.6032 8.28231 18.5557 8.34943C18.5083 8.41654 18.4363 8.46221 18.3553 8.4765L17.0335 8.70018ZM14.6418 4.07393C14.5883 4.13705 14.512 4.17638 14.4296 4.18325C14.3472 4.19011 14.2655 4.16396 14.2023 4.11055C14.1392 4.05713 14.0999 3.98082 14.093 3.89841C14.0861 3.816 14.1123 3.73424 14.1657 3.67111L15.031 2.64713C15.0575 2.61587 15.0898 2.59013 15.1262 2.57137C15.1626 2.55261 15.2023 2.54121 15.2432 2.53781C15.284 2.53441 15.325 2.53908 15.364 2.55155C15.403 2.56403 15.4392 2.58406 15.4705 2.61051C15.5017 2.63696 15.5275 2.6693 15.5462 2.7057C15.565 2.7421 15.5764 2.78183 15.5798 2.82264C15.5832 2.86345 15.5785 2.90452 15.566 2.94352C15.5536 2.98252 15.5335 3.01868 15.5071 3.04994L14.6418 4.07393ZM9.82938 2.08428C9.82938 2.16716 9.79645 2.24664 9.73785 2.30525C9.67924 2.36385 9.59976 2.39678 9.51688 2.39678C9.434 2.39678 9.35451 2.36385 9.29591 2.30525C9.2373 2.24664 9.20438 2.16716 9.20438 2.08428V0.743652C9.20438 0.660772 9.2373 0.581287 9.29591 0.522681C9.35451 0.464076 9.434 0.431152 9.51688 0.431152C9.59976 0.431152 9.67924 0.464076 9.73785 0.522681C9.79645 0.581287 9.82938 0.660772 9.82938 0.743652V2.08428ZM11.3958 18.764C11.2644 19.1584 11.0123 19.5015 10.6751 19.7446C10.3379 19.9877 9.9327 20.1185 9.51699 20.1185C9.10128 20.1185 8.69612 19.9877 8.35891 19.7446C8.0217 19.5015 7.76956 19.1584 7.63821 18.764H11.3958ZM6.71364 16.3608H12.3203V18.139H6.71364V16.3608ZM3.60848 9.65572H5.96067C5.96228 9.90889 6.06399 10.1511 6.24358 10.3296C6.42317 10.508 6.66607 10.6082 6.91924 10.6082C7.17242 10.6082 7.41531 10.508 7.5949 10.3296C7.77449 10.1511 7.8762 9.90889 7.87781 9.65572H8.89192V8.40936C8.60734 8.28705 8.36487 8.08399 8.19449 7.82532C8.02411 7.56664 7.9333 7.26369 7.9333 6.95395C7.9333 6.6442 8.02411 6.34125 8.19449 6.08257C8.36487 5.8239 8.60734 5.62084 8.89192 5.49854V3.78018C7.44131 3.93464 6.09912 4.62023 5.1237 5.70497C4.14827 6.78971 3.60857 8.19692 3.60848 9.65572ZM9.51688 3.74729V5.99533C9.26264 5.99533 9.01882 6.09633 8.83905 6.2761C8.65928 6.45587 8.55828 6.69969 8.55828 6.95393C8.55828 7.20816 8.65928 7.45198 8.83905 7.63175C9.01882 7.81153 9.26264 7.91252 9.51688 7.91252V9.03072H10.8531C10.9754 8.74615 11.1784 8.50367 11.4371 8.33329C11.6958 8.16291 11.9988 8.07211 12.3085 8.07211C12.6182 8.07211 12.9212 8.16291 13.1799 8.33329C13.4385 8.50367 13.6416 8.74615 13.7639 9.03072H15.3924C15.2379 7.58012 14.5524 6.23792 13.4676 5.2625C12.3829 4.28707 10.9757 3.74737 9.51688 3.74729ZM15.4253 9.65572H13.2671C13.2671 9.40149 13.1661 9.15767 12.9863 8.97789C12.8065 8.79812 12.5627 8.69713 12.3085 8.69713C12.0542 8.69713 11.8104 8.79812 11.6307 8.97789C11.4509 9.15767 11.3499 9.40149 11.3499 9.65572H10.1419V11.2429C10.4265 11.3653 10.6689 11.5683 10.8393 11.827C11.0097 12.0857 11.1005 12.3886 11.1005 12.6984C11.1005 13.0081 11.0097 13.3111 10.8393 13.5697C10.6689 13.8284 10.4265 14.0315 10.1419 14.1538V15.7358H11.6272V15.1757C12.7445 14.7481 13.7058 13.9915 14.384 13.0059C15.0621 12.0203 15.4252 10.8521 15.4253 9.65572Z" fill="black"/>
</svg>
