<svg width="34" height="35" viewBox="0 0 34 35" fill="none" xmlns="http://www.w3.org/2000/svg">
<path d="M27.4391 15.2297C27.03 14.8737 26.6103 14.5018 26.504 14.1884C26.3925 13.8484 26.52 13.2799 26.6422 12.7327C26.8334 11.8827 27.0247 11.0061 26.5412 10.342C26.0525 9.67266 25.1546 9.58765 24.2834 9.50796C23.7308 9.45484 23.1571 9.40171 22.8702 9.19452C22.5939 8.99264 22.3655 8.46669 22.1477 7.96199C21.813 7.19166 21.4411 6.31508 20.6389 6.05476C19.8686 5.80507 19.1036 6.25664 18.3651 6.69759C17.8763 6.98979 17.3663 7.28729 16.9944 7.28729C16.6226 7.28729 16.1126 6.98979 15.6238 6.69759C14.8853 6.26196 14.115 5.80507 13.35 6.05476C12.5531 6.31508 12.1759 7.18635 11.8412 7.96199C11.6234 8.46669 11.4003 8.99264 11.1187 9.19452C10.8371 9.40171 10.2634 9.45484 9.70554 9.50796C8.83427 9.58765 7.93113 9.67266 7.44768 10.342C6.96423 11.0061 7.1608 11.8827 7.34674 12.7327C7.46893 13.2799 7.59643 13.8484 7.48487 14.1884C7.38393 14.5018 6.95892 14.8737 6.54985 15.2297C5.91233 15.7875 5.18982 16.4197 5.18982 17.275C5.18982 18.1303 5.91233 18.7625 6.54985 19.3204C6.95892 19.6763 7.37862 20.0482 7.48487 20.3669C7.59643 20.707 7.46893 21.2754 7.34674 21.8226C7.15549 22.6726 6.96423 23.5492 7.44768 24.2133C7.93644 24.8827 8.83427 24.9677 9.70554 25.0474C10.2581 25.1005 10.8318 25.1536 11.1187 25.3608C11.395 25.5627 11.6234 26.0886 11.8412 26.5933C12.1759 27.3637 12.5478 28.2402 13.35 28.5006C14.115 28.7503 14.8853 28.2987 15.6238 27.8577C16.1126 27.5655 16.6226 27.268 16.9944 27.268C17.3663 27.268 17.8763 27.5655 18.3651 27.8577C18.9601 28.2084 19.5711 28.5696 20.1873 28.5696C20.3414 28.5696 20.4902 28.5484 20.6442 28.5006C21.4411 28.2402 21.8183 27.369 22.153 26.5933C22.3708 26.0886 22.5939 25.5627 22.8755 25.3608C23.1571 25.1536 23.7308 25.1005 24.2887 25.0474C25.1599 24.9677 26.0631 24.8827 26.5465 24.2133C27.03 23.5492 26.8334 22.6726 26.6475 21.8226C26.5253 21.2754 26.3978 20.707 26.5093 20.3669C26.6103 20.0535 27.0353 19.6816 27.4444 19.3257C28.0819 18.7679 28.8044 18.1357 28.8044 17.2803C28.7991 16.4197 28.0766 15.7875 27.4391 15.2297ZM26.759 18.5447C26.2437 18.9963 25.7125 19.4585 25.5265 20.0429C25.3299 20.6538 25.484 21.3604 25.6381 22.0404C25.7709 22.6354 25.9196 23.3101 25.7125 23.6023C25.4999 23.8945 24.804 23.9636 24.1877 24.0167C23.4971 24.0805 22.7799 24.1495 22.2646 24.5214C21.7599 24.888 21.4783 25.5467 21.202 26.1789C20.9577 26.7474 20.6761 27.3955 20.3255 27.5124C20.0014 27.6187 19.4117 27.2733 18.8911 26.9652C18.2801 26.604 17.6479 26.2321 16.9944 26.2321C16.341 26.2321 15.7088 26.604 15.0978 26.9652C14.5772 27.2733 13.9875 27.6187 13.6634 27.5124C13.3075 27.3955 13.0312 26.7527 12.7869 26.1789C12.5159 25.5467 12.2343 24.888 11.7243 24.5214C11.2143 24.1495 10.4971 24.0805 9.80117 24.0167C9.19022 23.9583 8.49427 23.8945 8.27645 23.597C8.06926 23.3101 8.21801 22.6354 8.35083 22.0351C8.50489 21.3498 8.65896 20.6432 8.46239 20.0376C8.27114 19.4532 7.73987 18.9857 7.22986 18.5394C6.73579 18.1038 6.22047 17.6575 6.22047 17.2697C6.22047 16.8819 6.73048 16.4356 7.22986 16C7.74519 15.5484 8.27645 15.0862 8.46239 14.5018C8.65896 13.8909 8.50489 13.1843 8.35083 12.5043C8.21801 11.9093 8.06926 11.2346 8.27645 10.9424C8.48895 10.6502 9.18491 10.5811 9.80117 10.528C10.4918 10.4642 11.209 10.3952 11.7243 10.0233C12.229 9.65672 12.5106 8.99795 12.7869 8.36575C13.0312 7.7973 13.3128 7.14916 13.6634 7.03229C13.9928 6.92603 14.5772 7.27135 15.0978 7.57949C15.7088 7.94074 16.341 8.31263 16.9944 8.31263C17.6479 8.31263 18.2801 7.94074 18.8911 7.57949C19.4117 7.27135 20.0014 6.92603 20.3255 7.03229C20.6814 7.14916 20.9577 7.79199 21.202 8.36575C21.473 8.99795 21.7546 9.65672 22.2646 10.0233C22.7746 10.3952 23.4918 10.4642 24.1877 10.528C24.7987 10.5864 25.4946 10.6502 25.7125 10.9424C25.9196 11.2293 25.7709 11.904 25.6381 12.5043C25.484 13.1896 25.3299 13.8962 25.5265 14.5018C25.7178 15.0862 26.249 15.5537 26.759 16C27.2531 16.4356 27.7684 16.8819 27.7684 17.2697C27.7684 17.6628 27.2584 18.1091 26.759 18.5447Z" fill="#4A4A4A"/>
<path d="M16.9994 10.0391C13.0097 10.0391 9.76365 13.2851 9.76365 17.2748C9.76365 21.2646 13.0097 24.5106 16.9994 24.5106C20.9892 24.5106 24.2352 21.2646 24.2352 17.2748C24.2352 13.2851 20.9892 10.0391 16.9994 10.0391ZM16.9994 23.48C13.5781 23.48 10.7943 20.6962 10.7943 17.2748C10.7943 13.8535 13.5781 11.0697 16.9994 11.0697C20.4208 11.0697 23.2046 13.8535 23.2046 17.2748C23.2046 20.6962 20.4208 23.48 16.9994 23.48Z" fill="#4A4A4A"/>
<path d="M20.028 14.4327L15.4325 19.0281L13.9716 17.5671C13.7697 17.3652 13.4456 17.3652 13.2437 17.5671C13.0419 17.769 13.0419 18.0931 13.2437 18.2949L15.066 20.1172C15.1669 20.2181 15.2997 20.2659 15.4325 20.2659C15.5654 20.2659 15.6982 20.2181 15.7991 20.1172L20.7558 15.1605C20.9577 14.9586 20.9577 14.6345 20.7558 14.4327C20.5539 14.2308 20.2298 14.2308 20.028 14.4327Z" fill="#4A4A4A"/>
<path d="M17.0007 3.2816C17.2876 3.2816 17.516 3.05316 17.516 2.76627V0.789982C17.516 0.503101 17.2822 0.274658 17.0007 0.274658C16.7138 0.274658 16.4854 0.503101 16.4854 0.789982V2.76627C16.4854 3.04784 16.7138 3.2816 17.0007 3.2816Z" fill="#4A4A4A"/>
<path d="M9.29888 4.96591C9.39451 5.13061 9.56982 5.22092 9.74514 5.22092C9.83014 5.22092 9.92045 5.19967 10.0001 5.15186C10.2445 5.00842 10.3295 4.69497 10.1914 4.45059L9.20325 2.73993C9.05981 2.49555 8.74637 2.41055 8.50199 2.55399C8.25761 2.69743 8.1726 3.01087 8.31073 3.25525L9.29888 4.96591Z" fill="#4A4A4A"/>
<path d="M2.46511 9.48106L4.17577 10.4692C4.25546 10.517 4.34578 10.5383 4.43078 10.5383C4.61141 10.5383 4.78141 10.448 4.87704 10.2833C5.02048 10.0389 4.93548 9.72013 4.68579 9.582L2.97512 8.59386C2.73606 8.4451 2.4173 8.53011 2.27386 8.77449C2.13573 9.02418 2.22073 9.33762 2.46511 9.48106Z" fill="#4A4A4A"/>
<path d="M3.00658 17.2751C3.00658 16.9882 2.77814 16.7598 2.49126 16.7598H0.514967C0.228086 16.7598 -0.000356674 16.9935 -0.000356674 17.2751C-0.000356674 17.562 0.228086 17.7904 0.514967 17.7904H2.49126C2.77283 17.7904 3.00658 17.562 3.00658 17.2751Z" fill="#4A4A4A"/>
<path d="M4.17623 24.0857L2.46557 25.0739C2.22119 25.2173 2.13619 25.5308 2.27963 25.7751C2.37526 25.9398 2.55057 26.0301 2.72589 26.0301C2.81089 26.0301 2.90121 26.0089 2.9809 25.9611L4.69156 24.9729C4.93594 24.8295 5.02094 24.516 4.88281 24.2717C4.73937 24.0273 4.42061 23.9423 4.17623 24.0857Z" fill="#4A4A4A"/>
<path d="M10.0036 29.3983C9.75927 29.2548 9.44051 29.3398 9.30238 29.5895L8.31424 31.3002C8.1708 31.5446 8.2558 31.8633 8.50549 32.0015C8.58518 32.0493 8.6755 32.0705 8.7605 32.0705C8.94113 32.0705 9.11113 31.9802 9.20676 31.8155L10.1949 30.1049C10.333 29.8552 10.2533 29.5364 10.0036 29.3983Z" fill="#4A4A4A"/>
<path d="M17.0007 31.2683C16.7138 31.2683 16.4854 31.4968 16.4854 31.7836V33.7599C16.4854 34.0468 16.7138 34.2753 17.0007 34.2753C17.2876 34.2753 17.516 34.0468 17.516 33.7599V31.7836C17.516 31.5021 17.2876 31.2683 17.0007 31.2683Z" fill="#4A4A4A"/>
<path d="M24.7032 29.5841C24.5598 29.3397 24.2463 29.2547 24.002 29.3928C23.7576 29.5363 23.6726 29.8497 23.8107 30.0941L24.7988 31.8047C24.8945 31.9694 25.0698 32.0598 25.2451 32.0598C25.3301 32.0598 25.4204 32.0385 25.5001 31.9907C25.7445 31.8472 25.8295 31.5338 25.6914 31.2894L24.7032 29.5841Z" fill="#4A4A4A"/>
<path d="M31.5346 25.0688L29.8239 24.0807C29.5796 23.9372 29.2608 24.0222 29.1227 24.2719C28.9792 24.5163 29.0642 24.835 29.3139 24.9732L31.0246 25.9613C31.1043 26.0091 31.1946 26.0304 31.2796 26.0304C31.4602 26.0304 31.6302 25.9401 31.7259 25.7754C31.864 25.5257 31.779 25.2122 31.5346 25.0688Z" fill="#4A4A4A"/>
<path d="M33.485 16.7598H31.5087C31.2218 16.7598 30.9934 16.9882 30.9934 17.2751C30.9934 17.562 31.2218 17.7904 31.5087 17.7904H33.485C33.7719 17.7904 34.0003 17.562 34.0003 17.2751C34.0003 16.9882 33.7719 16.7598 33.485 16.7598Z" fill="#4A4A4A"/>
<path d="M29.5654 10.5335C29.6504 10.5335 29.7407 10.5122 29.8204 10.4644L31.5311 9.47626C31.7755 9.33282 31.8605 9.01937 31.7223 8.77499C31.5789 8.53061 31.2655 8.44561 31.0211 8.58374L29.3104 9.57188C29.066 9.71532 28.981 10.0288 29.1192 10.2731C29.2148 10.4378 29.3901 10.5335 29.5654 10.5335Z" fill="#4A4A4A"/>
<path d="M23.9969 5.15191C24.0766 5.19972 24.1669 5.22097 24.2519 5.22097C24.4325 5.22097 24.6025 5.13066 24.6981 4.96597L25.6863 3.25531C25.8297 3.01093 25.7447 2.69217 25.495 2.55404C25.2507 2.4106 24.9319 2.4956 24.7938 2.74529L23.8056 4.45596C23.6675 4.69502 23.7472 5.01378 23.9969 5.15191Z" fill="#4A4A4A"/>
</svg>
