<svg width="16" height="17" viewBox="0 0 16 17" fill="none" xmlns="http://www.w3.org/2000/svg">
<path d="M15.5897 13.2557L3.05051 0.716473C2.50364 0.169603 1.61703 0.169603 1.07101 0.716473L0.410153 1.37631C-0.136718 1.92335 -0.136718 2.80996 0.410153 3.35598L12.9494 15.8952C13.4964 16.4421 14.383 16.4421 14.9291 15.8952L15.5889 15.2354C16.1368 14.6894 16.1368 13.8026 15.5897 13.2557Z" fill="#F44336"/>
<path d="M12.9494 0.716475L0.410153 13.2557C-0.136718 13.8026 -0.136718 14.6894 0.410153 15.2354L1.06999 15.8952C1.61703 16.4421 2.50364 16.4421 3.04966 15.8952L15.5897 3.35683C16.1368 2.80996 16.1368 1.92335 15.5897 1.37733L14.9299 0.7175C14.383 0.169604 13.4964 0.169604 12.9494 0.716475Z" fill="#F44336"/>
</svg>
