<svg width="32" height="31" viewBox="0 0 32 31" fill="none" xmlns="http://www.w3.org/2000/svg">
<path d="M2.34909 18.3555H10.1714C10.2405 18.3555 10.3068 18.3273 10.3557 18.277C10.4046 18.2268 10.4321 18.1587 10.4321 18.0876C10.4321 18.0166 10.4046 17.9484 10.3557 17.8982C10.3068 17.848 10.2405 17.8198 10.1714 17.8198H9.5847V15.1412C9.58455 14.9991 9.52956 14.863 9.4318 14.7625C9.33403 14.6621 9.20148 14.6056 9.06322 14.6055H8.28099C8.14273 14.6056 8.01017 14.6621 7.91241 14.7625C7.81464 14.863 7.75965 14.9991 7.7595 15.1412V17.8198H6.06467V16.7795H6.8469C6.98516 16.7793 7.11772 16.7228 7.21549 16.6224C7.31325 16.5219 7.36824 16.3858 7.36839 16.2437V15.1412C7.36824 14.9991 7.31325 14.863 7.21549 14.7625C7.11772 14.6621 6.98516 14.6056 6.8469 14.6055H6.06467C5.92641 14.6056 5.79386 14.6621 5.69609 14.7625C5.59833 14.863 5.54334 14.9991 5.54319 15.1412V17.8198H2.34909C2.27994 17.8198 2.21362 17.848 2.16472 17.8982C2.11582 17.9484 2.08835 18.0166 2.08835 18.0876C2.08835 18.1587 2.11582 18.2268 2.16472 18.277C2.21362 18.3273 2.27994 18.3555 2.34909 18.3555ZM8.28099 15.1412H9.06322L9.0636 17.8198H8.28099V15.1412ZM6.06467 15.1412H6.8469V16.2437H6.06467V15.1412Z" fill="#4A4A4A"/>
<path d="M1.56433 30.275H8.2232C8.25773 30.275 8.29193 30.2679 8.32379 30.2543C8.35566 30.2406 8.38456 30.2206 8.40883 30.1953L11.6583 26.8133C11.7064 26.7632 11.7334 26.6956 11.7334 26.6251V13.9279C11.7322 13.7159 11.6492 13.5131 11.5026 13.3639C11.3559 13.2147 11.1577 13.1313 10.9513 13.1321H1.56433C1.35795 13.1313 1.15971 13.2147 1.01309 13.3639C0.866471 13.5131 0.783446 13.7159 0.782228 13.9279V24.7839C0.574838 24.7841 0.376007 24.8689 0.229359 25.0195C0.0827122 25.1702 0.000226376 25.3744 0 25.5875V28.266C0.000226376 28.4791 0.0827122 28.6833 0.229359 28.834C0.376007 28.9846 0.574838 29.0694 0.782228 29.0696V29.4791C0.783457 29.6911 0.866485 29.894 1.0131 30.0432C1.15972 30.1924 1.35796 30.2757 1.56433 30.275ZM8.60451 29.229V27.0467C8.60136 26.9829 8.62287 26.9205 8.66433 26.8729C8.7058 26.8254 8.76388 26.7966 8.82591 26.7928H10.9453L8.60451 29.229ZM1.30371 13.9279C1.30478 13.858 1.33282 13.7913 1.38167 13.7425C1.43053 13.6938 1.49621 13.6669 1.56433 13.6678H10.9513C11.0194 13.6669 11.0851 13.6938 11.134 13.7425C11.1828 13.7913 11.2109 13.858 11.2119 13.9279V26.2571H8.82591C8.62557 26.2609 8.43487 26.3462 8.29561 26.4942C8.15635 26.6422 8.07991 26.8409 8.08302 27.0467V29.7393H1.56433C1.49621 29.7402 1.43052 29.7133 1.38166 29.6645C1.3328 29.6158 1.30477 29.5491 1.30371 29.4791V29.0696H6.25783C6.46522 29.0694 6.66405 28.9846 6.81069 28.834C6.95734 28.6833 7.03983 28.4791 7.04005 28.266V25.5875C7.03983 25.3744 6.95734 25.1702 6.81069 25.0195C6.66405 24.8689 6.46522 24.7841 6.25783 24.7839H1.30371V13.9279ZM0.521485 28.266V25.5875C0.521576 25.5164 0.549075 25.4484 0.597955 25.3982C0.646834 25.3479 0.713103 25.3197 0.782228 25.3196H6.25783C6.32695 25.3197 6.39322 25.3479 6.4421 25.3982C6.49098 25.4484 6.51848 25.5164 6.51857 25.5875V28.266C6.51848 28.337 6.49098 28.4051 6.4421 28.4553C6.39322 28.5056 6.32695 28.5338 6.25783 28.5339H0.782228C0.713103 28.5338 0.646834 28.5056 0.597955 28.4553C0.549075 28.4051 0.521576 28.337 0.521485 28.266Z" fill="#4A4A4A"/>
<path d="M10.3621 23.5786V19.8286C10.3619 19.651 10.2932 19.4808 10.171 19.3553C10.0488 19.2298 9.88307 19.1591 9.71025 19.1589H2.6702C2.49738 19.1591 2.33169 19.2298 2.20949 19.3553C2.08729 19.4808 2.01854 19.651 2.01834 19.8286V23.5786C2.01854 23.7561 2.08729 23.9263 2.20949 24.0519C2.33169 24.1774 2.49738 24.248 2.6702 24.2482H9.71025C9.88307 24.248 10.0488 24.1774 10.171 24.0519C10.2932 23.9263 10.3619 23.7561 10.3621 23.5786ZM9.05839 19.6947H9.71025C9.74482 19.6947 9.77796 19.7088 9.8024 19.7339C9.82684 19.759 9.84059 19.7931 9.84062 19.8286V20.4982H9.05839V19.6947ZM9.05839 21.0339H9.84062V21.5697H9.05839V21.0339ZM9.05839 22.1054H9.84062V22.6411H9.05839V22.1054ZM3.32205 23.7125H2.6702C2.63563 23.7125 2.60248 23.6984 2.57804 23.6733C2.55359 23.6481 2.53985 23.6141 2.53983 23.5786V23.1768H3.32205V23.7125ZM3.32205 22.6411H2.53983V22.1054H3.32205V22.6411ZM3.32205 21.5697H2.53983V21.0339H3.32205V21.5697ZM7.2332 23.7125H3.84354V23.1768H7.2332V23.7125ZM7.2332 22.6411H3.84354V22.1054H7.2332V22.6411ZM7.2332 21.5697H3.84354V21.0339H7.2332V21.5697ZM7.2332 20.4982H2.53983V19.8286C2.53986 19.7931 2.55361 19.759 2.57805 19.7339C2.60249 19.7088 2.63563 19.6947 2.6702 19.6947H7.2332V20.4982ZM8.53691 23.7125H7.75468V23.1768H8.53691V23.7125ZM8.53691 22.6411H7.75468V22.1054H8.53691V22.6411ZM8.53691 21.5697H7.75468V21.0339H8.53691V21.5697ZM8.53691 20.4982H7.75468V19.6947H8.53691V20.4982ZM9.05839 23.1768H9.84062V23.5786C9.8406 23.6141 9.82686 23.6481 9.80241 23.6733C9.77797 23.6984 9.74482 23.7125 9.71025 23.7125H9.05839V23.1768Z" fill="#4A4A4A"/>
<path d="M22.6139 5.49805H30.4362C30.5053 5.49805 30.5716 5.46983 30.6205 5.4196C30.6694 5.36937 30.6969 5.30124 30.6969 5.2302C30.6969 5.15915 30.6694 5.09102 30.6205 5.04079C30.5716 4.99056 30.5053 4.96234 30.4362 4.96234H29.8495V2.28376C29.8494 2.14173 29.7944 2.00555 29.6966 1.90512C29.5988 1.80469 29.4663 1.7482 29.328 1.74805H28.5458C28.4075 1.7482 28.275 1.80469 28.1772 1.90512C28.0794 2.00555 28.0245 2.14173 28.0243 2.28376V4.96234H26.3295V3.92203H27.1117C27.25 3.92188 27.3825 3.86539 27.4803 3.76496C27.5781 3.66453 27.633 3.52835 27.6332 3.38632V2.28376C27.633 2.14173 27.5781 2.00555 27.4803 1.90512C27.3825 1.80469 27.25 1.7482 27.1117 1.74805H26.3295C26.1912 1.7482 26.0587 1.80469 25.9609 1.90512C25.8631 2.00555 25.8081 2.14173 25.808 2.28376V4.96234H22.6139C22.5447 4.96234 22.4784 4.99056 22.4295 5.04079C22.3806 5.09102 22.3531 5.15915 22.3531 5.2302C22.3531 5.30124 22.3806 5.36937 22.4295 5.4196C22.4784 5.46983 22.5447 5.49805 22.6139 5.49805ZM28.5458 2.28376H29.328L29.3284 4.96234H28.5458V2.28376ZM26.3295 2.28376H27.1117V3.38632H26.3295V2.28376Z" fill="#4A4A4A"/>
<path d="M21.8291 17.4178H28.488C28.5225 17.4178 28.5567 17.4108 28.5886 17.3971C28.6205 17.3834 28.6494 17.3634 28.6736 17.3381L31.9231 13.9562C31.9712 13.906 31.9982 13.8384 31.9982 13.768V1.07076C31.997 0.85876 31.914 0.655909 31.7674 0.50671C31.6207 0.357512 31.4225 0.274148 31.2161 0.274907H21.8291C21.6228 0.274148 21.4245 0.357512 21.2779 0.50671C21.1313 0.655909 21.0482 0.85876 21.047 1.07076V11.9267C20.8396 11.9269 20.6408 12.0117 20.4942 12.1623C20.3475 12.313 20.265 12.5172 20.2648 12.7303V15.4089C20.265 15.6219 20.3475 15.8262 20.4942 15.9768C20.6408 16.1275 20.8396 16.2122 21.047 16.2124V16.6219C21.0483 16.8339 21.1313 17.0368 21.2779 17.186C21.4245 17.3352 21.6228 17.4185 21.8291 17.4178ZM28.8693 16.3718V14.1895C28.8662 14.1257 28.8877 14.0633 28.9291 14.0157C28.9706 13.9682 29.0287 13.9394 29.0907 13.9356H31.2101L28.8693 16.3718ZM21.5685 1.07076C21.5696 1.00079 21.5976 0.934116 21.6465 0.88535C21.6953 0.836584 21.761 0.809711 21.8291 0.810623H31.2161C31.2842 0.809711 31.3499 0.836584 31.3988 0.88535C31.4476 0.934116 31.4757 1.00079 31.4767 1.07076V13.3999H29.0907C28.8904 13.4037 28.6997 13.489 28.5604 13.637C28.4212 13.785 28.3447 13.9837 28.3478 14.1895V16.8821H21.8291C21.761 16.883 21.6953 16.8561 21.6465 16.8074C21.5976 16.7586 21.5696 16.6919 21.5685 16.6219V16.2124H26.5226C26.73 16.2122 26.9288 16.1275 27.0755 15.9768C27.2221 15.8262 27.3046 15.6219 27.3049 15.4089V12.7303C27.3046 12.5172 27.2221 12.313 27.0755 12.1623C26.9288 12.0117 26.73 11.9269 26.5226 11.9267H21.5685V1.07076ZM20.7863 15.4089V12.7303C20.7864 12.6593 20.8139 12.5912 20.8628 12.541C20.9116 12.4908 20.9779 12.4625 21.047 12.4624H26.5226C26.5918 12.4625 26.658 12.4908 26.7069 12.541C26.7558 12.5912 26.7833 12.6593 26.7834 12.7303V15.4089C26.7833 15.4799 26.7558 15.5479 26.7069 15.5982C26.658 15.6484 26.5918 15.6766 26.5226 15.6767H21.047C20.9779 15.6766 20.9116 15.6484 20.8628 15.5982C20.8139 15.5479 20.7864 15.4799 20.7863 15.4089Z" fill="#4A4A4A"/>
<path d="M30.6269 10.7214V6.9714C30.6267 6.79387 30.558 6.62366 30.4358 6.49812C30.3136 6.37259 30.1479 6.30197 29.9751 6.30176H22.935C22.7622 6.30197 22.5965 6.37259 22.4743 6.49812C22.3521 6.62366 22.2833 6.79387 22.2831 6.9714V10.7214C22.2833 10.8989 22.3521 11.0691 22.4743 11.1947C22.5965 11.3202 22.7622 11.3908 22.935 11.3911H29.9751C30.1479 11.3908 30.3136 11.3202 30.4358 11.1947C30.558 11.0691 30.6267 10.8989 30.6269 10.7214ZM29.3232 6.83747H29.9751C30.0096 6.83751 30.0428 6.85163 30.0672 6.87674C30.0916 6.90185 30.1054 6.93589 30.1054 6.9714V7.64105H29.3232V6.83747ZM29.3232 8.17676H30.1054V8.71248H29.3232V8.17676ZM29.3232 9.24819H30.1054V9.78391H29.3232V9.24819ZM23.5869 10.8553H22.935C22.9004 10.8553 22.8673 10.8412 22.8428 10.8161C22.8184 10.791 22.8047 10.7569 22.8046 10.7214V10.3196H23.5869V10.8553ZM23.5869 9.78391H22.8046V9.24819H23.5869V9.78391ZM23.5869 8.71248H22.8046V8.17676H23.5869V8.71248ZM27.498 10.8553H24.1083V10.3196H27.498V10.8553ZM27.498 9.78391H24.1083V9.24819H27.498V9.78391ZM27.498 8.71248H24.1083V8.17676H27.498V8.71248ZM27.498 7.64105H22.8046V6.9714C22.8047 6.93589 22.8184 6.90185 22.8429 6.87674C22.8673 6.85163 22.9004 6.83751 22.935 6.83747H27.498V7.64105ZM28.8017 10.8553H28.0195V10.3196H28.8017V10.8553ZM28.8017 9.78391H28.0195V9.24819H28.8017V9.78391ZM28.8017 8.71248H28.0195V8.17676H28.8017V8.71248ZM28.8017 7.64105H28.0195V6.83747H28.8017V7.64105ZM29.3232 10.3196H30.1054V10.7214C30.1054 10.7569 30.0917 10.791 30.0672 10.8161C30.0428 10.8412 30.0096 10.8553 29.9751 10.8553H29.3232V10.3196Z" fill="#4A4A4A"/>
<path fill-rule="evenodd" clip-rule="evenodd" d="M18.1373 6.24415H10.6706V5.09619H18.1373V6.24415Z" fill="#4A4A4A"/>
<path fill-rule="evenodd" clip-rule="evenodd" d="M18.1373 9.91798H10.6706V8.77002H18.1373V9.91798Z" fill="#4A4A4A"/>
<path fill-rule="evenodd" clip-rule="evenodd" d="M17.6706 4.17803L12.0706 11.525L11.1372 10.8362L16.7373 3.48926L17.6706 4.17803Z" fill="#4A4A4A"/>
</svg>
