<svg width="49" height="49" viewBox="0 0 49 49" fill="none" xmlns="http://www.w3.org/2000/svg">
<g clip-path="url(#clip0_1_793)">
<path d="M0.666626 16.2749C0.666626 7.43835 7.83007 0.274902 16.6666 0.274902H32.6666C41.5032 0.274902 48.6666 7.43835 48.6666 16.2749V32.2749C48.6666 41.1115 41.5032 48.2749 32.6666 48.2749H16.6666C7.83007 48.2749 0.666626 41.1115 0.666626 32.2749V16.2749Z" fill="white"/>
<g filter="url(#filter0_d_1_793)">
<path d="M5.46643 17.0749C5.46643 10.4475 10.839 5.07495 17.4664 5.07495H31.8664C38.4939 5.07495 43.8664 10.4475 43.8664 17.075V31.475C43.8664 38.1024 38.4938 43.475 31.8664 43.475H17.4664C10.839 43.475 5.46643 38.1024 5.46643 31.475V17.0749Z" fill="#3F7AFF"/>
<path d="M21.3458 22.8501C21.39 22.9132 21.4556 22.9565 21.5295 22.9714C21.6033 22.9863 21.6799 22.9715 21.7436 22.9301C21.8053 22.8842 21.8476 22.8156 21.862 22.7383C21.8764 22.661 21.8616 22.581 21.8208 22.5147C21.703 22.3279 21.5505 22.1673 21.3724 22.0421C21.1942 21.9168 20.9938 21.8295 20.7828 21.7851C20.5719 21.7408 20.3545 21.7402 20.1433 21.7836C19.9322 21.8269 19.7314 21.9133 19.5527 22.0377C19.5085 22.0886 19.4821 22.1533 19.4774 22.2216C19.4728 22.2899 19.4902 22.3578 19.527 22.4147C19.5638 22.4716 19.6178 22.5141 19.6806 22.5355C19.7433 22.557 19.8111 22.5561 19.8733 22.5331C19.9899 22.4532 20.1206 22.398 20.2579 22.3707C20.3952 22.3434 20.5363 22.3445 20.6732 22.374C20.81 22.4034 20.9399 22.4607 21.0554 22.5424C21.1708 22.6241 21.2695 22.7287 21.3458 22.8501Z" fill="white"/>
<path d="M20.1023 27.2138C19.9655 27.1845 19.8355 27.1275 19.72 27.0459C19.6045 26.9644 19.5057 26.86 19.4293 26.7387C19.3529 26.6174 19.3003 26.4817 19.2747 26.3393C19.2491 26.1969 19.2509 26.0506 19.28 25.909C19.2717 25.8434 19.2433 25.7823 19.199 25.7347C19.1546 25.6872 19.0966 25.6558 19.0336 25.645C18.9707 25.6343 18.9061 25.645 18.8494 25.6753C18.7927 25.7057 18.7469 25.7541 18.7189 25.8136C18.6748 26.0321 18.673 26.2576 18.7136 26.4768C18.7542 26.6961 18.8364 26.9048 18.9554 27.0909C19.0744 27.277 19.2279 27.4367 19.407 27.5608C19.586 27.6849 19.7871 27.771 19.9984 27.8139H20.0548C20.1189 27.8022 20.1774 27.769 20.2215 27.7194C20.2655 27.6699 20.2927 27.6067 20.2988 27.5396C20.3048 27.4725 20.2895 27.4051 20.2551 27.348C20.2206 27.2908 20.1691 27.2469 20.1083 27.223L20.1023 27.2138Z" fill="white"/>
<path d="M21.6884 25.9367C21.6935 25.8898 21.688 25.8423 21.6726 25.7979C21.6571 25.7535 21.6319 25.7134 21.5991 25.6807C21.5663 25.648 21.5266 25.6236 21.4832 25.6093C21.4398 25.595 21.3938 25.5913 21.3488 25.5983C21.3038 25.6054 21.261 25.6231 21.2236 25.6501C21.1863 25.6771 21.1554 25.7127 21.1334 25.754C21.1114 25.7953 21.0989 25.8414 21.0968 25.8885C21.0947 25.9357 21.1032 25.9827 21.1214 26.0259C21.1723 26.4301 21.3628 26.8015 21.6575 27.0714C21.9522 27.3413 22.3313 27.4913 22.7245 27.4939C22.804 27.4949 22.8833 27.4897 22.962 27.4785C23.0366 27.4649 23.1033 27.4222 23.1486 27.3593C23.1938 27.2964 23.2142 27.2179 23.2055 27.14C23.1923 27.0627 23.1512 26.9935 23.0905 26.9466C23.0298 26.8997 22.9541 26.8786 22.8789 26.8876C22.5994 26.9251 22.317 26.846 22.0937 26.6677C21.8705 26.4894 21.7247 26.2264 21.6884 25.9367Z" fill="white"/>
<path d="M33.0742 26.4076C32.8374 26.4082 32.6074 26.4891 32.4192 26.638C32.231 26.787 32.0951 26.9957 32.0322 27.2323H31.0376L29.5295 25.4382C29.5021 25.4067 29.4687 25.3814 29.4314 25.3639C29.3941 25.3464 29.3537 25.3372 29.3128 25.3366H25.296V24.7612V23.2224H29.3128C29.3537 23.2219 29.3941 23.2126 29.4314 23.1951C29.4687 23.1777 29.5021 23.1524 29.5295 23.1209L31.0376 21.3268H32.0322C32.1019 21.5896 32.2612 21.8174 32.4806 21.9678C32.6999 22.1181 32.9645 22.1809 33.2252 22.1445C33.4858 22.108 33.7248 21.9748 33.8979 21.7695C34.071 21.5643 34.1664 21.3009 34.1664 21.0282C34.1664 20.7556 34.071 20.4922 33.8979 20.287C33.7248 20.0817 33.4858 19.9485 33.2252 19.912C32.9645 19.8756 32.6999 19.9384 32.4806 20.0887C32.2612 20.2391 32.1019 20.4669 32.0322 20.7297H30.907C30.8661 20.7303 30.8257 20.7396 30.7884 20.757C30.7511 20.7745 30.7177 20.7998 30.6903 20.8313L29.1821 22.6254H25.296V21.5052H29.0604C29.1018 21.5055 29.1427 21.4963 29.1801 21.4782C29.2176 21.4601 29.2508 21.4336 29.2771 21.4006L30.3281 20.1204C30.3731 20.0667 30.3974 19.9977 30.3964 19.9265V18.7356C30.6475 18.6634 30.8649 18.4993 31.0083 18.2736C31.1517 18.048 31.2114 17.7762 31.1762 17.5085C31.1411 17.2408 31.0135 16.9953 30.8172 16.8176C30.6208 16.6399 30.369 16.542 30.1084 16.542C29.8478 16.542 29.5959 16.6399 29.3996 16.8176C29.2033 16.9953 29.0757 17.2408 29.0406 17.5085C29.0054 17.7762 29.0651 18.048 29.2085 18.2736C29.3518 18.4993 29.5693 18.6634 29.8204 18.7356V19.825L28.9298 20.9082H25.296V19.4803H26.6112C26.6588 19.4806 26.7058 19.469 26.7481 19.4465C26.7905 19.424 26.827 19.3913 26.8546 19.3511L27.2228 18.7356C27.3191 18.7658 27.419 18.7824 27.5196 18.7848C27.7344 18.786 27.9447 18.7212 28.124 18.5986C28.3032 18.476 28.4434 18.3011 28.5268 18.0959C28.6102 17.8907 28.6331 17.6646 28.5926 17.4459C28.552 17.2273 28.4499 17.026 28.2991 16.8675C28.1482 16.709 27.9555 16.6004 27.7451 16.5554C27.5348 16.5104 27.3163 16.531 27.1173 16.6147C26.9182 16.6983 26.7476 16.8413 26.6269 17.0254C26.5061 17.2095 26.4408 17.4266 26.439 17.6492C26.4402 17.9327 26.5465 18.2049 26.7359 18.4094L26.439 18.8833H25.296V16.6152C25.296 16.5999 25.296 16.5906 25.296 16.5783C25.2989 16.5569 25.2989 16.5351 25.296 16.5137C25.1245 16.0033 24.8034 15.5613 24.3775 15.2495C23.9516 14.9378 23.4424 14.7718 22.921 14.7749C22.4385 14.7786 21.967 14.9255 21.5624 15.1982C21.1579 15.4708 20.8371 15.8579 20.6381 16.3137C20.2636 16.1926 19.8669 16.1645 19.48 16.2315C19.0932 16.2986 18.7269 16.459 18.4108 16.6998C18.0948 16.9406 17.8377 17.255 17.6604 17.6177C17.4831 17.9805 17.3906 18.3813 17.3902 18.7879C17.3888 19.0263 17.4208 19.2637 17.4852 19.4926C17.1321 19.61 16.8084 19.8068 16.5373 20.069C16.2662 20.3313 16.0544 20.6524 15.9171 21.0095C15.7798 21.3665 15.7203 21.7506 15.743 22.1343C15.7657 22.5179 15.87 22.8916 16.0484 23.2286C15.7322 23.4833 15.4862 23.8198 15.3351 24.2043C15.1841 24.5887 15.1332 25.0076 15.1876 25.4188C15.2421 25.8301 15.3999 26.2192 15.6453 26.5473C15.8907 26.8753 16.215 27.1307 16.5857 27.2877C16.3588 27.66 16.2267 28.0859 16.202 28.5255C16.1773 28.9651 16.2607 29.404 16.4443 29.8011C16.628 30.1982 16.9059 30.5404 17.2521 30.7957C17.5982 31.051 18.0013 31.211 18.4234 31.2606C18.4383 31.6576 18.5494 32.0442 18.7463 32.385C18.9433 32.7257 19.2199 33.0096 19.5506 33.2104C19.8812 33.4112 20.2553 33.5225 20.6384 33.534C21.0214 33.5455 21.4011 33.4569 21.7424 33.2764C22.1434 33.6009 22.6379 33.7764 23.1467 33.7749C23.6089 33.7726 24.0598 33.6261 24.4405 33.3544C24.8212 33.0827 25.1142 32.6984 25.2812 32.2516C25.2838 32.2281 25.2838 32.2043 25.2812 32.1808C25.2826 32.1685 25.2826 32.1561 25.2812 32.1439V29.6819H26.439L26.7359 30.1559C26.5465 30.3604 26.4402 30.6325 26.439 30.916C26.4384 31.1389 26.5016 31.3569 26.6207 31.5426C26.7397 31.7282 26.9092 31.873 27.1077 31.9588C27.3062 32.0445 27.5248 32.0672 27.7357 32.0241C27.9467 31.981 28.1406 31.874 28.2928 31.7166C28.4451 31.5592 28.5489 31.3585 28.591 31.1399C28.6332 30.9214 28.6119 30.6947 28.5297 30.4887C28.4476 30.2827 28.3083 30.1067 28.1295 29.9828C27.9508 29.8589 27.7406 29.7927 27.5256 29.7927C27.4249 29.7951 27.3251 29.8117 27.2287 29.842L26.8546 29.1988C26.8284 29.1563 26.7924 29.1212 26.75 29.0965C26.7075 29.0718 26.6599 29.0583 26.6112 29.0572H25.296V27.6601H28.9268L29.8175 28.7433V29.8143C29.5622 29.8866 29.341 30.0524 29.1948 30.281C29.0486 30.5096 28.9874 30.7855 29.0226 31.0573C29.0578 31.3291 29.187 31.5785 29.3861 31.7591C29.5852 31.9397 29.8408 32.0392 30.1054 32.0392C30.37 32.0392 30.6256 31.9397 30.8247 31.7591C31.0239 31.5785 31.153 31.3291 31.1882 31.0573C31.2234 30.7855 31.1622 30.5096 31.0161 30.281C30.8699 30.0524 30.6486 29.8866 30.3934 29.8143V28.6141C30.3944 28.5429 30.3701 28.4739 30.3251 28.4202L29.2742 27.1461C29.2478 27.1132 29.2146 27.0866 29.1772 27.0686C29.1397 27.0505 29.0988 27.0412 29.0575 27.0415H25.296V25.9336H29.1821L30.6903 27.7278C30.7177 27.7593 30.7511 27.7846 30.7884 27.802C30.8257 27.8195 30.8661 27.8288 30.907 27.8293H32.0322C32.0858 28.0312 32.1929 28.2135 32.3413 28.3557C32.4896 28.4978 32.6734 28.5942 32.8718 28.6338C33.0701 28.6734 33.2752 28.6548 33.4639 28.5799C33.6526 28.5051 33.8174 28.3771 33.9396 28.2103C34.0618 28.0436 34.1366 27.8447 34.1556 27.6362C34.1746 27.4277 34.1369 27.2179 34.0469 27.0304C33.9569 26.8429 33.8181 26.6852 33.6462 26.5752C33.4744 26.4651 33.2762 26.4071 33.0742 26.4076ZM33.0742 20.4897C33.1752 20.4897 33.2739 20.5207 33.3579 20.5789C33.4418 20.6371 33.5073 20.7197 33.5459 20.8165C33.5846 20.9132 33.5947 21.0196 33.575 21.1223C33.5553 21.225 33.5067 21.3193 33.4353 21.3933C33.3638 21.4673 33.2729 21.5177 33.1738 21.5382C33.0747 21.5586 32.9721 21.5481 32.8788 21.508C32.7855 21.468 32.7057 21.4001 32.6496 21.3131C32.5935 21.226 32.5636 21.1237 32.5636 21.019C32.5636 20.8786 32.6174 20.744 32.7131 20.6447C32.8089 20.5455 32.9388 20.4897 33.0742 20.4897ZM29.6007 17.6492C29.6002 17.5443 29.6297 17.4415 29.6856 17.354C29.7414 17.2665 29.8212 17.1982 29.9146 17.1577C30.008 17.1173 30.1109 17.1066 30.2102 17.1269C30.3096 17.1472 30.4008 17.1977 30.4724 17.2719C30.544 17.3461 30.5927 17.4407 30.6123 17.5437C30.6319 17.6466 30.6216 17.7533 30.5825 17.8502C30.5435 17.947 30.4776 18.0296 30.3932 18.0876C30.3088 18.1455 30.2096 18.1761 30.1084 18.1755C29.974 18.1747 29.8453 18.119 29.7503 18.0205C29.6553 17.9219 29.6015 17.7886 29.6007 17.6492ZM27.5226 17.1199C27.6236 17.1199 27.7223 17.151 27.8063 17.2091C27.8903 17.2673 27.9557 17.35 27.9944 17.4467C28.033 17.5434 28.0431 17.6498 28.0234 17.7525C28.0037 17.8552 27.9551 17.9495 27.8837 18.0235C27.8123 18.0976 27.7213 18.148 27.6222 18.1684C27.5232 18.1888 27.4205 18.1783 27.3272 18.1383C27.2339 18.0982 27.1541 18.0304 27.098 17.9433C27.0419 17.8563 27.012 17.7539 27.012 17.6492C27.012 17.5795 27.0253 17.5104 27.0511 17.446C27.077 17.3816 27.1149 17.3231 27.1626 17.2739C27.2103 17.2247 27.267 17.1858 27.3293 17.1593C27.3915 17.1329 27.4583 17.1195 27.5256 17.1199H27.5226ZM24.7171 19.1818V20.582C24.463 20.4514 24.1802 20.3926 23.8972 20.4115C23.6141 20.4304 23.3409 20.5264 23.1051 20.6897C23.0434 20.7356 23.0011 20.8043 22.9867 20.8815C22.9723 20.9588 22.9871 21.0388 23.0279 21.1052C23.0721 21.1683 23.1377 21.2116 23.2116 21.2265C23.2854 21.2413 23.362 21.2266 23.4257 21.1852C23.6212 21.0479 23.8563 20.9845 24.0915 21.0058C24.3267 21.0271 24.5476 21.1318 24.7171 21.3021V22.9085V24.1395C24.4634 24.0071 24.18 23.9476 23.8965 23.9671C23.6131 23.9865 23.3398 24.0843 23.1051 24.2503C23.0602 24.3014 23.0332 24.3666 23.0284 24.4355C23.0236 24.5044 23.0413 24.5729 23.0787 24.6301C23.116 24.6873 23.1709 24.7298 23.2344 24.7508C23.2978 24.7718 23.3663 24.77 23.4287 24.7458C23.6228 24.6073 23.8571 24.5427 24.092 24.5629C24.3268 24.5831 24.5477 24.6868 24.7171 24.8565V25.6136V27.3523V29.368V32.0731C24.6241 32.3115 24.482 32.526 24.3007 32.7016C24.1194 32.8771 23.9033 33.0096 23.6675 33.0896C23.4317 33.1696 23.1819 33.1953 22.9355 33.1648C22.6892 33.1343 22.4522 33.0485 22.2412 32.9132C22.505 32.6693 22.684 32.3422 22.7506 31.9823C22.8171 31.6224 22.7675 31.2498 22.6093 30.9221C22.6003 30.8759 22.5811 30.8324 22.5533 30.795C22.5254 30.7577 22.4897 30.7275 22.4488 30.7067C22.4079 30.686 22.3629 30.6753 22.3174 30.6755C22.2718 30.6756 22.227 30.6866 22.1862 30.7076C22.1454 30.7286 22.1098 30.7591 22.0822 30.7966C22.0546 30.8342 22.0357 30.8778 22.027 30.9241C22.0182 30.9704 22.0199 31.0182 22.0318 31.0637C22.0437 31.1093 22.0656 31.1514 22.0957 31.1868C22.1565 31.3172 22.1917 31.4588 22.1994 31.6034C22.207 31.748 22.1869 31.8927 22.1403 32.0293C22.0936 32.1658 22.0213 32.2913 21.9276 32.3987C21.8338 32.506 21.7204 32.5931 21.594 32.6547C21.5714 32.6697 21.5505 32.6872 21.5316 32.707C21.2758 32.8578 20.9865 32.9372 20.6922 32.9374C20.3979 32.9376 20.1085 32.8586 19.8525 32.7082C19.5964 32.5578 19.3823 32.3411 19.2312 32.0793C19.0801 31.8175 18.9971 31.5195 18.9904 31.2145C19.4951 31.0637 20.4481 30.6852 20.5876 29.9404C20.6 29.8627 20.5833 29.7831 20.5407 29.7178C20.4982 29.6525 20.4332 29.6067 20.359 29.5896C20.2866 29.5779 20.2126 29.5944 20.1512 29.6359C20.0898 29.6773 20.0454 29.7409 20.0265 29.8143C19.9404 30.2574 19.0438 30.5867 18.6876 30.6667C18.3168 30.6614 17.9553 30.5455 17.6464 30.3328C17.3375 30.1201 17.0942 29.8196 16.9458 29.4674C16.7973 29.1151 16.7499 28.7259 16.8093 28.3465C16.8686 27.967 17.0322 27.6133 17.2804 27.3277C17.3165 27.287 17.3414 27.2369 17.3523 27.1827C17.3633 27.1286 17.36 27.0723 17.3427 27.02C17.3255 26.9704 17.2962 26.9262 17.2577 26.8917C17.2192 26.8573 17.1729 26.8336 17.123 26.823C16.7841 26.7541 16.4733 26.5802 16.2316 26.3243C15.99 26.0684 15.829 25.7426 15.7698 25.3898C15.7106 25.037 15.7561 24.6739 15.9002 24.3485C16.0442 24.0231 16.2802 23.7506 16.5768 23.5671C16.6925 23.4865 16.8225 23.4304 16.9593 23.4022C17.0961 23.374 17.2369 23.3742 17.3736 23.4029C17.5102 23.4315 17.6401 23.4879 17.7556 23.569C17.8711 23.65 17.9699 23.754 18.0463 23.8749C18.0733 23.9142 18.1089 23.9464 18.1502 23.9689C18.1915 23.9913 18.2372 24.0034 18.2838 24.0041C18.342 24.0036 18.3988 23.9854 18.4471 23.9518C18.5083 23.9054 18.5501 23.8366 18.5639 23.7594C18.5777 23.6821 18.5624 23.6023 18.5213 23.5363C18.3098 23.2066 17.9933 22.9643 17.6271 22.8518C17.2608 22.7393 16.8681 22.7638 16.5174 22.9209C16.3809 22.657 16.3036 22.3646 16.2911 22.0655C16.2787 21.7664 16.3315 21.4682 16.4456 21.1931C16.5598 20.9181 16.7323 20.6733 16.9503 20.4769C17.1683 20.2805 17.4263 20.1376 17.7049 20.0589C17.818 20.2521 17.977 20.4122 18.1667 20.5237C18.3564 20.6352 18.5704 20.6945 18.7885 20.6959C18.9374 20.6966 19.0853 20.6695 19.2249 20.6159C19.2701 20.6115 19.3136 20.5964 19.3523 20.5718C19.3909 20.5472 19.4236 20.5138 19.4478 20.4741C19.4721 20.4344 19.4872 20.3895 19.4921 20.3427C19.497 20.296 19.4916 20.2488 19.4761 20.2046C19.4606 20.1604 19.4356 20.1205 19.403 20.0879C19.3703 20.0553 19.3309 20.0309 19.2878 20.0165C19.2446 20.0021 19.1988 19.9982 19.154 20.005C19.1091 20.0118 19.0664 20.0292 19.029 20.0558C18.8541 20.118 18.6627 20.1064 18.496 20.0235C18.3294 19.9406 18.2009 19.793 18.1384 19.6126C18.1395 19.6034 18.1395 19.5941 18.1384 19.5849C17.9844 19.2148 17.9421 18.805 18.017 18.4095C18.0919 18.014 18.2805 17.6512 18.5581 17.3689C18.8356 17.0865 19.189 16.8978 19.5719 16.8276C19.9548 16.7573 20.3492 16.8088 20.7034 16.9753H20.7331H20.7627C21.5851 17.1415 21.8285 17.9231 21.7009 18.6217C21.6893 18.6989 21.7064 18.7778 21.7489 18.8424C21.7913 18.907 21.8559 18.9524 21.9295 18.9695H21.9829C22.0519 18.9711 22.1194 18.9476 22.1735 18.9033C22.2277 18.8589 22.2653 18.7963 22.2798 18.7263C22.4668 17.6862 22.0363 16.8122 21.217 16.4829C21.3759 16.1469 21.6221 15.8636 21.9278 15.6646C22.2336 15.4656 22.5868 15.359 22.9477 15.3566C23.3402 15.3559 23.7234 15.4801 24.0457 15.7123C24.3679 15.9445 24.6137 16.2736 24.7498 16.6552L24.7171 19.1818ZM27.5226 30.3744C27.6237 30.3744 27.7226 30.4055 27.8066 30.4638C27.8906 30.5221 27.9561 30.6049 27.9946 30.7018C28.0332 30.7987 28.0431 30.9053 28.0232 31.0081C28.0032 31.1108 27.9543 31.2051 27.8826 31.279C27.8109 31.3529 27.7196 31.4031 27.6204 31.4232C27.5211 31.4433 27.4184 31.4323 27.3251 31.3918C27.2319 31.3513 27.1523 31.2829 27.0966 31.1955C27.0408 31.108 27.0114 31.0054 27.012 30.9006C27.0124 30.8311 27.026 30.7623 27.052 30.6983C27.078 30.6342 27.1159 30.5761 27.1636 30.5272C27.2113 30.4783 27.2678 30.4397 27.3299 30.4135C27.392 30.3872 27.4585 30.3739 27.5256 30.3744H27.5226ZM30.6161 30.9006C30.6166 31.0054 30.5872 31.108 30.5314 31.1955C30.4757 31.2829 30.3962 31.3513 30.3029 31.3918C30.2096 31.4323 30.1069 31.4433 30.0076 31.4232C29.9084 31.4031 29.8171 31.3529 29.7454 31.279C29.6737 31.2051 29.6248 31.1108 29.6048 31.0081C29.5849 30.9053 29.5948 30.7987 29.6334 30.7018C29.6719 30.6049 29.7374 30.5221 29.8214 30.4638C29.9055 30.4055 30.0043 30.3744 30.1054 30.3744C30.1725 30.3739 30.239 30.3872 30.3011 30.4135C30.3632 30.4397 30.4197 30.4783 30.4674 30.5272C30.5151 30.5761 30.553 30.6342 30.579 30.6983C30.605 30.7623 30.6186 30.8311 30.619 30.9006H30.6161ZM33.0712 28.0601C32.9701 28.0607 32.8711 28.0302 32.7867 27.9724C32.7024 27.9146 32.6365 27.8322 32.5973 27.7355C32.5582 27.6389 32.5477 27.5323 32.5671 27.4295C32.5864 27.3266 32.6348 27.232 32.7061 27.1576C32.7774 27.0833 32.8684 27.0326 32.9675 27.0119C33.0667 26.9912 33.1695 27.0015 33.263 27.0415C33.3564 27.0815 33.4364 27.1493 33.4926 27.2364C33.5488 27.3235 33.5789 27.426 33.5789 27.5308C33.5789 27.6701 33.5259 27.8039 33.4314 27.9029C33.3369 28.002 33.2086 28.0585 33.0742 28.0601H33.0712Z" fill="white"/>
</g>
</g>
<path d="M0.916626 16.2749C0.916626 7.57642 7.96814 0.524902 16.6666 0.524902H32.6666C41.3651 0.524902 48.4166 7.57642 48.4166 16.2749V32.2749C48.4166 40.9734 41.3651 48.0249 32.6666 48.0249H16.6666C7.96814 48.0249 0.916626 40.9734 0.916626 32.2749V16.2749Z" stroke="#C5C9C8" stroke-width="0.5"/>
<defs>
<filter id="filter0_d_1_793" x="1.46643" y="5.07495" width="46.4" height="46.4" filterUnits="userSpaceOnUse" color-interpolation-filters="sRGB">
<feFlood flood-opacity="0" result="BackgroundImageFix"/>
<feColorMatrix in="SourceAlpha" type="matrix" values="0 0 0 0 0 0 0 0 0 0 0 0 0 0 0 0 0 0 127 0" result="hardAlpha"/>
<feOffset dy="4"/>
<feGaussianBlur stdDeviation="2"/>
<feComposite in2="hardAlpha" operator="out"/>
<feColorMatrix type="matrix" values="0 0 0 0 0.0156863 0 0 0 0 0.12549 0 0 0 0 0.101961 0 0 0 0.25 0"/>
<feBlend mode="normal" in2="BackgroundImageFix" result="effect1_dropShadow_1_793"/>
<feBlend mode="normal" in="SourceGraphic" in2="effect1_dropShadow_1_793" result="shape"/>
</filter>
<clipPath id="clip0_1_793">
<path d="M0.666626 16.2749C0.666626 7.43835 7.83007 0.274902 16.6666 0.274902H32.6666C41.5032 0.274902 48.6666 7.43835 48.6666 16.2749V32.2749C48.6666 41.1115 41.5032 48.2749 32.6666 48.2749H16.6666C7.83007 48.2749 0.666626 41.1115 0.666626 32.2749V16.2749Z" fill="white"/>
</clipPath>
</defs>
</svg>
