<svg width="44" height="45" viewBox="0 0 44 45" fill="none" xmlns="http://www.w3.org/2000/svg">
<path d="M6.98399 25.6636H15.5885C15.6646 25.6636 15.7375 25.6325 15.7913 25.5773C15.8451 25.522 15.8753 25.4471 15.8753 25.3689C15.8753 25.2908 15.8451 25.2158 15.7913 25.1606C15.7375 25.1053 15.6646 25.0743 15.5885 25.0743H14.9432V22.1279C14.943 21.9716 14.8825 21.8218 14.775 21.7114C14.6674 21.6009 14.5216 21.5387 14.3695 21.5386H13.5091C13.357 21.5387 13.2112 21.6009 13.1036 21.7114C12.9961 21.8218 12.9356 21.9716 12.9354 22.1279V25.0743H11.0711V23.93H11.9316C12.0837 23.9298 12.2295 23.8677 12.337 23.7572C12.4446 23.6467 12.5051 23.4969 12.5052 23.3407V22.1279C12.5051 21.9716 12.4446 21.8218 12.337 21.7114C12.2295 21.6009 12.0837 21.5387 11.9316 21.5386H11.0711C10.919 21.5387 10.7732 21.6009 10.6657 21.7114C10.5581 21.8218 10.4977 21.9716 10.4975 22.1279V25.0743H6.98399C6.90792 25.0743 6.83497 25.1053 6.78118 25.1606C6.72739 25.2158 6.69717 25.2908 6.69717 25.3689C6.69717 25.4471 6.72739 25.522 6.78118 25.5773C6.83497 25.6325 6.90792 25.6636 6.98399 25.6636ZM13.5091 22.1279H14.3695L14.3699 25.0743H13.5091V22.1279ZM11.0711 22.1279H11.9316V23.3407H11.0711V22.1279Z" fill="#4A4A4A"/>
<path d="M6.12075 38.7749H13.4455C13.4835 38.7749 13.5211 38.7672 13.5562 38.7521C13.5912 38.7371 13.623 38.7151 13.6497 38.6873L17.2241 34.9671C17.2771 34.9119 17.3068 34.8376 17.3068 34.7601V20.7932C17.3054 20.56 17.2141 20.3368 17.0528 20.1727C16.8915 20.0086 16.6735 19.9169 16.4465 19.9177H6.12075C5.89374 19.9169 5.67568 20.0086 5.51439 20.1727C5.35311 20.3368 5.26178 20.56 5.26044 20.7932V32.7347C5.03232 32.735 4.8136 32.8282 4.65229 32.9939C4.49098 33.1596 4.40024 33.3843 4.39999 33.6186V36.5651C4.40024 36.7994 4.49098 37.0241 4.65229 37.1898C4.8136 37.3555 5.03232 37.4487 5.26044 37.449V37.8995C5.2618 38.1327 5.35313 38.3558 5.51441 38.5199C5.67569 38.684 5.89374 38.7757 6.12075 38.7749ZM13.865 37.6243V35.2238C13.8615 35.1537 13.8851 35.085 13.9308 35.0327C13.9764 34.9804 14.0403 34.9487 14.1085 34.9445H16.4398L13.865 37.6243ZM5.83408 20.7932C5.83525 20.7162 5.86609 20.6429 5.91983 20.5892C5.97357 20.5356 6.04583 20.506 6.12075 20.507H16.4465C16.5214 20.506 16.5936 20.5356 16.6474 20.5892C16.7011 20.6429 16.7319 20.7162 16.7331 20.7932V34.3553H14.1085C13.8881 34.3594 13.6783 34.4532 13.5252 34.616C13.372 34.7788 13.2879 34.9974 13.2913 35.2238V38.1856H6.12075C6.04582 38.1866 5.97356 38.1571 5.91982 38.1034C5.86608 38.0498 5.83524 37.9764 5.83408 37.8995V37.449H11.2836C11.5117 37.4487 11.7304 37.3555 11.8918 37.1898C12.0531 37.0241 12.1438 36.7994 12.1441 36.5651V33.6186C12.1438 33.3843 12.0531 33.1596 11.8918 32.9939C11.7304 32.8282 11.5117 32.735 11.2836 32.7347H5.83408V20.7932ZM4.97363 36.5651V33.6186C4.97373 33.5405 5.00398 33.4656 5.05774 33.4104C5.11151 33.3552 5.18441 33.3241 5.26044 33.324H11.2836C11.3596 33.3241 11.4325 33.3552 11.4863 33.4104C11.5401 33.4656 11.5703 33.5405 11.5704 33.6186V36.5651C11.5703 36.6432 11.5401 36.7181 11.4863 36.7733C11.4325 36.8285 11.3596 36.8596 11.2836 36.8597H5.26044C5.18441 36.8596 5.11151 36.8285 5.05774 36.7733C5.00398 36.7181 4.97373 36.6432 4.97363 36.5651Z" fill="#4A4A4A"/>
<path d="M15.7983 31.409V27.284C15.7981 27.0887 15.7225 26.9015 15.5881 26.7634C15.4536 26.6253 15.2714 26.5476 15.0813 26.5474H7.33722C7.14712 26.5476 6.96486 26.6253 6.83044 26.7634C6.69602 26.9015 6.6204 27.0887 6.62018 27.284V31.409C6.6204 31.6043 6.69602 31.7915 6.83044 31.9296C6.96486 32.0677 7.14712 32.1454 7.33722 32.1456H15.0813C15.2714 32.1454 15.4536 32.0677 15.5881 31.9296C15.7225 31.7915 15.7981 31.6043 15.7983 31.409ZM14.3642 27.1366H15.0813C15.1193 27.1367 15.1558 27.1522 15.1826 27.1798C15.2095 27.2075 15.2246 27.2449 15.2247 27.284V28.0206H14.3642V27.1366ZM14.3642 28.6099H15.2247V29.1992H14.3642V28.6099ZM14.3642 29.7884H15.2247V30.3777H14.3642V29.7884ZM8.05426 31.5563H7.33722C7.29919 31.5563 7.26273 31.5407 7.23584 31.5131C7.20896 31.4855 7.19384 31.448 7.19381 31.409V30.967H8.05426V31.5563ZM8.05426 30.3777H7.19381V29.7884H8.05426V30.3777ZM8.05426 29.1992H7.19381V28.6099H8.05426V29.1992ZM12.3565 31.5563H8.6279V30.967H12.3565V31.5563ZM12.3565 30.3777H8.6279V29.7884H12.3565V30.3777ZM12.3565 29.1992H8.6279V28.6099H12.3565V29.1992ZM12.3565 28.0206H7.19381V27.284C7.19385 27.2449 7.20897 27.2075 7.23586 27.1798C7.26274 27.1522 7.2992 27.1367 7.33722 27.1366H12.3565V28.0206ZM13.7906 31.5563H12.9302V30.967H13.7906V31.5563ZM13.7906 30.3777H12.9302V29.7884H13.7906V30.3777ZM13.7906 29.1992H12.9302V28.6099H13.7906V29.1992ZM13.7906 28.0206H12.9302V27.1366H13.7906V28.0206ZM14.3642 30.967H15.2247V31.409C15.2247 31.448 15.2095 31.4855 15.1827 31.5131C15.1558 31.5407 15.1193 31.5563 15.0813 31.5563H14.3642V30.967Z" fill="#4A4A4A"/>
<path d="M29.2753 11.5203H37.8798C37.9558 11.5203 38.0288 11.4892 38.0826 11.434C38.1364 11.3787 38.1666 11.3038 38.1666 11.2256C38.1666 11.1475 38.1364 11.0725 38.0826 11.0173C38.0288 10.962 37.9558 10.931 37.8798 10.931H37.2344V7.98455C37.2343 7.82831 37.1738 7.67852 37.0662 7.56805C36.9587 7.45757 36.8129 7.39543 36.6608 7.39526H35.8003C35.6482 7.39543 35.5024 7.45757 35.3949 7.56805C35.2874 7.67852 35.2269 7.82831 35.2267 7.98455V10.931H33.3624V9.78665H34.2228C34.3749 9.78648 34.5207 9.72435 34.6283 9.61387C34.7358 9.50339 34.7963 9.3536 34.7965 9.19736V7.98455C34.7963 7.82831 34.7358 7.67852 34.6283 7.56805C34.5207 7.45757 34.3749 7.39543 34.2228 7.39526H33.3624C33.2103 7.39543 33.0645 7.45757 32.957 7.56805C32.8494 7.67852 32.7889 7.82831 32.7888 7.98455V10.931H29.2753C29.1992 10.931 29.1262 10.962 29.0724 11.0173C29.0187 11.0725 28.9884 11.1475 28.9884 11.2256C28.9884 11.3038 29.0187 11.3787 29.0724 11.434C29.1262 11.4892 29.1992 11.5203 29.2753 11.5203ZM35.8003 7.98455H36.6608L36.6612 10.931H35.8003V7.98455ZM33.3624 7.98455H34.2228V9.19736H33.3624V7.98455Z" fill="#4A4A4A"/>
<path d="M28.412 24.6321H35.7368C35.7748 24.6321 35.8124 24.6244 35.8474 24.6093C35.8825 24.5943 35.9143 24.5722 35.941 24.5445L39.5154 20.8243C39.5683 20.7691 39.598 20.6947 39.598 20.6173V6.65035C39.5967 6.41715 39.5054 6.19401 39.3441 6.02989C39.1828 5.86577 38.9647 5.77407 38.7377 5.77491H28.412C28.185 5.77407 27.9669 5.86577 27.8057 6.02989C27.6444 6.19401 27.553 6.41715 27.5517 6.65035V18.5919C27.3236 18.5921 27.1049 18.6854 26.9435 18.8511C26.7822 19.0168 26.6915 19.2415 26.6913 19.4758V22.4223C26.6915 22.6566 26.7822 22.8813 26.9435 23.047C27.1049 23.2127 27.3236 23.3059 27.5517 23.3062V23.7566C27.5531 23.9898 27.6444 24.213 27.8057 24.3771C27.9669 24.5412 28.185 24.6329 28.412 24.6321ZM36.1562 23.4815V21.081C36.1528 21.0108 36.1764 20.9421 36.222 20.8898C36.2676 20.8375 36.3315 20.8059 36.3998 20.8017H38.731L36.1562 23.4815ZM28.1253 6.65035C28.1265 6.57338 28.1574 6.50004 28.2111 6.44639C28.2648 6.39275 28.3371 6.36319 28.412 6.36419H38.7377C38.8126 6.36319 38.8849 6.39275 38.9386 6.44639C38.9924 6.50004 39.0232 6.57338 39.0244 6.65035V20.2124H36.3998C36.1794 20.2166 35.9696 20.3104 35.8164 20.4732C35.6632 20.636 35.5792 20.8546 35.5826 21.081V24.0428H28.412C28.3371 24.0438 28.2648 24.0143 28.2111 23.9606C28.1573 23.907 28.1265 23.8336 28.1253 23.7566V23.3062H33.5749C33.803 23.3059 34.0217 23.2127 34.183 23.047C34.3443 22.8813 34.4351 22.6566 34.4353 22.4223V19.4758C34.4351 19.2415 34.3443 19.0168 34.183 18.8511C34.0217 18.6854 33.803 18.5921 33.5749 18.5919H28.1253V6.65035ZM27.2649 22.4223V19.4758C27.265 19.3977 27.2952 19.3228 27.349 19.2676C27.4028 19.2124 27.4757 19.1813 27.5517 19.1812H33.5749C33.6509 19.1813 33.7238 19.2124 33.7776 19.2676C33.8313 19.3228 33.8616 19.3977 33.8617 19.4758V22.4223C33.8616 22.5004 33.8313 22.5753 33.7776 22.6305C33.7238 22.6857 33.6509 22.7168 33.5749 22.7169H27.5517C27.4757 22.7168 27.4028 22.6857 27.349 22.6305C27.2952 22.5753 27.265 22.5004 27.2649 22.4223Z" fill="#4A4A4A"/>
<path d="M38.0896 17.2662V13.1411C38.0894 12.9459 38.0137 12.7586 37.8793 12.6205C37.7449 12.4825 37.5626 12.4048 37.3725 12.4045H29.6285C29.4384 12.4048 29.2561 12.4825 29.1217 12.6205C28.9873 12.7586 28.9117 12.9459 28.9114 13.1411V17.2662C28.9117 17.4614 28.9873 17.6487 29.1217 17.7868C29.2561 17.9249 29.4384 18.0025 29.6285 18.0028H37.3725C37.5626 18.0025 37.7449 17.9249 37.8793 17.7868C38.0137 17.6487 38.0894 17.4614 38.0896 17.2662ZM36.6555 12.9938H37.3725C37.4106 12.9939 37.447 13.0094 37.4739 13.037C37.5008 13.0646 37.5159 13.1021 37.5159 13.1411V13.8778H36.6555V12.9938ZM36.6555 14.467H37.5159V15.0563H36.6555V14.467ZM36.6555 15.6456H37.5159V16.2349H36.6555V15.6456ZM30.3455 17.4135H29.6285C29.5905 17.4134 29.554 17.3979 29.5271 17.3703C29.5002 17.3427 29.4851 17.3052 29.4851 17.2662V16.8242H30.3455V17.4135ZM30.3455 16.2349H29.4851V15.6456H30.3455V16.2349ZM30.3455 15.0563H29.4851V14.467H30.3455V15.0563ZM34.6478 17.4135H30.9192V16.8242H34.6478V17.4135ZM34.6478 16.2349H30.9192V15.6456H34.6478V16.2349ZM34.6478 15.0563H30.9192V14.467H34.6478V15.0563ZM34.6478 13.8778H29.4851V13.1411C29.4851 13.1021 29.5002 13.0646 29.5271 13.037C29.554 13.0094 29.5905 12.9939 29.6285 12.9938H34.6478V13.8778ZM36.0819 17.4135H35.2214V16.8242H36.0819V17.4135ZM36.0819 16.2349H35.2214V15.6456H36.0819V16.2349ZM36.0819 15.0563H35.2214V14.467H36.0819V15.0563ZM36.0819 13.8778H35.2214V12.9938H36.0819V13.8778ZM36.6555 16.8242H37.5159V17.2662C37.5159 17.3052 37.5008 17.3427 37.4739 17.3703C37.447 17.3979 37.4106 17.4134 37.3725 17.4135H36.6555V16.8242Z" fill="#4A4A4A"/>
<path fill-rule="evenodd" clip-rule="evenodd" d="M24.351 12.3411H16.1376V11.0784H24.351V12.3411Z" fill="#4A4A4A"/>
<path fill-rule="evenodd" clip-rule="evenodd" d="M24.351 16.3824H16.1376V15.1196H24.351V16.3824Z" fill="#4A4A4A"/>
<path fill-rule="evenodd" clip-rule="evenodd" d="M23.8377 10.0684L17.6776 18.1501L16.651 17.3924L22.811 9.31079L23.8377 10.0684Z" fill="#4A4A4A"/>
</svg>
