<svg width="418" height="284" viewBox="0 0 418 284" fill="none" xmlns="http://www.w3.org/2000/svg">
<g filter="url(#filter0_d_1_1373)">
<g clip-path="url(#clip0_1_1373)">
<path d="M29 41.2749C29 32.4383 36.1634 25.2749 45 25.2749H373C381.837 25.2749 389 32.4383 389 41.2749V451.275C389 460.111 381.837 467.275 373 467.275H45C36.1634 467.275 29 460.111 29 451.275V41.2749Z" fill="white"/>
<g clip-path="url(#clip1_1_1373)">
<mask id="path-3-inside-1_1_1373" fill="white">
<path d="M29 25.2749H389V87.8094H29V25.2749Z"/>
</mask>
<path d="M29 25.2749H389V87.8094H29V25.2749Z" fill="white"/>
<path d="M49.1936 62.1896C49.0698 62.1896 48.9461 62.144 48.8484 62.0463L44.6013 57.7992C43.9108 57.1087 43.9108 55.9753 44.6013 55.2848L48.8484 51.0377C49.0373 50.8488 49.3499 50.8488 49.5388 51.0377C49.7278 51.2266 49.7278 51.5393 49.5388 51.7282L45.2917 55.9753C44.9791 56.2879 44.9791 56.796 45.2917 57.1087L49.5388 61.3558C49.7278 61.5447 49.7278 61.8574 49.5388 62.0463C49.4411 62.1375 49.3174 62.1896 49.1936 62.1896Z" fill="#292D32"/>
<path d="M62.873 56.542C62.873 47.9078 69.8724 40.9084 78.5066 40.9084C87.1407 40.9084 94.1401 47.9078 94.1401 56.542C94.1401 65.1762 87.1407 72.1756 78.5066 72.1756C69.8724 72.1756 62.873 65.1762 62.873 56.542Z" fill="url(#paint0_linear_1_1373)"/>
<path d="M100.331 62.042V51.962H106.211V53.208H101.577V56.379H105.371V57.625H101.577V62.042H100.331ZM107.608 53.145V51.857H108.854V53.145H107.608ZM107.608 62.042V54.482H108.854V62.042H107.608ZM114.23 62.252C113.488 62.252 112.84 62.0887 112.284 61.762C111.734 61.4307 111.304 60.971 110.996 60.383C110.688 59.7903 110.534 59.0997 110.534 58.311C110.534 57.485 110.686 56.771 110.989 56.169C111.293 55.5623 111.715 55.0957 112.256 54.769C112.802 54.4377 113.442 54.272 114.174 54.272C114.935 54.272 115.581 54.447 116.113 54.797C116.65 55.147 117.051 55.6463 117.317 56.295C117.588 56.9437 117.705 57.716 117.667 58.612H116.407V58.164C116.393 57.2353 116.204 56.5423 115.84 56.085C115.476 55.623 114.935 55.392 114.216 55.392C113.446 55.392 112.861 55.6393 112.459 56.134C112.058 56.6287 111.857 57.338 111.857 58.262C111.857 59.1533 112.058 59.844 112.459 60.334C112.861 60.824 113.432 61.069 114.174 61.069C114.674 61.069 115.108 60.9547 115.476 60.726C115.845 60.4973 116.134 60.1683 116.344 59.739L117.541 60.152C117.247 60.8193 116.804 61.3373 116.211 61.706C115.623 62.07 114.963 62.252 114.23 62.252ZM111.437 58.612V57.611H117.023V58.612H111.437ZM119.366 62.042V51.752H120.612V62.042H119.366ZM125.68 62.252C124.976 62.252 124.371 62.077 123.867 61.727C123.363 61.3723 122.974 60.894 122.698 60.292C122.428 59.69 122.292 59.011 122.292 58.255C122.292 57.499 122.428 56.82 122.698 56.218C122.974 55.616 123.363 55.1423 123.867 54.797C124.371 54.447 124.973 54.272 125.673 54.272C126.387 54.272 126.987 54.4447 127.472 54.79C127.958 55.1353 128.324 55.609 128.571 56.211C128.823 56.813 128.949 57.4943 128.949 58.255C128.949 59.0063 128.823 59.6853 128.571 60.292C128.324 60.894 127.958 61.3723 127.472 61.727C126.987 62.077 126.39 62.252 125.68 62.252ZM125.834 61.111C126.343 61.111 126.761 60.9897 127.087 60.747C127.414 60.4997 127.654 60.1613 127.808 59.732C127.967 59.298 128.046 58.8057 128.046 58.255C128.046 57.695 127.967 57.2027 127.808 56.778C127.654 56.3487 127.416 56.015 127.094 55.777C126.772 55.5343 126.364 55.413 125.869 55.413C125.356 55.413 124.931 55.539 124.595 55.791C124.264 56.043 124.017 56.3837 123.853 56.813C123.695 57.2423 123.615 57.723 123.615 58.255C123.615 58.7917 123.697 59.277 123.86 59.711C124.024 60.1403 124.269 60.481 124.595 60.733C124.927 60.985 125.34 61.111 125.834 61.111ZM128.046 62.042V56.477H127.906V51.962H129.159V62.042H128.046ZM142.96 62.042L142.967 57.205C142.967 56.6403 142.815 56.1993 142.512 55.882C142.213 55.56 141.824 55.399 141.343 55.399C141.063 55.399 140.797 55.4643 140.545 55.595C140.293 55.721 140.088 55.9217 139.929 56.197C139.77 56.4677 139.691 56.8153 139.691 57.24L139.033 56.974C139.024 56.4373 139.133 55.9683 139.362 55.567C139.595 55.161 139.913 54.846 140.314 54.622C140.715 54.398 141.168 54.286 141.672 54.286C142.461 54.286 143.081 54.5263 143.534 55.007C143.987 55.483 144.213 56.1247 144.213 56.932L144.206 62.042H142.96ZM133.916 62.042V54.482H135.029V56.505H135.169V62.042H133.916ZM138.445 62.042L138.452 57.254C138.452 56.6753 138.303 56.2227 138.004 55.896C137.705 55.5647 137.309 55.399 136.814 55.399C136.324 55.399 135.927 55.567 135.624 55.903C135.321 56.239 135.169 56.6847 135.169 57.24L134.511 56.848C134.511 56.358 134.628 55.9193 134.861 55.532C135.094 55.1447 135.412 54.8413 135.813 54.622C136.214 54.398 136.669 54.286 137.178 54.286C137.687 54.286 138.13 54.3933 138.508 54.608C138.886 54.8227 139.178 55.1307 139.383 55.532C139.588 55.9287 139.691 56.4023 139.691 56.953L139.684 62.042H138.445ZM148.185 62.252C147.621 62.252 147.147 62.1493 146.764 61.944C146.386 61.734 146.099 61.4587 145.903 61.118C145.712 60.7773 145.616 60.404 145.616 59.998C145.616 59.6013 145.691 59.2583 145.84 58.969C145.994 58.675 146.209 58.4323 146.484 58.241C146.76 58.045 147.089 57.891 147.471 57.779C147.831 57.681 148.232 57.597 148.675 57.527C149.123 57.4523 149.576 57.3847 150.033 57.324C150.491 57.2633 150.918 57.205 151.314 57.149L150.866 57.408C150.88 56.736 150.745 56.239 150.46 55.917C150.18 55.595 149.695 55.434 149.004 55.434C148.547 55.434 148.146 55.539 147.8 55.749C147.46 55.9543 147.219 56.2903 147.079 56.757L145.896 56.4C146.078 55.7373 146.431 55.217 146.953 54.839C147.476 54.461 148.164 54.272 149.018 54.272C149.704 54.272 150.292 54.3957 150.782 54.643C151.277 54.8857 151.632 55.2543 151.846 55.749C151.954 55.9823 152.021 56.2367 152.049 56.512C152.077 56.7827 152.091 57.0673 152.091 57.366V62.042H150.985V60.229L151.244 60.397C150.96 61.0083 150.561 61.4703 150.047 61.783C149.539 62.0957 148.918 62.252 148.185 62.252ZM148.374 61.209C148.822 61.209 149.21 61.1297 149.536 60.971C149.868 60.8077 150.134 60.5953 150.334 60.334C150.535 60.068 150.666 59.7787 150.726 59.466C150.796 59.2327 150.834 58.9737 150.838 58.689C150.848 58.3997 150.852 58.178 150.852 58.024L151.286 58.213C150.88 58.269 150.481 58.3227 150.089 58.374C149.697 58.4253 149.326 58.4813 148.976 58.542C148.626 58.598 148.311 58.6657 148.031 58.745C147.826 58.8103 147.632 58.8943 147.45 58.997C147.273 59.0997 147.128 59.2327 147.016 59.396C146.909 59.5547 146.855 59.753 146.855 59.991C146.855 60.1963 146.907 60.3923 147.009 60.579C147.117 60.7657 147.28 60.9173 147.499 61.034C147.723 61.1507 148.015 61.209 148.374 61.209ZM157.383 62.252C156.674 62.252 156.077 62.077 155.591 61.727C155.106 61.3723 154.737 60.894 154.485 60.292C154.238 59.6853 154.114 59.0063 154.114 58.255C154.114 57.4943 154.238 56.813 154.485 56.211C154.737 55.609 155.106 55.1353 155.591 54.79C156.081 54.4447 156.681 54.272 157.39 54.272C158.09 54.272 158.692 54.447 159.196 54.797C159.705 55.1423 160.095 55.616 160.365 56.218C160.636 56.82 160.771 57.499 160.771 58.255C160.771 59.011 160.636 59.69 160.365 60.292C160.095 60.894 159.705 61.3723 159.196 61.727C158.692 62.077 158.088 62.252 157.383 62.252ZM153.904 65.402V54.482H155.017V60.047H155.157V65.402H153.904ZM157.229 61.111C157.729 61.111 158.142 60.985 158.468 60.733C158.795 60.481 159.04 60.1403 159.203 59.711C159.367 59.277 159.448 58.7917 159.448 58.255C159.448 57.723 159.367 57.2423 159.203 56.813C159.045 56.3837 158.797 56.043 158.461 55.791C158.13 55.539 157.708 55.413 157.194 55.413C156.704 55.413 156.298 55.5343 155.976 55.777C155.654 56.015 155.414 56.3487 155.255 56.778C155.097 57.2027 155.017 57.695 155.017 58.255C155.017 58.8057 155.094 59.298 155.248 59.732C155.407 60.1613 155.65 60.4997 155.976 60.747C156.303 60.9897 156.721 61.111 157.229 61.111ZM165.778 62.252C165.069 62.252 164.471 62.077 163.986 61.727C163.501 61.3723 163.132 60.894 162.88 60.292C162.633 59.6853 162.509 59.0063 162.509 58.255C162.509 57.4943 162.633 56.813 162.88 56.211C163.132 55.609 163.501 55.1353 163.986 54.79C164.476 54.4447 165.076 54.272 165.785 54.272C166.485 54.272 167.087 54.447 167.591 54.797C168.1 55.1423 168.489 55.616 168.76 56.218C169.031 56.82 169.166 57.499 169.166 58.255C169.166 59.011 169.031 59.69 168.76 60.292C168.489 60.894 168.1 61.3723 167.591 61.727C167.087 62.077 166.483 62.252 165.778 62.252ZM162.299 65.402V54.482H163.412V60.047H163.552V65.402H162.299ZM165.624 61.111C166.123 61.111 166.536 60.985 166.863 60.733C167.19 60.481 167.435 60.1403 167.598 59.711C167.761 59.277 167.843 58.7917 167.843 58.255C167.843 57.723 167.761 57.2423 167.598 56.813C167.439 56.3837 167.192 56.043 166.856 55.791C166.525 55.539 166.102 55.413 165.589 55.413C165.099 55.413 164.693 55.5343 164.371 55.777C164.049 56.015 163.809 56.3487 163.65 56.778C163.491 57.2027 163.412 57.695 163.412 58.255C163.412 58.8057 163.489 59.298 163.643 59.732C163.802 60.1613 164.044 60.4997 164.371 60.747C164.698 60.9897 165.115 61.111 165.624 61.111ZM170.84 53.145V51.857H172.086V53.145H170.84ZM170.84 62.042V54.482H172.086V62.042H170.84ZM179.57 62.042V58.255C179.57 57.8957 179.537 57.5503 179.472 57.219C179.411 56.8877 179.301 56.5913 179.143 56.33C178.989 56.064 178.779 55.854 178.513 55.7C178.251 55.546 177.92 55.469 177.519 55.469C177.206 55.469 176.921 55.5227 176.665 55.63C176.413 55.7327 176.196 55.8913 176.014 56.106C175.832 56.3207 175.689 56.5913 175.587 56.918C175.489 57.24 175.44 57.6203 175.44 58.059L174.621 57.807C174.621 57.0743 174.751 56.4467 175.013 55.924C175.279 55.3967 175.65 54.993 176.126 54.713C176.606 54.4283 177.171 54.286 177.82 54.286C178.31 54.286 178.727 54.363 179.073 54.517C179.418 54.671 179.705 54.8763 179.934 55.133C180.162 55.385 180.342 55.6697 180.473 55.987C180.603 56.2997 180.694 56.6193 180.746 56.946C180.802 57.268 180.83 57.5737 180.83 57.863V62.042H179.57ZM174.18 62.042V54.482H175.3V56.505H175.44V62.042H174.18ZM185.709 65.612C185.312 65.612 184.925 65.5513 184.547 65.43C184.169 65.3087 183.821 65.1243 183.504 64.877C183.191 64.6343 182.93 64.3263 182.72 63.953L183.861 63.351C184.047 63.7197 184.311 63.988 184.652 64.156C184.997 64.324 185.352 64.408 185.716 64.408C186.196 64.408 186.595 64.3193 186.913 64.142C187.23 63.9693 187.463 63.7103 187.613 63.365C187.767 63.0197 187.841 62.5903 187.837 62.077V60.012H187.984V54.482H189.09V62.091C189.09 62.2963 189.083 62.4947 189.069 62.686C189.059 62.8773 189.036 63.0663 188.999 63.253C188.901 63.7897 188.707 64.2307 188.418 64.576C188.128 64.926 187.755 65.185 187.298 65.353C186.84 65.5257 186.311 65.612 185.709 65.612ZM185.618 62.252C184.913 62.252 184.309 62.077 183.805 61.727C183.301 61.3723 182.911 60.894 182.636 60.292C182.365 59.69 182.23 59.011 182.23 58.255C182.23 57.499 182.365 56.82 182.636 56.218C182.911 55.616 183.301 55.1423 183.805 54.797C184.309 54.447 184.911 54.272 185.611 54.272C186.325 54.272 186.924 54.4447 187.41 54.79C187.895 55.1353 188.261 55.609 188.509 56.211C188.761 56.813 188.887 57.4943 188.887 58.255C188.887 59.0063 188.761 59.6853 188.509 60.292C188.261 60.894 187.895 61.3723 187.41 61.727C186.924 62.077 186.327 62.252 185.618 62.252ZM185.772 61.111C186.28 61.111 186.698 60.9897 187.025 60.747C187.351 60.4997 187.592 60.1613 187.746 59.732C187.904 59.298 187.984 58.8057 187.984 58.255C187.984 57.695 187.904 57.2027 187.746 56.778C187.592 56.3487 187.354 56.015 187.032 55.777C186.71 55.5343 186.301 55.413 185.807 55.413C185.293 55.413 184.869 55.539 184.533 55.791C184.201 56.043 183.954 56.3837 183.791 56.813C183.632 57.2423 183.553 57.723 183.553 58.255C183.553 58.7917 183.634 59.277 183.798 59.711C183.961 60.1403 184.206 60.481 184.533 60.733C184.864 60.985 185.277 61.111 185.772 61.111Z" fill="#2A2A2F"/>
<path d="M349.916 56.5421C349.916 48.6274 356.332 42.2113 364.247 42.2113C372.161 42.2113 378.578 48.6274 378.578 56.5421C378.578 64.4567 372.161 70.8728 364.247 70.8728C356.332 70.8728 349.916 64.4567 349.916 56.5421Z" fill="#F8F8F8"/>
<path d="M363.433 53.0815C363.433 52.9204 363.48 52.763 363.57 52.6291C363.659 52.4952 363.786 52.3908 363.935 52.3292C364.084 52.2676 364.248 52.2514 364.406 52.2829C364.564 52.3143 364.709 52.3918 364.823 52.5057C364.936 52.6196 365.014 52.7647 365.045 52.9226C365.077 53.0806 365.061 53.2443 364.999 53.3931C364.937 53.5418 364.833 53.669 364.699 53.7585C364.565 53.848 364.408 53.8957 364.247 53.8957C364.031 53.8957 363.824 53.8099 363.671 53.6572C363.518 53.5045 363.433 53.2974 363.433 53.0815ZM364.247 55.7278C364.086 55.7278 363.928 55.7755 363.794 55.865C363.661 55.9545 363.556 56.0816 363.495 56.2304C363.433 56.3792 363.417 56.5429 363.448 56.7009C363.48 56.8588 363.557 57.0039 363.671 57.1178C363.785 57.2316 363.93 57.3092 364.088 57.3406C364.246 57.372 364.41 57.3559 364.558 57.2943C364.707 57.2327 364.834 57.1283 364.924 56.9944C365.013 56.8605 365.061 56.7031 365.061 56.542C365.061 56.3261 364.975 56.119 364.823 55.9663C364.67 55.8136 364.463 55.7278 364.247 55.7278ZM364.247 59.1883C364.086 59.1883 363.928 59.2361 363.794 59.3255C363.661 59.415 363.556 59.5422 363.495 59.691C363.433 59.8397 363.417 60.0035 363.448 60.1614C363.48 60.3194 363.557 60.4644 363.671 60.5783C363.785 60.6922 363.93 60.7697 364.088 60.8012C364.246 60.8326 364.41 60.8165 364.558 60.7548C364.707 60.6932 364.834 60.5888 364.924 60.4549C365.013 60.321 365.061 60.1636 365.061 60.0026C365.061 59.7866 364.975 59.5795 364.823 59.4268C364.67 59.2741 364.463 59.1883 364.247 59.1883Z" fill="#1D1D1B"/>
</g>
<path d="M389 87.158H29V88.4608H389V87.158Z" fill="#F4F6F6" mask="url(#path-3-inside-1_1_1373)"/>
<rect x="39" y="100" width="342" height="153" rx="3" fill="#F4F6F6"/>
<rect x="49" y="113" width="322" height="27" rx="4" fill="#E2E4E3"/>
<rect x="53" y="156" width="117" height="18" rx="3" fill="#C5C9C8"/>
<path d="M201.771 164.447C201.771 164.447 201.771 164.447 201.77 164.446L197.688 160.384C197.382 160.079 196.888 160.081 196.583 160.386C196.279 160.692 196.28 161.187 196.586 161.491L199.327 164.219H182.781C182.35 164.219 182 164.569 182 165C182 165.432 182.35 165.781 182.781 165.781H199.327L196.586 168.509C196.28 168.813 196.279 169.308 196.583 169.614C196.888 169.92 197.382 169.921 197.688 169.616L201.77 165.554C201.771 165.554 201.771 165.553 201.771 165.553C202.077 165.248 202.076 164.751 201.771 164.447Z" fill="#C9C9C9" fill-opacity="0.5"/>
<rect x="226" y="156" width="117" height="18" rx="3" fill="#C5C9C8"/>
<path d="M357.325 165L359.829 162.496C360.057 162.268 360.057 161.899 359.829 161.671C359.601 161.443 359.232 161.443 359.004 161.671L356.5 164.175L353.996 161.671C353.768 161.443 353.399 161.443 353.171 161.671C352.943 161.899 352.943 162.268 353.171 162.496L355.675 165L353.171 167.504C352.943 167.732 352.943 168.101 353.171 168.329C353.285 168.443 353.434 168.5 353.584 168.5C353.733 168.5 353.882 168.443 353.996 168.329L356.5 165.825L359.004 168.329C359.118 168.443 359.268 168.5 359.417 168.5C359.566 168.5 359.715 168.443 359.829 168.329C360.057 168.101 360.057 167.732 359.829 167.504L357.325 165Z" fill="#969696"/>
<rect x="53" y="187" width="117" height="18" rx="3" fill="#C5C9C8"/>
<path d="M201.771 195.447C201.771 195.447 201.771 195.447 201.77 195.446L197.688 191.384C197.382 191.079 196.888 191.081 196.583 191.386C196.279 191.692 196.28 192.187 196.586 192.491L199.327 195.219H182.781C182.35 195.219 182 195.569 182 196C182 196.432 182.35 196.781 182.781 196.781H199.327L196.586 199.509C196.28 199.813 196.279 200.308 196.583 200.614C196.888 200.92 197.382 200.921 197.688 200.616L201.77 196.554C201.771 196.554 201.771 196.553 201.771 196.553C202.077 196.248 202.076 195.751 201.771 195.447Z" fill="#969696"/>
<rect x="53" y="218" width="117" height="18" rx="3" fill="#C5C9C8"/>
<path d="M201.771 226.447C201.771 226.447 201.771 226.447 201.77 226.446L197.688 222.384C197.382 222.079 196.888 222.081 196.583 222.386C196.279 222.692 196.28 223.187 196.586 223.491L199.327 226.219H182.781C182.35 226.219 182 226.569 182 227C182 227.432 182.35 227.781 182.781 227.781H199.327L196.586 230.509C196.28 230.813 196.279 231.308 196.583 231.614C196.888 231.92 197.382 231.921 197.688 231.616L201.77 227.554C201.771 227.554 201.771 227.553 201.771 227.553C202.077 227.248 202.076 226.751 201.771 226.447Z" fill="#969696"/>
</g>
<path d="M45 20.7749C33.6782 20.7749 24.5 29.9531 24.5 41.2749V451.275C24.5 462.597 33.6782 471.775 45 471.775H373C384.322 471.775 393.5 462.597 393.5 451.275V41.2749C393.5 29.9531 384.322 20.7749 373 20.7749H45Z" stroke="#F4F6F6" stroke-width="9"/>
</g>
<defs>
<filter id="filter0_d_1_1373" x="0" y="0.274902" width="418" height="500" filterUnits="userSpaceOnUse" color-interpolation-filters="sRGB">
<feFlood flood-opacity="0" result="BackgroundImageFix"/>
<feColorMatrix in="SourceAlpha" type="matrix" values="0 0 0 0 0 0 0 0 0 0 0 0 0 0 0 0 0 0 127 0" result="hardAlpha"/>
<feOffset dy="4"/>
<feGaussianBlur stdDeviation="10"/>
<feComposite in2="hardAlpha" operator="out"/>
<feColorMatrix type="matrix" values="0 0 0 0 0 0 0 0 0 0 0 0 0 0 0 0 0 0 0.02 0"/>
<feBlend mode="normal" in2="BackgroundImageFix" result="effect1_dropShadow_1_1373"/>
<feBlend mode="normal" in="SourceGraphic" in2="effect1_dropShadow_1_1373" result="shape"/>
</filter>
<linearGradient id="paint0_linear_1_1373" x1="78.5066" y1="40.9084" x2="78.5066" y2="72.1756" gradientUnits="userSpaceOnUse">
<stop stop-color="#68BD44"/>
<stop offset="1" stop-color="#0F836C"/>
</linearGradient>
<clipPath id="clip0_1_1373">
<path d="M29 41.2749C29 32.4383 36.1634 25.2749 45 25.2749H373C381.837 25.2749 389 32.4383 389 41.2749V451.275C389 460.111 381.837 467.275 373 467.275H45C36.1634 467.275 29 460.111 29 451.275V41.2749Z" fill="white"/>
</clipPath>
<clipPath id="clip1_1_1373">
<path d="M29 25.2749H389V87.8094H29V25.2749Z" fill="white"/>
</clipPath>
</defs>
</svg>
