<svg width="378" height="277" viewBox="0 0 378 277" fill="none" xmlns="http://www.w3.org/2000/svg">
<g clip-path="url(#clip0_1_1132)">
<path d="M9 25.2749C9 16.4383 16.1634 9.2749 25 9.2749H353C361.837 9.2749 369 16.4383 369 25.2749V435.275C369 444.111 361.837 451.275 353 451.275H25C16.1634 451.275 9 444.111 9 435.275V25.2749Z" fill="white"/>
<g filter="url(#filter0_dddddd_1_1132)">
<path d="M65.6328 133.199C65.6328 114.408 65.6328 105.012 69.2898 97.8349C72.5065 91.5217 77.6394 86.3889 83.9526 83.1721C91.1298 79.5151 100.525 79.5151 119.316 79.5151H226.683C245.474 79.5151 254.87 79.5151 262.047 83.1721C268.36 86.3889 273.493 91.5217 276.71 97.8349C280.367 105.012 280.367 114.408 280.367 133.199V391.55C280.367 410.341 280.367 419.737 276.71 426.914C273.493 433.227 268.36 438.36 262.047 441.577C254.87 445.234 245.474 445.234 226.683 445.234H119.316C100.525 445.234 91.1298 445.234 83.9526 441.577C77.6394 438.36 72.5065 433.227 69.2898 426.914C65.6328 419.737 65.6328 410.341 65.6328 391.55V133.199Z" fill="#F1F1F1"/>
<path d="M66.891 133.199C66.891 123.782 66.892 116.796 67.344 111.264C67.7947 105.747 68.6878 101.788 70.4109 98.4062C73.507 92.3297 78.4473 87.3893 84.5238 84.2932C87.9055 82.5701 91.8647 81.677 97.3818 81.2263C102.914 80.7743 109.9 80.7733 119.316 80.7733H226.683C236.1 80.7733 243.086 80.7743 248.618 81.2263C254.135 81.677 258.094 82.5701 261.476 84.2932C267.552 87.3893 272.493 92.3297 275.589 98.4062C277.312 101.788 278.205 105.747 278.656 111.264C279.108 116.796 279.109 123.782 279.109 133.199V391.55C279.109 400.967 279.108 407.953 278.656 413.485C278.205 419.002 277.312 422.961 275.589 426.343C272.493 432.419 267.552 437.36 261.476 440.456C258.094 442.179 254.135 443.072 248.618 443.523C243.086 443.975 236.1 443.976 226.683 443.976H119.316C109.9 443.976 102.914 443.975 97.3818 443.523C91.8647 443.072 87.9055 442.179 84.5238 440.456C78.4473 437.36 73.507 432.419 70.4109 426.343C68.6878 422.961 67.7947 419.002 67.344 413.485C66.892 407.953 66.891 400.967 66.891 391.55V133.199Z" stroke="url(#paint0_linear_1_1132)" stroke-width="2.51641"/>
</g>
<rect x="88" y="115" width="86" height="131" rx="12.7143" fill="#FDFDFD"/>
<rect opacity="0.1" x="100.714" y="159.5" width="60.3929" height="6.35714" rx="3.17857" fill="#727272"/>
<rect opacity="0.1" x="100.714" y="169.5" width="60.3929" height="6.35714" rx="3.17857" fill="#727272"/>
<rect opacity="0.1" x="100.714" y="179.5" width="60.3929" height="6.35714" rx="3.17857" fill="#727272"/>
<rect opacity="0.1" x="100.714" y="209.5" width="60.3929" height="6.35714" rx="3.17857" fill="#727272"/>
<path d="M105.2 138.819C104.464 138.819 103.836 138.691 103.316 138.435C102.804 138.179 102.404 137.811 102.116 137.331C101.836 136.843 101.684 136.263 101.66 135.591C101.652 135.247 101.648 134.879 101.648 134.487C101.648 134.087 101.652 133.711 101.66 133.359C101.684 132.695 101.836 132.127 102.116 131.655C102.404 131.183 102.808 130.819 103.328 130.563C103.856 130.307 104.48 130.179 105.2 130.179C105.784 130.179 106.296 130.259 106.736 130.419C107.176 130.571 107.54 130.771 107.828 131.019C108.124 131.259 108.344 131.519 108.488 131.799C108.64 132.079 108.72 132.339 108.728 132.579C108.736 132.651 108.716 132.711 108.668 132.759C108.62 132.807 108.556 132.831 108.476 132.831H107.24C107.16 132.831 107.1 132.815 107.06 132.783C107.02 132.751 106.984 132.703 106.952 132.639C106.888 132.471 106.788 132.307 106.652 132.147C106.516 131.979 106.332 131.839 106.1 131.727C105.868 131.615 105.568 131.559 105.2 131.559C104.656 131.559 104.22 131.703 103.892 131.991C103.572 132.279 103.4 132.755 103.376 133.419C103.352 134.115 103.352 134.819 103.376 135.531C103.4 136.211 103.576 136.699 103.904 136.995C104.24 137.291 104.68 137.439 105.224 137.439C105.584 137.439 105.904 137.375 106.184 137.247C106.472 137.119 106.696 136.919 106.856 136.647C107.024 136.375 107.108 136.027 107.108 135.603V135.231H105.644C105.564 135.231 105.496 135.203 105.44 135.147C105.384 135.091 105.356 135.019 105.356 134.931V134.295C105.356 134.207 105.384 134.135 105.44 134.079C105.496 134.023 105.564 133.995 105.644 133.995H108.512C108.6 133.995 108.668 134.023 108.716 134.079C108.772 134.135 108.8 134.207 108.8 134.295V135.555C108.8 136.227 108.652 136.807 108.356 137.295C108.068 137.783 107.652 138.159 107.108 138.423C106.572 138.687 105.936 138.819 105.2 138.819ZM110.386 138.699C110.306 138.699 110.238 138.671 110.182 138.615C110.126 138.559 110.098 138.491 110.098 138.411V130.587C110.098 130.507 110.126 130.439 110.182 130.383C110.238 130.327 110.306 130.299 110.386 130.299H111.502C111.582 130.299 111.65 130.327 111.706 130.383C111.762 130.439 111.79 130.507 111.79 130.587V137.271H115.594C115.682 137.271 115.754 137.299 115.81 137.355C115.866 137.411 115.894 137.483 115.894 137.571V138.411C115.894 138.491 115.866 138.559 115.81 138.615C115.754 138.671 115.682 138.699 115.594 138.699H110.386ZM122.257 138.819C121.513 138.819 120.881 138.691 120.361 138.435C119.849 138.171 119.457 137.799 119.185 137.319C118.913 136.831 118.761 136.247 118.729 135.567C118.721 135.239 118.717 134.887 118.717 134.511C118.717 134.135 118.721 133.775 118.729 133.431C118.761 132.759 118.913 132.179 119.185 131.691C119.465 131.203 119.861 130.831 120.373 130.575C120.893 130.311 121.521 130.179 122.257 130.179C122.801 130.179 123.289 130.251 123.721 130.395C124.153 130.539 124.521 130.739 124.825 130.995C125.129 131.243 125.365 131.535 125.533 131.871C125.701 132.207 125.789 132.571 125.797 132.963C125.805 133.035 125.781 133.095 125.725 133.143C125.677 133.191 125.617 133.215 125.545 133.215H124.405C124.317 133.215 124.245 133.195 124.189 133.155C124.133 133.107 124.093 133.031 124.069 132.927C123.941 132.399 123.721 132.039 123.409 131.847C123.097 131.655 122.709 131.559 122.245 131.559C121.709 131.559 121.281 131.711 120.961 132.015C120.641 132.311 120.469 132.803 120.445 133.491C120.421 134.147 120.421 134.819 120.445 135.507C120.469 136.195 120.641 136.691 120.961 136.995C121.281 137.291 121.709 137.439 122.245 137.439C122.709 137.439 123.097 137.343 123.409 137.151C123.721 136.951 123.941 136.591 124.069 136.071C124.093 135.959 124.133 135.883 124.189 135.843C124.245 135.803 124.317 135.783 124.405 135.783H125.545C125.617 135.783 125.677 135.807 125.725 135.855C125.781 135.903 125.805 135.963 125.797 136.035C125.789 136.427 125.701 136.791 125.533 137.127C125.365 137.463 125.129 137.759 124.825 138.015C124.521 138.263 124.153 138.459 123.721 138.603C123.289 138.747 122.801 138.819 122.257 138.819ZM129.596 138.819C128.956 138.819 128.416 138.707 127.976 138.483C127.544 138.259 127.212 137.943 126.98 137.535C126.756 137.127 126.628 136.651 126.596 136.107C126.588 135.963 126.584 135.787 126.584 135.579C126.584 135.371 126.588 135.195 126.596 135.051C126.628 134.499 126.76 134.023 126.992 133.623C127.232 133.215 127.568 132.899 128 132.675C128.44 132.451 128.972 132.339 129.596 132.339C130.22 132.339 130.748 132.451 131.18 132.675C131.62 132.899 131.956 133.215 132.188 133.623C132.428 134.023 132.564 134.499 132.596 135.051C132.604 135.195 132.608 135.371 132.608 135.579C132.608 135.787 132.604 135.963 132.596 136.107C132.564 136.651 132.432 137.127 132.2 137.535C131.976 137.943 131.644 138.259 131.204 138.483C130.772 138.707 130.236 138.819 129.596 138.819ZM129.596 137.631C130.02 137.631 130.348 137.499 130.58 137.235C130.812 136.963 130.94 136.567 130.964 136.047C130.972 135.927 130.976 135.771 130.976 135.579C130.976 135.387 130.972 135.231 130.964 135.111C130.94 134.599 130.812 134.207 130.58 133.935C130.348 133.663 130.02 133.527 129.596 133.527C129.172 133.527 128.844 133.663 128.612 133.935C128.38 134.207 128.252 134.599 128.228 135.111C128.22 135.231 128.216 135.387 128.216 135.579C128.216 135.771 128.22 135.927 128.228 136.047C128.252 136.567 128.38 136.963 128.612 137.235C128.844 137.499 129.172 137.631 129.596 137.631ZM136.013 138.819C135.597 138.819 135.229 138.751 134.909 138.615C134.597 138.471 134.337 138.271 134.129 138.015C133.921 137.759 133.761 137.459 133.649 137.115C133.537 136.763 133.473 136.379 133.457 135.963C133.449 135.819 133.445 135.691 133.445 135.579C133.445 135.459 133.449 135.327 133.457 135.183C133.473 134.783 133.533 134.411 133.637 134.067C133.749 133.723 133.909 133.423 134.117 133.167C134.333 132.903 134.597 132.699 134.909 132.555C135.229 132.411 135.597 132.339 136.013 132.339C136.445 132.339 136.809 132.415 137.105 132.567C137.409 132.711 137.661 132.899 137.861 133.131V130.467C137.861 130.387 137.885 130.319 137.933 130.263C137.989 130.207 138.061 130.179 138.149 130.179H139.169C139.249 130.179 139.317 130.207 139.373 130.263C139.429 130.319 139.457 130.387 139.457 130.467V138.411C139.457 138.491 139.429 138.559 139.373 138.615C139.317 138.671 139.249 138.699 139.169 138.699H138.221C138.133 138.699 138.061 138.671 138.005 138.615C137.957 138.559 137.933 138.491 137.933 138.411V137.967C137.733 138.215 137.477 138.419 137.165 138.579C136.861 138.739 136.477 138.819 136.013 138.819ZM136.457 137.535C136.793 137.535 137.061 137.459 137.261 137.307C137.461 137.155 137.609 136.963 137.705 136.731C137.801 136.491 137.853 136.247 137.861 135.999C137.869 135.855 137.873 135.703 137.873 135.543C137.873 135.375 137.869 135.219 137.861 135.075C137.853 134.835 137.797 134.607 137.693 134.391C137.589 134.167 137.437 133.983 137.237 133.839C137.037 133.695 136.777 133.623 136.457 133.623C136.121 133.623 135.853 133.699 135.653 133.851C135.461 133.995 135.321 134.187 135.233 134.427C135.145 134.667 135.093 134.931 135.077 135.219C135.069 135.459 135.069 135.699 135.077 135.939C135.093 136.227 135.145 136.491 135.233 136.731C135.321 136.971 135.461 137.167 135.653 137.319C135.853 137.463 136.121 137.535 136.457 137.535ZM141.105 138.699C141.025 138.699 140.957 138.671 140.901 138.615C140.845 138.559 140.817 138.491 140.817 138.411V132.747C140.817 132.667 140.845 132.599 140.901 132.543C140.957 132.487 141.025 132.459 141.105 132.459H142.101C142.189 132.459 142.257 132.487 142.305 132.543C142.361 132.599 142.389 132.667 142.389 132.747V138.411C142.389 138.491 142.361 138.559 142.305 138.615C142.257 138.671 142.189 138.699 142.101 138.699H141.105ZM141.057 131.427C140.969 131.427 140.897 131.403 140.841 131.355C140.793 131.299 140.769 131.227 140.769 131.139V130.275C140.769 130.195 140.793 130.127 140.841 130.071C140.897 130.015 140.969 129.987 141.057 129.987H142.149C142.237 129.987 142.309 130.015 142.365 130.071C142.421 130.127 142.449 130.195 142.449 130.275V131.139C142.449 131.227 142.421 131.299 142.365 131.355C142.309 131.403 142.237 131.427 142.149 131.427H141.057ZM144.029 138.699C143.949 138.699 143.881 138.671 143.825 138.615C143.769 138.559 143.741 138.491 143.741 138.411V132.747C143.741 132.667 143.769 132.599 143.825 132.543C143.881 132.487 143.949 132.459 144.029 132.459H145.013C145.093 132.459 145.161 132.487 145.217 132.543C145.273 132.599 145.301 132.667 145.301 132.747V133.239C145.509 132.983 145.773 132.771 146.093 132.603C146.421 132.427 146.825 132.339 147.305 132.339C147.793 132.339 148.217 132.451 148.577 132.675C148.937 132.891 149.213 133.199 149.405 133.599C149.605 133.999 149.705 134.479 149.705 135.039V138.411C149.705 138.491 149.677 138.559 149.621 138.615C149.565 138.671 149.497 138.699 149.417 138.699H148.361C148.281 138.699 148.213 138.671 148.157 138.615C148.101 138.559 148.073 138.491 148.073 138.411V135.111C148.073 134.647 147.957 134.283 147.725 134.019C147.501 133.755 147.173 133.623 146.741 133.623C146.325 133.623 145.993 133.755 145.745 134.019C145.497 134.283 145.373 134.647 145.373 135.111V138.411C145.373 138.491 145.345 138.559 145.289 138.615C145.233 138.671 145.165 138.699 145.085 138.699H144.029ZM153.809 141.339C153.225 141.339 152.745 141.263 152.369 141.111C151.993 140.959 151.697 140.775 151.481 140.559C151.265 140.343 151.109 140.127 151.013 139.911C150.925 139.703 150.877 139.539 150.869 139.419C150.861 139.339 150.885 139.267 150.941 139.203C151.005 139.147 151.077 139.119 151.157 139.119H152.201C152.281 139.119 152.345 139.135 152.393 139.167C152.441 139.207 152.481 139.275 152.513 139.371C152.561 139.475 152.625 139.587 152.705 139.707C152.785 139.827 152.905 139.927 153.065 140.007C153.233 140.095 153.461 140.139 153.749 140.139C154.053 140.139 154.309 140.095 154.517 140.007C154.725 139.919 154.881 139.771 154.985 139.563C155.097 139.355 155.153 139.067 155.153 138.699V137.883C154.961 138.115 154.713 138.303 154.409 138.447C154.113 138.591 153.745 138.663 153.305 138.663C152.873 138.663 152.501 138.595 152.189 138.459C151.877 138.315 151.617 138.119 151.409 137.871C151.201 137.615 151.041 137.315 150.929 136.971C150.825 136.627 150.765 136.247 150.749 135.831C150.741 135.615 150.741 135.399 150.749 135.183C150.765 134.783 150.825 134.411 150.929 134.067C151.033 133.723 151.189 133.423 151.397 133.167C151.613 132.903 151.877 132.699 152.189 132.555C152.501 132.411 152.873 132.339 153.305 132.339C153.761 132.339 154.145 132.427 154.457 132.603C154.769 132.771 155.025 132.983 155.225 133.239V132.759C155.225 132.671 155.253 132.599 155.309 132.543C155.365 132.487 155.433 132.459 155.513 132.459H156.485C156.565 132.459 156.633 132.487 156.689 132.543C156.745 132.599 156.773 132.671 156.773 132.759L156.785 138.543C156.785 139.119 156.677 139.615 156.461 140.031C156.245 140.447 155.917 140.767 155.477 140.991C155.045 141.223 154.489 141.339 153.809 141.339ZM153.749 137.391C154.077 137.391 154.341 137.319 154.541 137.175C154.741 137.031 154.889 136.843 154.985 136.611C155.081 136.379 155.137 136.143 155.153 135.903C155.161 135.799 155.165 135.667 155.165 135.507C155.165 135.347 155.161 135.219 155.153 135.123C155.137 134.875 155.081 134.639 154.985 134.415C154.889 134.183 154.741 133.995 154.541 133.851C154.341 133.699 154.077 133.623 153.749 133.623C153.421 133.623 153.157 133.699 152.957 133.851C152.757 133.995 152.613 134.187 152.525 134.427C152.445 134.667 152.397 134.931 152.381 135.219C152.365 135.411 152.365 135.607 152.381 135.807C152.397 136.087 152.445 136.351 152.525 136.599C152.613 136.839 152.757 137.031 152.957 137.175C153.157 137.319 153.421 137.391 153.749 137.391Z" fill="#A8A8A8"/>
<g filter="url(#filter1_bdd_1_1132)">
<path d="M179.999 131.714C179.999 124.692 185.691 119 192.713 119H253.106C260.128 119 265.82 124.692 265.82 131.714V169.857C265.82 176.879 260.128 182.571 253.106 182.571H192.713C185.691 182.571 179.999 176.879 179.999 169.857V131.714Z" fill="#FDFDFD" fill-opacity="0.5" shape-rendering="crispEdges"/>
<path d="M180.794 131.714C180.794 125.131 186.13 119.795 192.713 119.795H253.106C259.689 119.795 265.026 125.131 265.026 131.714V169.857C265.026 176.44 259.689 181.777 253.106 181.777H192.713C186.13 181.777 180.794 176.44 180.794 169.857V131.714Z" stroke="#FDFDFD" stroke-width="1.58929" shape-rendering="crispEdges"/>
<rect opacity="0.1" x="192.71" y="163.5" width="60.3929" height="6.35714" rx="3.17857" fill="#727272"/>
</g>
<rect x="180" y="119" width="86" height="130" rx="12.7143" fill="#FDFDFD"/>
<rect opacity="0.1" x="193.001" y="156" width="62" height="14" rx="3.17857" fill="#727272"/>
<rect opacity="0.1" x="193.001" y="176" width="62" height="4" rx="2" fill="#727272"/>
<rect opacity="0.1" x="193.001" y="184" width="62" height="4" rx="2" fill="#727272"/>
<rect opacity="0.1" x="193.001" y="192" width="62" height="4" rx="2" fill="#727272"/>
<rect opacity="0.1" x="193.001" y="200" width="62" height="4" rx="2" fill="#727272"/>
<rect opacity="0.1" x="193.001" y="208" width="62" height="4" rx="2" fill="#727272"/>
<rect opacity="0.1" x="193.001" y="224" width="62" height="4" rx="2" fill="#727272"/>
<rect x="184.192" y="125.192" width="77.6161" height="119.616" rx="8.34375" stroke="#3292FF" stroke-width="2.38393"/>
<path d="M194.048 142.771C193.968 142.771 193.9 142.743 193.844 142.687C193.788 142.631 193.76 142.563 193.76 142.483V134.671C193.76 134.583 193.788 134.511 193.844 134.455C193.9 134.399 193.968 134.371 194.048 134.371H197.264C197.888 134.371 198.432 134.471 198.896 134.671C199.36 134.863 199.72 135.159 199.976 135.559C200.232 135.951 200.36 136.443 200.36 137.035C200.36 137.635 200.232 138.131 199.976 138.523C199.72 138.907 199.36 139.195 198.896 139.387C198.432 139.579 197.888 139.675 197.264 139.675H195.476V142.483C195.476 142.563 195.448 142.631 195.392 142.687C195.344 142.743 195.276 142.771 195.188 142.771H194.048ZM195.452 138.343H197.204C197.668 138.343 198.024 138.235 198.272 138.019C198.52 137.795 198.644 137.467 198.644 137.035C198.644 136.635 198.528 136.315 198.296 136.075C198.064 135.827 197.7 135.703 197.204 135.703H195.452V138.343ZM204.658 142.891C203.946 142.891 203.334 142.775 202.822 142.543C202.31 142.303 201.91 141.939 201.622 141.451C201.334 140.955 201.178 140.339 201.154 139.603C201.146 139.259 201.142 138.919 201.142 138.583C201.142 138.247 201.146 137.903 201.154 137.551C201.178 136.823 201.338 136.215 201.634 135.727C201.93 135.239 202.334 134.871 202.846 134.623C203.366 134.375 203.97 134.251 204.658 134.251C205.346 134.251 205.95 134.375 206.47 134.623C206.99 134.871 207.398 135.239 207.694 135.727C207.99 136.215 208.15 136.823 208.174 137.551C208.19 137.903 208.198 138.247 208.198 138.583C208.198 138.919 208.19 139.259 208.174 139.603C208.15 140.339 207.994 140.955 207.706 141.451C207.418 141.939 207.014 142.303 206.494 142.543C205.982 142.775 205.37 142.891 204.658 142.891ZM204.658 141.511C205.178 141.511 205.602 141.359 205.93 141.055C206.258 140.743 206.434 140.239 206.458 139.543C206.474 139.191 206.482 138.867 206.482 138.571C206.482 138.267 206.474 137.943 206.458 137.599C206.442 137.135 206.354 136.759 206.194 136.471C206.042 136.175 205.834 135.963 205.57 135.835C205.306 135.699 205.002 135.631 204.658 135.631C204.322 135.631 204.022 135.699 203.758 135.835C203.494 135.963 203.282 136.175 203.122 136.471C202.97 136.759 202.886 137.135 202.87 137.599C202.862 137.943 202.858 138.267 202.858 138.571C202.858 138.867 202.862 139.191 202.87 139.543C202.894 140.239 203.07 140.743 203.398 141.055C203.726 141.359 204.146 141.511 204.658 141.511Z" fill="#A8A8A8"/>
<g filter="url(#filter2_bdd_1_1132)">
<rect x="85" y="21.5151" width="188" height="48" rx="12" fill="#FDFDFD" fill-opacity="0.5" shape-rendering="crispEdges"/>
<rect x="85.5" y="22.0151" width="187" height="47" rx="11.5" stroke="#FDFDFD" shape-rendering="crispEdges"/>
<path d="M97 43.8069C97 38.1229 101.608 33.5151 107.292 33.5151C112.976 33.5151 117.584 38.1229 117.584 43.8069C117.584 49.4909 112.976 54.0987 107.292 54.0987C101.608 54.0987 97 49.4909 97 43.8069Z" fill="url(#paint1_linear_1_1132)"/>
<path d="M126.004 47.8069C125.94 47.8069 125.88 47.7829 125.824 47.7349C125.776 47.6869 125.752 47.6269 125.752 47.5549C125.752 47.5229 125.76 47.4869 125.776 47.4469L128.668 39.7069C128.692 39.6269 128.736 39.5589 128.8 39.5029C128.872 39.4389 128.968 39.4069 129.088 39.4069H130.396C130.516 39.4069 130.608 39.4389 130.672 39.5029C130.736 39.5589 130.784 39.6269 130.816 39.7069L133.708 47.4469C133.716 47.4869 133.72 47.5229 133.72 47.5549C133.72 47.6269 133.696 47.6869 133.648 47.7349C133.6 47.7829 133.544 47.8069 133.48 47.8069H132.436C132.324 47.8069 132.24 47.7829 132.184 47.7349C132.136 47.6789 132.104 47.6269 132.088 47.5789L131.524 46.1149H127.96L127.396 47.5789C127.38 47.6269 127.344 47.6789 127.288 47.7349C127.24 47.7829 127.16 47.8069 127.048 47.8069H126.004ZM128.38 44.7349H131.104L129.736 41.0269L128.38 44.7349ZM134.756 50.0869C134.676 50.0869 134.608 50.0589 134.552 50.0029C134.496 49.9469 134.468 49.8789 134.468 49.7989V41.8549C134.468 41.7749 134.496 41.7069 134.552 41.6509C134.608 41.5949 134.676 41.5669 134.756 41.5669H135.704C135.792 41.5669 135.86 41.5949 135.908 41.6509C135.964 41.7069 135.992 41.7749 135.992 41.8549V42.3349C136.184 42.0789 136.436 41.8669 136.748 41.6989C137.06 41.5309 137.448 41.4469 137.912 41.4469C138.336 41.4469 138.704 41.5149 139.016 41.6509C139.328 41.7869 139.588 41.9829 139.796 42.2389C140.004 42.4869 140.164 42.7829 140.276 43.1269C140.388 43.4709 140.452 43.8509 140.468 44.2669C140.476 44.4029 140.48 44.5429 140.48 44.6869C140.48 44.8309 140.476 44.9749 140.468 45.1189C140.46 45.5189 140.4 45.8909 140.288 46.2349C140.176 46.5709 140.012 46.8669 139.796 47.1229C139.588 47.3709 139.328 47.5669 139.016 47.7109C138.704 47.8549 138.336 47.9269 137.912 47.9269C137.48 47.9269 137.112 47.8509 136.808 47.6989C136.504 47.5389 136.256 47.3309 136.064 47.0749V49.7989C136.064 49.8789 136.036 49.9469 135.98 50.0029C135.932 50.0589 135.864 50.0869 135.776 50.0869H134.756ZM137.468 46.6429C137.812 46.6429 138.08 46.5709 138.272 46.4269C138.464 46.2749 138.6 46.0789 138.68 45.8389C138.768 45.5989 138.82 45.3349 138.836 45.0469C138.852 44.8069 138.852 44.5669 138.836 44.3269C138.82 44.0389 138.768 43.7749 138.68 43.5349C138.6 43.2949 138.464 43.1029 138.272 42.9589C138.08 42.8069 137.812 42.7309 137.468 42.7309C137.14 42.7309 136.872 42.8069 136.664 42.9589C136.464 43.1109 136.316 43.3069 136.22 43.5469C136.132 43.7789 136.08 44.0189 136.064 44.2669C136.056 44.4109 136.052 44.5629 136.052 44.7229C136.052 44.8829 136.056 45.0389 136.064 45.1909C136.072 45.4309 136.128 45.6629 136.232 45.8869C136.336 46.1029 136.488 46.2829 136.688 46.4269C136.888 46.5709 137.148 46.6429 137.468 46.6429ZM141.887 50.0869C141.807 50.0869 141.739 50.0589 141.683 50.0029C141.627 49.9469 141.599 49.8789 141.599 49.7989V41.8549C141.599 41.7749 141.627 41.7069 141.683 41.6509C141.739 41.5949 141.807 41.5669 141.887 41.5669H142.835C142.923 41.5669 142.991 41.5949 143.039 41.6509C143.095 41.7069 143.123 41.7749 143.123 41.8549V42.3349C143.315 42.0789 143.567 41.8669 143.879 41.6989C144.191 41.5309 144.579 41.4469 145.043 41.4469C145.467 41.4469 145.835 41.5149 146.147 41.6509C146.459 41.7869 146.719 41.9829 146.927 42.2389C147.135 42.4869 147.295 42.7829 147.407 43.1269C147.519 43.4709 147.583 43.8509 147.599 44.2669C147.607 44.4029 147.611 44.5429 147.611 44.6869C147.611 44.8309 147.607 44.9749 147.599 45.1189C147.591 45.5189 147.531 45.8909 147.419 46.2349C147.307 46.5709 147.143 46.8669 146.927 47.1229C146.719 47.3709 146.459 47.5669 146.147 47.7109C145.835 47.8549 145.467 47.9269 145.043 47.9269C144.611 47.9269 144.243 47.8509 143.939 47.6989C143.635 47.5389 143.387 47.3309 143.195 47.0749V49.7989C143.195 49.8789 143.167 49.9469 143.111 50.0029C143.063 50.0589 142.995 50.0869 142.907 50.0869H141.887ZM144.599 46.6429C144.943 46.6429 145.211 46.5709 145.403 46.4269C145.595 46.2749 145.731 46.0789 145.811 45.8389C145.899 45.5989 145.951 45.3349 145.967 45.0469C145.983 44.8069 145.983 44.5669 145.967 44.3269C145.951 44.0389 145.899 43.7749 145.811 43.5349C145.731 43.2949 145.595 43.1029 145.403 42.9589C145.211 42.8069 144.943 42.7309 144.599 42.7309C144.271 42.7309 144.003 42.8069 143.795 42.9589C143.595 43.1109 143.447 43.3069 143.351 43.5469C143.263 43.7789 143.211 44.0189 143.195 44.2669C143.187 44.4109 143.183 44.5629 143.183 44.7229C143.183 44.8829 143.187 45.0389 143.195 45.1909C143.203 45.4309 143.259 45.6629 143.363 45.8869C143.467 46.1029 143.619 46.2829 143.819 46.4269C144.019 46.5709 144.279 46.6429 144.599 46.6429ZM149.006 47.8069C148.926 47.8069 148.858 47.7789 148.802 47.7229C148.746 47.6669 148.718 47.5989 148.718 47.5189V41.8669C148.718 41.7789 148.746 41.7069 148.802 41.6509C148.858 41.5949 148.926 41.5669 149.006 41.5669H149.978C150.058 41.5669 150.126 41.5949 150.182 41.6509C150.246 41.7069 150.278 41.7789 150.278 41.8669V42.3589C150.462 42.1029 150.698 41.9069 150.986 41.7709C151.282 41.6349 151.622 41.5669 152.006 41.5669H152.498C152.586 41.5669 152.654 41.5949 152.702 41.6509C152.758 41.7069 152.786 41.7749 152.786 41.8549V42.7189C152.786 42.7989 152.758 42.8669 152.702 42.9229C152.654 42.9789 152.586 43.0069 152.498 43.0069H151.562C151.178 43.0069 150.878 43.1149 150.662 43.3309C150.454 43.5469 150.35 43.8429 150.35 44.2189V47.5189C150.35 47.5989 150.322 47.6669 150.266 47.7229C150.21 47.7789 150.138 47.8069 150.05 47.8069H149.006ZM156.16 47.9269C155.52 47.9269 154.98 47.8149 154.54 47.5909C154.108 47.3669 153.776 47.0509 153.544 46.6429C153.32 46.2349 153.192 45.7589 153.16 45.2149C153.152 45.0709 153.148 44.8949 153.148 44.6869C153.148 44.4789 153.152 44.3029 153.16 44.1589C153.192 43.6069 153.324 43.1309 153.556 42.7309C153.796 42.3229 154.132 42.0069 154.564 41.7829C155.004 41.5589 155.536 41.4469 156.16 41.4469C156.784 41.4469 157.312 41.5589 157.744 41.7829C158.184 42.0069 158.52 42.3229 158.752 42.7309C158.992 43.1309 159.128 43.6069 159.16 44.1589C159.168 44.3029 159.172 44.4789 159.172 44.6869C159.172 44.8949 159.168 45.0709 159.16 45.2149C159.128 45.7589 158.996 46.2349 158.764 46.6429C158.54 47.0509 158.208 47.3669 157.768 47.5909C157.336 47.8149 156.8 47.9269 156.16 47.9269ZM156.16 46.7389C156.584 46.7389 156.912 46.6069 157.144 46.3429C157.376 46.0709 157.504 45.6749 157.528 45.1549C157.536 45.0349 157.54 44.8789 157.54 44.6869C157.54 44.4949 157.536 44.3389 157.528 44.2189C157.504 43.7069 157.376 43.3149 157.144 43.0429C156.912 42.7709 156.584 42.6349 156.16 42.6349C155.736 42.6349 155.408 42.7709 155.176 43.0429C154.944 43.3149 154.816 43.7069 154.792 44.2189C154.784 44.3389 154.78 44.4949 154.78 44.6869C154.78 44.8789 154.784 45.0349 154.792 45.1549C154.816 45.6749 154.944 46.0709 155.176 46.3429C155.408 46.6069 155.736 46.7389 156.16 46.7389ZM162.247 47.8069C162.119 47.8069 162.023 47.7789 161.959 47.7229C161.903 47.6589 161.855 47.5869 161.815 47.5069L159.571 41.9389C159.555 41.8989 159.547 41.8629 159.547 41.8309C159.547 41.7589 159.571 41.6989 159.619 41.6509C159.675 41.5949 159.739 41.5669 159.811 41.5669H160.783C160.879 41.5669 160.951 41.5949 160.999 41.6509C161.047 41.6989 161.079 41.7469 161.095 41.7949L162.691 46.0069L164.287 41.7949C164.303 41.7469 164.335 41.6989 164.383 41.6509C164.431 41.5949 164.503 41.5669 164.599 41.5669H165.583C165.647 41.5669 165.703 41.5949 165.751 41.6509C165.807 41.6989 165.835 41.7589 165.835 41.8309C165.835 41.8629 165.831 41.8989 165.823 41.9389L163.567 47.5069C163.535 47.5869 163.487 47.6589 163.423 47.7229C163.359 47.7789 163.263 47.8069 163.135 47.8069H162.247ZM169.155 47.9269C168.267 47.9269 167.563 47.6709 167.043 47.1589C166.523 46.6469 166.243 45.9189 166.203 44.9749C166.195 44.8949 166.191 44.7949 166.191 44.6749C166.191 44.5469 166.195 44.4469 166.203 44.3749C166.235 43.7749 166.371 43.2549 166.611 42.8149C166.859 42.3749 167.199 42.0389 167.631 41.8069C168.063 41.5669 168.571 41.4469 169.155 41.4469C169.803 41.4469 170.347 41.5829 170.787 41.8549C171.227 42.1189 171.559 42.4909 171.783 42.9709C172.007 43.4429 172.119 43.9909 172.119 44.6149V44.8669C172.119 44.9469 172.091 45.0149 172.035 45.0709C171.979 45.1269 171.907 45.1549 171.819 45.1549H167.835C167.835 45.1549 167.835 45.1669 167.835 45.1909C167.835 45.2149 167.835 45.2349 167.835 45.2509C167.843 45.5309 167.895 45.7909 167.991 46.0309C168.095 46.2629 168.243 46.4509 168.435 46.5949C168.635 46.7389 168.871 46.8109 169.143 46.8109C169.367 46.8109 169.555 46.7789 169.707 46.7149C169.859 46.6429 169.983 46.5629 170.079 46.4749C170.175 46.3869 170.243 46.3149 170.283 46.2589C170.355 46.1629 170.411 46.1069 170.451 46.0909C170.499 46.0669 170.567 46.0549 170.655 46.0549H171.687C171.767 46.0549 171.831 46.0789 171.879 46.1269C171.935 46.1749 171.959 46.2349 171.951 46.3069C171.943 46.4349 171.875 46.5909 171.747 46.7749C171.627 46.9589 171.451 47.1389 171.219 47.3149C170.987 47.4909 170.695 47.6389 170.343 47.7589C169.999 47.8709 169.603 47.9269 169.155 47.9269ZM167.835 44.1469H170.487V44.1109C170.487 43.7989 170.435 43.5269 170.331 43.2949C170.227 43.0629 170.075 42.8789 169.875 42.7429C169.675 42.6069 169.435 42.5389 169.155 42.5389C168.875 42.5389 168.635 42.6069 168.435 42.7429C168.235 42.8789 168.083 43.0629 167.979 43.2949C167.883 43.5269 167.835 43.7989 167.835 44.1109V44.1469ZM175.469 47.9269C175.053 47.9269 174.685 47.8589 174.365 47.7229C174.053 47.5789 173.793 47.3789 173.585 47.1229C173.377 46.8669 173.217 46.5669 173.105 46.2229C172.993 45.8709 172.929 45.4869 172.913 45.0709C172.905 44.9269 172.901 44.7989 172.901 44.6869C172.901 44.5669 172.905 44.4349 172.913 44.2909C172.929 43.8909 172.989 43.5189 173.093 43.1749C173.205 42.8309 173.365 42.5309 173.573 42.2749C173.789 42.0109 174.053 41.8069 174.365 41.6629C174.685 41.5189 175.053 41.4469 175.469 41.4469C175.901 41.4469 176.265 41.5229 176.561 41.6749C176.865 41.8189 177.117 42.0069 177.317 42.2389V39.5749C177.317 39.4949 177.341 39.4269 177.389 39.3709C177.445 39.3149 177.517 39.2869 177.605 39.2869H178.625C178.705 39.2869 178.773 39.3149 178.829 39.3709C178.885 39.4269 178.913 39.4949 178.913 39.5749V47.5189C178.913 47.5989 178.885 47.6669 178.829 47.7229C178.773 47.7789 178.705 47.8069 178.625 47.8069H177.677C177.589 47.8069 177.517 47.7789 177.461 47.7229C177.413 47.6669 177.389 47.5989 177.389 47.5189V47.0749C177.189 47.3229 176.933 47.5269 176.621 47.6869C176.317 47.8469 175.933 47.9269 175.469 47.9269ZM175.913 46.6429C176.249 46.6429 176.517 46.5669 176.717 46.4149C176.917 46.2629 177.065 46.0709 177.161 45.8389C177.257 45.5989 177.309 45.3549 177.317 45.1069C177.325 44.9629 177.329 44.8109 177.329 44.6509C177.329 44.4829 177.325 44.3269 177.317 44.1829C177.309 43.9429 177.253 43.7149 177.149 43.4989C177.045 43.2749 176.893 43.0909 176.693 42.9469C176.493 42.8029 176.233 42.7309 175.913 42.7309C175.577 42.7309 175.309 42.8069 175.109 42.9589C174.917 43.1029 174.777 43.2949 174.689 43.5349C174.601 43.7749 174.549 44.0389 174.533 44.3269C174.525 44.5669 174.525 44.8069 174.533 45.0469C174.549 45.3349 174.601 45.5989 174.689 45.8389C174.777 46.0789 174.917 46.2749 175.109 46.4269C175.309 46.5709 175.577 46.6429 175.913 46.6429Z" fill="#1B1B1B"/>
<path d="M223.48 53.2986C223.4 53.2986 223.332 53.2706 223.276 53.2146C223.22 53.1586 223.192 53.0906 223.192 53.0106V52.1706C222.6 52.1146 222.1 51.9746 221.692 51.7506C221.284 51.5186 220.976 51.2426 220.768 50.9226C220.56 50.5946 220.448 50.2546 220.432 49.9026C220.432 49.8306 220.456 49.7706 220.504 49.7226C220.56 49.6746 220.624 49.6506 220.696 49.6506H221.764C221.86 49.6506 221.936 49.6746 221.992 49.7226C222.048 49.7626 222.092 49.8146 222.124 49.8786C222.18 50.0306 222.272 50.1826 222.4 50.3346C222.536 50.4786 222.724 50.5986 222.964 50.6946C223.204 50.7906 223.504 50.8386 223.864 50.8386C224.44 50.8386 224.868 50.7426 225.148 50.5506C225.428 50.3586 225.568 50.0986 225.568 49.7706C225.568 49.5386 225.492 49.3546 225.34 49.2186C225.196 49.0746 224.964 48.9466 224.644 48.8346C224.324 48.7146 223.904 48.5906 223.384 48.4626C222.792 48.3186 222.292 48.1466 221.884 47.9466C221.476 47.7386 221.168 47.4786 220.96 47.1666C220.76 46.8546 220.66 46.4586 220.66 45.9786C220.66 45.3626 220.884 44.8386 221.332 44.4066C221.78 43.9746 222.4 43.7106 223.192 43.6146V42.7866C223.192 42.7066 223.22 42.6386 223.276 42.5826C223.332 42.5266 223.4 42.4986 223.48 42.4986H224.212C224.292 42.4986 224.36 42.5266 224.416 42.5826C224.472 42.6386 224.5 42.7066 224.5 42.7866V43.6386C225.044 43.7186 225.5 43.8786 225.868 44.1186C226.236 44.3586 226.516 44.6346 226.708 44.9466C226.9 45.2506 227 45.5466 227.008 45.8346C227.008 45.8986 226.984 45.9586 226.936 46.0146C226.896 46.0626 226.836 46.0866 226.756 46.0866H225.64C225.568 46.0866 225.5 46.0706 225.436 46.0386C225.372 46.0066 225.32 45.9466 225.28 45.8586C225.24 45.6106 225.088 45.3986 224.824 45.2226C224.56 45.0466 224.216 44.9586 223.792 44.9586C223.36 44.9586 223.012 45.0386 222.748 45.1986C222.492 45.3586 222.364 45.6066 222.364 45.9426C222.364 46.1666 222.428 46.3546 222.556 46.5066C222.684 46.6506 222.892 46.7786 223.18 46.8906C223.476 47.0026 223.868 47.1226 224.356 47.2506C225.036 47.4026 225.588 47.5786 226.012 47.7786C226.444 47.9786 226.76 48.2346 226.96 48.5466C227.168 48.8506 227.272 49.2386 227.272 49.7106C227.272 50.1746 227.156 50.5826 226.924 50.9346C226.7 51.2786 226.38 51.5586 225.964 51.7746C225.548 51.9826 225.06 52.1186 224.5 52.1826V53.0106C224.5 53.0906 224.472 53.1586 224.416 53.2146C224.36 53.2706 224.292 53.2986 224.212 53.2986H223.48ZM228.299 52.0986C228.219 52.0986 228.151 52.0706 228.095 52.0146C228.039 51.9586 228.011 51.8906 228.011 51.8106V51.1986C228.011 51.1266 228.027 51.0426 228.059 50.9466C228.099 50.8426 228.183 50.7386 228.311 50.6346L230.207 48.7506C230.735 48.3346 231.159 47.9826 231.479 47.6946C231.807 47.3986 232.043 47.1306 232.187 46.8906C232.339 46.6426 232.415 46.3986 232.415 46.1586C232.415 45.7986 232.315 45.5066 232.115 45.2826C231.923 45.0586 231.615 44.9466 231.191 44.9466C230.911 44.9466 230.675 45.0066 230.483 45.1266C230.291 45.2386 230.139 45.3906 230.027 45.5826C229.923 45.7746 229.851 45.9866 229.811 46.2186C229.795 46.3226 229.751 46.3946 229.679 46.4346C229.607 46.4746 229.535 46.4946 229.463 46.4946H228.395C228.323 46.4946 228.263 46.4706 228.215 46.4226C228.167 46.3746 228.143 46.3186 228.143 46.2546C228.151 45.9106 228.223 45.5786 228.359 45.2586C228.495 44.9306 228.691 44.6426 228.947 44.3946C229.211 44.1386 229.531 43.9346 229.907 43.7826C230.283 43.6306 230.707 43.5546 231.179 43.5546C231.843 43.5546 232.391 43.6666 232.823 43.8906C233.263 44.1146 233.591 44.4186 233.807 44.8026C234.031 45.1866 234.143 45.6186 234.143 46.0986C234.143 46.4746 234.071 46.8226 233.927 47.1426C233.783 47.4546 233.575 47.7586 233.303 48.0546C233.031 48.3426 232.703 48.6386 232.319 48.9426L230.615 50.6706H234.035C234.123 50.6706 234.191 50.6986 234.239 50.7546C234.295 50.8026 234.323 50.8706 234.323 50.9586V51.8106C234.323 51.8906 234.295 51.9586 234.239 52.0146C234.191 52.0706 234.123 52.0986 234.035 52.0986H228.299ZM239.319 52.0986C239.239 52.0986 239.171 52.0706 239.115 52.0146C239.059 51.9586 239.031 51.8906 239.031 51.8106V50.2746H235.227C235.139 50.2746 235.067 50.2466 235.011 50.1906C234.963 50.1346 234.939 50.0666 234.939 49.9866V49.1706C234.939 49.1226 234.947 49.0666 234.963 49.0026C234.987 48.9306 235.023 48.8666 235.071 48.8106L238.611 43.9026C238.715 43.7666 238.863 43.6986 239.055 43.6986H240.363C240.443 43.6986 240.511 43.7266 240.567 43.7826C240.623 43.8386 240.651 43.9066 240.651 43.9866V48.8586H241.719C241.815 48.8586 241.887 48.8866 241.935 48.9426C241.991 48.9906 242.019 49.0586 242.019 49.1466V49.9866C242.019 50.0666 241.991 50.1346 241.935 50.1906C241.879 50.2466 241.811 50.2746 241.731 50.2746H240.651V51.8106C240.651 51.8906 240.623 51.9586 240.567 52.0146C240.511 52.0706 240.443 52.0986 240.363 52.0986H239.319ZM236.607 48.9066H239.067V45.4386L236.607 48.9066ZM243.046 52.0986C242.966 52.0986 242.898 52.0706 242.842 52.0146C242.786 51.9586 242.758 51.8906 242.758 51.8106V50.6226C242.758 50.5346 242.786 50.4626 242.842 50.4066C242.898 50.3506 242.966 50.3226 243.046 50.3226H244.246C244.326 50.3226 244.394 50.3506 244.45 50.4066C244.506 50.4626 244.534 50.5346 244.534 50.6226V51.8106C244.534 51.8906 244.506 51.9586 244.45 52.0146C244.394 52.0706 244.326 52.0986 244.246 52.0986H243.046ZM248.816 52.2186C248.248 52.2186 247.764 52.1346 247.364 51.9666C246.964 51.7986 246.636 51.5666 246.38 51.2706C246.124 50.9746 245.932 50.6346 245.804 50.2506C245.676 49.8586 245.6 49.4426 245.576 49.0026C245.568 48.7866 245.56 48.5506 245.552 48.2946C245.552 48.0306 245.552 47.7666 245.552 47.5026C245.56 47.2386 245.568 46.9946 245.576 46.7706C245.592 46.3306 245.668 45.9186 245.804 45.5346C245.94 45.1426 246.136 44.8026 246.392 44.5146C246.656 44.2266 246.988 43.9986 247.388 43.8306C247.788 43.6626 248.264 43.5786 248.816 43.5786C249.376 43.5786 249.856 43.6626 250.256 43.8306C250.656 43.9986 250.984 44.2266 251.24 44.5146C251.504 44.8026 251.7 45.1426 251.828 45.5346C251.964 45.9186 252.04 46.3306 252.056 46.7706C252.072 46.9946 252.08 47.2386 252.08 47.5026C252.08 47.7666 252.08 48.0306 252.08 48.2946C252.08 48.5506 252.072 48.7866 252.056 49.0026C252.04 49.4426 251.968 49.8586 251.84 50.2506C251.712 50.6346 251.52 50.9746 251.264 51.2706C251.008 51.5666 250.676 51.7986 250.268 51.9666C249.868 52.1346 249.384 52.2186 248.816 52.2186ZM248.816 50.8386C249.336 50.8386 249.716 50.6706 249.956 50.3346C250.204 49.9906 250.332 49.5266 250.34 48.9426C250.356 48.7106 250.364 48.4786 250.364 48.2466C250.364 48.0066 250.364 47.7666 250.364 47.5266C250.364 47.2866 250.356 47.0586 250.34 46.8426C250.332 46.2746 250.204 45.8186 249.956 45.4746C249.716 45.1226 249.336 44.9466 248.816 44.9466C248.304 44.9466 247.924 45.1226 247.676 45.4746C247.436 45.8186 247.308 46.2746 247.292 46.8426C247.292 47.0586 247.288 47.2866 247.28 47.5266C247.28 47.7666 247.28 48.0066 247.28 48.2466C247.288 48.4786 247.292 48.7106 247.292 48.9426C247.308 49.5266 247.44 49.9906 247.688 50.3346C247.936 50.6706 248.312 50.8386 248.816 50.8386ZM256.463 52.2186C255.895 52.2186 255.411 52.1346 255.011 51.9666C254.611 51.7986 254.283 51.5666 254.027 51.2706C253.771 50.9746 253.579 50.6346 253.451 50.2506C253.323 49.8586 253.247 49.4426 253.223 49.0026C253.215 48.7866 253.207 48.5506 253.199 48.2946C253.199 48.0306 253.199 47.7666 253.199 47.5026C253.207 47.2386 253.215 46.9946 253.223 46.7706C253.239 46.3306 253.315 45.9186 253.451 45.5346C253.587 45.1426 253.783 44.8026 254.039 44.5146C254.303 44.2266 254.635 43.9986 255.035 43.8306C255.435 43.6626 255.911 43.5786 256.463 43.5786C257.023 43.5786 257.503 43.6626 257.903 43.8306C258.303 43.9986 258.631 44.2266 258.887 44.5146C259.151 44.8026 259.347 45.1426 259.475 45.5346C259.611 45.9186 259.687 46.3306 259.703 46.7706C259.719 46.9946 259.727 47.2386 259.727 47.5026C259.727 47.7666 259.727 48.0306 259.727 48.2946C259.727 48.5506 259.719 48.7866 259.703 49.0026C259.687 49.4426 259.615 49.8586 259.487 50.2506C259.359 50.6346 259.167 50.9746 258.911 51.2706C258.655 51.5666 258.323 51.7986 257.915 51.9666C257.515 52.1346 257.031 52.2186 256.463 52.2186ZM256.463 50.8386C256.983 50.8386 257.363 50.6706 257.603 50.3346C257.851 49.9906 257.979 49.5266 257.987 48.9426C258.003 48.7106 258.011 48.4786 258.011 48.2466C258.011 48.0066 258.011 47.7666 258.011 47.5266C258.011 47.2866 258.003 47.0586 257.987 46.8426C257.979 46.2746 257.851 45.8186 257.603 45.4746C257.363 45.1226 256.983 44.9466 256.463 44.9466C255.951 44.9466 255.571 45.1226 255.323 45.4746C255.083 45.8186 254.955 46.2746 254.939 46.8426C254.939 47.0586 254.935 47.2866 254.927 47.5266C254.927 47.7666 254.927 48.0066 254.927 48.2466C254.935 48.4786 254.939 48.7106 254.939 48.9426C254.955 49.5266 255.087 49.9906 255.335 50.3346C255.583 50.6706 255.959 50.8386 256.463 50.8386Z" fill="#A8A8A8"/>
</g>
<g opacity="0.75" filter="url(#filter3_dddddd_1_1132)">
<rect x="-111" y="21.5151" width="188" height="48" rx="12" fill="#F1F1F1"/>
<rect x="-110.25" y="22.2651" width="186.5" height="46.5" rx="11.25" stroke="url(#paint2_linear_1_1132)" stroke-width="1.5"/>
</g>
<path d="M27.48 56.7151C27.4 56.7151 27.332 56.6871 27.276 56.6311C27.22 56.5751 27.192 56.5071 27.192 56.4271V55.5871C26.6 55.5311 26.1 55.3911 25.692 55.1671C25.284 54.9351 24.976 54.6591 24.768 54.3391C24.56 54.0111 24.448 53.6711 24.432 53.3191C24.432 53.2471 24.456 53.1871 24.504 53.1391C24.56 53.0911 24.624 53.0671 24.696 53.0671H25.764C25.86 53.0671 25.936 53.0911 25.992 53.1391C26.048 53.1791 26.092 53.2311 26.124 53.2951C26.18 53.4471 26.272 53.5991 26.4 53.7511C26.536 53.8951 26.724 54.0151 26.964 54.1111C27.204 54.2071 27.504 54.2551 27.864 54.2551C28.44 54.2551 28.868 54.1591 29.148 53.9671C29.428 53.7751 29.568 53.5151 29.568 53.1871C29.568 52.9551 29.492 52.7711 29.34 52.6351C29.196 52.4911 28.964 52.3631 28.644 52.2511C28.324 52.1311 27.904 52.0071 27.384 51.8791C26.792 51.7351 26.292 51.5631 25.884 51.3631C25.476 51.1551 25.168 50.8951 24.96 50.5831C24.76 50.2711 24.66 49.8751 24.66 49.3951C24.66 48.7791 24.884 48.2551 25.332 47.8231C25.78 47.3911 26.4 47.1271 27.192 47.0311V46.2031C27.192 46.1231 27.22 46.0551 27.276 45.9991C27.332 45.9431 27.4 45.9151 27.48 45.9151H28.212C28.292 45.9151 28.36 45.9431 28.416 45.9991C28.472 46.0551 28.5 46.1231 28.5 46.2031V47.0551C29.044 47.1351 29.5 47.2951 29.868 47.5351C30.236 47.7751 30.516 48.0511 30.708 48.3631C30.9 48.6671 31 48.9631 31.008 49.2511C31.008 49.3151 30.984 49.3751 30.936 49.4311C30.896 49.4791 30.836 49.5031 30.756 49.5031H29.64C29.568 49.5031 29.5 49.4871 29.436 49.4551C29.372 49.4231 29.32 49.3631 29.28 49.2751C29.24 49.0271 29.088 48.8151 28.824 48.6391C28.56 48.4631 28.216 48.3751 27.792 48.3751C27.36 48.3751 27.012 48.4551 26.748 48.6151C26.492 48.7751 26.364 49.0231 26.364 49.3591C26.364 49.5831 26.428 49.7711 26.556 49.9231C26.684 50.0671 26.892 50.1951 27.18 50.3071C27.476 50.4191 27.868 50.5391 28.356 50.6671C29.036 50.8191 29.588 50.9951 30.012 51.1951C30.444 51.3951 30.76 51.6511 30.96 51.9631C31.168 52.2671 31.272 52.6551 31.272 53.1271C31.272 53.5911 31.156 53.9991 30.924 54.3511C30.7 54.6951 30.38 54.9751 29.964 55.1911C29.548 55.3991 29.06 55.5351 28.5 55.5991V56.4271C28.5 56.5071 28.472 56.5751 28.416 56.6311C28.36 56.6871 28.292 56.7151 28.212 56.7151H27.48ZM36.2109 55.5151C36.1309 55.5151 36.0629 55.4871 36.0069 55.4311C35.9509 55.3751 35.9229 55.3071 35.9229 55.2271V53.6911H32.1189C32.0309 53.6911 31.9589 53.6631 31.9029 53.6071C31.8549 53.5511 31.8309 53.4831 31.8309 53.4031V52.5871C31.8309 52.5391 31.8389 52.4831 31.8549 52.4191C31.8789 52.3471 31.9149 52.2831 31.9629 52.2271L35.5029 47.3191C35.6069 47.1831 35.7549 47.1151 35.9469 47.1151H37.2549C37.3349 47.1151 37.4029 47.1431 37.4589 47.1991C37.5149 47.2551 37.5429 47.3231 37.5429 47.4031V52.2751H38.6109C38.7069 52.2751 38.7789 52.3031 38.8269 52.3591C38.8829 52.4071 38.9109 52.4751 38.9109 52.5631V53.4031C38.9109 53.4831 38.8829 53.5511 38.8269 53.6071C38.7709 53.6631 38.7029 53.6911 38.6229 53.6911H37.5429V55.2271C37.5429 55.3071 37.5149 55.3751 37.4589 55.4311C37.4029 55.4871 37.3349 55.5151 37.2549 55.5151H36.2109ZM33.4989 52.3231H35.9589V48.8551L33.4989 52.3231ZM42.9951 55.6351C42.4671 55.6351 41.9951 55.5711 41.5791 55.4431C41.1631 55.3151 40.8111 55.1351 40.5231 54.9031C40.2431 54.6711 40.0271 54.3991 39.8751 54.0871C39.7311 53.7751 39.6591 53.4271 39.6591 53.0431C39.6591 52.5791 39.7711 52.1791 39.9951 51.8431C40.2271 51.4991 40.5271 51.2351 40.8951 51.0511C40.5991 50.8671 40.3671 50.6311 40.1991 50.3431C40.0391 50.0551 39.9591 49.7191 39.9591 49.3351C39.9591 48.8711 40.0751 48.4671 40.3071 48.1231C40.5471 47.7711 40.8911 47.4951 41.3391 47.2951C41.7951 47.0951 42.3471 46.9951 42.9951 46.9951C43.6431 46.9951 44.1911 47.0951 44.6391 47.2951C45.0871 47.4871 45.4271 47.7591 45.6591 48.1111C45.8911 48.4551 46.0071 48.8591 46.0071 49.3231C46.0071 49.7071 45.9271 50.0431 45.7671 50.3311C45.6071 50.6191 45.3831 50.8591 45.0951 51.0511C45.4711 51.2271 45.7711 51.4911 45.9951 51.8431C46.2191 52.1871 46.3311 52.5911 46.3311 53.0551C46.3311 53.5591 46.1991 54.0071 45.9351 54.3991C45.6791 54.7831 45.2991 55.0871 44.7951 55.3111C44.2991 55.5271 43.6991 55.6351 42.9951 55.6351ZM42.9951 54.3871C43.3071 54.3871 43.5871 54.3351 43.8351 54.2311C44.0911 54.1191 44.2911 53.9631 44.4351 53.7631C44.5871 53.5631 44.6631 53.3271 44.6631 53.0551C44.6631 52.7751 44.5871 52.5391 44.4351 52.3471C44.2911 52.1471 44.0911 51.9951 43.8351 51.8911C43.5871 51.7791 43.3071 51.7231 42.9951 51.7231C42.6831 51.7231 42.3991 51.7791 42.1431 51.8911C41.8951 51.9951 41.6951 52.1471 41.5431 52.3471C41.3991 52.5391 41.3271 52.7751 41.3271 53.0551C41.3271 53.3271 41.3991 53.5631 41.5431 53.7631C41.6951 53.9631 41.8951 54.1191 42.1431 54.2311C42.3991 54.3351 42.6831 54.3871 42.9951 54.3871ZM42.9951 50.5351C43.2591 50.5271 43.4991 50.4751 43.7151 50.3791C43.9391 50.2831 44.1151 50.1551 44.2431 49.9951C44.3791 49.8271 44.4471 49.6271 44.4471 49.3951C44.4471 49.1631 44.3831 48.9631 44.2551 48.7951C44.1351 48.6191 43.9631 48.4831 43.7391 48.3871C43.5231 48.2911 43.2751 48.2431 42.9951 48.2431C42.7151 48.2431 42.4631 48.2911 42.2391 48.3871C42.0231 48.4831 41.8511 48.6191 41.7231 48.7951C41.6031 48.9631 41.5431 49.1631 41.5431 49.3951C41.5431 49.6271 41.6031 49.8271 41.7231 49.9951C41.8511 50.1631 42.0231 50.2951 42.2391 50.3911C42.4631 50.4871 42.7151 50.5351 42.9951 50.5351ZM47.62 55.5151C47.54 55.5151 47.472 55.4871 47.416 55.4311C47.36 55.3751 47.332 55.3071 47.332 55.2271V54.0391C47.332 53.9511 47.36 53.8791 47.416 53.8231C47.472 53.7671 47.54 53.7391 47.62 53.7391H48.82C48.9 53.7391 48.968 53.7671 49.024 53.8231C49.08 53.8791 49.108 53.9511 49.108 54.0391V55.2271C49.108 55.3071 49.08 55.3751 49.024 55.4311C48.968 55.4871 48.9 55.5151 48.82 55.5151H47.62ZM53.3901 55.6351C52.8221 55.6351 52.3381 55.5511 51.9381 55.3831C51.5381 55.2151 51.2101 54.9831 50.9541 54.6871C50.6981 54.3911 50.5061 54.0511 50.3781 53.6671C50.2501 53.2751 50.1741 52.8591 50.1501 52.4191C50.1421 52.2031 50.1341 51.9671 50.1261 51.7111C50.1261 51.4471 50.1261 51.1831 50.1261 50.9191C50.1341 50.6551 50.1421 50.4111 50.1501 50.1871C50.1661 49.7471 50.2421 49.3351 50.3781 48.9511C50.5141 48.5591 50.7101 48.2191 50.9661 47.9311C51.2301 47.6431 51.5621 47.4151 51.9621 47.2471C52.3621 47.0791 52.8381 46.9951 53.3901 46.9951C53.9501 46.9951 54.4301 47.0791 54.8301 47.2471C55.2301 47.4151 55.5581 47.6431 55.8141 47.9311C56.0781 48.2191 56.2741 48.5591 56.4021 48.9511C56.5381 49.3351 56.6141 49.7471 56.6301 50.1871C56.6461 50.4111 56.6541 50.6551 56.6541 50.9191C56.6541 51.1831 56.6541 51.4471 56.6541 51.7111C56.6541 51.9671 56.6461 52.2031 56.6301 52.4191C56.6141 52.8591 56.5421 53.2751 56.4141 53.6671C56.2861 54.0511 56.0941 54.3911 55.8381 54.6871C55.5821 54.9831 55.2501 55.2151 54.8421 55.3831C54.4421 55.5511 53.9581 55.6351 53.3901 55.6351ZM53.3901 54.2551C53.9101 54.2551 54.2901 54.0871 54.5301 53.7511C54.7781 53.4071 54.9061 52.9431 54.9141 52.3591C54.9301 52.1271 54.9381 51.8951 54.9381 51.6631C54.9381 51.4231 54.9381 51.1831 54.9381 50.9431C54.9381 50.7031 54.9301 50.4751 54.9141 50.2591C54.9061 49.6911 54.7781 49.2351 54.5301 48.8911C54.2901 48.5391 53.9101 48.3631 53.3901 48.3631C52.8781 48.3631 52.4981 48.5391 52.2501 48.8911C52.0101 49.2351 51.8821 49.6911 51.8661 50.2591C51.8661 50.4751 51.8621 50.7031 51.8541 50.9431C51.8541 51.1831 51.8541 51.4231 51.8541 51.6631C51.8621 51.8951 51.8661 52.1271 51.8661 52.3591C51.8821 52.9431 52.0141 53.4071 52.2621 53.7511C52.5101 54.0871 52.8861 54.2551 53.3901 54.2551ZM61.0368 55.6351C60.4688 55.6351 59.9848 55.5511 59.5848 55.3831C59.1848 55.2151 58.8568 54.9831 58.6008 54.6871C58.3448 54.3911 58.1528 54.0511 58.0248 53.6671C57.8968 53.2751 57.8208 52.8591 57.7968 52.4191C57.7888 52.2031 57.7808 51.9671 57.7728 51.7111C57.7728 51.4471 57.7728 51.1831 57.7728 50.9191C57.7808 50.6551 57.7888 50.4111 57.7968 50.1871C57.8128 49.7471 57.8888 49.3351 58.0248 48.9511C58.1608 48.5591 58.3568 48.2191 58.6128 47.9311C58.8768 47.6431 59.2088 47.4151 59.6088 47.2471C60.0088 47.0791 60.4848 46.9951 61.0368 46.9951C61.5968 46.9951 62.0768 47.0791 62.4768 47.2471C62.8768 47.4151 63.2048 47.6431 63.4608 47.9311C63.7248 48.2191 63.9208 48.5591 64.0488 48.9511C64.1848 49.3351 64.2608 49.7471 64.2768 50.1871C64.2928 50.4111 64.3008 50.6551 64.3008 50.9191C64.3008 51.1831 64.3008 51.4471 64.3008 51.7111C64.3008 51.9671 64.2928 52.2031 64.2768 52.4191C64.2608 52.8591 64.1888 53.2751 64.0608 53.6671C63.9328 54.0511 63.7408 54.3911 63.4848 54.6871C63.2288 54.9831 62.8968 55.2151 62.4888 55.3831C62.0888 55.5511 61.6048 55.6351 61.0368 55.6351ZM61.0368 54.2551C61.5568 54.2551 61.9368 54.0871 62.1768 53.7511C62.4248 53.4071 62.5528 52.9431 62.5608 52.3591C62.5768 52.1271 62.5848 51.8951 62.5848 51.6631C62.5848 51.4231 62.5848 51.1831 62.5848 50.9431C62.5848 50.7031 62.5768 50.4751 62.5608 50.2591C62.5528 49.6911 62.4248 49.2351 62.1768 48.8911C61.9368 48.5391 61.5568 48.3631 61.0368 48.3631C60.5248 48.3631 60.1448 48.5391 59.8968 48.8911C59.6568 49.2351 59.5288 49.6911 59.5128 50.2591C59.5128 50.4751 59.5088 50.7031 59.5008 50.9431C59.5008 51.1831 59.5008 51.4231 59.5008 51.6631C59.5088 51.8951 59.5128 52.1271 59.5128 52.3591C59.5288 52.9431 59.6608 53.4071 59.9088 53.7511C60.1568 54.0871 60.5328 54.2551 61.0368 54.2551Z" fill="#A8A8A8"/>
<g opacity="0.75" filter="url(#filter4_dddddd_1_1132)">
<rect x="281" y="21.5151" width="188" height="48" rx="12" fill="#F1F1F1"/>
<rect x="281.75" y="22.2651" width="186.5" height="46.5" rx="11.25" stroke="url(#paint3_linear_1_1132)" stroke-width="1.5"/>
</g>
<path d="M293 43.719C293 38.0836 297.568 33.5151 303.204 33.5151C308.839 33.5151 313.408 38.0836 313.408 43.719C313.408 49.3544 308.839 53.9228 303.204 53.9228C297.568 53.9228 293 49.3544 293 43.719Z" fill="url(#paint4_linear_1_1132)"/>
<path d="M322.632 47.719C322.552 47.719 322.484 47.691 322.428 47.635C322.372 47.579 322.344 47.511 322.344 47.431V39.619C322.344 39.531 322.372 39.459 322.428 39.403C322.484 39.347 322.552 39.319 322.632 39.319H325.848C326.472 39.319 327.016 39.419 327.48 39.619C327.944 39.811 328.304 40.107 328.56 40.507C328.816 40.899 328.944 41.391 328.944 41.983C328.944 42.583 328.816 43.079 328.56 43.471C328.304 43.855 327.944 44.143 327.48 44.335C327.016 44.527 326.472 44.623 325.848 44.623H324.06V47.431C324.06 47.511 324.032 47.579 323.976 47.635C323.928 47.691 323.86 47.719 323.772 47.719H322.632ZM324.036 43.291H325.788C326.252 43.291 326.608 43.183 326.856 42.967C327.104 42.743 327.228 42.415 327.228 41.983C327.228 41.583 327.112 41.263 326.88 41.023C326.648 40.775 326.284 40.651 325.788 40.651H324.036V43.291ZM332.476 47.839C331.588 47.839 330.884 47.583 330.364 47.071C329.844 46.559 329.564 45.831 329.524 44.887C329.516 44.807 329.512 44.707 329.512 44.587C329.512 44.459 329.516 44.359 329.524 44.287C329.556 43.687 329.692 43.167 329.932 42.727C330.18 42.287 330.52 41.951 330.952 41.719C331.384 41.479 331.892 41.359 332.476 41.359C333.124 41.359 333.668 41.495 334.108 41.767C334.548 42.031 334.88 42.403 335.104 42.883C335.328 43.355 335.44 43.903 335.44 44.527V44.779C335.44 44.859 335.412 44.927 335.356 44.983C335.3 45.039 335.228 45.067 335.14 45.067H331.156C331.156 45.067 331.156 45.079 331.156 45.103C331.156 45.127 331.156 45.147 331.156 45.163C331.164 45.443 331.216 45.703 331.312 45.943C331.416 46.175 331.564 46.363 331.756 46.507C331.956 46.651 332.192 46.723 332.464 46.723C332.688 46.723 332.876 46.691 333.028 46.627C333.18 46.555 333.304 46.475 333.4 46.387C333.496 46.299 333.564 46.227 333.604 46.171C333.676 46.075 333.732 46.019 333.772 46.003C333.82 45.979 333.888 45.967 333.976 45.967H335.008C335.088 45.967 335.152 45.991 335.2 46.039C335.256 46.087 335.28 46.147 335.272 46.219C335.264 46.347 335.196 46.503 335.068 46.687C334.948 46.871 334.772 47.051 334.54 47.227C334.308 47.403 334.016 47.551 333.664 47.671C333.32 47.783 332.924 47.839 332.476 47.839ZM331.156 44.059H333.808V44.023C333.808 43.711 333.756 43.439 333.652 43.207C333.548 42.975 333.396 42.791 333.196 42.655C332.996 42.519 332.756 42.451 332.476 42.451C332.196 42.451 331.956 42.519 331.756 42.655C331.556 42.791 331.404 42.975 331.3 43.207C331.204 43.439 331.156 43.711 331.156 44.023V44.059ZM336.762 47.719C336.682 47.719 336.614 47.691 336.558 47.635C336.502 47.579 336.474 47.511 336.474 47.431V41.767C336.474 41.687 336.502 41.619 336.558 41.563C336.614 41.507 336.682 41.479 336.762 41.479H337.746C337.826 41.479 337.894 41.507 337.95 41.563C338.006 41.619 338.034 41.687 338.034 41.767V42.259C338.242 42.003 338.506 41.791 338.826 41.623C339.154 41.447 339.558 41.359 340.038 41.359C340.526 41.359 340.95 41.471 341.31 41.695C341.67 41.911 341.946 42.219 342.138 42.619C342.338 43.019 342.438 43.499 342.438 44.059V47.431C342.438 47.511 342.41 47.579 342.354 47.635C342.298 47.691 342.23 47.719 342.15 47.719H341.094C341.014 47.719 340.946 47.691 340.89 47.635C340.834 47.579 340.806 47.511 340.806 47.431V44.131C340.806 43.667 340.69 43.303 340.458 43.039C340.234 42.775 339.906 42.643 339.474 42.643C339.058 42.643 338.726 42.775 338.478 43.039C338.23 43.303 338.106 43.667 338.106 44.131V47.431C338.106 47.511 338.078 47.579 338.022 47.635C337.966 47.691 337.898 47.719 337.818 47.719H336.762ZM346.038 47.839C345.622 47.839 345.254 47.771 344.934 47.635C344.622 47.491 344.362 47.291 344.154 47.035C343.946 46.779 343.786 46.479 343.674 46.135C343.562 45.783 343.498 45.399 343.482 44.983C343.474 44.839 343.47 44.711 343.47 44.599C343.47 44.479 343.474 44.347 343.482 44.203C343.498 43.803 343.558 43.431 343.662 43.087C343.774 42.743 343.934 42.443 344.142 42.187C344.358 41.923 344.622 41.719 344.934 41.575C345.254 41.431 345.622 41.359 346.038 41.359C346.47 41.359 346.834 41.435 347.13 41.587C347.434 41.731 347.686 41.919 347.886 42.151V39.487C347.886 39.407 347.91 39.339 347.958 39.283C348.014 39.227 348.086 39.199 348.174 39.199H349.194C349.274 39.199 349.342 39.227 349.398 39.283C349.454 39.339 349.482 39.407 349.482 39.487V47.431C349.482 47.511 349.454 47.579 349.398 47.635C349.342 47.691 349.274 47.719 349.194 47.719H348.246C348.158 47.719 348.086 47.691 348.03 47.635C347.982 47.579 347.958 47.511 347.958 47.431V46.987C347.758 47.235 347.502 47.439 347.19 47.599C346.886 47.759 346.502 47.839 346.038 47.839ZM346.482 46.555C346.818 46.555 347.086 46.479 347.286 46.327C347.486 46.175 347.634 45.983 347.73 45.751C347.826 45.511 347.878 45.267 347.886 45.019C347.894 44.875 347.898 44.723 347.898 44.563C347.898 44.395 347.894 44.239 347.886 44.095C347.878 43.855 347.822 43.627 347.718 43.411C347.614 43.187 347.462 43.003 347.262 42.859C347.062 42.715 346.802 42.643 346.482 42.643C346.146 42.643 345.878 42.719 345.678 42.871C345.486 43.015 345.346 43.207 345.258 43.447C345.17 43.687 345.118 43.951 345.102 44.239C345.094 44.479 345.094 44.719 345.102 44.959C345.118 45.247 345.17 45.511 345.258 45.751C345.346 45.991 345.486 46.187 345.678 46.339C345.878 46.483 346.146 46.555 346.482 46.555ZM351.129 47.719C351.049 47.719 350.981 47.691 350.925 47.635C350.869 47.579 350.841 47.511 350.841 47.431V41.767C350.841 41.687 350.869 41.619 350.925 41.563C350.981 41.507 351.049 41.479 351.129 41.479H352.125C352.213 41.479 352.281 41.507 352.329 41.563C352.385 41.619 352.413 41.687 352.413 41.767V47.431C352.413 47.511 352.385 47.579 352.329 47.635C352.281 47.691 352.213 47.719 352.125 47.719H351.129ZM351.081 40.447C350.993 40.447 350.921 40.423 350.865 40.375C350.817 40.319 350.793 40.247 350.793 40.159V39.295C350.793 39.215 350.817 39.147 350.865 39.091C350.921 39.035 350.993 39.007 351.081 39.007H352.173C352.261 39.007 352.333 39.035 352.389 39.091C352.445 39.147 352.473 39.215 352.473 39.295V40.159C352.473 40.247 352.445 40.319 352.389 40.375C352.333 40.423 352.261 40.447 352.173 40.447H351.081ZM354.053 47.719C353.973 47.719 353.905 47.691 353.849 47.635C353.793 47.579 353.765 47.511 353.765 47.431V41.767C353.765 41.687 353.793 41.619 353.849 41.563C353.905 41.507 353.973 41.479 354.053 41.479H355.037C355.117 41.479 355.185 41.507 355.241 41.563C355.297 41.619 355.325 41.687 355.325 41.767V42.259C355.533 42.003 355.797 41.791 356.117 41.623C356.445 41.447 356.849 41.359 357.329 41.359C357.817 41.359 358.241 41.471 358.601 41.695C358.961 41.911 359.237 42.219 359.429 42.619C359.629 43.019 359.729 43.499 359.729 44.059V47.431C359.729 47.511 359.701 47.579 359.645 47.635C359.589 47.691 359.521 47.719 359.441 47.719H358.385C358.305 47.719 358.237 47.691 358.181 47.635C358.125 47.579 358.097 47.511 358.097 47.431V44.131C358.097 43.667 357.981 43.303 357.749 43.039C357.525 42.775 357.197 42.643 356.765 42.643C356.349 42.643 356.017 42.775 355.769 43.039C355.521 43.303 355.397 43.667 355.397 44.131V47.431C355.397 47.511 355.369 47.579 355.313 47.635C355.257 47.691 355.189 47.719 355.109 47.719H354.053ZM363.834 50.359C363.25 50.359 362.77 50.283 362.394 50.131C362.018 49.979 361.722 49.795 361.506 49.579C361.29 49.363 361.134 49.147 361.038 48.931C360.95 48.723 360.902 48.559 360.894 48.439C360.886 48.359 360.91 48.287 360.966 48.223C361.03 48.167 361.102 48.139 361.182 48.139H362.226C362.306 48.139 362.37 48.155 362.418 48.187C362.466 48.227 362.506 48.295 362.538 48.391C362.586 48.495 362.65 48.607 362.73 48.727C362.81 48.847 362.93 48.947 363.09 49.027C363.258 49.115 363.486 49.159 363.774 49.159C364.078 49.159 364.334 49.115 364.542 49.027C364.75 48.939 364.906 48.791 365.01 48.583C365.122 48.375 365.178 48.087 365.178 47.719V46.903C364.986 47.135 364.738 47.323 364.434 47.467C364.138 47.611 363.77 47.683 363.33 47.683C362.898 47.683 362.526 47.615 362.214 47.479C361.902 47.335 361.642 47.139 361.434 46.891C361.226 46.635 361.066 46.335 360.954 45.991C360.85 45.647 360.79 45.267 360.774 44.851C360.766 44.635 360.766 44.419 360.774 44.203C360.79 43.803 360.85 43.431 360.954 43.087C361.058 42.743 361.214 42.443 361.422 42.187C361.638 41.923 361.902 41.719 362.214 41.575C362.526 41.431 362.898 41.359 363.33 41.359C363.786 41.359 364.17 41.447 364.482 41.623C364.794 41.791 365.05 42.003 365.25 42.259V41.779C365.25 41.691 365.278 41.619 365.334 41.563C365.39 41.507 365.458 41.479 365.538 41.479H366.51C366.59 41.479 366.658 41.507 366.714 41.563C366.77 41.619 366.798 41.691 366.798 41.779L366.81 47.563C366.81 48.139 366.702 48.635 366.486 49.051C366.27 49.467 365.942 49.787 365.502 50.011C365.07 50.243 364.514 50.359 363.834 50.359ZM363.774 46.411C364.102 46.411 364.366 46.339 364.566 46.195C364.766 46.051 364.914 45.863 365.01 45.631C365.106 45.399 365.162 45.163 365.178 44.923C365.186 44.819 365.19 44.687 365.19 44.527C365.19 44.367 365.186 44.239 365.178 44.143C365.162 43.895 365.106 43.659 365.01 43.435C364.914 43.203 364.766 43.015 364.566 42.871C364.366 42.719 364.102 42.643 363.774 42.643C363.446 42.643 363.182 42.719 362.982 42.871C362.782 43.015 362.638 43.207 362.55 43.447C362.47 43.687 362.422 43.951 362.406 44.239C362.39 44.431 362.39 44.627 362.406 44.827C362.422 45.107 362.47 45.371 362.55 45.619C362.638 45.859 362.782 46.051 362.982 46.195C363.182 46.339 363.446 46.411 363.774 46.411Z" fill="#1B1B1B"/>
</g>
<path d="M25 4.7749C13.6782 4.7749 4.5 13.9531 4.5 25.2749V435.275C4.5 446.597 13.6782 455.775 25 455.775H353C364.322 455.775 373.5 446.597 373.5 435.275V25.2749C373.5 13.9531 364.322 4.7749 353 4.7749H25Z" stroke="#F4F6F6" stroke-width="9"/>
<defs>
<filter id="filter0_dddddd_1_1132" x="-21.6029" y="45.963" width="389.205" height="540.19" filterUnits="userSpaceOnUse" color-interpolation-filters="sRGB">
<feFlood flood-opacity="0" result="BackgroundImageFix"/>
<feColorMatrix in="SourceAlpha" type="matrix" values="0 0 0 0 0 0 0 0 0 0 0 0 0 0 0 0 0 0 127 0" result="hardAlpha"/>
<feMorphology radius="6.71044" operator="erode" in="SourceAlpha" result="effect1_dropShadow_1_1132"/>
<feOffset dy="8.38805"/>
<feGaussianBlur stdDeviation="1.25821"/>
<feComposite in2="hardAlpha" operator="out"/>
<feColorMatrix type="matrix" values="0 0 0 0 0.0313726 0 0 0 0 0.0313726 0 0 0 0 0.0313726 0 0 0 0.05 0"/>
<feBlend mode="normal" in2="BackgroundImageFix" result="effect1_dropShadow_1_1132"/>
<feColorMatrix in="SourceAlpha" type="matrix" values="0 0 0 0 0 0 0 0 0 0 0 0 0 0 0 0 0 0 127 0" result="hardAlpha"/>
<feMorphology radius="6.71044" operator="erode" in="SourceAlpha" result="effect2_dropShadow_1_1132"/>
<feOffset dy="10.0657"/>
<feGaussianBlur stdDeviation="3.35522"/>
<feComposite in2="hardAlpha" operator="out"/>
<feColorMatrix type="matrix" values="0 0 0 0 0.0313726 0 0 0 0 0.0313726 0 0 0 0 0.0313726 0 0 0 0.05 0"/>
<feBlend mode="normal" in2="effect1_dropShadow_1_1132" result="effect2_dropShadow_1_1132"/>
<feColorMatrix in="SourceAlpha" type="matrix" values="0 0 0 0 0 0 0 0 0 0 0 0 0 0 0 0 0 0 127 0" result="hardAlpha"/>
<feOffset dy="10.0657"/>
<feGaussianBlur stdDeviation="10.9045"/>
<feComposite in2="hardAlpha" operator="out"/>
<feColorMatrix type="matrix" values="0 0 0 0 0.0313726 0 0 0 0 0.0313726 0 0 0 0 0.0313726 0 0 0 0.03 0"/>
<feBlend mode="normal" in2="effect2_dropShadow_1_1132" result="effect3_dropShadow_1_1132"/>
<feColorMatrix in="SourceAlpha" type="matrix" values="0 0 0 0 0 0 0 0 0 0 0 0 0 0 0 0 0 0 127 0" result="hardAlpha"/>
<feMorphology radius="26.8417" operator="erode" in="SourceAlpha" result="effect4_dropShadow_1_1132"/>
<feOffset dy="40.2626"/>
<feGaussianBlur stdDeviation="20.1313"/>
<feComposite in2="hardAlpha" operator="out"/>
<feColorMatrix type="matrix" values="0 0 0 0 0.0313726 0 0 0 0 0.0313726 0 0 0 0 0.0313726 0 0 0 0.04 0"/>
<feBlend mode="normal" in2="effect3_dropShadow_1_1132" result="effect4_dropShadow_1_1132"/>
<feColorMatrix in="SourceAlpha" type="matrix" values="0 0 0 0 0 0 0 0 0 0 0 0 0 0 0 0 0 0 127 0" result="hardAlpha"/>
<feMorphology radius="3.35522" operator="erode" in="SourceAlpha" result="effect5_dropShadow_1_1132"/>
<feOffset dy="3.60686"/>
<feGaussianBlur stdDeviation="0.419402"/>
<feComposite in2="hardAlpha" operator="out"/>
<feColorMatrix type="matrix" values="0 0 0 0 0 0 0 0 0 0 0 0 0 0 0 0 0 0 0.25 0"/>
<feBlend mode="normal" in2="effect4_dropShadow_1_1132" result="effect5_dropShadow_1_1132"/>
<feColorMatrix in="SourceAlpha" type="matrix" values="0 0 0 0 0 0 0 0 0 0 0 0 0 0 0 0 0 0 127 0" result="hardAlpha"/>
<feMorphology radius="20.1313" operator="erode" in="SourceAlpha" result="effect6_dropShadow_1_1132"/>
<feOffset dy="53.6835"/>
<feGaussianBlur stdDeviation="53.6835"/>
<feComposite in2="hardAlpha" operator="out"/>
<feColorMatrix type="matrix" values="0 0 0 0 0 0 0 0 0 0 0 0 0 0 0 0 0 0 0.075 0"/>
<feBlend mode="multiply" in2="effect5_dropShadow_1_1132" result="effect6_dropShadow_1_1132"/>
<feBlend mode="normal" in="SourceGraphic" in2="effect6_dropShadow_1_1132" result="shape"/>
</filter>
<filter id="filter1_bdd_1_1132" x="129.142" y="68.1429" width="187.536" height="165.286" filterUnits="userSpaceOnUse" color-interpolation-filters="sRGB">
<feFlood flood-opacity="0" result="BackgroundImageFix"/>
<feGaussianBlur in="BackgroundImageFix" stdDeviation="25.4286"/>
<feComposite in2="SourceAlpha" operator="in" result="effect1_backgroundBlur_1_1132"/>
<feColorMatrix in="SourceAlpha" type="matrix" values="0 0 0 0 0 0 0 0 0 0 0 0 0 0 0 0 0 0 127 0" result="hardAlpha"/>
<feMorphology radius="25.4286" operator="erode" in="SourceAlpha" result="effect2_dropShadow_1_1132"/>
<feOffset dy="12.7143"/>
<feGaussianBlur stdDeviation="25.4286"/>
<feComposite in2="hardAlpha" operator="out"/>
<feColorMatrix type="matrix" values="0 0 0 0 0 0 0 0 0 0 0 0 0 0 0 0 0 0 0.1 0"/>
<feBlend mode="multiply" in2="effect1_backgroundBlur_1_1132" result="effect2_dropShadow_1_1132"/>
<feColorMatrix in="SourceAlpha" type="matrix" values="0 0 0 0 0 0 0 0 0 0 0 0 0 0 0 0 0 0 127 0" result="hardAlpha"/>
<feMorphology radius="12.7143" operator="erode" in="SourceAlpha" result="effect3_dropShadow_1_1132"/>
<feOffset dy="25.4286"/>
<feGaussianBlur stdDeviation="19.0714"/>
<feComposite in2="hardAlpha" operator="out"/>
<feColorMatrix type="matrix" values="0 0 0 0 0 0 0 0 0 0 0 0 0 0 0 0 0 0 0.2 0"/>
<feBlend mode="multiply" in2="effect2_dropShadow_1_1132" result="effect3_dropShadow_1_1132"/>
<feBlend mode="normal" in="SourceGraphic" in2="effect3_dropShadow_1_1132" result="shape"/>
</filter>
<filter id="filter2_bdd_1_1132" x="53" y="-10.4849" width="252" height="112" filterUnits="userSpaceOnUse" color-interpolation-filters="sRGB">
<feFlood flood-opacity="0" result="BackgroundImageFix"/>
<feGaussianBlur in="BackgroundImageFix" stdDeviation="16"/>
<feComposite in2="SourceAlpha" operator="in" result="effect1_backgroundBlur_1_1132"/>
<feColorMatrix in="SourceAlpha" type="matrix" values="0 0 0 0 0 0 0 0 0 0 0 0 0 0 0 0 0 0 127 0" result="hardAlpha"/>
<feMorphology radius="16" operator="erode" in="SourceAlpha" result="effect2_dropShadow_1_1132"/>
<feOffset dy="8"/>
<feGaussianBlur stdDeviation="16"/>
<feComposite in2="hardAlpha" operator="out"/>
<feColorMatrix type="matrix" values="0 0 0 0 0 0 0 0 0 0 0 0 0 0 0 0 0 0 0.1 0"/>
<feBlend mode="multiply" in2="effect1_backgroundBlur_1_1132" result="effect2_dropShadow_1_1132"/>
<feColorMatrix in="SourceAlpha" type="matrix" values="0 0 0 0 0 0 0 0 0 0 0 0 0 0 0 0 0 0 127 0" result="hardAlpha"/>
<feMorphology radius="8" operator="erode" in="SourceAlpha" result="effect3_dropShadow_1_1132"/>
<feOffset dy="16"/>
<feGaussianBlur stdDeviation="12"/>
<feComposite in2="hardAlpha" operator="out"/>
<feColorMatrix type="matrix" values="0 0 0 0 0 0 0 0 0 0 0 0 0 0 0 0 0 0 0.2 0"/>
<feBlend mode="multiply" in2="effect2_dropShadow_1_1132" result="effect3_dropShadow_1_1132"/>
<feBlend mode="normal" in="SourceGraphic" in2="effect3_dropShadow_1_1132" result="shape"/>
</filter>
<filter id="filter3_dddddd_1_1132" x="-163" y="1.51514" width="292" height="152" filterUnits="userSpaceOnUse" color-interpolation-filters="sRGB">
<feFlood flood-opacity="0" result="BackgroundImageFix"/>
<feColorMatrix in="SourceAlpha" type="matrix" values="0 0 0 0 0 0 0 0 0 0 0 0 0 0 0 0 0 0 127 0" result="hardAlpha"/>
<feMorphology radius="4" operator="erode" in="SourceAlpha" result="effect1_dropShadow_1_1132"/>
<feOffset dy="5"/>
<feGaussianBlur stdDeviation="0.75"/>
<feComposite in2="hardAlpha" operator="out"/>
<feColorMatrix type="matrix" values="0 0 0 0 0.0313726 0 0 0 0 0.0313726 0 0 0 0 0.0313726 0 0 0 0.05 0"/>
<feBlend mode="normal" in2="BackgroundImageFix" result="effect1_dropShadow_1_1132"/>
<feColorMatrix in="SourceAlpha" type="matrix" values="0 0 0 0 0 0 0 0 0 0 0 0 0 0 0 0 0 0 127 0" result="hardAlpha"/>
<feMorphology radius="4" operator="erode" in="SourceAlpha" result="effect2_dropShadow_1_1132"/>
<feOffset dy="6"/>
<feGaussianBlur stdDeviation="2"/>
<feComposite in2="hardAlpha" operator="out"/>
<feColorMatrix type="matrix" values="0 0 0 0 0.0313726 0 0 0 0 0.0313726 0 0 0 0 0.0313726 0 0 0 0.05 0"/>
<feBlend mode="normal" in2="effect1_dropShadow_1_1132" result="effect2_dropShadow_1_1132"/>
<feColorMatrix in="SourceAlpha" type="matrix" values="0 0 0 0 0 0 0 0 0 0 0 0 0 0 0 0 0 0 127 0" result="hardAlpha"/>
<feOffset dy="6"/>
<feGaussianBlur stdDeviation="6.5"/>
<feComposite in2="hardAlpha" operator="out"/>
<feColorMatrix type="matrix" values="0 0 0 0 0.0313726 0 0 0 0 0.0313726 0 0 0 0 0.0313726 0 0 0 0.03 0"/>
<feBlend mode="normal" in2="effect2_dropShadow_1_1132" result="effect3_dropShadow_1_1132"/>
<feColorMatrix in="SourceAlpha" type="matrix" values="0 0 0 0 0 0 0 0 0 0 0 0 0 0 0 0 0 0 127 0" result="hardAlpha"/>
<feMorphology radius="16" operator="erode" in="SourceAlpha" result="effect4_dropShadow_1_1132"/>
<feOffset dy="24"/>
<feGaussianBlur stdDeviation="12"/>
<feComposite in2="hardAlpha" operator="out"/>
<feColorMatrix type="matrix" values="0 0 0 0 0.0313726 0 0 0 0 0.0313726 0 0 0 0 0.0313726 0 0 0 0.04 0"/>
<feBlend mode="normal" in2="effect3_dropShadow_1_1132" result="effect4_dropShadow_1_1132"/>
<feColorMatrix in="SourceAlpha" type="matrix" values="0 0 0 0 0 0 0 0 0 0 0 0 0 0 0 0 0 0 127 0" result="hardAlpha"/>
<feMorphology radius="2" operator="erode" in="SourceAlpha" result="effect5_dropShadow_1_1132"/>
<feOffset dy="2.15"/>
<feGaussianBlur stdDeviation="0.25"/>
<feComposite in2="hardAlpha" operator="out"/>
<feColorMatrix type="matrix" values="0 0 0 0 0 0 0 0 0 0 0 0 0 0 0 0 0 0 0.25 0"/>
<feBlend mode="normal" in2="effect4_dropShadow_1_1132" result="effect5_dropShadow_1_1132"/>
<feColorMatrix in="SourceAlpha" type="matrix" values="0 0 0 0 0 0 0 0 0 0 0 0 0 0 0 0 0 0 127 0" result="hardAlpha"/>
<feMorphology radius="12" operator="erode" in="SourceAlpha" result="effect6_dropShadow_1_1132"/>
<feOffset dy="32"/>
<feGaussianBlur stdDeviation="32"/>
<feComposite in2="hardAlpha" operator="out"/>
<feColorMatrix type="matrix" values="0 0 0 0 0 0 0 0 0 0 0 0 0 0 0 0 0 0 0.075 0"/>
<feBlend mode="multiply" in2="effect5_dropShadow_1_1132" result="effect6_dropShadow_1_1132"/>
<feBlend mode="normal" in="SourceGraphic" in2="effect6_dropShadow_1_1132" result="shape"/>
</filter>
<filter id="filter4_dddddd_1_1132" x="229" y="1.51514" width="292" height="152" filterUnits="userSpaceOnUse" color-interpolation-filters="sRGB">
<feFlood flood-opacity="0" result="BackgroundImageFix"/>
<feColorMatrix in="SourceAlpha" type="matrix" values="0 0 0 0 0 0 0 0 0 0 0 0 0 0 0 0 0 0 127 0" result="hardAlpha"/>
<feMorphology radius="4" operator="erode" in="SourceAlpha" result="effect1_dropShadow_1_1132"/>
<feOffset dy="5"/>
<feGaussianBlur stdDeviation="0.75"/>
<feComposite in2="hardAlpha" operator="out"/>
<feColorMatrix type="matrix" values="0 0 0 0 0.0313726 0 0 0 0 0.0313726 0 0 0 0 0.0313726 0 0 0 0.05 0"/>
<feBlend mode="normal" in2="BackgroundImageFix" result="effect1_dropShadow_1_1132"/>
<feColorMatrix in="SourceAlpha" type="matrix" values="0 0 0 0 0 0 0 0 0 0 0 0 0 0 0 0 0 0 127 0" result="hardAlpha"/>
<feMorphology radius="4" operator="erode" in="SourceAlpha" result="effect2_dropShadow_1_1132"/>
<feOffset dy="6"/>
<feGaussianBlur stdDeviation="2"/>
<feComposite in2="hardAlpha" operator="out"/>
<feColorMatrix type="matrix" values="0 0 0 0 0.0313726 0 0 0 0 0.0313726 0 0 0 0 0.0313726 0 0 0 0.05 0"/>
<feBlend mode="normal" in2="effect1_dropShadow_1_1132" result="effect2_dropShadow_1_1132"/>
<feColorMatrix in="SourceAlpha" type="matrix" values="0 0 0 0 0 0 0 0 0 0 0 0 0 0 0 0 0 0 127 0" result="hardAlpha"/>
<feOffset dy="6"/>
<feGaussianBlur stdDeviation="6.5"/>
<feComposite in2="hardAlpha" operator="out"/>
<feColorMatrix type="matrix" values="0 0 0 0 0.0313726 0 0 0 0 0.0313726 0 0 0 0 0.0313726 0 0 0 0.03 0"/>
<feBlend mode="normal" in2="effect2_dropShadow_1_1132" result="effect3_dropShadow_1_1132"/>
<feColorMatrix in="SourceAlpha" type="matrix" values="0 0 0 0 0 0 0 0 0 0 0 0 0 0 0 0 0 0 127 0" result="hardAlpha"/>
<feMorphology radius="16" operator="erode" in="SourceAlpha" result="effect4_dropShadow_1_1132"/>
<feOffset dy="24"/>
<feGaussianBlur stdDeviation="12"/>
<feComposite in2="hardAlpha" operator="out"/>
<feColorMatrix type="matrix" values="0 0 0 0 0.0313726 0 0 0 0 0.0313726 0 0 0 0 0.0313726 0 0 0 0.04 0"/>
<feBlend mode="normal" in2="effect3_dropShadow_1_1132" result="effect4_dropShadow_1_1132"/>
<feColorMatrix in="SourceAlpha" type="matrix" values="0 0 0 0 0 0 0 0 0 0 0 0 0 0 0 0 0 0 127 0" result="hardAlpha"/>
<feMorphology radius="2" operator="erode" in="SourceAlpha" result="effect5_dropShadow_1_1132"/>
<feOffset dy="2.15"/>
<feGaussianBlur stdDeviation="0.25"/>
<feComposite in2="hardAlpha" operator="out"/>
<feColorMatrix type="matrix" values="0 0 0 0 0 0 0 0 0 0 0 0 0 0 0 0 0 0 0.25 0"/>
<feBlend mode="normal" in2="effect4_dropShadow_1_1132" result="effect5_dropShadow_1_1132"/>
<feColorMatrix in="SourceAlpha" type="matrix" values="0 0 0 0 0 0 0 0 0 0 0 0 0 0 0 0 0 0 127 0" result="hardAlpha"/>
<feMorphology radius="12" operator="erode" in="SourceAlpha" result="effect6_dropShadow_1_1132"/>
<feOffset dy="32"/>
<feGaussianBlur stdDeviation="32"/>
<feComposite in2="hardAlpha" operator="out"/>
<feColorMatrix type="matrix" values="0 0 0 0 0 0 0 0 0 0 0 0 0 0 0 0 0 0 0.075 0"/>
<feBlend mode="multiply" in2="effect5_dropShadow_1_1132" result="effect6_dropShadow_1_1132"/>
<feBlend mode="normal" in="SourceGraphic" in2="effect6_dropShadow_1_1132" result="shape"/>
</filter>
<linearGradient id="paint0_linear_1_1132" x1="173" y1="79.5151" x2="173" y2="445.234" gradientUnits="userSpaceOnUse">
<stop stop-color="#F6F6F6"/>
<stop offset="1" stop-color="#E6E6E6"/>
</linearGradient>
<linearGradient id="paint1_linear_1_1132" x1="107.292" y1="33.5151" x2="107.292" y2="54.0987" gradientUnits="userSpaceOnUse">
<stop stop-color="#68BD44"/>
<stop offset="1" stop-color="#0F836C"/>
</linearGradient>
<linearGradient id="paint2_linear_1_1132" x1="-17" y1="21.5151" x2="-17" y2="69.5151" gradientUnits="userSpaceOnUse">
<stop stop-color="#F6F6F6"/>
<stop offset="1" stop-color="#E6E6E6"/>
</linearGradient>
<linearGradient id="paint3_linear_1_1132" x1="375" y1="21.5151" x2="375" y2="69.5151" gradientUnits="userSpaceOnUse">
<stop stop-color="#F6F6F6"/>
<stop offset="1" stop-color="#E6E6E6"/>
</linearGradient>
<linearGradient id="paint4_linear_1_1132" x1="303.204" y1="33.5151" x2="303.204" y2="53.9228" gradientUnits="userSpaceOnUse">
<stop stop-color="#FB9A08"/>
<stop offset="1" stop-color="#D7AA15"/>
</linearGradient>
<clipPath id="clip0_1_1132">
<path d="M9 25.2749C9 16.4383 16.1634 9.2749 25 9.2749H353C361.837 9.2749 369 16.4383 369 25.2749V435.275C369 444.111 361.837 451.275 353 451.275H25C16.1634 451.275 9 444.111 9 435.275V25.2749Z" fill="white"/>
</clipPath>
</defs>
</svg>
