<svg width="31" height="31" viewBox="0 0 31 31" fill="none" xmlns="http://www.w3.org/2000/svg">
<path d="M21.9331 9.99209V10.0057V17.3918C21.9331 18.0577 21.3012 18.6148 20.2846 18.9682C19.4397 19.2671 18.2788 19.4506 17.0081 19.4506C15.332 21.9851 11.719 22.3656 9.54836 20.2184C7.65939 18.3498 7.65939 15.3261 9.54836 13.4575C10.2078 12.8052 11.0527 12.3431 12.0006 12.1529V9.99889C12.0006 9.32619 12.6325 8.77581 13.6491 8.42247C15.4969 7.77695 18.43 7.77695 20.2846 8.42247C21.3012 8.7826 21.9263 9.32619 21.9331 9.99209ZM11.2587 17.9421C11.2313 17.6635 11.4373 17.4189 11.719 17.3918C12.0006 17.3646 12.2479 17.5684 12.2753 17.847C12.3097 18.2411 13.0721 18.4721 13.5118 18.1188C13.6148 18.0373 13.6766 17.9286 13.6766 17.813C13.6766 17.4801 13.2782 17.4053 12.8798 17.3306C12.0693 17.1743 11.2519 17.018 11.2519 15.8561C11.2519 15.1562 11.7877 14.6194 12.4539 14.436V14.2253C12.4539 13.9467 12.6806 13.7157 12.976 13.7157C13.2645 13.7157 13.4912 13.9467 13.4843 14.2321L13.4774 14.436C14.1506 14.6126 14.6864 15.1494 14.6864 15.8561C14.6864 16.1347 14.4597 16.3589 14.1781 16.3589C13.8964 16.3589 13.6698 16.1347 13.6698 15.8561C13.6698 15.4416 12.8798 15.1902 12.4333 15.5503C12.3303 15.6319 12.2685 15.7406 12.2685 15.8561C12.2685 16.1891 12.6669 16.2638 13.0653 16.3385C13.8758 16.4948 14.6932 16.6511 14.6932 17.813C14.6932 18.5129 14.1506 19.0565 13.4774 19.2332V19.4438C13.4774 19.7224 13.2507 19.9534 12.9691 19.9534C12.6875 19.9534 12.4539 19.7292 12.4539 19.4438V19.2332C11.8357 19.0633 11.3206 18.5877 11.2587 17.9421ZM17.5301 18.4314C18.478 18.3838 19.3229 18.2343 19.9549 18.0169C20.5525 17.8062 20.9165 17.582 20.9165 17.3918V16.2366C20.1129 16.6647 18.9314 16.8889 17.8049 16.9637C17.7911 17.4801 17.695 17.9693 17.5301 18.4314ZM17.7225 15.9648C18.636 15.9037 19.4466 15.7474 20.0442 15.5232C20.5799 15.3193 20.9097 15.1087 20.9097 14.932V13.7769C19.9686 14.2729 18.5193 14.5039 17.1935 14.5311C17.4477 14.966 17.6263 15.4484 17.7225 15.9648ZM16.438 13.5119C17.6744 13.573 19.0344 13.4167 19.948 13.0906C20.5456 12.8799 20.9097 12.6557 20.9097 12.4654V11.3103C19.0138 12.316 14.9199 12.316 13.0241 11.3103V12.0577C14.3704 12.0781 15.5725 12.6285 16.438 13.5119ZM12.5845 13.0906C12.5776 13.0906 12.5776 13.0906 12.5707 13.0906C10.6611 13.2808 9.17057 14.898 9.17057 16.8346C9.17057 18.9138 10.8741 20.6057 12.976 20.6057C15.0779 20.6057 16.7814 18.9206 16.7814 16.8346C16.7814 14.6058 14.8375 12.8663 12.5845 13.0906ZM26.7826 28.9839H24.7426C24.5777 28.9839 24.4403 28.9091 24.3442 28.8004L22.9566 27.2716C18.8009 29.6226 13.7041 29.7653 9.41785 27.6521C9.1637 27.523 9.06066 27.2172 9.20491 26.9522L10.8535 23.6702C10.9771 23.4188 11.2862 23.3169 11.5335 23.446C15.5862 25.4437 20.5044 24.3701 23.3481 20.8707C24.2068 19.8107 24.8456 18.5605 25.1822 17.2015C25.244 16.9365 25.5119 16.7734 25.7729 16.8278L29.4409 17.5344C29.7294 17.5888 29.9149 17.8742 29.8325 18.1732C29.3448 20.2388 28.3969 22.1278 27.1124 23.7382C26.185 24.9001 25.0723 25.9126 23.829 26.7415L24.9692 27.9782H26.7826C27.1673 26.6872 28.8227 26.2523 29.7981 27.2172C30.9384 28.3451 30.1278 30.2749 28.5205 30.2749C27.7031 30.2681 27.0024 29.7381 26.7826 28.9839ZM22.256 26.5037L21.521 25.6951C21.3355 25.4913 21.3493 25.1719 21.5553 24.9817C21.7683 24.7982 22.0843 24.8118 22.2766 25.0224L23.1421 25.9737C25.8553 24.2138 27.8542 21.5299 28.7197 18.4178L26.0477 17.9014C24.7082 22.386 20.5319 25.4505 15.8266 25.4505C14.3429 25.4505 12.8867 25.1447 11.5472 24.5604L10.3383 26.9658C14.1437 28.6713 18.5811 28.4946 22.256 26.5037ZM28.5136 29.2557C29.2143 29.2557 29.5646 28.4131 29.07 27.9239C28.5754 27.4346 27.7237 27.7812 27.7237 28.4743C27.7306 28.9091 28.0809 29.2557 28.5136 29.2557ZM2.30158 4.31155V7.03631L3.29072 7.91285C5.24151 4.48822 8.57983 1.95372 12.5364 1.0432C12.8111 0.982043 13.079 1.14512 13.1546 1.4373L14.0956 4.98425C14.1643 5.26284 13.9926 5.54143 13.6972 5.60258C11.5335 6.08502 9.63766 7.29452 8.29821 8.95247C5.00796 13.0226 5.63991 18.9614 9.71322 22.2705C9.92616 22.4472 9.9605 22.7529 9.79564 22.9704L7.50827 25.8922C7.32968 26.1164 7.00684 26.1504 6.78016 25.9737C1.63529 21.8628 -0.0201318 14.7757 2.81676 8.84375L1.48418 7.65464C1.3674 7.55952 1.29871 7.42362 1.29871 7.26054V4.31155C-0.00639395 3.93103 -0.446009 2.29346 0.529387 1.32858C1.66964 0.207423 3.62043 1.00243 3.62043 2.59244C3.59982 3.39424 3.05717 4.08732 2.30158 4.31155ZM4.06004 8.59914L5.18656 9.59799C5.39263 9.78145 5.41323 10.1076 5.2209 10.3115C5.03544 10.5221 4.7126 10.5357 4.49966 10.3522L3.58608 9.53684C1.20255 14.8505 2.62443 21.0542 7.00684 24.8526L8.676 22.719C4.49966 18.9954 3.97075 12.6897 7.49454 8.32734C8.8752 6.62182 10.7779 5.34438 12.9691 4.74642L12.2822 2.14397C8.74469 3.10206 5.78416 5.45989 4.06004 8.59914ZM1.78641 1.81102C1.08577 1.81102 0.735456 2.65359 1.23002 3.14282C1.72459 3.63206 2.57634 3.28552 2.57634 2.59244C2.57634 2.16436 2.22603 1.81102 1.78641 1.81102ZM27.4558 2.57205H25.6424L24.6533 3.65924C28.074 6.28887 30.2171 10.3726 30.2171 14.9048C30.2171 15.1834 29.9905 15.4144 29.7088 15.4144H25.9721C25.6905 15.4144 25.4569 15.1902 25.4569 14.9048C25.4569 9.63876 21.1432 5.37156 15.8197 5.37156C15.5381 5.37156 15.3114 5.14732 15.3114 4.86873V1.1723C15.3114 0.893709 15.5381 0.669477 15.8197 0.669477C18.7803 0.669477 21.5279 1.55282 23.8152 3.06808L25.0173 1.74987C25.1135 1.63435 25.2577 1.55961 25.4157 1.55961H27.4558C27.8405 0.268577 29.4959 -0.166297 30.4713 0.79858C31.6047 1.92654 30.7941 3.8495 29.1937 3.8495C28.3762 3.8495 27.6756 3.31949 27.4558 2.57205ZM23.9595 4.40668L22.9429 5.52104C22.7574 5.72489 22.4277 5.74528 22.2216 5.55502C22.0087 5.37156 21.995 5.05219 22.1804 4.84155L23.1146 3.81552C21.1501 2.54487 18.8215 1.77025 16.3212 1.68192V4.36591C21.8026 4.62412 26.1988 8.97286 26.4529 14.3884H29.1662C29.0288 10.3658 27.0437 6.75772 23.9595 4.40668ZM29.75 1.51205C29.2555 1.02281 28.4037 1.36935 28.4037 2.06243C28.4037 2.75551 29.2555 3.10206 29.75 2.61282C30.0523 2.31385 30.0523 1.81782 29.75 1.51205ZM19.948 9.38055C18.3201 8.80978 15.6205 8.80978 13.9926 9.38055C13.395 9.5912 13.0309 9.81543 13.0309 10.0057C13.0309 10.1959 13.4019 10.427 13.9926 10.6308C15.6205 11.2016 18.3201 11.2016 19.948 10.6308C20.5456 10.4202 20.9097 10.1959 20.9097 10.0057C20.9165 9.80863 20.5456 9.5844 19.948 9.38055Z" fill="#4A4A4A"/>
</svg>
