<svg width="30" height="35" viewBox="0 0 30 35" fill="none" xmlns="http://www.w3.org/2000/svg">
<path d="M15.3608 32.2907C15.3608 32.5869 15.118 32.8273 14.8186 32.8273H1.98786C0.891594 32.8273 0 31.9448 0 30.8598V5.10407C0 4.01906 0.891594 3.13662 1.98786 3.13662H2.16855V2.24235C2.16855 1.15734 3.06015 0.274902 4.15641 0.274902H22.2279C23.3241 0.274902 24.2157 1.15734 24.2157 2.24235V17.3881C24.2157 17.6843 23.9729 17.9247 23.6736 17.9247C23.3742 17.9247 23.1314 17.6844 23.1314 17.3881V2.24235C23.1314 1.74911 22.7262 1.34808 22.2279 1.34808H4.15641C3.65805 1.34808 3.25286 1.74911 3.25286 2.24235V3.13662H19.3365C20.4327 3.13662 21.3243 4.01906 21.3243 5.10407V17.388C21.3243 17.6842 21.0815 17.9246 20.7822 17.9246C20.4828 17.9246 20.24 17.6843 20.24 17.388V5.10407C20.24 4.61083 19.8348 4.2098 19.3365 4.2098H1.98786C1.4895 4.2098 1.08431 4.61083 1.08431 5.10407V30.8598C1.08431 31.3531 1.4895 31.7541 1.98786 31.7541H14.8186C15.1179 31.7541 15.3608 31.9944 15.3608 32.2907ZM11.2043 18.5255V21.0296H14.3195C14.6187 21.0296 14.8616 21.2699 14.8616 21.5662C14.8616 21.8624 14.6188 22.1028 14.3195 22.1028H11.2043V24.6068H12.9465C13.2457 24.6068 13.4886 24.8471 13.4886 25.1434C13.4886 25.4397 13.2458 25.68 12.9465 25.68H11.2043V28.184H13.0834C13.3827 28.184 13.6256 28.4243 13.6256 28.7206C13.6256 29.0169 13.3828 29.2572 13.0834 29.2572H3.43356C3.13428 29.2572 2.8914 29.0169 2.8914 28.7206V14.4119C2.8914 14.1157 3.13421 13.8753 3.43356 13.8753H17.8907C18.19 13.8753 18.4329 14.1156 18.4329 14.4119V18.3328C18.4329 18.629 18.1901 18.8694 17.8907 18.8694C17.6605 18.8694 17.4666 18.7261 17.3879 18.5257L11.2043 18.5255ZM17.3486 14.9483H11.2044V17.4524H17.3486V14.9483ZM3.97571 14.9483V17.4524H10.12V14.9483H3.97571ZM10.12 25.6799H3.97578V28.1839H10.12V25.6799ZM10.12 22.1027H3.97578V24.6067H10.12V22.1027ZM10.12 18.5255H3.97578V21.0296H10.12V18.5255ZM29.9986 26.5839C29.9986 30.8249 26.5128 34.2749 22.2279 34.2749C17.943 34.2749 14.4572 30.8249 14.4572 26.5839C14.4572 22.343 17.943 18.893 22.2279 18.893C26.5128 18.893 29.9986 22.343 29.9986 26.5839ZM28.9143 26.5839C28.9143 22.9348 25.9148 19.9662 22.2279 19.9662C18.5409 19.9662 15.5415 22.9348 15.5415 26.5839C15.5415 30.2331 18.5409 33.2017 22.2279 33.2017C25.9148 33.2017 28.9143 30.2331 28.9143 26.5839ZM14.2765 8.50939C14.5757 8.50939 14.8186 8.26907 14.8186 7.9728C14.8186 7.67653 14.5758 7.43621 14.2765 7.43621H6.32503C6.02576 7.43621 5.78288 7.67653 5.78288 7.9728C5.78288 8.26907 6.02569 8.50939 6.32503 8.50939H14.2765ZM3.61432 10.8346C3.61432 11.1308 3.85713 11.3712 4.15648 11.3712H16.4451C16.7444 11.3712 16.9872 11.1309 16.9872 10.8346C16.9872 10.5383 16.7444 10.298 16.4451 10.298H4.15641C3.85713 10.298 3.61432 10.5383 3.61432 10.8346Z" fill="#4A4A4A"/>
<path d="M21.5041 28.8063C21.3474 28.8063 21.2208 28.681 21.2208 28.526C21.2208 28.1592 21.2733 27.8425 21.3779 27.5761C21.4547 27.3753 21.5792 27.173 21.7505 26.9686C21.8767 26.8198 22.1027 26.6024 22.4296 26.3173C22.7565 26.0318 22.9688 25.8045 23.0671 25.6349C23.1654 25.4653 23.2137 25.2801 23.2137 25.0793C23.2137 24.7158 23.0702 24.3969 22.7838 24.1217C22.4974 23.8466 22.1458 23.7092 21.7295 23.7092C21.3275 23.7092 20.9916 23.8341 20.7225 24.0832C20.526 24.2653 20.3783 24.5222 20.2806 24.8541C20.2133 25.0819 19.9889 25.2276 19.7508 25.1995C19.4491 25.1641 19.2505 24.8687 19.3366 24.58C19.4691 24.1363 19.6909 23.7789 20.0015 23.5074C20.433 23.1292 21.0037 22.9404 21.7138 22.9404C22.4653 22.9404 23.065 23.1428 23.5127 23.548C23.9605 23.9532 24.1839 24.4427 24.1839 25.0169C24.1839 25.3493 24.1051 25.6557 23.9479 25.9355C23.7908 26.2159 23.4828 26.5566 23.025 26.9582C22.7176 27.2281 22.5163 27.4274 22.4217 27.5553C22.3271 27.6833 22.2572 27.8305 22.212 27.9964C22.1783 28.1197 22.1552 28.3007 22.1426 28.5384C22.1347 28.6882 22.0091 28.8058 21.8578 28.8058H21.5041V28.8063ZM21.1682 30.1483C21.1682 29.8545 21.4089 29.6162 21.7059 29.6162C22.0028 29.6162 22.2435 29.8545 22.2435 30.1483C22.2435 30.4422 22.0028 30.6805 21.7059 30.6805C21.4089 30.6805 21.1682 30.4422 21.1682 30.1483Z" fill="#4A4A4A"/>
</svg>
