<svg width="45" height="45" viewBox="0 0 45 45" fill="none" xmlns="http://www.w3.org/2000/svg">
<path fill-rule="evenodd" clip-rule="evenodd" d="M9.24447 12.7542H10.7512C10.8507 12.7542 10.9414 12.7153 11.0073 12.6526C11.0733 12.5899 11.1143 12.5037 11.1143 12.4093V10.602L9.24447 12.7542ZM22.1914 30.494H23.7742V25.1363H22.1914V30.494ZM17.6992 30.494H19.2819V23.8396H17.6992V30.494ZM13.2069 30.494H14.7897V26.4524H13.2069V30.494ZM25.74 30.494C25.9605 30.494 26.1393 30.6638 26.1393 30.8733C26.1393 31.0828 25.9605 31.2526 25.74 31.2526H11.2411C11.0206 31.2526 10.8419 31.0828 10.8419 30.8733C10.8419 30.6638 11.0206 30.494 11.2411 30.494H12.4084V26.0731C12.4084 25.8637 12.5872 25.6938 12.8077 25.6938H15.189C15.4095 25.6938 15.5882 25.8637 15.5882 26.0731V30.494H16.9006V23.4603C16.9006 23.2509 17.0794 23.081 17.2999 23.081H19.6812C19.9017 23.081 20.0805 23.2509 20.0805 23.4603V30.494H21.3929V24.757C21.3929 24.5475 21.5717 24.3777 21.7922 24.3777H24.1735C24.394 24.3777 24.5727 24.5475 24.5727 24.757V30.494H25.74ZM14.335 22.7135C14.2488 22.6317 14.1298 22.5811 13.9983 22.5811C13.8668 22.5811 13.7478 22.6317 13.6616 22.7135C13.5755 22.7953 13.5222 22.9084 13.5222 23.0333C13.5222 23.1582 13.5756 23.2713 13.6616 23.3531C13.7478 23.4349 13.8668 23.4856 13.9983 23.4856C14.1297 23.4856 14.2488 23.4349 14.335 23.3532C14.4211 23.2714 14.4743 23.1582 14.4743 23.0333C14.4743 22.9084 14.421 22.7953 14.335 22.7135ZM18.8272 19.3199C18.7411 19.2381 18.6221 19.1875 18.4905 19.1875C18.359 19.1875 18.24 19.2382 18.1539 19.3199C18.0678 19.4017 18.0145 19.5148 18.0145 19.6397C18.0145 19.7647 18.0679 19.8778 18.1539 19.9595C18.24 20.0413 18.359 20.0919 18.4905 20.0919C18.6221 20.0919 18.7411 20.0413 18.8272 19.9595C18.9134 19.8777 18.9666 19.7647 18.9666 19.6397C18.9666 19.5148 18.9133 19.4017 18.8272 19.3199ZM23.3195 21.8819C23.2333 21.8001 23.1143 21.7495 22.9828 21.7495C22.8513 21.7495 22.7323 21.8002 22.6461 21.8819C22.56 21.9637 22.5068 22.0769 22.5068 22.2018C22.5068 22.3267 22.5601 22.4398 22.6461 22.5216C22.7323 22.6034 22.8513 22.654 22.9828 22.654C23.1143 22.654 23.2333 22.6034 23.3195 22.5216C23.4056 22.4398 23.4588 22.3267 23.4588 22.2018C23.4588 22.0769 23.4055 21.9638 23.3195 21.8819ZM27.1671 13.4914C28.1146 12.8533 29.3175 12.5583 30.551 12.7578C31.7865 12.9577 32.8194 13.614 33.4907 14.5135C34.1624 15.4135 34.4728 16.5561 34.263 17.7278V17.7283C34.0525 18.9019 33.3617 19.8832 32.4149 20.521C31.4675 21.159 30.2648 21.454 29.0314 21.2546H29.0309C27.7954 21.0547 26.7625 20.3984 26.0912 19.4989C25.4195 18.5988 25.109 17.456 25.319 16.2841C25.5294 15.1104 26.2202 14.1291 27.1671 13.4914ZM30.4201 13.5046C29.401 13.3397 28.4089 13.5823 27.6288 14.1078C26.8479 14.6337 26.2783 15.4422 26.1051 16.4086C25.9316 17.3767 26.1869 18.3193 26.74 19.0604C27.2896 19.7968 28.1325 20.3354 29.1401 20.5042C29.1562 20.5058 29.1719 20.5084 29.1873 20.5118C30.1974 20.6686 31.1796 20.4257 31.9532 19.9047C32.7284 19.3825 33.2954 18.5818 33.473 17.6246C33.4748 17.6093 33.4774 17.5943 33.481 17.5797C33.6461 16.6201 33.3904 15.6871 32.8419 14.952C32.2883 14.2102 31.4373 13.6691 30.4201 13.5046ZM34.1841 23.5968L33.286 24.09C33.2516 24.1089 33.2203 24.1299 33.1923 24.1527C33.1619 24.1772 33.1349 24.2036 33.1113 24.2311L33.111 24.2315C33.0295 24.3269 32.9811 24.445 32.9706 24.5679C32.9606 24.687 32.9863 24.809 33.0525 24.9177L35.1155 28.3083C35.2029 28.4521 35.345 28.549 35.5035 28.5893C35.662 28.6295 35.8359 28.6131 35.9868 28.5302L36.885 28.0371C37.0363 27.954 37.1383 27.819 37.1807 27.6684C37.223 27.5179 37.2057 27.3526 37.1185 27.2092L35.0554 23.8186C34.9875 23.7071 34.8871 23.6238 34.7719 23.5733C34.6517 23.5207 34.5165 23.5032 34.3858 23.5257L34.3775 23.5273C34.3487 23.5327 34.3168 23.5415 34.282 23.5537C34.2474 23.5657 34.2146 23.5802 34.1841 23.5969L34.1841 23.5968ZM30.5883 22.952V35.1715C30.5883 35.2659 30.5473 35.3521 30.4813 35.4147C30.4154 35.4774 30.3247 35.5163 30.2252 35.5163H11.5671C11.4677 35.5163 11.377 35.4774 11.3111 35.4147C11.2451 35.352 11.2041 35.2659 11.2041 35.1715V34.289H27.8196C28.1395 34.289 28.43 34.165 28.6403 33.9652C28.8506 33.7654 28.9812 33.4894 28.9812 33.1856V22.9494C29.5109 23.0148 30.051 23.0169 30.5883 22.952ZM23.6972 15.4583C23.2803 16.9394 23.4584 18.5721 24.3304 20.0052L24.3429 20.026L24.3431 20.0258C24.4084 20.1321 24.4766 20.2356 24.5475 20.3366L23.6131 21.1491C23.4272 21.0484 23.2121 20.9909 22.9829 20.9909C22.6643 20.9909 22.3731 21.102 22.1496 21.2856L19.7338 19.9078C19.7544 19.8216 19.7652 19.7319 19.7652 19.6397C19.7652 19.3054 19.6225 19.0027 19.3919 18.7836C19.1612 18.5645 18.8426 18.4289 18.4906 18.4289C18.1387 18.4289 17.82 18.5645 17.5894 18.7836C17.3588 19.0027 17.2161 19.3054 17.2161 19.6397C17.2161 19.7873 17.2439 19.9287 17.2948 20.0595L14.698 22.0211C14.4971 21.8956 14.2568 21.8225 13.9984 21.8225C13.6465 21.8225 13.3278 21.9581 13.0972 22.1772C13.0905 22.1835 13.0839 22.1899 13.0774 22.1964L11.4199 21.4458C11.2209 21.3558 10.9828 21.4361 10.8881 21.6251C10.7933 21.8141 10.8778 22.0403 11.0768 22.1303L12.7339 22.8807C12.7272 22.9307 12.7238 22.9817 12.7238 23.0334C12.7238 23.3677 12.8665 23.6704 13.0971 23.8895C13.3277 24.1087 13.6464 24.2442 13.9983 24.2442C14.3503 24.2442 14.6689 24.1087 14.8996 23.8896C15.1302 23.6704 15.2729 23.3677 15.2729 23.0334C15.2729 22.8858 15.245 22.7444 15.1942 22.6136L17.7909 20.6519C17.9918 20.7775 18.2322 20.8506 18.4906 20.8506C18.8091 20.8506 19.1004 20.7395 19.3238 20.556L21.7396 21.9337C21.7191 22.0199 21.7082 22.1097 21.7082 22.2017C21.7082 22.5361 21.8509 22.8388 22.0816 23.0579C22.3123 23.277 22.6309 23.4125 22.9828 23.4125C23.3348 23.4125 23.6534 23.277 23.884 23.0579C24.1147 22.8387 24.2574 22.536 24.2574 22.2017C24.2574 22.0261 24.2179 21.8591 24.147 21.7083L25.0312 20.9395C25.872 21.8601 26.9704 22.4927 28.1615 22.7953L28.1826 22.8006V33.1856C28.1826 33.28 28.1416 33.3661 28.0756 33.4288C28.0097 33.4914 27.919 33.5304 27.8196 33.5304H9.16153C9.06209 33.5304 8.9714 33.4915 8.90546 33.4288C8.83952 33.3661 8.79852 33.28 8.79852 33.1856V13.5128H10.7513C11.0712 13.5128 11.3616 13.3887 11.572 13.1889C11.7823 12.9891 11.9128 12.7132 11.9128 12.4093V10.0334H27.8197C27.9191 10.0334 28.0098 10.0723 28.0757 10.135C28.1417 10.1977 28.1826 10.2838 28.1826 10.3783V11.2106C27.6525 11.3437 27.1319 11.5453 26.6342 11.8186C25.1261 12.6468 24.1142 13.977 23.6972 15.4582V15.4583ZM27.0334 12.4734C25.7161 13.1968 24.832 14.3593 24.4676 15.6539C24.1036 16.9471 24.2581 18.3717 25.0173 19.6219L25.0197 19.6259C25.7811 20.8774 27.0047 21.7173 28.3675 22.0635C28.4594 22.0868 28.552 22.1079 28.6452 22.1267C28.6583 22.1287 28.6712 22.1313 28.6838 22.1344C29.4017 22.2746 30.1504 22.2798 30.8845 22.1387C30.899 22.1351 30.9139 22.1322 30.929 22.13C31.4828 22.019 32.0278 21.8244 32.5445 21.5413L32.5487 21.539C33.8661 20.8156 34.7502 19.6531 35.1145 18.3586C35.479 17.064 35.3237 15.6377 34.5625 14.3865C33.801 13.1351 32.5774 12.2952 31.2146 11.949C30.3983 11.7416 29.5322 11.7115 28.6857 11.8761C28.6709 11.8799 28.6558 11.8828 28.6404 11.885C28.0894 11.9967 27.5474 12.1912 27.0334 12.4734ZM32.3357 23.9821L31.5359 22.7659C31.4863 22.7795 31.4366 22.7925 31.3868 22.8049V35.1715C31.3868 35.4753 31.2562 35.7513 31.0459 35.9511C30.8356 36.1509 30.5451 36.2749 30.2252 36.2749H11.5671C11.2473 36.2749 10.9568 36.1509 10.7465 35.9511C10.5362 35.7513 10.4056 35.4753 10.4056 35.1715V34.289H9.16153C8.84171 34.289 8.5512 34.165 8.34088 33.9652C8.13057 33.7654 8 33.4894 8 33.1856V13.1335L8.00013 13.1238V13.1237V13.1233L8.0005 13.1141V13.1139L8.00113 13.1046V13.1043C8.00169 13.0981 8.00231 13.0919 8.00313 13.0858V13.0852C8.00869 13.0441 8.02113 13.0051 8.03931 12.9692L8.03944 12.9689C8.045 12.9579 8.05113 12.9472 8.05781 12.9369C8.0695 12.9186 8.08269 12.9014 8.09731 12.8853C8.11194 12.8693 8.09806 12.8845 8.09806 12.8845C8.102 12.8802 8.10606 12.8759 8.11019 12.8719C8.11432 12.8678 8.11082 12.8713 8.11082 12.8713L8.11407 12.8681L11.1148 9.4142C11.1933 9.32341 11.3072 9.27639 11.422 9.27633V9.2749H27.8196C28.1395 9.2749 28.43 9.399 28.6402 9.59874C28.8506 9.7986 28.9811 10.0746 28.9811 10.3784V11.0622C29.8031 10.9613 30.6322 11.0169 31.4205 11.2172C32.9797 11.6133 34.38 12.5746 35.2517 14.0074C36.1236 15.4405 36.3018 17.0732 35.8848 18.5543C35.5572 19.7182 34.8621 20.7888 33.8477 21.5958L34.5475 22.7608C34.7408 22.7667 34.9309 22.8094 35.1055 22.8859C35.365 22.9996 35.5914 23.1875 35.7447 23.4394L37.8077 26.83C38.0057 27.1553 38.0458 27.5271 37.951 27.864C37.8561 28.201 37.6262 28.504 37.2842 28.6919L36.386 29.1851C36.0436 29.3731 35.6522 29.4113 35.2976 29.3212C34.9429 29.2311 34.6238 29.0127 34.4261 28.6877L32.3631 25.2971C32.212 25.0487 32.1527 24.774 32.1752 24.5087C32.1907 24.3255 32.2453 24.146 32.3356 23.9821L32.3357 23.9821ZM32.303 22.5032C32.5214 22.4128 32.7367 22.3098 32.9479 22.1939L32.9697 22.182L32.9696 22.1818C33.0484 22.1381 33.1258 22.093 33.2019 22.0466L33.7509 22.9606L32.9082 23.4233L32.303 22.5032ZM14.079 15.8884H18.3407C18.5612 15.8884 18.74 15.7186 18.74 15.5091C18.74 15.2996 18.5612 15.1298 18.3407 15.1298H14.079C13.8585 15.1298 13.6798 15.2996 13.6798 15.5091C13.6798 15.7186 13.8585 15.8884 14.079 15.8884ZM14.079 14.142H17.591C17.8115 14.142 17.9902 13.9721 17.9902 13.7627C17.9902 13.5532 17.8115 13.3834 17.591 13.3834H14.079C13.8585 13.3834 13.6798 13.5532 13.6798 13.7627C13.6798 13.9721 13.8585 14.142 14.079 14.142ZM27.6869 17.3778L29.2032 18.5106C29.3764 18.6398 29.627 18.6113 29.7631 18.4469L29.7657 18.4437L31.9497 16.0472C32.0935 15.8893 32.0754 15.6504 31.9091 15.5138C31.7428 15.3772 31.4915 15.3944 31.3476 15.5523L29.3977 17.6921L28.1797 16.7822C28.0066 16.6529 27.7559 16.6814 27.6198 16.8459C27.4837 17.0104 27.5138 17.2485 27.6869 17.3778Z" fill="#4A4A4A"/>
</svg>
