<svg width="30" height="28" viewBox="0 0 30 28" fill="none" xmlns="http://www.w3.org/2000/svg">
<path fill-rule="evenodd" clip-rule="evenodd" d="M1.24447 3.75417H2.75125C2.85069 3.75417 2.94138 3.71528 3.00732 3.65257C3.07326 3.58993 3.11426 3.50372 3.11426 3.40931V1.60196L1.24447 3.75417ZM14.1914 21.494H15.7742V16.1363H14.1914V21.494ZM9.69915 21.494H11.2819V14.8396H9.69915V21.494ZM5.20693 21.494H6.78971V17.4524H5.20693V21.494ZM17.74 21.494C17.9605 21.494 18.1393 21.6638 18.1393 21.8733C18.1393 22.0828 17.9605 22.2526 17.74 22.2526H3.24114C3.02063 22.2526 2.84188 22.0828 2.84188 21.8733C2.84188 21.6638 3.02063 21.494 3.24114 21.494H4.40841V17.0731C4.40841 16.8637 4.58717 16.6938 4.80767 16.6938H7.18897C7.40948 16.6938 7.58823 16.8637 7.58823 17.0731V21.494H8.90064V14.4603C8.90064 14.2509 9.07939 14.081 9.2999 14.081H11.6812C11.9017 14.081 12.0805 14.2509 12.0805 14.4603V21.494H13.3929V15.757C13.3929 15.5475 13.5717 15.3777 13.7922 15.3777H16.1735C16.394 15.3777 16.5727 15.5475 16.5727 15.757V21.494H17.74ZM6.33495 13.7135C6.24883 13.6317 6.12976 13.5811 5.99826 13.5811C5.86676 13.5811 5.74775 13.6317 5.66163 13.7135C5.5755 13.7953 5.52225 13.9084 5.52225 14.0333C5.52225 14.1582 5.57556 14.2713 5.66163 14.3531C5.74775 14.4349 5.86682 14.4856 5.99826 14.4856C6.1297 14.4856 6.24883 14.4349 6.33495 14.3532C6.42108 14.2714 6.47433 14.1582 6.47433 14.0333C6.47433 13.9084 6.42102 13.7953 6.33495 13.7135ZM10.8272 10.3199C10.7411 10.2381 10.6221 10.1875 10.4905 10.1875C10.359 10.1875 10.24 10.2382 10.1539 10.3199C10.0678 10.4017 10.0145 10.5148 10.0145 10.6397C10.0145 10.7647 10.0679 10.8778 10.1539 10.9595C10.24 11.0413 10.359 11.0919 10.4905 11.0919C10.6221 11.0919 10.7411 11.0413 10.8272 10.9595C10.9134 10.8777 10.9666 10.7647 10.9666 10.6397C10.9666 10.5148 10.9133 10.4017 10.8272 10.3199ZM15.3195 12.8819C15.2333 12.8001 15.1143 12.7495 14.9828 12.7495C14.8513 12.7495 14.7323 12.8002 14.6461 12.8819C14.56 12.9637 14.5068 13.0769 14.5068 13.2018C14.5068 13.3267 14.5601 13.4398 14.6461 13.5216C14.7323 13.6034 14.8513 13.654 14.9828 13.654C15.1143 13.654 15.2333 13.6034 15.3195 13.5216C15.4056 13.4398 15.4588 13.3267 15.4588 13.2018C15.4588 13.0769 15.4055 12.9638 15.3195 12.8819ZM19.1671 4.49144C20.1146 3.85327 21.3175 3.55828 22.551 3.75785C23.7865 3.95771 24.8194 4.61399 25.4907 5.51348C26.1624 6.41351 26.4728 7.55608 26.263 8.72781V8.72829C26.0525 9.90192 25.3617 10.8832 24.4149 11.521C23.4675 12.159 22.2648 12.454 21.0314 12.2546H21.0309C19.7954 12.0547 18.7625 11.3984 18.0912 10.4989C17.4195 9.5988 17.109 8.45605 17.319 7.28414C17.5294 6.11045 18.2202 5.12914 19.1671 4.49144ZM22.4201 4.50456C21.401 4.33973 20.4089 4.58229 19.6288 5.10776C18.8479 5.63366 18.2783 6.44218 18.1051 7.40859C17.9316 8.37672 18.1869 9.31926 18.74 10.0604C19.2896 10.7968 20.1325 11.3354 21.1401 11.5042C21.1562 11.5058 21.1719 11.5084 21.1873 11.5118C22.1974 11.6686 23.1796 11.4257 23.9532 10.9047C24.7284 10.3825 25.2954 9.58176 25.473 8.62456C25.4748 8.6093 25.4774 8.59433 25.481 8.57973C25.6461 7.62009 25.3904 6.68705 24.8419 5.95203C24.2883 5.21025 23.4373 4.66909 22.4201 4.50456ZM26.1841 14.5968L25.286 15.09C25.2516 15.1089 25.2203 15.1299 25.1923 15.1527C25.1619 15.1772 25.1349 15.2036 25.1113 15.2311L25.111 15.2315C25.0295 15.3269 24.9811 15.445 24.9706 15.5679C24.9606 15.687 24.9863 15.809 25.0525 15.9177L27.1155 19.3083C27.2029 19.4521 27.345 19.549 27.5035 19.5893C27.662 19.6295 27.8359 19.6131 27.9868 19.5302L28.885 19.0371C29.0363 18.954 29.1383 18.819 29.1807 18.6684C29.223 18.5179 29.2057 18.3526 29.1185 18.2092L27.0554 14.8186C26.9875 14.7071 26.8871 14.6238 26.7719 14.5733C26.6517 14.5207 26.5165 14.5032 26.3858 14.5257L26.3775 14.5273C26.3487 14.5327 26.3168 14.5415 26.282 14.5537C26.2474 14.5657 26.2146 14.5802 26.1841 14.5969L26.1841 14.5968ZM22.5883 13.952V26.1715C22.5883 26.2659 22.5473 26.3521 22.4813 26.4147C22.4154 26.4774 22.3247 26.5163 22.2252 26.5163H3.56714C3.4677 26.5163 3.37701 26.4774 3.31107 26.4147C3.24514 26.352 3.20413 26.2659 3.20413 26.1715V25.289H19.8196C20.1395 25.289 20.43 25.165 20.6403 24.9652C20.8506 24.7654 20.9812 24.4894 20.9812 24.1856V13.9494C21.5109 14.0148 22.051 14.0169 22.5883 13.952ZM15.6972 6.45828C15.2803 7.93941 15.4584 9.57214 16.3304 11.0052L16.3429 11.026L16.3431 11.0258C16.4084 11.1321 16.4766 11.2356 16.5475 11.3366L15.6131 12.1491C15.4272 12.0484 15.2121 11.9909 14.9829 11.9909C14.6643 11.9909 14.3731 12.102 14.1496 12.2856L11.7338 10.9078C11.7544 10.8216 11.7652 10.7319 11.7652 10.6397C11.7652 10.3054 11.6225 10.0027 11.3919 9.78358C11.1612 9.56448 10.8426 9.42892 10.4906 9.42892C10.1387 9.42892 9.82003 9.56448 9.5894 9.78358C9.35877 10.0027 9.21608 10.3054 9.21608 10.6397C9.21608 10.7873 9.24389 10.9287 9.29477 11.0595L6.69803 13.0211C6.49715 12.8956 6.25677 12.8225 5.99838 12.8225C5.6465 12.8225 5.32781 12.9581 5.09718 13.1772C5.09049 13.1835 5.08393 13.1899 5.07743 13.1964L3.41989 12.4458C3.22095 12.3558 2.98282 12.4361 2.88806 12.6251C2.79331 12.8141 2.87781 13.0403 3.07676 13.1303L4.73386 13.8807C4.72723 13.9307 4.72379 13.9817 4.72379 14.0334C4.72379 14.3677 4.86648 14.6704 5.09711 14.8895C5.32774 15.1087 5.64638 15.2442 5.99832 15.2442C6.35027 15.2442 6.6689 15.1087 6.89959 14.8896C7.13022 14.6704 7.27291 14.3677 7.27291 14.0334C7.27291 13.8858 7.24504 13.7444 7.19416 13.6136L9.79091 11.6519C9.99179 11.7775 10.2322 11.8506 10.4906 11.8506C10.8091 11.8506 11.1004 11.7395 11.3238 11.556L13.7396 12.9337C13.7191 13.0199 13.7082 13.1097 13.7082 13.2017C13.7082 13.5361 13.8509 13.8388 14.0816 14.0579C14.3123 14.277 14.6309 14.4125 14.9828 14.4125C15.3348 14.4125 15.6534 14.277 15.884 14.0579C16.1147 13.8387 16.2574 13.536 16.2574 13.2017C16.2574 13.0261 16.2179 12.8591 16.147 12.7083L17.0312 11.9395C17.872 12.8601 18.9704 13.4927 20.1615 13.7953L20.1826 13.8006V24.1856C20.1826 24.28 20.1416 24.3661 20.0756 24.4288C20.0097 24.4914 19.919 24.5304 19.8196 24.5304H1.16153C1.06209 24.5304 0.971397 24.4915 0.905458 24.4288C0.839519 24.3661 0.798518 24.28 0.798518 24.1856V4.51276H2.75131C3.07119 4.51276 3.36164 4.38872 3.57196 4.18892C3.78227 3.98912 3.91284 3.7132 3.91284 3.40931V1.03337H19.8197C19.9191 1.03337 20.0098 1.07232 20.0757 1.13497C20.1417 1.19767 20.1826 1.28382 20.1826 1.37829V2.21062C19.6525 2.34375 19.1319 2.54533 18.6342 2.81858C17.1261 3.64676 16.1142 4.97702 15.6972 6.45822V6.45828ZM19.0334 3.47344C17.7161 4.19682 16.832 5.35928 16.4676 6.65386C16.1036 7.94707 16.2581 9.37175 17.0173 10.6219L17.0197 10.6259C17.7811 11.8774 19.0047 12.7173 20.3675 13.0635C20.4594 13.0868 20.552 13.1079 20.6452 13.1267C20.6583 13.1287 20.6712 13.1313 20.6838 13.1344C21.4017 13.2746 22.1504 13.2798 22.8845 13.1387C22.899 13.1351 22.9139 13.1322 22.929 13.13C23.4828 13.019 24.0278 12.8244 24.5445 12.5413L24.5487 12.539C25.8661 11.8156 26.7502 10.6531 27.1145 9.35862C27.479 8.06399 27.3237 6.63765 26.5625 5.38654C25.801 4.13506 24.5774 3.29519 23.2146 2.94903C22.3983 2.74163 21.5322 2.71146 20.6857 2.87605C20.6709 2.87985 20.6558 2.88282 20.6404 2.88496C20.0894 2.99671 19.5474 3.19122 19.0334 3.47344ZM24.3357 14.9821L23.5359 13.7659C23.4863 13.7795 23.4366 13.7925 23.3868 13.8049V26.1715C23.3868 26.4753 23.2562 26.7513 23.0459 26.9511C22.8356 27.1509 22.5451 27.2749 22.2252 27.2749H3.56714C3.24732 27.2749 2.95682 27.1509 2.7465 26.9511C2.53618 26.7513 2.40562 26.4753 2.40562 26.1715V25.289H1.16153C0.841706 25.289 0.5512 25.165 0.340883 24.9652C0.130565 24.7654 0 24.4894 0 24.1856V4.13346L0.000125053 4.12384V4.12372V4.12331L0.000500094 4.1141V4.11393L0.00112512 4.1046V4.10431C0.00168764 4.09807 0.00231262 4.0919 0.00312514 4.08578V4.08519C0.00868777 4.0441 0.0211256 4.00509 0.0393135 3.96923L0.0394384 3.96893C0.045001 3.95795 0.0511262 3.9472 0.0578139 3.93687C0.0695016 3.91858 0.0826894 3.90136 0.0973148 3.88533C0.11194 3.8693 0.0980647 3.8845 0.0980647 3.8845C0.102002 3.88022 0.106065 3.87595 0.11019 3.87185C0.114315 3.86775 0.110815 3.87126 0.110815 3.87126L0.114065 3.86805L3.11476 0.414199C3.19332 0.323413 3.3072 0.276387 3.42201 0.276327V0.274902H19.8196C20.1395 0.274902 20.43 0.398999 20.6402 0.59874C20.8506 0.7986 20.9811 1.07464 20.9811 1.37841V2.06218C21.8031 1.9613 22.6322 2.01694 23.4205 2.21721C24.9797 2.61325 26.38 3.57461 27.2517 5.00736C28.1236 6.44046 28.3018 8.07319 27.8848 9.55433C27.5572 10.7182 26.8621 11.7888 25.8477 12.5958L26.5475 13.7608C26.7408 13.7667 26.9309 13.8094 27.1055 13.8859C27.365 13.9996 27.5914 14.1875 27.7447 14.4394L29.8077 17.83C30.0057 18.1553 30.0458 18.5271 29.951 18.864C29.8561 19.201 29.6262 19.504 29.2842 19.6919L28.386 20.1851C28.0436 20.3731 27.6522 20.4113 27.2976 20.3212C26.9429 20.2311 26.6238 20.0127 26.4261 19.6877L24.3631 16.2971C24.212 16.0487 24.1527 15.774 24.1752 15.5087C24.1907 15.3255 24.2453 15.146 24.3356 14.9821L24.3357 14.9821ZM24.303 13.5032C24.5214 13.4128 24.7367 13.3098 24.9479 13.1939L24.9697 13.182L24.9696 13.1818C25.0484 13.1381 25.1258 13.093 25.2019 13.0466L25.7509 13.9606L24.9082 14.4233L24.303 13.5032ZM6.07901 6.8884H10.3407C10.5612 6.8884 10.74 6.71858 10.74 6.5091C10.74 6.29962 10.5612 6.12981 10.3407 6.12981H6.07901C5.85851 6.12981 5.67975 6.29962 5.67975 6.5091C5.67975 6.71858 5.85851 6.8884 6.07901 6.8884ZM6.07901 5.14197H9.59096C9.81147 5.14197 9.99022 4.97215 9.99022 4.76267C9.99022 4.55319 9.81147 4.38338 9.59096 4.38338H6.07901C5.85851 4.38338 5.67975 4.55319 5.67975 4.76267C5.67975 4.97215 5.85851 5.14197 6.07901 5.14197ZM19.6869 8.37779L21.2032 9.51057C21.3764 9.63983 21.627 9.61133 21.7631 9.44686L21.7657 9.44371L23.9497 7.04717C24.0935 6.88929 24.0754 6.65042 23.9091 6.51379C23.7428 6.37717 23.4915 6.39439 23.3476 6.55233L21.3977 8.69207L20.1797 7.78219C20.0066 7.65292 19.7559 7.68142 19.6198 7.8459C19.4837 8.01037 19.5138 8.24853 19.6869 8.37779Z" fill="#4A4A4A"/>
</svg>
